<svg xmlns="http://www.w3.org/2000/svg" xmlns:xlink="http://www.w3.org/1999/xlink" width="500" zoomAndPan="magnify" viewBox="0 0 375 374.999991" height="500" preserveAspectRatio="xMidYMid meet" version="1.0"><defs><g/><clipPath id="e9e52a0235"><path d="M 0.5 0.976562 L 294.5 0.976562 L 294.5 294.976562 L 0.5 294.976562 Z M 0.5 0.976562 " clip-rule="nonzero"/></clipPath><clipPath id="3bb79d61b3"><path d="M 147.5 0.976562 C 66.3125 0.976562 0.5 66.789062 0.5 147.976562 C 0.5 229.160156 66.3125 294.976562 147.5 294.976562 C 228.6875 294.976562 294.5 229.160156 294.5 147.976562 C 294.5 66.789062 228.6875 0.976562 147.5 0.976562 Z M 147.5 0.976562 " clip-rule="nonzero"/></clipPath><clipPath id="aa47deca86"><path d="M 0.5 0.976562 L 294.5 0.976562 L 294.5 294.976562 L 0.5 294.976562 Z M 0.5 0.976562 " clip-rule="nonzero"/></clipPath><clipPath id="5aa4b3fa2f"><path d="M 147.5 0.976562 C 66.3125 0.976562 0.5 66.789062 0.5 147.976562 C 0.5 229.160156 66.3125 294.976562 147.5 294.976562 C 228.6875 294.976562 294.5 229.160156 294.5 147.976562 C 294.5 66.789062 228.6875 0.976562 147.5 0.976562 Z M 147.5 0.976562 " clip-rule="nonzero"/></clipPath><clipPath id="d07f3d895d"><rect x="0" width="295" y="0" height="295"/></clipPath><clipPath id="39c390e75a"><path d="M 45.128906 35.480469 L 249.789062 35.480469 L 249.789062 260.246094 L 45.128906 260.246094 Z M 45.128906 35.480469 " clip-rule="nonzero"/></clipPath><clipPath id="08f959c146"><rect x="0" width="295" y="0" height="296"/></clipPath><clipPath id="b7a797dab1"><rect x="0" width="148" y="0" height="45"/></clipPath></defs><g transform="matrix(1, 0, 0, 1, 40, 6)"><g clip-path="url(#08f959c146)"><g clip-path="url(#e9e52a0235)"><g clip-path="url(#3bb79d61b3)"><g><g clip-path="url(#d07f3d895d)"><g clip-path="url(#aa47deca86)"><g clip-path="url(#5aa4b3fa2f)"><path fill="#ce181e" d="M 0.5 0.976562 L 294.5 0.976562 L 294.5 294.976562 L 0.5 294.976562 Z M 0.5 0.976562 " fill-opacity="1" fill-rule="nonzero"/></g></g></g></g></g></g><g clip-path="url(#39c390e75a)"><path fill="#ffffff" d="M 249.503906 150.910156 C 249.300781 144.953125 248.71875 140.777344 247.34375 135.394531 C 243.109375 118.800781 228.894531 96.800781 216.039062 86.9375 C 207.78125 80.601562 200.15625 77.800781 189.574219 77.21875 C 184.9375 76.964844 180.394531 77.496094 174.753906 78.957031 C 172.222656 79.613281 169.851562 80.21875 169.484375 80.300781 C 168.828125 80.449219 168.820312 80.417969 168.996094 78.265625 C 169.261719 74.9375 168.597656 57.171875 168.089844 54.09375 C 167.476562 50.371094 166.453125 47.003906 164.621094 42.664062 C 162.671875 38.046875 161.242188 36.410156 158.652344 35.832031 C 157.117188 35.488281 156.910156 35.511719 155.414062 36.199219 C 152.417969 37.578125 150.457031 40.40625 149.179688 45.191406 C 148.675781 47.089844 148.539062 48.496094 148.511719 52.171875 C 148.492188 54.703125 148.585938 57.570312 148.726562 58.542969 L 148.976562 60.308594 L 147.574219 59.160156 C 144.824219 56.90625 140.179688 54.875 136.707031 54.410156 C 135.371094 54.230469 135.324219 54.191406 135.136719 53.019531 C 134.761719 50.664062 133.183594 48.628906 129.390625 45.601562 C 124.054688 41.34375 118.820312 39.699219 110.617188 39.699219 C 103.789062 39.699219 99.167969 40.753906 89.933594 44.414062 C 83.058594 47.140625 79.480469 48.320312 75.570312 49.152344 C 70.945312 50.132812 67.171875 50.488281 63.28125 50.300781 C 58.976562 50.097656 56.414062 49.433594 52.246094 47.449219 C 48.625 45.726562 47.808594 45.503906 46.746094 45.945312 C 45.605469 46.417969 45.125 47.761719 45.164062 50.390625 C 45.207031 53.476562 45.742188 55.773438 47.058594 58.554688 C 51.003906 66.875 61.742188 72.496094 76.820312 74.132812 C 85.894531 75.117188 97.449219 73.753906 108.53125 70.398438 C 115.050781 68.425781 129.394531 62.121094 133.28125 59.523438 L 135.019531 58.367188 L 138.332031 59.605469 C 143.800781 61.652344 145.472656 62.613281 149.308594 65.902344 C 150.320312 66.769531 150.5 67.144531 151.019531 69.488281 C 151.558594 71.910156 152.484375 78.753906 152.484375 80.3125 L 152.484375 80.984375 L 150.777344 80.132812 C 146.246094 77.867188 139.714844 76.554688 129.679688 75.890625 C 116.960938 75.050781 106.992188 77.121094 95.097656 83.070312 C 87.347656 86.945312 80.910156 91.9375 74.429688 99.089844 C 69.339844 104.710938 66.144531 109.535156 63.210938 116.019531 C 59.320312 124.617188 57.015625 133.636719 55.464844 146.308594 C 54.804688 151.6875 54.707031 170.0625 55.3125 175.261719 C 57.484375 194.027344 60.761719 206 67.132812 218.484375 C 74.347656 232.625 87.734375 247.664062 99.140625 254.449219 C 103.523438 257.058594 108.652344 258.546875 115.320312 259.152344 C 119.507812 259.535156 122.867188 259.289062 129.320312 258.136719 C 140.640625 256.113281 148.273438 256.316406 162.429688 259.015625 C 164.554688 259.421875 167.429688 259.867188 168.816406 260.007812 C 173.265625 260.457031 180.632812 260.382812 183.679688 259.863281 C 191.058594 258.59375 197.164062 255.390625 203.535156 249.445312 C 217.121094 236.769531 237.089844 204.597656 244.238281 183.875 C 247.996094 172.976562 249.855469 161.320312 249.503906 150.910156 Z M 125.015625 57.867188 C 122.726562 59.03125 114.023438 62.582031 109.949219 64.011719 C 103.601562 66.238281 94.632812 68.304688 88.570312 68.9375 C 69.777344 70.902344 55.007812 66.367188 50.164062 57.152344 L 49.070312 55.070312 L 50.675781 56.28125 C 53.480469 58.398438 55.898438 59.289062 61.78125 60.375 C 64.132812 60.8125 66.171875 60.917969 71.859375 60.910156 C 82.410156 60.890625 89.0625 60.121094 103.023438 57.300781 C 111.316406 55.628906 111.378906 55.621094 116.550781 55.640625 C 120.507812 55.65625 122.386719 55.796875 124.421875 56.234375 L 127.09375 56.808594 Z M 127.464844 52.542969 C 122.191406 51.679688 114.871094 51.367188 111.457031 51.859375 C 110.09375 52.054688 105.703125 52.871094 101.703125 53.667969 C 93.648438 55.277344 89.421875 55.875 82.996094 56.320312 C 77.960938 56.671875 68.4375 56.660156 66.011719 56.304688 C 63.757812 55.976562 58.867188 54.820312 59.03125 54.65625 C 59.101562 54.585938 60.414062 54.679688 61.945312 54.867188 C 68.855469 55.707031 78.78125 53.945312 87.746094 50.289062 C 89.949219 49.386719 93.292969 48.023438 95.167969 47.253906 C 105.4375 43.058594 115.730469 42.511719 122.640625 45.792969 C 125.132812 46.976562 129.183594 49.933594 130.640625 51.640625 C 131.222656 52.316406 131.695312 52.953125 131.695312 53.054688 C 131.695312 53.15625 129.792969 52.925781 127.464844 52.542969 Z M 154.039062 44.316406 C 154.394531 42.921875 154.492188 42.816406 155.882812 42.320312 C 156.691406 42.03125 157.386719 41.832031 157.433594 41.878906 C 157.691406 42.136719 159.375 46.148438 160.15625 48.359375 C 161.648438 52.597656 162.027344 55.050781 162.296875 62.269531 C 162.4375 65.941406 162.691406 70.988281 162.867188 73.480469 C 163.179688 77.933594 163.03125 82.148438 162.292969 89.613281 C 161.859375 94.011719 160.898438 97.6875 159.414062 100.652344 C 158.503906 102.472656 157.648438 102.542969 156.039062 100.9375 C 155.195312 100.09375 154.863281 99.472656 154.710938 98.464844 C 154.5 97.054688 154.4375 97.277344 157.113281 89.886719 C 158.164062 86.976562 158.25 86.496094 158.363281 82.757812 C 158.542969 76.835938 157.890625 72.039062 155.761719 63.589844 C 154.773438 59.679688 153.820312 55.273438 153.636719 53.804688 C 153.269531 50.875 153.453125 46.613281 154.039062 44.316406 Z M 237.082031 180.976562 C 231.847656 196.214844 219.953125 217.703125 207.703125 234.058594 C 197.398438 247.816406 191.3125 252.195312 180.703125 253.5 C 176.398438 254.027344 170.398438 253.632812 162.875 252.320312 C 152.539062 250.523438 151.855469 250.464844 142.683594 250.628906 C 135.320312 250.757812 133.5625 250.882812 129.171875 251.597656 C 118.847656 253.273438 110.546875 252.382812 103.78125 248.875 C 99.8125 246.816406 96.304688 244.019531 91.011719 238.691406 C 79.828125 227.433594 72.882812 216.125 67.851562 200.984375 C 62.503906 184.882812 60.46875 162.871094 62.65625 144.832031 C 64.71875 127.859375 69.511719 115.105469 77.34375 105.773438 C 85.207031 96.40625 94.363281 89.863281 105.449219 85.703125 C 112.914062 82.898438 118.050781 82.058594 127.539062 82.089844 C 135.636719 82.113281 141.554688 82.765625 147.285156 84.257812 C 149.246094 84.769531 151.164062 85.261719 151.546875 85.351562 C 152.441406 85.558594 152.34375 86.101562 150.574219 90.617188 C 149.847656 92.484375 149.167969 94.515625 149.066406 95.140625 C 148.96875 95.761719 148.824219 96.570312 148.746094 96.941406 L 148.609375 97.609375 L 147.148438 96.871094 C 145.058594 95.8125 141.417969 94.636719 140.222656 94.636719 C 138.929688 94.636719 137.570312 95.652344 137.691406 96.523438 C 137.757812 96.972656 138.390625 97.460938 139.863281 98.199219 C 142.417969 99.480469 144.964844 101.238281 150.390625 105.476562 C 155.316406 109.320312 156.097656 109.78125 157.699219 109.78125 C 159.027344 109.78125 160.527344 108.972656 164.4375 106.144531 C 165.707031 105.226562 167.511719 104.1875 168.449219 103.832031 C 169.960938 103.261719 170.472656 103.210938 172.972656 103.410156 C 174.523438 103.53125 176.773438 103.644531 177.972656 103.664062 C 180.011719 103.691406 180.199219 103.640625 180.871094 102.859375 C 181.898438 101.664062 181.789062 100.707031 180.460938 99.382812 C 178.964844 97.886719 177.394531 97.453125 173.566406 97.480469 C 170.949219 97.5 170.109375 97.628906 168.335938 98.296875 C 167.171875 98.734375 166.160156 99.089844 166.085938 99.089844 C 166.011719 99.089844 166.183594 98.183594 166.464844 97.074219 C 166.746094 95.96875 167.128906 93.726562 167.320312 92.101562 C 167.832031 87.660156 167.777344 87.808594 168.957031 87.808594 C 169.519531 87.808594 171.78125 87.34375 173.984375 86.78125 C 178.558594 85.609375 181.988281 84.960938 185.027344 84.695312 C 187.53125 84.480469 192.917969 84.964844 196.449219 85.722656 C 207.421875 88.085938 217.300781 96.363281 227.453125 111.710938 C 236.859375 125.933594 240.632812 135.796875 241.628906 148.757812 C 242.363281 158.339844 240.625 170.671875 237.082031 180.976562 Z M 209.410156 215.167969 C 209.011719 218.554688 205.234375 226.996094 201.816406 232.144531 C 198.183594 237.617188 195.757812 240.019531 192.070312 241.808594 C 188.855469 243.367188 183.71875 244.207031 180.707031 243.664062 C 179.980469 243.53125 179.121094 243.160156 178.796875 242.835938 C 178.265625 242.304688 178.25 242.167969 178.625 241.46875 C 179.175781 240.441406 180.746094 239.5625 184.703125 238.066406 C 186.5 237.386719 188.707031 236.328125 189.605469 235.71875 C 192.304688 233.882812 200.332031 224.871094 204.476562 219.03125 C 208.421875 213.464844 209.734375 212.4375 209.410156 215.167969 Z M 143.816406 239.773438 C 143.953125 240.730469 142.894531 240.878906 139.085938 240.441406 C 134.738281 239.941406 132.632812 240.183594 127.605469 241.769531 C 123.507812 243.0625 120.457031 243.734375 118.925781 243.679688 C 118.519531 243.667969 117.015625 243.472656 115.585938 243.25 C 112.128906 242.710938 107.082031 240.996094 104.5625 239.507812 C 101.269531 237.554688 98.339844 234.558594 96.910156 231.671875 C 95.175781 228.167969 95.007812 225.730469 96.417969 224.417969 C 97.101562 223.78125 98.140625 223.601562 98.140625 224.121094 C 98.140625 224.289062 100.257812 226.5625 102.84375 229.167969 C 108.070312 234.433594 109.257812 235.191406 114.472656 236.585938 C 118.089844 237.554688 120.359375 237.488281 125.164062 236.285156 C 130.03125 235.0625 134.300781 234.882812 137.054688 235.789062 C 139.722656 236.667969 143.707031 239.015625 143.816406 239.773438 Z M 89.527344 214.507812 C 89.527344 215.070312 89.371094 215.203125 88.710938 215.203125 C 88.261719 215.203125 87.492188 214.992188 87.003906 214.734375 C 85.695312 214.054688 84.855469 213.179688 84.1875 211.792969 C 83.40625 210.183594 83.433594 209.183594 84.28125 208.195312 C 84.820312 207.570312 85.136719 207.433594 85.726562 207.582031 C 87.152344 207.941406 89.527344 212.265625 89.527344 214.507812 Z M 222.449219 189.128906 C 223.367188 190.902344 222.230469 195.132812 220.425781 196.648438 C 219.3125 197.585938 219.0625 197.574219 218.664062 196.570312 C 218.144531 195.265625 218.011719 190.242188 218.472656 189.375 C 219.425781 187.589844 221.582031 187.457031 222.449219 189.128906 Z M 79.089844 170.214844 C 79.746094 174.21875 79.941406 179.269531 79.445312 179.269531 C 79.285156 179.269531 78.816406 178.902344 78.398438 178.453125 C 77.441406 177.425781 76.570312 175.121094 75.847656 171.699219 C 74.9375 167.390625 75.167969 164.257812 76.480469 163.070312 C 77.421875 162.21875 78.058594 162.8125 78.277344 164.75 C 78.375 165.632812 78.742188 168.089844 79.089844 170.214844 Z M 227.296875 143.238281 C 229.039062 151.527344 229.261719 165.347656 227.714844 169.210938 C 227.15625 170.609375 225.761719 171.847656 224.742188 171.847656 C 224.289062 171.847656 223.605469 171.457031 223.015625 170.871094 C 221.542969 169.398438 221.316406 167.722656 221.222656 157.59375 C 221.128906 147.691406 220.835938 145.054688 219.007812 137.792969 C 217.753906 132.808594 215.414062 126.675781 212.699219 121.273438 C 209.949219 115.800781 208.738281 111.5625 209.917969 111.5625 C 210.148438 111.5625 210.976562 112.464844 211.753906 113.566406 C 212.53125 114.671875 214.027344 116.621094 215.078125 117.902344 C 221.160156 125.320312 225.371094 134.046875 227.296875 143.238281 Z M 87.851562 118.9375 C 85.867188 123.324219 83.816406 129.960938 81.957031 137.992188 C 78.394531 153.390625 77.785156 155.515625 76.929688 155.515625 C 76.628906 155.515625 76.265625 154.8125 75.835938 153.398438 C 75.265625 151.515625 75.210938 150.824219 75.355469 147.089844 C 76 130.34375 84.570312 110.65625 95.214844 101.46875 C 99.09375 98.121094 102.679688 96.75 103.304688 98.371094 C 103.589844 99.113281 103.175781 99.636719 101.105469 101.171875 C 96.332031 104.710938 91.136719 111.675781 87.851562 118.9375 Z M 208.492188 102.058594 C 208.492188 103.824219 207.058594 105.257812 205.292969 105.257812 C 203.527344 105.257812 202.09375 103.824219 202.09375 102.058594 C 202.09375 100.289062 203.527344 98.859375 205.292969 98.859375 C 207.058594 98.859375 208.492188 100.289062 208.492188 102.058594 Z M 208.492188 102.058594 " fill-opacity="1" fill-rule="nonzero"/></g></g></g><g transform="matrix(1, 0, 0, 1, 113, 301)"><g clip-path="url(#b7a797dab1)"><g fill="#ce181e" fill-opacity="1"><g transform="translate(1.417127, 34.627052)"><g><path d="M 9.890625 -26.28125 L 15.0625 -26.28125 L 24.71875 0 L 19.46875 0 L 17.03125 -6.546875 L 7.84375 -6.546875 L 5.4375 0 L 0.1875 0 Z M 16.109375 -10.140625 L 12.46875 -20.984375 L 8.703125 -10.140625 Z M 16.109375 -10.140625 "/></g></g></g><g fill="#ce181e" fill-opacity="1"><g transform="translate(25.141616, 34.627052)"><g/></g></g><g fill="#ce181e" fill-opacity="1"><g transform="translate(34.024498, 34.627052)"><g><path d="M 2.734375 0 L 2.734375 -26.28125 L 13.875 -26.28125 C 15.082031 -26.28125 16.191406 -26.03125 17.203125 -25.53125 C 18.222656 -25.039062 19.109375 -24.375 19.859375 -23.53125 C 20.609375 -22.695312 21.191406 -21.757812 21.609375 -20.71875 C 22.035156 -19.6875 22.25 -18.628906 22.25 -17.546875 C 22.25 -16.066406 21.898438 -14.660156 21.203125 -13.328125 C 20.515625 -11.992188 19.566406 -10.90625 18.359375 -10.0625 C 17.148438 -9.226562 15.71875 -8.8125 14.0625 -8.8125 L 7.84375 -8.8125 L 7.84375 0 Z M 7.84375 -13.28125 L 13.765625 -13.28125 C 14.378906 -13.28125 14.929688 -13.453125 15.421875 -13.796875 C 15.921875 -14.148438 16.316406 -14.648438 16.609375 -15.296875 C 16.910156 -15.953125 17.0625 -16.703125 17.0625 -17.546875 C 17.0625 -18.460938 16.894531 -19.238281 16.5625 -19.875 C 16.226562 -20.519531 15.796875 -21 15.265625 -21.3125 C 14.734375 -21.632812 14.160156 -21.796875 13.546875 -21.796875 L 7.84375 -21.796875 Z M 7.84375 -13.28125 "/></g></g></g><g fill="#ce181e" fill-opacity="1"><g transform="translate(56.083453, 34.627052)"><g/></g></g><g fill="#ce181e" fill-opacity="1"><g transform="translate(64.966335, 34.627052)"><g><path d="M 2.734375 0 L 2.734375 -26.28125 L 13.875 -26.28125 C 15.082031 -26.28125 16.191406 -26.03125 17.203125 -25.53125 C 18.222656 -25.039062 19.109375 -24.375 19.859375 -23.53125 C 20.609375 -22.695312 21.191406 -21.757812 21.609375 -20.71875 C 22.035156 -19.6875 22.25 -18.628906 22.25 -17.546875 C 22.25 -16.066406 21.898438 -14.660156 21.203125 -13.328125 C 20.515625 -11.992188 19.566406 -10.90625 18.359375 -10.0625 C 17.148438 -9.226562 15.71875 -8.8125 14.0625 -8.8125 L 7.84375 -8.8125 L 7.84375 0 Z M 7.84375 -13.28125 L 13.765625 -13.28125 C 14.378906 -13.28125 14.929688 -13.453125 15.421875 -13.796875 C 15.921875 -14.148438 16.316406 -14.648438 16.609375 -15.296875 C 16.910156 -15.953125 17.0625 -16.703125 17.0625 -17.546875 C 17.0625 -18.460938 16.894531 -19.238281 16.5625 -19.875 C 16.226562 -20.519531 15.796875 -21 15.265625 -21.3125 C 14.734375 -21.632812 14.160156 -21.796875 13.546875 -21.796875 L 7.84375 -21.796875 Z M 7.84375 -13.28125 "/></g></g></g><g fill="#ce181e" fill-opacity="1"><g transform="translate(87.025289, 34.627052)"><g/></g></g><g fill="#ce181e" fill-opacity="1"><g transform="translate(95.908172, 34.627052)"><g><path d="M 2.734375 0 L 2.734375 -26.28125 L 7.84375 -26.28125 L 7.84375 -4.484375 L 21.25 -4.484375 L 21.25 0 Z M 2.734375 0 "/></g></g></g><g fill="#ce181e" fill-opacity="1"><g transform="translate(116.412608, 34.627052)"><g/></g></g><g fill="#ce181e" fill-opacity="1"><g transform="translate(125.29549, 34.627052)"><g><path d="M 20.984375 -4.484375 L 20.984375 0 L 2.734375 0 L 2.734375 -26.28125 L 20.65625 -26.28125 L 20.65625 -21.796875 L 7.84375 -21.796875 L 7.84375 -15.46875 L 18.921875 -15.46875 L 18.921875 -11.328125 L 7.84375 -11.328125 L 7.84375 -4.484375 Z M 20.984375 -4.484375 "/></g></g></g></g></g></svg>