<svg xmlns="http://www.w3.org/2000/svg" xmlns:xlink="http://www.w3.org/1999/xlink" width="500" zoomAndPan="magnify" viewBox="0 0 375 374.999991" height="500" preserveAspectRatio="xMidYMid meet" version="1.0"><defs><g/><clipPath id="61d9315adf"><path d="M 100.4375 100.4375 L 274.5625 100.4375 L 274.5625 274.5625 L 100.4375 274.5625 Z M 100.4375 100.4375 " clip-rule="nonzero"/></clipPath><clipPath id="029a95e36b"><path d="M 187.5 100.4375 C 139.417969 100.4375 100.4375 139.417969 100.4375 187.5 C 100.4375 235.582031 139.417969 274.5625 187.5 274.5625 C 235.582031 274.5625 274.5625 235.582031 274.5625 187.5 C 274.5625 139.417969 235.582031 100.4375 187.5 100.4375 Z M 187.5 100.4375 " clip-rule="nonzero"/></clipPath><clipPath id="56f7816ec6"><path d="M 0.4375 0.4375 L 174.5625 0.4375 L 174.5625 174.5625 L 0.4375 174.5625 Z M 0.4375 0.4375 " clip-rule="nonzero"/></clipPath><clipPath id="019aab8f37"><path d="M 87.5 0.4375 C 39.417969 0.4375 0.4375 39.417969 0.4375 87.5 C 0.4375 135.582031 39.417969 174.5625 87.5 174.5625 C 135.582031 174.5625 174.5625 135.582031 174.5625 87.5 C 174.5625 39.417969 135.582031 0.4375 87.5 0.4375 Z M 87.5 0.4375 " clip-rule="nonzero"/></clipPath><clipPath id="6d08654f1c"><rect x="0" width="175" y="0" height="175"/></clipPath><clipPath id="3a2fe7fb0b"><path d="M 138.355469 115 L 236.605469 115 L 236.605469 219.367188 L 138.355469 219.367188 Z M 138.355469 115 " clip-rule="nonzero"/></clipPath></defs><g clip-path="url(#61d9315adf)"><g clip-path="url(#029a95e36b)"><g transform="matrix(1, 0, 0, 1, 100, 100)"><g clip-path="url(#6d08654f1c)"><g clip-path="url(#56f7816ec6)"><g clip-path="url(#019aab8f37)"><path fill="#ce181e" d="M 0.4375 0.4375 L 174.5625 0.4375 L 174.5625 174.5625 L 0.4375 174.5625 Z M 0.4375 0.4375 " fill-opacity="1" fill-rule="nonzero"/></g></g></g></g></g></g><g clip-path="url(#3a2fe7fb0b)"><path fill="#ffffff" d="M 222.550781 134.238281 C 219.519531 132.542969 216.191406 131.386719 212.667969 130.800781 L 212.589844 130.789062 C 211.789062 130.660156 210.972656 130.558594 210.15625 130.488281 C 209.089844 130.398438 208.039062 130.363281 207.035156 130.382812 C 205.957031 130.40625 205.183594 130.488281 204.929688 130.527344 C 202.722656 130.710938 200.554688 131.152344 198.480469 131.839844 C 195.523438 132.816406 194.078125 133.835938 192.914062 134.652344 C 192.160156 135.183594 191.785156 135.367188 191.351562 135.582031 L 191.234375 135.636719 C 190.992188 135.757812 190.683594 135.910156 190.304688 136.054688 C 190.5625 134.699219 190.855469 133.351562 191.171875 132.003906 C 191.578125 130.304688 192.015625 128.609375 192.476562 126.921875 C 192.898438 125.363281 193.910156 123.484375 192.769531 122.023438 C 191.878906 120.882812 190.210938 120.691406 189.085938 121.609375 C 188.332031 122.234375 188.246094 122.964844 188.089844 123.882812 C 187.910156 124.964844 187.726562 126.046875 187.542969 127.128906 C 187.230469 128.964844 186.921875 130.800781 186.609375 132.636719 C 185.234375 125.589844 180.582031 119.699219 174.097656 117.113281 C 165.382812 113.652344 157.507812 117.816406 156.011719 118.683594 L 155.59375 118.929688 L 155.648438 119.410156 C 155.859375 121.214844 156.785156 126.472656 160.609375 131.152344 C 157.742188 131.796875 155.023438 132.832031 152.507812 134.238281 C 143.226562 139.421875 138.355469 151.675781 138.425781 169.691406 C 138.441406 170.566406 138.664062 178.523438 142.214844 188.382812 C 143.289062 191.371094 144.578125 194.257812 146.046875 196.960938 C 147.429688 199.515625 149 201.957031 150.722656 204.230469 C 151.265625 204.929688 156.191406 211.183594 162.949219 215.480469 C 164.347656 216.371094 165.742188 217.125 167.097656 217.71875 L 167.3125 217.8125 C 170.175781 219.035156 172.808594 219.382812 172.921875 219.398438 C 173.738281 219.5 174.558594 219.550781 175.363281 219.550781 C 177.136719 219.550781 178.667969 219.308594 179.910156 219.109375 C 181.441406 218.863281 182.628906 218.5625 183.679688 218.300781 L 183.777344 218.277344 C 185.125 217.933594 186.191406 217.664062 187.515625 217.632812 L 187.523438 217.632812 C 188.875 217.664062 189.945312 217.9375 191.296875 218.277344 L 191.328125 218.285156 C 192.332031 218.539062 193.578125 218.855469 195.148438 219.105469 C 196.367188 219.304688 197.886719 219.550781 199.699219 219.550781 C 200.53125 219.550781 201.328125 219.5 202.140625 219.394531 C 202.25 219.378906 204.847656 219.035156 207.683594 217.839844 C 208.410156 217.632812 209.128906 217.398438 209.816406 217.136719 C 218.464844 213.890625 225.761719 206.183594 230.359375 195.433594 C 231.324219 193.179688 232.164062 190.808594 232.847656 188.382812 C 236.53125 178.164062 236.632812 169.753906 236.632812 169.675781 L 236.632812 169.277344 C 236.632812 151.492188 231.769531 139.382812 222.550781 134.238281 Z M 188.027344 131.433594 C 188.328125 129.660156 188.628906 127.890625 188.925781 126.121094 C 189.066406 125.285156 189.195312 124.445312 189.351562 123.613281 C 189.503906 122.789062 190.023438 122.070312 190.976562 122.238281 C 192.957031 122.59375 191.707031 125.179688 191.386719 126.34375 C 190.996094 127.769531 190.625 129.195312 190.269531 130.628906 C 189.796875 132.550781 189.359375 134.484375 189.003906 136.429688 C 188.964844 136.636719 188.925781 136.84375 188.890625 137.050781 C 188.816406 137.480469 188.753906 137.914062 188.683594 138.347656 C 188.609375 138.847656 188.527344 139.34375 188.417969 139.835938 C 188.289062 140.421875 188.136719 141.035156 187.828125 141.554688 C 187.40625 142.265625 186.871094 142.207031 186.277344 141.789062 C 186.46875 140.648438 186.660156 139.511719 186.851562 138.371094 C 186.957031 137.761719 187.058594 137.15625 187.164062 136.550781 C 187.449219 134.84375 187.738281 133.136719 188.027344 131.433594 Z M 157.1875 119.726562 C 159.289062 118.597656 166.113281 115.523438 173.546875 118.492188 C 179.855469 121.007812 184.296875 126.90625 185.320312 133.894531 C 180.179688 126.679688 171.988281 122.117188 163.089844 121.566406 C 162.140625 121.507812 162.195312 122.988281 163.140625 123.046875 C 172.019531 123.597656 180.167969 128.476562 184.925781 135.964844 C 184.871094 135.984375 184.816406 136 184.757812 136.015625 C 184.070312 136.242188 183.113281 136.511719 181.964844 136.746094 C 177.84375 137.570312 171.222656 137.878906 165.332031 133.597656 C 164.824219 133.226562 164.347656 132.84375 163.902344 132.449219 C 163.308594 131.925781 162.765625 131.378906 162.273438 130.824219 C 158.585938 126.671875 157.496094 121.84375 157.1875 119.726562 Z M 231.097656 187.789062 L 231.078125 187.851562 C 230.414062 190.210938 229.601562 192.519531 228.664062 194.707031 C 224.265625 204.988281 217.339844 212.34375 209.167969 215.410156 C 208.507812 215.660156 207.820312 215.882812 207.125 216.082031 L 207.011719 216.121094 C 204.390625 217.234375 202.003906 217.550781 201.90625 217.566406 C 201.171875 217.660156 200.449219 217.703125 199.699219 217.703125 C 198.035156 217.703125 196.597656 217.472656 195.4375 217.285156 C 193.953125 217.050781 192.796875 216.753906 191.78125 216.496094 L 191.75 216.488281 C 190.34375 216.132812 189.125 215.824219 187.546875 215.789062 L 187.492188 215.789062 C 185.9375 215.824219 184.726562 216.132812 183.324219 216.488281 L 183.230469 216.511719 C 182.214844 216.765625 181.070312 217.054688 179.609375 217.289062 C 178.378906 217.484375 176.992188 217.707031 175.363281 217.707031 C 174.636719 217.707031 173.894531 217.660156 173.15625 217.566406 C 173.054688 217.554688 170.667969 217.238281 168.039062 216.117188 L 167.835938 216.03125 C 166.570312 215.472656 165.257812 214.765625 163.9375 213.925781 C 157.449219 209.796875 152.703125 203.773438 152.1875 203.105469 C 150.527344 200.917969 149.007812 198.554688 147.667969 196.082031 C 146.246094 193.457031 144.992188 190.660156 143.953125 187.757812 C 140.4375 178.015625 140.277344 170 140.269531 169.667969 C 140.203125 152.378906 144.746094 140.683594 153.410156 135.847656 C 156.066406 134.363281 158.96875 133.316406 162.046875 132.738281 C 162.765625 133.457031 163.566406 134.148438 164.457031 134.792969 C 166.851562 136.535156 169.335938 137.578125 171.734375 138.15625 C 176.769531 139.367188 181.441406 138.527344 184.15625 137.761719 C 184.417969 137.855469 184.683594 137.941406 184.953125 138.011719 C 185.191406 138.078125 185.429688 138.136719 185.671875 138.1875 C 185.464844 139.40625 185.257812 140.625 185.054688 141.847656 C 185.050781 141.847656 185.050781 141.847656 185.050781 141.847656 C 184.957031 142.042969 184.976562 142.277344 185.199219 142.464844 C 185.222656 142.484375 185.246094 142.503906 185.269531 142.519531 C 185.027344 142.503906 184.789062 142.480469 184.550781 142.453125 C 183.578125 142.308594 182.621094 142.050781 181.710938 141.679688 C 181.6875 141.667969 181.664062 141.660156 181.640625 141.648438 C 181.625 141.644531 181.617188 141.640625 181.613281 141.636719 C 181.597656 141.632812 181.582031 141.625 181.570312 141.617188 C 181.472656 141.574219 181.378906 141.53125 181.285156 141.488281 C 181.101562 141.402344 180.921875 141.3125 180.746094 141.21875 C 180.449219 141.0625 180.160156 140.894531 179.878906 140.714844 C 179.660156 140.574219 179.445312 140.425781 179.234375 140.269531 C 179.078125 140.15625 178.792969 140.140625 178.613281 140.191406 C 178.425781 140.242188 178.222656 140.386719 178.132812 140.5625 C 178.03125 140.746094 177.984375 140.976562 178.050781 141.183594 C 178.117188 141.394531 178.242188 141.535156 178.421875 141.664062 C 179.152344 142.203125 179.941406 142.65625 180.769531 143.019531 C 182.253906 143.671875 183.820312 144.066406 185.445312 144.148438 C 187.082031 144.226562 188.757812 143.972656 190.296875 143.40625 C 191.507812 142.960938 192.65625 142.347656 193.691406 141.574219 C 194.328125 141.101562 194.933594 140.589844 195.476562 140.011719 C 195.503906 139.980469 195.53125 139.949219 195.5625 139.917969 C 195.84375 139.605469 195.890625 139.078125 195.5625 138.777344 C 195.25 138.492188 194.722656 138.445312 194.417969 138.777344 C 194.246094 138.964844 194.066406 139.148438 193.878906 139.324219 C 193.738281 139.460938 193.59375 139.589844 193.445312 139.71875 C 193.359375 139.792969 193.269531 139.871094 193.179688 139.945312 C 193.136719 139.980469 193.089844 140.015625 193.046875 140.050781 C 193.023438 140.070312 193 140.085938 192.980469 140.101562 C 192.949219 140.128906 192.90625 140.160156 192.886719 140.171875 C 192.828125 140.21875 192.769531 140.261719 192.710938 140.304688 C 192.597656 140.382812 192.484375 140.464844 192.371094 140.542969 C 192.121094 140.710938 191.863281 140.871094 191.601562 141.023438 C 191.316406 141.191406 191.023438 141.34375 190.726562 141.484375 C 190.578125 141.558594 190.425781 141.625 190.273438 141.691406 C 190.242188 141.703125 190.210938 141.714844 190.183594 141.730469 C 190.097656 141.761719 190.011719 141.796875 189.921875 141.828125 C 189.578125 141.957031 189.222656 142.066406 188.867188 142.164062 C 189.417969 141.253906 189.613281 140.109375 189.773438 139.082031 C 189.824219 138.757812 189.878906 138.433594 189.933594 138.113281 C 190.117188 138.066406 190.296875 138.011719 190.476562 137.953125 C 191.167969 137.730469 191.699219 137.464844 192.050781 137.289062 L 192.164062 137.234375 C 192.625 137.007812 193.101562 136.777344 193.976562 136.160156 C 195.039062 135.414062 196.359375 134.480469 199.058594 133.589844 C 201.003906 132.949219 203.039062 132.535156 205.113281 132.363281 L 205.179688 132.355469 C 205.1875 132.355469 205.882812 132.253906 207.074219 132.230469 C 208.011719 132.210938 209 132.242188 210 132.324219 C 210.792969 132.394531 211.585938 132.492188 212.359375 132.625 L 212.429688 132.632812 C 214.074219 132.910156 215.671875 133.320312 217.210938 133.855469 C 218.753906 134.394531 220.234375 135.058594 221.652344 135.847656 C 230.316406 140.683594 234.855469 152.378906 234.785156 169.667969 C 234.785156 169.75 234.703125 177.804688 231.097656 187.789062 Z M 181.734375 141.6875 C 181.695312 141.679688 181.65625 141.660156 181.617188 141.640625 C 181.644531 141.652344 181.734375 141.691406 181.734375 141.6875 Z M 190.335938 141.664062 C 190.355469 141.65625 190.367188 141.652344 190.363281 141.65625 C 190.355469 141.660156 190.347656 141.660156 190.335938 141.664062 Z M 190.335938 141.664062 " fill-opacity="1" fill-rule="nonzero"/></g><path fill="#ffffff" d="M 222.691406 145.914062 C 222.585938 145.691406 222.484375 145.472656 222.378906 145.253906 C 222.195312 144.871094 221.617188 144.742188 221.273438 144.964844 C 220.882812 145.214844 220.789062 145.660156 220.984375 146.066406 C 221.203125 146.523438 221.414062 146.980469 221.621094 147.445312 C 221.734375 147.699219 221.847656 147.953125 221.957031 148.210938 C 221.984375 148.277344 222.015625 148.34375 222.042969 148.410156 C 222.046875 148.421875 222.050781 148.433594 222.0625 148.453125 C 222.121094 148.597656 222.179688 148.738281 222.238281 148.882812 C 222.746094 150.121094 223.203125 151.378906 223.617188 152.652344 C 224.097656 154.128906 224.515625 155.625 224.867188 157.136719 C 225.058594 157.960938 225.230469 158.789062 225.386719 159.617188 C 225.46875 160.070312 225.546875 160.523438 225.617188 160.976562 C 225.652344 161.183594 225.683594 161.390625 225.710938 161.59375 C 225.726562 161.699219 225.742188 161.804688 225.757812 161.90625 C 225.765625 161.972656 225.773438 162.039062 225.785156 162.101562 C 225.785156 162.113281 225.785156 162.117188 225.789062 162.125 C 225.789062 162.132812 225.789062 162.144531 225.792969 162.164062 C 226.300781 166.058594 226.394531 170.003906 226.058594 173.914062 C 226.019531 174.363281 225.972656 174.8125 225.925781 175.261719 C 225.898438 175.480469 225.875 175.699219 225.847656 175.917969 C 225.832031 176.035156 225.816406 176.148438 225.804688 176.265625 C 225.796875 176.300781 225.792969 176.335938 225.789062 176.371094 C 225.785156 176.382812 225.78125 176.433594 225.773438 176.46875 C 225.65625 177.328125 225.515625 178.1875 225.355469 179.039062 C 225.066406 180.589844 224.710938 182.125 224.285156 183.644531 C 223.917969 184.960938 223.503906 186.269531 223.039062 187.558594 C 222.835938 188.117188 222.625 188.671875 222.40625 189.222656 C 222.304688 189.46875 222.207031 189.714844 222.105469 189.957031 C 222.082031 190.015625 222.058594 190.070312 222.035156 190.125 C 222.027344 190.140625 222.019531 190.160156 222.011719 190.175781 C 221.964844 190.292969 221.914062 190.414062 221.859375 190.53125 C 221.769531 190.742188 221.675781 190.953125 221.582031 191.160156 C 221.410156 191.546875 221.457031 192.046875 221.871094 192.265625 C 222.222656 192.453125 222.792969 192.386719 222.976562 191.976562 C 223.972656 189.757812 224.832031 187.480469 225.53125 185.148438 C 226.492188 181.949219 227.15625 178.660156 227.53125 175.339844 C 227.972656 171.40625 227.984375 167.421875 227.566406 163.488281 C 227.191406 160.011719 226.503906 156.570312 225.488281 153.226562 C 224.730469 150.726562 223.789062 148.28125 222.691406 145.914062 Z M 222.691406 145.914062 " fill-opacity="1" fill-rule="nonzero"/><path fill="#ffffff" d="M 220.789062 194.429688 C 220.402344 194.222656 219.914062 194.328125 219.6875 194.71875 C 218.777344 196.261719 217.792969 197.757812 216.722656 199.195312 C 216.605469 199.355469 216.59375 199.636719 216.640625 199.820312 C 216.691406 200.003906 216.839844 200.207031 217.011719 200.300781 C 217.199219 200.398438 217.425781 200.449219 217.632812 200.382812 C 217.847656 200.3125 217.984375 200.1875 218.117188 200.011719 C 219.1875 198.574219 220.171875 197.078125 221.082031 195.53125 C 221.292969 195.167969 221.175781 194.632812 220.789062 194.429688 Z M 220.789062 194.429688 " fill-opacity="1" fill-rule="nonzero"/><g fill="#ffffff" fill-opacity="1"><g transform="translate(146.057134, 245.551829)"><g><path d="M 5.609375 -14.90625 L 8.546875 -14.90625 L 14.03125 0 L 11.046875 0 L 9.65625 -3.71875 L 4.453125 -3.71875 L 3.09375 0 L 0.109375 0 Z M 9.140625 -5.75 L 7.078125 -11.90625 L 4.9375 -5.75 Z M 9.140625 -5.75 "/></g></g></g><g fill="#ffffff" fill-opacity="1"><g transform="translate(159.510498, 245.551829)"><g/></g></g><g fill="#ffffff" fill-opacity="1"><g transform="translate(164.547683, 245.551829)"><g><path d="M 1.546875 0 L 1.546875 -14.90625 L 7.875 -14.90625 C 8.5625 -14.90625 9.191406 -14.765625 9.765625 -14.484375 C 10.335938 -14.203125 10.835938 -13.820312 11.265625 -13.34375 C 11.691406 -12.875 12.023438 -12.34375 12.265625 -11.75 C 12.503906 -11.164062 12.625 -10.566406 12.625 -9.953125 C 12.625 -9.109375 12.425781 -8.304688 12.03125 -7.546875 C 11.632812 -6.796875 11.09375 -6.179688 10.40625 -5.703125 C 9.726562 -5.234375 8.921875 -5 7.984375 -5 L 4.453125 -5 L 4.453125 0 Z M 4.453125 -7.53125 L 7.8125 -7.53125 C 8.164062 -7.53125 8.476562 -7.628906 8.75 -7.828125 C 9.03125 -8.023438 9.253906 -8.304688 9.421875 -8.671875 C 9.597656 -9.046875 9.6875 -9.472656 9.6875 -9.953125 C 9.6875 -10.472656 9.585938 -10.914062 9.390625 -11.28125 C 9.203125 -11.644531 8.957031 -11.914062 8.65625 -12.09375 C 8.363281 -12.28125 8.039062 -12.375 7.6875 -12.375 L 4.453125 -12.375 Z M 4.453125 -7.53125 "/></g></g></g><g fill="#ffffff" fill-opacity="1"><g transform="translate(177.056578, 245.551829)"><g/></g></g><g fill="#ffffff" fill-opacity="1"><g transform="translate(182.093763, 245.551829)"><g><path d="M 1.546875 0 L 1.546875 -14.90625 L 7.875 -14.90625 C 8.5625 -14.90625 9.191406 -14.765625 9.765625 -14.484375 C 10.335938 -14.203125 10.835938 -13.820312 11.265625 -13.34375 C 11.691406 -12.875 12.023438 -12.34375 12.265625 -11.75 C 12.503906 -11.164062 12.625 -10.566406 12.625 -9.953125 C 12.625 -9.109375 12.425781 -8.304688 12.03125 -7.546875 C 11.632812 -6.796875 11.09375 -6.179688 10.40625 -5.703125 C 9.726562 -5.234375 8.921875 -5 7.984375 -5 L 4.453125 -5 L 4.453125 0 Z M 4.453125 -7.53125 L 7.8125 -7.53125 C 8.164062 -7.53125 8.476562 -7.628906 8.75 -7.828125 C 9.03125 -8.023438 9.253906 -8.304688 9.421875 -8.671875 C 9.597656 -9.046875 9.6875 -9.472656 9.6875 -9.953125 C 9.6875 -10.472656 9.585938 -10.914062 9.390625 -11.28125 C 9.203125 -11.644531 8.957031 -11.914062 8.65625 -12.09375 C 8.363281 -12.28125 8.039062 -12.375 7.6875 -12.375 L 4.453125 -12.375 Z M 4.453125 -7.53125 "/></g></g></g><g fill="#ffffff" fill-opacity="1"><g transform="translate(194.602659, 245.551829)"><g/></g></g><g fill="#ffffff" fill-opacity="1"><g transform="translate(199.639844, 245.551829)"><g><path d="M 1.546875 0 L 1.546875 -14.90625 L 4.453125 -14.90625 L 4.453125 -2.546875 L 12.046875 -2.546875 L 12.046875 0 Z M 1.546875 0 "/></g></g></g><g fill="#ffffff" fill-opacity="1"><g transform="translate(211.267223, 245.551829)"><g/></g></g><g fill="#ffffff" fill-opacity="1"><g transform="translate(216.304409, 245.551829)"><g><path d="M 11.90625 -2.546875 L 11.90625 0 L 1.546875 0 L 1.546875 -14.90625 L 11.71875 -14.90625 L 11.71875 -12.375 L 4.453125 -12.375 L 4.453125 -8.78125 L 10.734375 -8.78125 L 10.734375 -6.421875 L 4.453125 -6.421875 L 4.453125 -2.546875 Z M 11.90625 -2.546875 "/></g></g></g></svg>