<svg xmlns="http://www.w3.org/2000/svg" xmlns:xlink="http://www.w3.org/1999/xlink" width="500" zoomAndPan="magnify" viewBox="0 0 375 374.999991" height="500" preserveAspectRatio="xMidYMid meet" version="1.0"><defs><g/><clipPath id="21d79a591e"><path d="M 0.5 0.976562 L 294.5 0.976562 L 294.5 294.976562 L 0.5 294.976562 Z M 0.5 0.976562 " clip-rule="nonzero"/></clipPath><clipPath id="ad9d482d0a"><path d="M 147.5 0.976562 C 66.3125 0.976562 0.5 66.789062 0.5 147.976562 C 0.5 229.160156 66.3125 294.976562 147.5 294.976562 C 228.6875 294.976562 294.5 229.160156 294.5 147.976562 C 294.5 66.789062 228.6875 0.976562 147.5 0.976562 Z M 147.5 0.976562 " clip-rule="nonzero"/></clipPath><clipPath id="df98efef53"><path d="M 0.5 0.976562 L 294.5 0.976562 L 294.5 294.976562 L 0.5 294.976562 Z M 0.5 0.976562 " clip-rule="nonzero"/></clipPath><clipPath id="e3b07fd9fd"><path d="M 147.5 0.976562 C 66.3125 0.976562 0.5 66.789062 0.5 147.976562 C 0.5 229.160156 66.3125 294.976562 147.5 294.976562 C 228.6875 294.976562 294.5 229.160156 294.5 147.976562 C 294.5 66.789062 228.6875 0.976562 147.5 0.976562 Z M 147.5 0.976562 " clip-rule="nonzero"/></clipPath><clipPath id="85a2fc3917"><rect x="0" width="295" y="0" height="295"/></clipPath><clipPath id="921e2514db"><path d="M 39.570312 44 L 254 44 L 254 256.679688 L 39.570312 256.679688 Z M 39.570312 44 " clip-rule="nonzero"/></clipPath><clipPath id="57b9a3077a"><rect x="0" width="295" y="0" height="296"/></clipPath><clipPath id="83fb41e050"><rect x="0" width="198" y="0" height="45"/></clipPath></defs><g transform="matrix(1, 0, 0, 1, 40, 6)"><g clip-path="url(#57b9a3077a)"><g clip-path="url(#21d79a591e)"><g clip-path="url(#ad9d482d0a)"><g><g clip-path="url(#85a2fc3917)"><g clip-path="url(#df98efef53)"><g clip-path="url(#e3b07fd9fd)"><path fill="#f8e314" d="M 0.5 0.976562 L 294.5 0.976562 L 294.5 294.976562 L 0.5 294.976562 Z M 0.5 0.976562 " fill-opacity="1" fill-rule="nonzero"/></g></g></g></g></g></g><g clip-path="url(#921e2514db)"><path fill="#ffffff" d="M 252.117188 182.851562 C 249.128906 172.625 241.652344 159.617188 230.734375 149.128906 C 245.625 115.417969 250.597656 78.90625 238.4375 55.621094 C 235.695312 50.371094 230.976562 46.355469 225.28125 44.738281 C 205.453125 39.121094 191.59375 67.722656 187.347656 87.769531 C 181.511719 106.285156 181.851562 107.546875 165.863281 131.636719 C 140.335938 67.996094 49.390625 123.734375 65.199219 151.0625 C 71.5 158.976562 85.285156 147.628906 94.226562 144.773438 C 105.949219 139.292969 132.707031 143.390625 135.726562 153.417969 C 140.972656 180.667969 49.304688 184.46875 45.511719 217.445312 C 44.503906 218.140625 40.300781 219.382812 40.011719 220.777344 C 39.574219 222 42.074219 231.46875 42.410156 232.703125 C 42.417969 232.714844 42.425781 232.726562 42.4375 232.738281 C 42.4375 232.742188 42.441406 232.742188 42.441406 232.742188 C 42.789062 233.335938 43.453125 233.734375 44.136719 233.78125 C 44.285156 233.792969 51.480469 233.785156 51.644531 233.785156 C 88.304688 256.710938 134.261719 238.980469 163.726562 220.21875 C 160.894531 233.5 151.351562 255.5625 170.117188 256.804688 C 199.808594 252.3125 216.613281 221.273438 224.539062 189.433594 C 230.21875 195.378906 238.1875 207.238281 243.964844 206.753906 C 253.597656 205.402344 255.449219 192.765625 252.117188 182.851562 Z M 186.726562 103.792969 C 194.183594 85.082031 197.761719 50.777344 219.667969 48.808594 C 237.449219 48.558594 240.960938 65.503906 240.269531 97.824219 C 240.621094 107.472656 231.691406 141.589844 220.824219 158.972656 C 217.25 153.558594 211.992188 150.027344 205.378906 148.496094 C 188.089844 144.847656 175.148438 142.851562 159.589844 146.664062 C 170.304688 134.414062 181.46875 116.871094 186.726562 103.792969 Z M 73.511719 130.972656 C 99.519531 101.582031 149.242188 94.5 162.855469 135.710938 C 157.523438 142.742188 151.890625 149.035156 146.074219 154.492188 C 143.792969 138.964844 125.433594 132.378906 111.332031 132.519531 C 92.640625 132.175781 82.648438 141.480469 67.453125 143.621094 C 67.285156 140.238281 69.417969 135.761719 73.511719 130.972656 Z M 92.671875 140.695312 C 88.617188 141.707031 78.074219 148.082031 72.265625 149.132812 C 70.332031 149.484375 67.914062 147.679688 67.445312 146.449219 C 79.121094 144.871094 90.121094 137.820312 102.035156 136.382812 C 114.808594 133.644531 140.890625 135.769531 143.328125 155.851562 C 141.871094 156.933594 140.699219 157.933594 139.796875 158.75 C 140.792969 139.441406 105.757812 134.957031 92.671875 140.695312 Z M 49.675781 219.113281 C 50.027344 215.589844 51.929688 211.785156 55.179688 208.113281 C 72.90625 190.785156 114.5625 184.039062 138.285156 167.300781 C 140.03125 166.226562 142.054688 165.203125 144.238281 164.300781 C 149.214844 162.121094 155.25 160.660156 160.707031 160.71875 C 165.761719 160.734375 170.277344 162.0625 173.039062 165.402344 C 174.621094 167.277344 175.628906 169.78125 175.808594 173.039062 C 175.574219 178.363281 173.902344 183.941406 172.542969 189.246094 C 170.660156 190.125 169.121094 190.835938 166.15625 192.164062 C 166.175781 192.113281 166.191406 192.066406 166.207031 192.015625 C 139.632812 203.660156 79.390625 229.695312 47.289062 221.421875 C 48.347656 220.941406 49.59375 220.425781 49.675781 219.113281 Z M 51.53125 230.453125 L 47.289062 230.574219 L 49.636719 226.722656 C 50.289062 226.9375 52.019531 226.878906 52.710938 226.84375 Z M 54.855469 230.808594 L 55.386719 227.480469 C 58.894531 227.683594 62.558594 227.597656 66.089844 227.351562 C 102.890625 224.84375 155.734375 201.832031 171.007812 194.769531 C 169.355469 200.539062 167.132812 208.113281 165.515625 213.832031 L 165.511719 213.832031 C 135.917969 233.390625 92.660156 252.058594 54.855469 230.808594 Z M 177.253906 188.507812 C 178.542969 183.367188 180.015625 178.140625 180.164062 173.039062 C 180.4375 158.757812 162.644531 152.550781 148.015625 158.351562 C 157.164062 153.332031 169.285156 152.542969 178.90625 158.136719 C 199.875 174.183594 160.5 226.082031 164.199219 249.597656 C 159.554688 241.492188 174.710938 200.695312 177.253906 188.507812 Z M 221.328125 180.054688 C 218.453125 208.453125 201.78125 240.746094 177.15625 250.960938 C 177.082031 250.992188 177 251.007812 176.921875 251.011719 C 172.617188 251.183594 169.859375 250.523438 168.785156 249.074219 C 166.25 246.269531 170.84375 234.128906 172.785156 227.480469 C 178.097656 211.289062 188.269531 190.835938 189.300781 173.699219 C 190.769531 159.59375 182.246094 152.539062 170.414062 150.453125 C 169.675781 150.324219 169.730469 149.242188 170.476562 149.179688 C 185 147.96875 209.046875 150.113281 216.8125 160.878906 L 216.8125 160.882812 C 220.21875 165.597656 221.355469 171.632812 221.382812 177.433594 C 221.390625 178.296875 221.371094 179.171875 221.328125 180.054688 Z M 225.375 183.957031 C 225.394531 183.753906 225.71875 181.398438 225.734375 181.199219 C 232.828125 186.882812 233.871094 190.839844 245.574219 201.707031 C 242.0625 205.683594 229.945312 187.5 225.375 183.957031 Z M 248.976562 194.894531 C 248.742188 196.613281 246.757812 197.441406 245.34375 196.433594 C 242.792969 194.621094 240.746094 192.203125 238.25 189.726562 C 234.234375 185.527344 230.402344 181.664062 225.734375 177.976562 C 225.746094 176.71875 225.707031 175.445312 225.609375 174.171875 C 225.578125 173.75 225.539062 173.332031 225.496094 172.917969 C 225.484375 172.816406 225.476562 172.71875 225.464844 172.621094 C 225.425781 172.261719 225.378906 171.910156 225.332031 171.554688 C 225.304688 171.359375 225.273438 171.164062 225.242188 170.964844 C 225.210938 170.761719 225.175781 170.554688 225.140625 170.351562 C 225.109375 170.148438 225.070312 169.945312 225.035156 169.742188 C 224.988281 169.496094 224.9375 169.25 224.886719 169.003906 C 224.839844 168.785156 224.792969 168.570312 224.742188 168.351562 C 224.679688 168.078125 224.613281 167.808594 224.542969 167.539062 C 224.515625 167.421875 224.484375 167.308594 224.453125 167.195312 C 224.238281 166.390625 223.992188 165.597656 223.714844 164.824219 C 223.707031 164.792969 223.695312 164.765625 223.683594 164.734375 C 223.539062 164.332031 223.386719 163.933594 223.226562 163.539062 C 223.722656 162.695312 224.207031 161.851562 224.683594 161.007812 C 224.851562 160.710938 225.011719 160.414062 225.175781 160.117188 C 225.484375 159.5625 225.792969 159.007812 226.089844 158.453125 C 226.242188 158.171875 226.390625 157.890625 226.539062 157.605469 C 226.839844 157.046875 227.136719 156.484375 227.429688 155.921875 C 227.683594 155.425781 227.929688 154.933594 228.175781 154.441406 C 228.375 154.050781 228.574219 153.660156 228.769531 153.269531 C 230.144531 154.703125 231.574219 156.28125 233.007812 157.972656 C 236.300781 161.628906 239.230469 165.664062 241.648438 169.84375 C 246.617188 177.996094 250.0625 186.976562 248.976562 194.894531 Z M 248.976562 194.894531 " fill-opacity="1" fill-rule="nonzero"/></g></g></g><g transform="matrix(1, 0, 0, 1, 89, 301)"><g clip-path="url(#83fb41e050)"><g fill="#f8e314" fill-opacity="1"><g transform="translate(1.009099, 34.627052)"><g><path d="M 23.90625 -6.78125 C 23.90625 -5.289062 23.519531 -4.046875 22.75 -3.046875 C 21.988281 -2.046875 20.960938 -1.285156 19.671875 -0.765625 C 18.378906 -0.253906 16.96875 0 15.4375 0 L 2.734375 0 L 2.734375 -26.28125 L 16.8125 -26.28125 C 18.039062 -26.28125 19.101562 -25.953125 20 -25.296875 C 20.90625 -24.640625 21.597656 -23.800781 22.078125 -22.78125 C 22.554688 -21.757812 22.796875 -20.691406 22.796875 -19.578125 C 22.796875 -18.316406 22.472656 -17.117188 21.828125 -15.984375 C 21.191406 -14.847656 20.257812 -14.007812 19.03125 -13.46875 C 20.53125 -13.03125 21.71875 -12.226562 22.59375 -11.0625 C 23.46875 -9.90625 23.90625 -8.476562 23.90625 -6.78125 Z M 18.765625 -7.734375 C 18.765625 -8.398438 18.628906 -9 18.359375 -9.53125 C 18.085938 -10.0625 17.722656 -10.476562 17.265625 -10.78125 C 16.804688 -11.09375 16.28125 -11.25 15.6875 -11.25 L 7.84375 -11.25 L 7.84375 -4.328125 L 15.4375 -4.328125 C 16.050781 -4.328125 16.609375 -4.476562 17.109375 -4.78125 C 17.617188 -5.09375 18.019531 -5.507812 18.3125 -6.03125 C 18.613281 -6.550781 18.765625 -7.117188 18.765625 -7.734375 Z M 7.84375 -21.90625 L 7.84375 -15.28125 L 14.65625 -15.28125 C 15.226562 -15.28125 15.75 -15.414062 16.21875 -15.6875 C 16.6875 -15.96875 17.0625 -16.351562 17.34375 -16.84375 C 17.625 -17.332031 17.765625 -17.925781 17.765625 -18.625 C 17.765625 -19.289062 17.632812 -19.867188 17.375 -20.359375 C 17.113281 -20.847656 16.765625 -21.226562 16.328125 -21.5 C 15.898438 -21.769531 15.414062 -21.90625 14.875 -21.90625 Z M 7.84375 -21.90625 "/></g></g></g><g fill="#f8e314" fill-opacity="1"><g transform="translate(26.177272, 34.627052)"><g/></g></g><g fill="#f8e314" fill-opacity="1"><g transform="translate(33.91255, 34.627052)"><g><path d="M 9.890625 -26.28125 L 15.0625 -26.28125 L 24.71875 0 L 19.46875 0 L 17.03125 -6.546875 L 7.84375 -6.546875 L 5.4375 0 L 0.1875 0 Z M 16.109375 -10.140625 L 12.46875 -20.984375 L 8.703125 -10.140625 Z M 16.109375 -10.140625 "/></g></g></g><g fill="#f8e314" fill-opacity="1"><g transform="translate(57.637039, 34.627052)"><g/></g></g><g fill="#f8e314" fill-opacity="1"><g transform="translate(66.519921, 34.627052)"><g><path d="M 7.84375 -16.875 L 7.84375 0 L 2.734375 0 L 2.734375 -26.28125 L 6.8125 -26.28125 L 20.390625 -8.953125 L 20.390625 -26.25 L 25.5 -26.25 L 25.5 0 L 21.25 0 Z M 7.84375 -16.875 "/></g></g></g><g fill="#f8e314" fill-opacity="1"><g transform="translate(94.760099, 34.627052)"><g/></g></g><g fill="#f8e314" fill-opacity="1"><g transform="translate(102.495376, 34.627052)"><g><path d="M 9.890625 -26.28125 L 15.0625 -26.28125 L 24.71875 0 L 19.46875 0 L 17.03125 -6.546875 L 7.84375 -6.546875 L 5.4375 0 L 0.1875 0 Z M 16.109375 -10.140625 L 12.46875 -20.984375 L 8.703125 -10.140625 Z M 16.109375 -10.140625 "/></g></g></g><g fill="#f8e314" fill-opacity="1"><g transform="translate(126.219865, 34.627052)"><g/></g></g><g fill="#f8e314" fill-opacity="1"><g transform="translate(135.102748, 34.627052)"><g><path d="M 7.84375 -16.875 L 7.84375 0 L 2.734375 0 L 2.734375 -26.28125 L 6.8125 -26.28125 L 20.390625 -8.953125 L 20.390625 -26.25 L 25.5 -26.25 L 25.5 0 L 21.25 0 Z M 7.84375 -16.875 "/></g></g></g><g fill="#f8e314" fill-opacity="1"><g transform="translate(163.342925, 34.627052)"><g/></g></g><g fill="#f8e314" fill-opacity="1"><g transform="translate(171.078203, 34.627052)"><g><path d="M 9.890625 -26.28125 L 15.0625 -26.28125 L 24.71875 0 L 19.46875 0 L 17.03125 -6.546875 L 7.84375 -6.546875 L 5.4375 0 L 0.1875 0 Z M 16.109375 -10.140625 L 12.46875 -20.984375 L 8.703125 -10.140625 Z M 16.109375 -10.140625 "/></g></g></g></g></g></svg>