<svg xmlns="http://www.w3.org/2000/svg" xmlns:xlink="http://www.w3.org/1999/xlink" width="500" zoomAndPan="magnify" viewBox="0 0 375 374.999991" height="500" preserveAspectRatio="xMidYMid meet" version="1.0"><defs><g/><clipPath id="67c0526797"><path d="M 100.4375 100.4375 L 274.5625 100.4375 L 274.5625 274.5625 L 100.4375 274.5625 Z M 100.4375 100.4375 " clip-rule="nonzero"/></clipPath><clipPath id="12c39b415a"><path d="M 187.5 100.4375 C 139.417969 100.4375 100.4375 139.417969 100.4375 187.5 C 100.4375 235.582031 139.417969 274.5625 187.5 274.5625 C 235.582031 274.5625 274.5625 235.582031 274.5625 187.5 C 274.5625 139.417969 235.582031 100.4375 187.5 100.4375 Z M 187.5 100.4375 " clip-rule="nonzero"/></clipPath><clipPath id="3fb82b9c5c"><path d="M 0.4375 0.4375 L 174.5625 0.4375 L 174.5625 174.5625 L 0.4375 174.5625 Z M 0.4375 0.4375 " clip-rule="nonzero"/></clipPath><clipPath id="58fa93b9ac"><path d="M 87.5 0.4375 C 39.417969 0.4375 0.4375 39.417969 0.4375 87.5 C 0.4375 135.582031 39.417969 174.5625 87.5 174.5625 C 135.582031 174.5625 174.5625 135.582031 174.5625 87.5 C 174.5625 39.417969 135.582031 0.4375 87.5 0.4375 Z M 87.5 0.4375 " clip-rule="nonzero"/></clipPath><clipPath id="44bb7f422f"><rect x="0" width="175" y="0" height="175"/></clipPath><clipPath id="847bb290d3"><path d="M 136.523438 110 L 238 110 L 238 217 L 136.523438 217 Z M 136.523438 110 " clip-rule="nonzero"/></clipPath></defs><g clip-path="url(#67c0526797)"><g clip-path="url(#12c39b415a)"><g transform="matrix(1, 0, 0, 1, 100, 100)"><g clip-path="url(#44bb7f422f)"><g clip-path="url(#3fb82b9c5c)"><g clip-path="url(#58fa93b9ac)"><path fill="#f8e314" d="M 0.4375 0.4375 L 174.5625 0.4375 L 174.5625 174.5625 L 0.4375 174.5625 Z M 0.4375 0.4375 " fill-opacity="1" fill-rule="nonzero"/></g></g></g></g></g></g><g clip-path="url(#847bb290d3)"><path fill="#ffffff" d="M 228.117188 193.210938 C 228.347656 193.355469 229.945312 191.449219 231.421875 189.253906 C 233.605469 186.007812 235.15625 183.722656 235.832031 180.207031 C 236.667969 175.84375 235.957031 171.71875 233.828125 167.824219 C 233.5 167.226562 233.027344 166.855469 232.390625 166.628906 C 227.839844 165.03125 223.367188 165.285156 218.953125 167.144531 C 217.628906 167.699219 216.367188 168.371094 215.191406 169.199219 C 215.03125 169.3125 214.863281 169.421875 214.691406 169.515625 C 214.308594 169.730469 213.902344 169.765625 213.628906 169.386719 C 213.332031 168.980469 213.472656 168.570312 213.851562 168.28125 C 214.695312 167.632812 215.589844 167.066406 216.535156 166.578125 C 220.789062 164.375 225.257812 163.484375 230.015625 164.394531 C 230.179688 164.425781 230.347656 164.4375 230.570312 164.46875 C 230.5 164.359375 230.402344 164.234375 230.273438 164.105469 C 230.273438 164.105469 230.128906 163.964844 229.964844 163.847656 C 227.308594 161.992188 223.082031 161.515625 223.082031 161.515625 C 219.269531 161.039062 215.539062 161.308594 211.941406 162.757812 C 211.917969 162.765625 211.894531 162.773438 211.871094 162.78125 C 211.300781 162.984375 210.222656 163.367188 209.824219 164.21875 C 209.734375 164.40625 209.683594 164.605469 209.601562 164.933594 C 209.535156 165.191406 209.515625 165.339844 209.460938 165.632812 C 209.390625 166.035156 209.269531 166.640625 209.183594 167.085938 C 209.089844 167.558594 209.042969 167.78125 209.171875 168.003906 C 209.28125 168.195312 209.460938 168.277344 209.503906 168.300781 C 216.085938 171.816406 219.464844 177.574219 220.578125 184.710938 C 221.148438 188.351562 220.082031 191.875 218.667969 195.234375 C 216.191406 201.101562 212.25 205.914062 207.671875 210.246094 C 205.410156 212.390625 203.050781 214.421875 200.210938 215.792969 C 199.207031 216.277344 198.171875 216.671875 197.046875 216.773438 C 195.023438 216.960938 194.046875 215.789062 194.640625 213.847656 C 195.140625 212.226562 196.097656 210.828125 196.964844 209.394531 C 198.726562 206.480469 200.628906 203.640625 201.90625 200.464844 C 204.566406 193.859375 204.617188 187.3125 201.132812 180.964844 C 199.578125 178.125 197.496094 175.738281 194.398438 174.445312 C 193.5 174.070312 192.550781 173.917969 191.601562 173.753906 C 191.089844 173.664062 190.664062 173.460938 190.738281 172.859375 C 190.816406 172.238281 191.308594 172.195312 191.808594 172.246094 C 194.90625 172.550781 197.449219 173.964844 199.539062 176.210938 C 203.714844 180.699219 205.476562 186.070312 205.308594 192.144531 C 205.183594 196.726562 203.726562 200.910156 201.46875 204.839844 C 199.933594 207.515625 198.332031 210.152344 196.769531 212.8125 C 196.457031 213.34375 196.199219 213.90625 196.058594 214.511719 C 195.941406 215.007812 196.109375 215.265625 196.652344 215.25 C 197.667969 215.21875 198.585938 214.851562 199.480469 214.433594 C 201.535156 213.46875 203.304688 212.085938 205 210.601562 C 209.28125 206.84375 213.015625 202.628906 215.804688 197.632812 C 217.257812 195.027344 218.261719 192.253906 218.859375 189.328125 C 219.6875 185.265625 218.699219 181.542969 216.839844 177.96875 C 215.9375 176.230469 214.855469 174.617188 213.515625 173.175781 C 210.746094 170.1875 207.390625 168.464844 203.265625 168.460938 C 197.117188 168.453125 191.035156 168.988281 185.183594 171.070312 C 182.929688 171.871094 180.898438 173.078125 179.046875 174.59375 C 178.5625 174.988281 178.125 175.429688 177.902344 176.023438 C 176.210938 180.542969 173.148438 184.0625 169.722656 187.320312 C 166.53125 190.351562 163.050781 193.054688 159.9375 196.167969 C 157.703125 198.402344 155.492188 200.667969 153.914062 203.449219 C 153.140625 204.808594 152.53125 206.234375 152.246094 207.785156 C 152.046875 208.847656 152.308594 209.667969 153.257812 210.339844 C 156.527344 212.648438 160.179688 213.390625 164.085938 213.078125 C 170.226562 212.589844 175.671875 210.15625 180.761719 206.84375 C 188.136719 202.039062 194.082031 195.804688 198.972656 188.523438 C 199.296875 188.039062 199.609375 187.34375 200.332031 187.8125 C 201.054688 188.28125 200.558594 188.851562 200.234375 189.339844 C 194.535156 197.867188 187.460938 204.964844 178.46875 210.011719 C 174.167969 212.421875 169.617188 214.167969 164.65625 214.589844 C 160.003906 214.984375 155.660156 214.191406 151.867188 211.230469 C 151.035156 210.582031 150.71875 209.78125 150.679688 208.8125 C 150.585938 206.515625 151.542969 204.527344 152.625 202.605469 C 154.242188 199.738281 156.53125 197.402344 158.832031 195.089844 C 161.34375 192.5625 164.117188 190.328125 166.761719 187.949219 C 169.410156 185.566406 171.984375 183.109375 174.003906 180.148438 C 175.804688 177.503906 177.105469 174.648438 177.398438 171.414062 C 177.492188 170.394531 177.359375 169.390625 177.183594 168.390625 C 177.097656 167.902344 176.75 167.632812 176.386719 167.371094 C 174.457031 165.964844 172.246094 165.316406 169.914062 165.019531 C 162.164062 164.039062 154.699219 165.066406 147.558594 168.261719 C 145.207031 169.316406 143.03125 170.683594 140.863281 172.054688 C 140.527344 172.265625 140.203125 172.488281 139.867188 172.699219 C 138.28125 173.707031 137.488281 173.410156 137.046875 171.601562 C 136.523438 169.445312 136.863281 167.378906 137.820312 165.410156 C 140.140625 160.625 144.050781 157.597656 148.921875 155.835938 C 155.566406 153.433594 162.148438 154.171875 168.574219 156.789062 C 172.113281 158.230469 175.03125 160.488281 177.070312 163.777344 C 177.394531 164.292969 177.652344 164.851562 178.007812 165.519531 C 178.417969 164.164062 178.609375 162.890625 178.804688 161.621094 C 179.585938 156.535156 179.984375 151.421875 179.882812 146.269531 C 179.765625 140.402344 179.050781 134.601562 178.035156 128.828125 C 177.558594 126.109375 176.96875 123.402344 176.878906 120.625 C 176.824219 118.988281 176.886719 117.367188 177.328125 115.777344 C 177.828125 113.984375 178.890625 112.660156 180.546875 111.824219 C 184.21875 109.96875 187.921875 110.195312 191.550781 111.871094 C 196.851562 114.316406 200.851562 118.226562 203.738281 123.273438 C 206.816406 128.648438 208.609375 134.472656 209.683594 140.546875 C 210.546875 145.40625 210.964844 150.289062 210.726562 155.222656 C 210.636719 157.121094 210.425781 159.011719 210.210938 160.898438 C 210.179688 161.191406 210.148438 161.484375 210.109375 161.875 C 211.621094 161.179688 213.085938 160.625 214.632812 160.308594 C 218.367188 159.546875 222.097656 159.546875 225.800781 160.457031 C 231.902344 161.953125 235.605469 165.851562 237.101562 171.921875 C 238.488281 177.546875 237.480469 182.746094 234.402344 187.585938 C 232.941406 189.882812 231.398438 192.117188 229.46875 194.054688 C 229.160156 194.367188 228.8125 194.664062 228.4375 194.890625 C 227.4375 195.488281 226.53125 194.996094 226.46875 193.828125 C 226.425781 193.082031 226.621094 192.359375 226.800781 191.640625 C 227.398438 189.265625 227.972656 186.875 227.796875 184.40625 C 227.441406 179.316406 225.121094 175.238281 221.242188 172 C 220.636719 171.496094 219.976562 171.054688 219.339844 170.589844 C 218.917969 170.277344 218.652344 169.875 218.976562 169.390625 C 219.3125 168.886719 219.785156 169.039062 220.210938 169.324219 C 225.457031 172.855469 228.730469 177.625 229.320312 184.027344 C 229.738281 188.582031 228.332031 191.917969 228.328125 191.929688 C 228.117188 192.554688 228.097656 192.796875 228.097656 192.796875 C 228.078125 193.003906 228.0625 193.171875 228.117188 193.210938 Z M 175.847656 165.175781 C 175.917969 165.207031 175.988281 165.234375 176.054688 165.265625 C 176.03125 165.199219 176.003906 165.132812 175.980469 165.0625 C 175.25 163.414062 174.058594 162.105469 172.664062 161.050781 C 166.3125 156.253906 159.140625 154.964844 151.492188 156.664062 C 146.664062 157.738281 142.707031 160.398438 139.980469 164.648438 C 138.820312 166.460938 138.132812 168.414062 138.398438 170.609375 C 138.527344 171.667969 138.597656 171.699219 139.464844 171.136719 C 141.929688 169.53125 144.429688 167.996094 147.109375 166.769531 C 151.957031 164.554688 157.070312 163.453125 162.367188 163.195312 C 166.980469 162.972656 171.554688 163.160156 175.847656 165.175781 Z M 178.777344 172.789062 C 179.160156 172.539062 179.367188 172.410156 179.5625 172.273438 C 182.003906 170.574219 184.691406 169.4375 187.558594 168.683594 C 191.757812 167.582031 196.054688 167.171875 200.371094 166.933594 C 202.417969 166.820312 204.472656 166.882812 206.5 167.25 C 207.609375 167.453125 207.613281 167.480469 207.820312 166.367188 C 208.53125 162.503906 209.050781 158.617188 209.214844 154.691406 C 209.394531 150.386719 209.058594 146.113281 208.347656 141.859375 C 207.339844 135.804688 205.671875 129.976562 202.699219 124.566406 C 199.917969 119.503906 196.015625 115.59375 190.730469 113.1875 C 187.730469 111.824219 184.644531 111.605469 181.554688 113.035156 C 179.980469 113.761719 179.042969 114.957031 178.695312 116.65625 C 178.179688 119.144531 178.371094 121.621094 178.785156 124.089844 C 179.832031 130.292969 180.964844 136.480469 181.277344 142.785156 C 181.65625 150.367188 181.210938 157.882812 179.675781 165.324219 C 179.433594 166.503906 178.960938 167.660156 178.886719 168.847656 C 178.8125 170.089844 179.066406 171.351562 178.777344 172.789062 Z M 148.902344 211.6875 C 149.324219 211.375 149.710938 210.996094 149.335938 210.457031 C 148.972656 209.9375 148.480469 210.089844 148.039062 210.414062 C 146.363281 211.652344 144.453125 212.121094 142.402344 212.136719 C 140.328125 212.152344 139.789062 211.726562 139.378906 209.699219 C 139.316406 209.386719 139.285156 209.0625 139.285156 208.742188 C 139.277344 207.621094 139.359375 207.5625 140.460938 207.792969 C 144.390625 208.621094 147.550781 206.691406 148.613281 202.820312 C 148.921875 201.699219 149.097656 200.550781 149.203125 199.394531 C 149.726562 193.71875 152.179688 189.078125 156.578125 185.457031 C 158.847656 183.589844 161.160156 181.78125 163.292969 179.75 C 165.539062 177.605469 167.535156 175.265625 168.851562 172.421875 C 169.488281 171.039062 169.910156 169.601562 169.824219 168.058594 C 169.796875 167.558594 169.566406 167.179688 169.007812 167.207031 C 168.480469 167.230469 168.308594 167.59375 168.316406 168.074219 C 168.335938 169.359375 167.992188 170.5625 167.46875 171.722656 C 166.457031 173.957031 164.972656 175.855469 163.273438 177.597656 C 160.996094 179.9375 158.4375 181.960938 155.902344 184.011719 C 151.257812 187.769531 148.441406 192.546875 147.761719 198.53125 C 147.582031 200.125 147.4375 201.730469 146.832031 203.238281 C 146.109375 205.027344 144.828125 206.125 142.890625 206.425781 C 141.933594 206.574219 141.027344 206.308594 140.109375 206.148438 C 138.855469 205.925781 138.148438 206.339844 137.882812 207.582031 C 137.550781 209.109375 137.824219 210.570312 138.554688 211.953125 C 139.085938 212.949219 139.925781 213.480469 141.03125 213.609375 C 141.496094 213.660156 141.964844 213.667969 142.433594 213.695312 C 144.78125 213.632812 146.984375 213.121094 148.902344 211.6875 Z M 196.460938 181.394531 C 196.15625 181.265625 195.859375 181.304688 195.644531 181.550781 C 195.453125 181.769531 195.296875 182.027344 195.148438 182.28125 C 190.355469 190.480469 183.910156 197.0625 175.804688 202.003906 C 172.863281 203.796875 169.738281 205.199219 166.355469 205.949219 C 165.839844 206.066406 165.351562 206.273438 165.480469 206.917969 C 165.625 207.609375 166.167969 207.589844 166.714844 207.453125 C 167.289062 207.308594 167.867188 207.175781 168.433594 207.003906 C 173.761719 205.390625 178.40625 202.53125 182.703125 199.0625 C 188.230469 194.597656 192.832031 189.324219 196.429688 183.1875 C 196.628906 182.847656 196.851562 182.515625 196.898438 182.109375 C 196.875 181.792969 196.773438 181.523438 196.460938 181.394531 Z M 204.359375 148.765625 C 204.109375 142.875 203.019531 137.160156 200.75 131.699219 C 198.605469 126.535156 195.527344 122.03125 191.214844 118.421875 C 190.78125 118.0625 190.308594 117.785156 189.867188 118.335938 C 189.457031 118.851562 189.832031 119.242188 190.21875 119.597656 C 190.929688 120.242188 191.660156 120.871094 192.335938 121.554688 C 197 126.300781 199.757812 132.082031 201.351562 138.457031 C 203.15625 145.683594 203.285156 153.007812 202.46875 160.371094 C 202.351562 161.425781 202.210938 162.476562 202.105469 163.53125 C 202.0625 163.945312 202.246094 164.273438 202.679688 164.355469 C 203.15625 164.445312 203.414062 164.152344 203.554688 163.742188 C 203.605469 163.601562 203.609375 163.449219 203.628906 163.304688 C 204.1875 159.664062 204.4375 156 204.367188 152.316406 C 204.367188 151.132812 204.410156 149.949219 204.359375 148.765625 Z M 204.359375 148.765625 " fill-opacity="1" fill-rule="nonzero"/><path fill="#ffffff" d="M 228.117188 193.210938 C 228.347656 193.355469 229.945312 191.449219 231.421875 189.253906 C 233.605469 186.007812 235.15625 183.722656 235.832031 180.207031 C 236.667969 175.84375 235.957031 171.71875 233.828125 167.824219 C 233.5 167.226562 233.027344 166.855469 232.390625 166.628906 C 227.839844 165.03125 223.367188 165.285156 218.953125 167.144531 C 217.628906 167.699219 216.367188 168.371094 215.191406 169.199219 C 215.03125 169.3125 214.863281 169.421875 214.691406 169.515625 C 214.308594 169.730469 213.902344 169.765625 213.628906 169.386719 C 213.332031 168.980469 213.472656 168.570312 213.851562 168.28125 C 214.695312 167.632812 215.589844 167.066406 216.535156 166.578125 C 220.789062 164.375 225.257812 163.484375 230.015625 164.394531 C 230.179688 164.425781 230.347656 164.4375 230.570312 164.46875 C 230.5 164.359375 230.402344 164.234375 230.273438 164.105469 C 230.273438 164.105469 230.128906 163.964844 229.964844 163.847656 C 227.308594 161.992188 223.082031 161.515625 223.082031 161.515625 C 219.269531 161.039062 215.539062 161.308594 211.941406 162.757812 C 211.917969 162.765625 211.894531 162.773438 211.871094 162.78125 C 211.300781 162.984375 210.222656 163.367188 209.824219 164.21875 C 209.734375 164.40625 209.683594 164.605469 209.601562 164.933594 C 209.535156 165.191406 209.515625 165.339844 209.460938 165.632812 C 209.390625 166.035156 209.269531 166.640625 209.183594 167.085938 C 209.089844 167.558594 209.042969 167.78125 209.171875 168.003906 C 209.28125 168.195312 209.460938 168.277344 209.503906 168.300781 C 216.085938 171.816406 219.464844 177.574219 220.578125 184.710938 C 221.148438 188.351562 220.082031 191.875 218.667969 195.234375 C 216.191406 201.101562 212.25 205.914062 207.671875 210.246094 C 205.410156 212.390625 203.050781 214.421875 200.210938 215.792969 C 199.207031 216.277344 198.171875 216.671875 197.046875 216.773438 C 195.023438 216.960938 194.046875 215.789062 194.640625 213.847656 C 195.140625 212.226562 196.097656 210.828125 196.964844 209.394531 C 198.726562 206.480469 200.628906 203.640625 201.90625 200.464844 C 204.566406 193.859375 204.617188 187.3125 201.132812 180.964844 C 199.578125 178.125 197.496094 175.738281 194.398438 174.445312 C 193.5 174.070312 192.550781 173.917969 191.601562 173.753906 C 191.089844 173.664062 190.664062 173.460938 190.738281 172.859375 C 190.816406 172.238281 191.308594 172.195312 191.808594 172.246094 C 194.90625 172.550781 197.449219 173.964844 199.539062 176.210938 C 203.714844 180.699219 205.476562 186.070312 205.308594 192.144531 C 205.183594 196.726562 203.726562 200.910156 201.46875 204.839844 C 199.933594 207.515625 198.332031 210.152344 196.769531 212.8125 C 196.457031 213.34375 196.199219 213.90625 196.058594 214.511719 C 195.941406 215.007812 196.109375 215.265625 196.652344 215.25 C 197.667969 215.21875 198.585938 214.851562 199.480469 214.433594 C 201.535156 213.46875 203.304688 212.085938 205 210.601562 C 209.28125 206.84375 213.015625 202.628906 215.804688 197.632812 C 217.257812 195.027344 218.261719 192.253906 218.859375 189.328125 C 219.6875 185.265625 218.699219 181.542969 216.839844 177.96875 C 215.9375 176.230469 214.855469 174.617188 213.515625 173.175781 C 210.746094 170.1875 207.390625 168.464844 203.265625 168.460938 C 197.117188 168.453125 191.035156 168.988281 185.183594 171.070312 C 182.929688 171.871094 180.898438 173.078125 179.046875 174.59375 C 178.5625 174.988281 178.125 175.429688 177.902344 176.023438 C 176.210938 180.542969 173.148438 184.0625 169.722656 187.320312 C 166.53125 190.351562 163.050781 193.054688 159.9375 196.167969 C 157.703125 198.402344 155.492188 200.667969 153.914062 203.449219 C 153.140625 204.808594 152.53125 206.234375 152.246094 207.785156 C 152.046875 208.847656 152.308594 209.667969 153.257812 210.339844 C 156.527344 212.648438 160.179688 213.390625 164.085938 213.078125 C 170.226562 212.589844 175.671875 210.15625 180.761719 206.84375 C 188.136719 202.039062 194.082031 195.804688 198.972656 188.523438 C 199.296875 188.039062 199.609375 187.34375 200.332031 187.8125 C 201.054688 188.28125 200.558594 188.851562 200.234375 189.339844 C 194.535156 197.867188 187.460938 204.964844 178.46875 210.011719 C 174.167969 212.421875 169.617188 214.167969 164.65625 214.589844 C 160.003906 214.984375 155.660156 214.191406 151.867188 211.230469 C 151.035156 210.582031 150.71875 209.78125 150.679688 208.8125 C 150.585938 206.515625 151.542969 204.527344 152.625 202.605469 C 154.242188 199.738281 156.53125 197.402344 158.832031 195.089844 C 161.34375 192.5625 164.117188 190.328125 166.761719 187.949219 C 169.410156 185.566406 171.984375 183.109375 174.003906 180.148438 C 175.804688 177.503906 177.105469 174.648438 177.398438 171.414062 C 177.492188 170.394531 177.359375 169.390625 177.183594 168.390625 C 177.097656 167.902344 176.75 167.632812 176.386719 167.371094 C 174.457031 165.964844 172.246094 165.316406 169.914062 165.019531 C 162.164062 164.039062 154.699219 165.066406 147.558594 168.261719 C 145.207031 169.316406 143.03125 170.683594 140.863281 172.054688 C 140.527344 172.265625 140.203125 172.488281 139.867188 172.699219 C 138.28125 173.707031 137.488281 173.410156 137.046875 171.601562 C 136.523438 169.445312 136.863281 167.378906 137.820312 165.410156 C 140.140625 160.625 144.050781 157.597656 148.921875 155.835938 C 155.566406 153.433594 162.148438 154.171875 168.574219 156.789062 C 172.113281 158.230469 175.03125 160.488281 177.070312 163.777344 C 177.394531 164.292969 177.652344 164.851562 178.007812 165.519531 C 178.417969 164.164062 178.609375 162.890625 178.804688 161.621094 C 179.585938 156.535156 179.984375 151.421875 179.882812 146.269531 C 179.765625 140.402344 179.050781 134.601562 178.035156 128.828125 C 177.558594 126.109375 176.96875 123.402344 176.878906 120.625 C 176.824219 118.988281 176.886719 117.367188 177.328125 115.777344 C 177.828125 113.984375 178.890625 112.660156 180.546875 111.824219 C 184.21875 109.96875 187.921875 110.195312 191.550781 111.871094 C 196.851562 114.316406 200.851562 118.226562 203.738281 123.273438 C 206.816406 128.648438 208.609375 134.472656 209.683594 140.546875 C 210.546875 145.40625 210.964844 150.289062 210.726562 155.222656 C 210.636719 157.121094 210.425781 159.011719 210.210938 160.898438 C 210.179688 161.191406 210.148438 161.484375 210.109375 161.875 C 211.621094 161.179688 213.085938 160.625 214.632812 160.308594 C 218.367188 159.546875 222.097656 159.546875 225.800781 160.457031 C 231.902344 161.953125 235.605469 165.851562 237.101562 171.921875 C 238.488281 177.546875 237.480469 182.746094 234.402344 187.585938 C 232.941406 189.882812 231.398438 192.117188 229.46875 194.054688 C 229.160156 194.367188 228.8125 194.664062 228.4375 194.890625 C 227.4375 195.488281 226.53125 194.996094 226.46875 193.828125 C 226.425781 193.082031 226.621094 192.359375 226.800781 191.640625 C 227.398438 189.265625 227.972656 186.875 227.796875 184.40625 C 227.441406 179.316406 225.121094 175.238281 221.242188 172 C 220.636719 171.496094 219.976562 171.054688 219.339844 170.589844 C 218.917969 170.277344 218.652344 169.875 218.976562 169.390625 C 219.3125 168.886719 219.785156 169.039062 220.210938 169.324219 C 225.457031 172.855469 228.730469 177.625 229.320312 184.027344 C 229.738281 188.582031 228.332031 191.917969 228.328125 191.929688 C 228.117188 192.554688 228.097656 192.796875 228.097656 192.796875 C 228.078125 193.003906 228.0625 193.171875 228.117188 193.210938 Z M 175.847656 165.175781 C 175.917969 165.207031 175.988281 165.234375 176.054688 165.265625 C 176.03125 165.199219 176.003906 165.132812 175.980469 165.0625 C 175.25 163.414062 174.058594 162.105469 172.664062 161.050781 C 166.3125 156.253906 159.140625 154.964844 151.492188 156.664062 C 146.664062 157.738281 142.707031 160.398438 139.980469 164.648438 C 138.820312 166.460938 138.132812 168.414062 138.398438 170.609375 C 138.527344 171.667969 138.597656 171.699219 139.464844 171.136719 C 141.929688 169.53125 144.429688 167.996094 147.109375 166.769531 C 151.957031 164.554688 157.070312 163.453125 162.367188 163.195312 C 166.980469 162.972656 171.554688 163.160156 175.847656 165.175781 Z M 178.777344 172.789062 C 179.160156 172.539062 179.367188 172.410156 179.5625 172.273438 C 182.003906 170.574219 184.691406 169.4375 187.558594 168.683594 C 191.757812 167.582031 196.054688 167.171875 200.371094 166.933594 C 202.417969 166.820312 204.472656 166.882812 206.5 167.25 C 207.609375 167.453125 207.613281 167.480469 207.820312 166.367188 C 208.53125 162.503906 209.050781 158.617188 209.214844 154.691406 C 209.394531 150.386719 209.058594 146.113281 208.347656 141.859375 C 207.339844 135.804688 205.671875 129.976562 202.699219 124.566406 C 199.917969 119.503906 196.015625 115.59375 190.730469 113.1875 C 187.730469 111.824219 184.644531 111.605469 181.554688 113.035156 C 179.980469 113.761719 179.042969 114.957031 178.695312 116.65625 C 178.179688 119.144531 178.371094 121.621094 178.785156 124.089844 C 179.832031 130.292969 180.964844 136.480469 181.277344 142.785156 C 181.65625 150.367188 181.210938 157.882812 179.675781 165.324219 C 179.433594 166.503906 178.960938 167.660156 178.886719 168.847656 C 178.8125 170.089844 179.066406 171.351562 178.777344 172.789062 Z M 148.902344 211.6875 C 149.324219 211.375 149.710938 210.996094 149.335938 210.457031 C 148.972656 209.9375 148.480469 210.089844 148.039062 210.414062 C 146.363281 211.652344 144.453125 212.121094 142.402344 212.136719 C 140.328125 212.152344 139.789062 211.726562 139.378906 209.699219 C 139.316406 209.386719 139.285156 209.0625 139.285156 208.742188 C 139.277344 207.621094 139.359375 207.5625 140.460938 207.792969 C 144.390625 208.621094 147.550781 206.691406 148.613281 202.820312 C 148.921875 201.699219 149.097656 200.550781 149.203125 199.394531 C 149.726562 193.71875 152.179688 189.078125 156.578125 185.457031 C 158.847656 183.589844 161.160156 181.78125 163.292969 179.75 C 165.539062 177.605469 167.535156 175.265625 168.851562 172.421875 C 169.488281 171.039062 169.910156 169.601562 169.824219 168.058594 C 169.796875 167.558594 169.566406 167.179688 169.007812 167.207031 C 168.480469 167.230469 168.308594 167.59375 168.316406 168.074219 C 168.335938 169.359375 167.992188 170.5625 167.46875 171.722656 C 166.457031 173.957031 164.972656 175.855469 163.273438 177.597656 C 160.996094 179.9375 158.4375 181.960938 155.902344 184.011719 C 151.257812 187.769531 148.441406 192.546875 147.761719 198.53125 C 147.582031 200.125 147.4375 201.730469 146.832031 203.238281 C 146.109375 205.027344 144.828125 206.125 142.890625 206.425781 C 141.933594 206.574219 141.027344 206.308594 140.109375 206.148438 C 138.855469 205.925781 138.148438 206.339844 137.882812 207.582031 C 137.550781 209.109375 137.824219 210.570312 138.554688 211.953125 C 139.085938 212.949219 139.925781 213.480469 141.03125 213.609375 C 141.496094 213.660156 141.964844 213.667969 142.433594 213.695312 C 144.78125 213.632812 146.984375 213.121094 148.902344 211.6875 Z M 196.460938 181.394531 C 196.15625 181.265625 195.859375 181.304688 195.644531 181.550781 C 195.453125 181.769531 195.296875 182.027344 195.148438 182.28125 C 190.355469 190.480469 183.910156 197.0625 175.804688 202.003906 C 172.863281 203.796875 169.738281 205.199219 166.355469 205.949219 C 165.839844 206.066406 165.351562 206.273438 165.480469 206.917969 C 165.625 207.609375 166.167969 207.589844 166.714844 207.453125 C 167.289062 207.308594 167.867188 207.175781 168.433594 207.003906 C 173.761719 205.390625 178.40625 202.53125 182.703125 199.0625 C 188.230469 194.597656 192.832031 189.324219 196.429688 183.1875 C 196.628906 182.847656 196.851562 182.515625 196.898438 182.109375 C 196.875 181.792969 196.773438 181.523438 196.460938 181.394531 Z M 204.359375 148.765625 C 204.109375 142.875 203.019531 137.160156 200.75 131.699219 C 198.605469 126.535156 195.527344 122.03125 191.214844 118.421875 C 190.78125 118.0625 190.308594 117.785156 189.867188 118.335938 C 189.457031 118.851562 189.832031 119.242188 190.21875 119.597656 C 190.929688 120.242188 191.660156 120.871094 192.335938 121.554688 C 197 126.300781 199.757812 132.082031 201.351562 138.457031 C 203.15625 145.683594 203.285156 153.007812 202.46875 160.371094 C 202.351562 161.425781 202.210938 162.476562 202.105469 163.53125 C 202.0625 163.945312 202.246094 164.273438 202.679688 164.355469 C 203.15625 164.445312 203.414062 164.152344 203.554688 163.742188 C 203.605469 163.601562 203.609375 163.449219 203.628906 163.304688 C 204.1875 159.664062 204.4375 156 204.367188 152.316406 C 204.367188 151.132812 204.410156 149.949219 204.359375 148.765625 Z M 204.359375 148.765625 " fill-opacity="1" fill-rule="nonzero"/></g><g fill="#ffffff" fill-opacity="1"><g transform="translate(132.220441, 245.551858)"><g><path d="M 13.5625 -3.84375 C 13.5625 -3 13.34375 -2.289062 12.90625 -1.71875 C 12.476562 -1.15625 11.894531 -0.726562 11.15625 -0.4375 C 10.425781 -0.144531 9.625 0 8.75 0 L 1.546875 0 L 1.546875 -14.90625 L 9.53125 -14.90625 C 10.226562 -14.90625 10.832031 -14.71875 11.34375 -14.34375 C 11.851562 -13.976562 12.242188 -13.503906 12.515625 -12.921875 C 12.796875 -12.335938 12.9375 -11.734375 12.9375 -11.109375 C 12.9375 -10.390625 12.753906 -9.707031 12.390625 -9.0625 C 12.023438 -8.425781 11.492188 -7.953125 10.796875 -7.640625 C 11.648438 -7.390625 12.320312 -6.9375 12.8125 -6.28125 C 13.3125 -5.625 13.5625 -4.8125 13.5625 -3.84375 Z M 10.640625 -4.390625 C 10.640625 -4.765625 10.5625 -5.101562 10.40625 -5.40625 C 10.257812 -5.707031 10.054688 -5.945312 9.796875 -6.125 C 9.535156 -6.300781 9.238281 -6.390625 8.90625 -6.390625 L 4.453125 -6.390625 L 4.453125 -2.453125 L 8.75 -2.453125 C 9.101562 -2.453125 9.421875 -2.539062 9.703125 -2.71875 C 9.992188 -2.894531 10.222656 -3.128906 10.390625 -3.421875 C 10.554688 -3.710938 10.640625 -4.035156 10.640625 -4.390625 Z M 4.453125 -12.4375 L 4.453125 -8.671875 L 8.3125 -8.671875 C 8.632812 -8.671875 8.925781 -8.75 9.1875 -8.90625 C 9.457031 -9.0625 9.671875 -9.273438 9.828125 -9.546875 C 9.992188 -9.828125 10.078125 -10.164062 10.078125 -10.5625 C 10.078125 -10.9375 10.003906 -11.265625 9.859375 -11.546875 C 9.710938 -11.828125 9.515625 -12.046875 9.265625 -12.203125 C 9.023438 -12.359375 8.75 -12.4375 8.4375 -12.4375 Z M 4.453125 -12.4375 "/></g></g></g><g fill="#ffffff" fill-opacity="1"><g transform="translate(146.49247, 245.551858)"><g/></g></g><g fill="#ffffff" fill-opacity="1"><g transform="translate(150.878887, 245.551858)"><g><path d="M 5.609375 -14.90625 L 8.546875 -14.90625 L 14.03125 0 L 11.046875 0 L 9.65625 -3.71875 L 4.453125 -3.71875 L 3.09375 0 L 0.109375 0 Z M 9.140625 -5.75 L 7.078125 -11.90625 L 4.9375 -5.75 Z M 9.140625 -5.75 "/></g></g></g><g fill="#ffffff" fill-opacity="1"><g transform="translate(164.332251, 245.551858)"><g/></g></g><g fill="#ffffff" fill-opacity="1"><g transform="translate(169.369436, 245.551858)"><g><path d="M 4.453125 -9.578125 L 4.453125 0 L 1.546875 0 L 1.546875 -14.90625 L 3.859375 -14.90625 L 11.578125 -5.078125 L 11.578125 -14.890625 L 14.46875 -14.890625 L 14.46875 0 L 12.046875 0 Z M 4.453125 -9.578125 "/></g></g></g><g fill="#ffffff" fill-opacity="1"><g transform="translate(185.383496, 245.551858)"><g/></g></g><g fill="#ffffff" fill-opacity="1"><g transform="translate(189.769913, 245.551858)"><g><path d="M 5.609375 -14.90625 L 8.546875 -14.90625 L 14.03125 0 L 11.046875 0 L 9.65625 -3.71875 L 4.453125 -3.71875 L 3.09375 0 L 0.109375 0 Z M 9.140625 -5.75 L 7.078125 -11.90625 L 4.9375 -5.75 Z M 9.140625 -5.75 "/></g></g></g><g fill="#ffffff" fill-opacity="1"><g transform="translate(203.223277, 245.551858)"><g/></g></g><g fill="#ffffff" fill-opacity="1"><g transform="translate(208.260463, 245.551858)"><g><path d="M 4.453125 -9.578125 L 4.453125 0 L 1.546875 0 L 1.546875 -14.90625 L 3.859375 -14.90625 L 11.578125 -5.078125 L 11.578125 -14.890625 L 14.46875 -14.890625 L 14.46875 0 L 12.046875 0 Z M 4.453125 -9.578125 "/></g></g></g><g fill="#ffffff" fill-opacity="1"><g transform="translate(224.274522, 245.551858)"><g/></g></g><g fill="#ffffff" fill-opacity="1"><g transform="translate(228.66094, 245.551858)"><g><path d="M 5.609375 -14.90625 L 8.546875 -14.90625 L 14.03125 0 L 11.046875 0 L 9.65625 -3.71875 L 4.453125 -3.71875 L 3.09375 0 L 0.109375 0 Z M 9.140625 -5.75 L 7.078125 -11.90625 L 4.9375 -5.75 Z M 9.140625 -5.75 "/></g></g></g></svg>