<svg xmlns="http://www.w3.org/2000/svg" xmlns:xlink="http://www.w3.org/1999/xlink" width="500" zoomAndPan="magnify" viewBox="0 0 375 374.999991" height="500" preserveAspectRatio="xMidYMid meet" version="1.0"><defs><g/><clipPath id="60d7484da9"><path d="M 100.4375 100.4375 L 274.5625 100.4375 L 274.5625 274.5625 L 100.4375 274.5625 Z M 100.4375 100.4375 " clip-rule="nonzero"/></clipPath><clipPath id="02e6ba4bed"><path d="M 187.5 100.4375 C 139.417969 100.4375 100.4375 139.417969 100.4375 187.5 C 100.4375 235.582031 139.417969 274.5625 187.5 274.5625 C 235.582031 274.5625 274.5625 235.582031 274.5625 187.5 C 274.5625 139.417969 235.582031 100.4375 187.5 100.4375 Z M 187.5 100.4375 " clip-rule="nonzero"/></clipPath><clipPath id="6442e26def"><path d="M 0.4375 0.4375 L 174.5625 0.4375 L 174.5625 174.5625 L 0.4375 174.5625 Z M 0.4375 0.4375 " clip-rule="nonzero"/></clipPath><clipPath id="313310eacd"><path d="M 87.5 0.4375 C 39.417969 0.4375 0.4375 39.417969 0.4375 87.5 C 0.4375 135.582031 39.417969 174.5625 87.5 174.5625 C 135.582031 174.5625 174.5625 135.582031 174.5625 87.5 C 174.5625 39.417969 135.582031 0.4375 87.5 0.4375 Z M 87.5 0.4375 " clip-rule="nonzero"/></clipPath><clipPath id="50b31417ee"><rect x="0" width="175" y="0" height="175"/></clipPath><clipPath id="f9ecc77633"><path d="M 147.640625 107.542969 L 227 107.542969 L 227 202.792969 L 147.640625 202.792969 Z M 147.640625 107.542969 " clip-rule="nonzero"/></clipPath></defs><g clip-path="url(#60d7484da9)"><g clip-path="url(#02e6ba4bed)"><g transform="matrix(1, 0, 0, 1, 100, 100)"><g clip-path="url(#50b31417ee)"><g clip-path="url(#6442e26def)"><g clip-path="url(#313310eacd)"><path fill="#ff8b00" d="M 0.4375 0.4375 L 174.5625 0.4375 L 174.5625 174.5625 L 0.4375 174.5625 Z M 0.4375 0.4375 " fill-opacity="1" fill-rule="nonzero"/></g></g></g></g></g></g><g clip-path="url(#f9ecc77633)"><path fill="#ffffff" d="M 171.285156 196.359375 C 165.117188 196.671875 161.179688 195.617188 158.566406 193.609375 C 155.890625 191.554688 154.546875 188.46875 153.722656 184.585938 C 152.707031 179.792969 152.46875 173.726562 151.023438 167.007812 C 149.941406 161.980469 147.648438 153.53125 147.882812 145.105469 C 148.042969 139.328125 149.386719 133.566406 153.019531 128.851562 C 157.679688 122.796875 162.191406 119.988281 166.410156 118.925781 C 172.390625 117.425781 177.84375 119.46875 182.511719 121.066406 C 182.273438 116.417969 183.089844 111.75 189.273438 108.699219 C 191.503906 107.597656 193.355469 107.867188 194.503906 108.65625 C 195.824219 109.5625 196.367188 111.1875 195.726562 112.832031 C 194.859375 115.058594 193.84375 116.675781 193.03125 118.1875 C 192.414062 119.332031 191.921875 120.40625 191.777344 121.699219 C 196.144531 119.386719 198.765625 118.617188 201.019531 118.765625 C 202.707031 118.878906 204.214844 119.503906 206.082031 120.484375 C 206.097656 120.492188 206.117188 120.503906 206.132812 120.511719 C 212.777344 118.972656 217.425781 120.015625 220.574219 122.652344 C 224.105469 125.613281 225.808594 130.683594 226.207031 136.78125 C 227.355469 154.242188 217.988281 180.261719 215.605469 185.265625 C 212.734375 191.304688 209.570312 192.535156 208.816406 192.84375 C 204.363281 194.675781 204.375 194.359375 199.566406 194.511719 C 199.546875 194.511719 199.53125 194.511719 199.511719 194.511719 C 198.160156 196.835938 196.472656 198.84375 194.078125 200.222656 C 190.703125 202.167969 185.902344 202.914062 178.609375 201.429688 C 175.789062 200.855469 173.332031 199.058594 171.285156 196.359375 Z M 182.703125 123.421875 C 182.644531 123.410156 182.589844 123.394531 182.53125 123.378906 C 178.054688 121.875 172.777344 119.578125 166.941406 121.042969 C 163.085938 122.011719 159.011719 124.648438 154.746094 130.183594 C 151.402344 134.523438 150.210938 139.84375 150.0625 145.167969 C 149.835938 153.394531 152.097656 161.640625 153.15625 166.546875 C 154.605469 173.269531 154.839844 179.339844 155.859375 184.136719 C 156.558594 187.445312 157.613281 190.125 159.894531 191.878906 C 162.019531 193.507812 165.148438 194.316406 169.863281 194.226562 C 169.613281 193.796875 169.367188 193.351562 169.128906 192.894531 C 165.753906 186.351562 163.980469 176.765625 163.90625 167.207031 C 163.828125 157.640625 165.453125 148.105469 168.785156 141.667969 C 171.140625 137.113281 174.371094 134.085938 178.378906 133.421875 C 178.527344 133.394531 178.679688 133.378906 178.832031 133.371094 C 178.246094 132.820312 177.710938 132.347656 177.210938 131.945312 C 173.972656 130.519531 172.476562 129.957031 170.761719 130.066406 C 170.027344 130.191406 169.226562 130.371094 168.304688 130.554688 C 168.0625 130.621094 167.808594 130.695312 167.542969 130.777344 C 167.347656 130.839844 167.152344 130.839844 166.964844 130.796875 C 166.382812 130.875 165.84375 130.472656 165.746094 129.890625 C 165.648438 129.296875 166.050781 128.734375 166.644531 128.636719 C 167.015625 128.578125 167.367188 128.515625 167.707031 128.453125 C 169.113281 128.042969 170.152344 127.820312 171.207031 127.832031 C 172.175781 127.707031 173.050781 127.683594 173.945312 127.851562 C 175.238281 128.097656 176.597656 128.730469 178.328125 130.070312 C 179.386719 130.53125 180.605469 131.070312 182.03125 131.691406 C 182.808594 130.722656 183.023438 129.480469 183.046875 128.097656 C 183.066406 126.648438 182.871094 125.058594 182.703125 123.421875 Z M 191.898438 124.113281 C 192.203125 125.773438 192.972656 127.804688 194.378906 130.492188 C 195.246094 129.136719 196.519531 127.269531 197.96875 125.570312 C 199.519531 123.746094 201.285156 122.140625 202.960938 121.425781 C 202.265625 121.164062 201.589844 120.992188 200.871094 120.945312 C 198.734375 120.800781 196.269531 121.714844 191.898438 124.113281 Z M 192.933594 132.421875 C 190.355469 127.671875 189.507812 124.632812 189.554688 122.273438 C 189.597656 120.316406 190.230469 118.789062 191.109375 117.15625 C 191.882812 115.710938 192.863281 114.167969 193.691406 112.039062 C 193.984375 111.289062 193.648438 110.539062 192.90625 110.269531 C 192.226562 110.023438 191.3125 110.128906 190.238281 110.65625 C 183.640625 113.914062 184.480469 119.433594 184.980469 124.257812 C 185.171875 126.085938 185.328125 127.832031 185.148438 129.378906 C 184.949219 131.136719 184.335938 132.648438 183.003906 133.8125 C 182.855469 133.941406 182.679688 134.023438 182.496094 134.0625 C 184.136719 134.613281 185.875 135.351562 187.683594 134.683594 C 188.210938 134.488281 190.152344 133.058594 192.933594 132.421875 Z M 200.664062 192.300781 C 203.945312 192.234375 204.296875 192.34375 207.988281 190.828125 C 208.625 190.566406 211.207031 189.4375 213.636719 184.328125 C 215.960938 179.433594 225.152344 154 224.03125 136.925781 C 223.675781 131.511719 222.308594 126.953125 219.171875 124.324219 C 216.054688 121.714844 211.242188 121.121094 204.15625 123.308594 C 202.640625 123.777344 201.054688 125.308594 199.628906 126.984375 C 198.082031 128.800781 196.742188 130.816406 195.925781 132.128906 C 196.074219 132.132812 196.226562 132.140625 196.378906 132.152344 C 199.492188 132.382812 203.175781 133.933594 206.925781 138.535156 C 208.265625 140.175781 209.019531 143.199219 209.324219 146.722656 C 209.984375 154.414062 208.679688 164.535156 208.484375 166.039062 C 208.40625 166.636719 207.859375 167.058594 207.261719 166.980469 C 206.664062 166.902344 206.242188 166.355469 206.320312 165.757812 C 206.507812 164.292969 207.796875 154.417969 207.148438 146.910156 C 206.890625 143.914062 206.371094 141.308594 205.234375 139.914062 C 202.007812 135.953125 198.894531 134.527344 196.21875 134.328125 C 193.445312 134.121094 191.183594 135.210938 189.855469 135.953125 C 189.160156 136.34375 188.671875 136.644531 188.441406 136.730469 C 186.46875 137.457031 184.554688 137.035156 182.734375 136.441406 C 181.320312 135.980469 179.988281 135.367188 178.734375 135.574219 C 175.34375 136.136719 172.714844 138.816406 170.722656 142.671875 C 167.527344 148.851562 166.011719 158.011719 166.085938 167.191406 C 166.160156 176.382812 167.824219 185.601562 171.070312 191.894531 C 173.101562 195.832031 175.722656 198.613281 179.042969 199.289062 C 185.613281 200.628906 189.949219 200.085938 192.988281 198.332031 C 197.589844 195.679688 199.183594 190.386719 201.179688 185.300781 C 201.402344 184.738281 202.035156 184.460938 202.597656 184.683594 C 203.15625 184.902344 203.433594 185.535156 203.210938 186.097656 C 202.386719 188.199219 201.597656 190.320312 200.664062 192.300781 Z M 200.664062 192.300781 " fill-opacity="1" fill-rule="evenodd"/></g><g fill="#ffffff" fill-opacity="1"><g transform="translate(157.671893, 230.305473)"><g><path d="M 12.28125 -3.484375 C 12.28125 -2.722656 12.082031 -2.082031 11.6875 -1.5625 C 11.289062 -1.050781 10.757812 -0.660156 10.09375 -0.390625 C 9.425781 -0.128906 8.703125 0 7.921875 0 L 1.40625 0 L 1.40625 -13.484375 L 8.625 -13.484375 C 9.257812 -13.484375 9.804688 -13.316406 10.265625 -12.984375 C 10.734375 -12.648438 11.085938 -12.21875 11.328125 -11.6875 C 11.578125 -11.164062 11.703125 -10.617188 11.703125 -10.046875 C 11.703125 -9.398438 11.535156 -8.785156 11.203125 -8.203125 C 10.878906 -7.617188 10.398438 -7.191406 9.765625 -6.921875 C 10.535156 -6.691406 11.144531 -6.273438 11.59375 -5.671875 C 12.050781 -5.078125 12.28125 -4.347656 12.28125 -3.484375 Z M 9.640625 -3.96875 C 9.640625 -4.3125 9.566406 -4.617188 9.421875 -4.890625 C 9.285156 -5.160156 9.097656 -5.375 8.859375 -5.53125 C 8.628906 -5.695312 8.363281 -5.78125 8.0625 -5.78125 L 4.03125 -5.78125 L 4.03125 -2.21875 L 7.921875 -2.21875 C 8.234375 -2.21875 8.519531 -2.296875 8.78125 -2.453125 C 9.039062 -2.617188 9.25 -2.832031 9.40625 -3.09375 C 9.5625 -3.363281 9.640625 -3.65625 9.640625 -3.96875 Z M 4.03125 -11.25 L 4.03125 -7.84375 L 7.53125 -7.84375 C 7.820312 -7.84375 8.085938 -7.910156 8.328125 -8.046875 C 8.566406 -8.191406 8.757812 -8.390625 8.90625 -8.640625 C 9.050781 -8.898438 9.125 -9.207031 9.125 -9.5625 C 9.125 -9.894531 9.054688 -10.1875 8.921875 -10.4375 C 8.785156 -10.695312 8.609375 -10.894531 8.390625 -11.03125 C 8.171875 -11.175781 7.921875 -11.25 7.640625 -11.25 Z M 4.03125 -11.25 "/></g></g></g><g fill="#ffffff" fill-opacity="1"><g transform="translate(170.589251, 230.305473)"><g/></g></g><g fill="#ffffff" fill-opacity="1"><g transform="translate(175.148325, 230.305473)"><g><path d="M 10.765625 -2.296875 L 10.765625 0 L 1.40625 0 L 1.40625 -13.484375 L 10.609375 -13.484375 L 10.609375 -11.1875 L 4.03125 -11.1875 L 4.03125 -7.9375 L 9.703125 -7.9375 L 9.703125 -5.8125 L 4.03125 -5.8125 L 4.03125 -2.296875 Z M 10.765625 -2.296875 "/></g></g></g><g fill="#ffffff" fill-opacity="1"><g transform="translate(186.564996, 230.305473)"><g/></g></g><g fill="#ffffff" fill-opacity="1"><g transform="translate(191.12407, 230.305473)"><g><path d="M 1.40625 0 L 1.40625 -13.484375 L 4.03125 -13.484375 L 4.03125 -2.296875 L 10.90625 -2.296875 L 10.90625 0 Z M 1.40625 0 "/></g></g></g><g fill="#ffffff" fill-opacity="1"><g transform="translate(201.647873, 230.305473)"><g/></g></g><g fill="#ffffff" fill-opacity="1"><g transform="translate(206.206947, 230.305473)"><g><path d="M 1.40625 0 L 1.40625 -13.484375 L 4.03125 -13.484375 L 4.03125 -2.296875 L 10.90625 -2.296875 L 10.90625 0 Z M 1.40625 0 "/></g></g></g><g fill="#ffffff" fill-opacity="1"><g transform="translate(136.54466, 254.805569)"><g><path d="M 1.546875 0 L 1.546875 -14.90625 L 7.875 -14.90625 C 8.5625 -14.90625 9.191406 -14.765625 9.765625 -14.484375 C 10.335938 -14.203125 10.835938 -13.820312 11.265625 -13.34375 C 11.691406 -12.875 12.023438 -12.34375 12.265625 -11.75 C 12.503906 -11.164062 12.625 -10.566406 12.625 -9.953125 C 12.625 -9.109375 12.425781 -8.304688 12.03125 -7.546875 C 11.632812 -6.796875 11.09375 -6.179688 10.40625 -5.703125 C 9.726562 -5.234375 8.921875 -5 7.984375 -5 L 4.453125 -5 L 4.453125 0 Z M 4.453125 -7.53125 L 7.8125 -7.53125 C 8.164062 -7.53125 8.476562 -7.628906 8.75 -7.828125 C 9.03125 -8.023438 9.253906 -8.304688 9.421875 -8.671875 C 9.597656 -9.046875 9.6875 -9.472656 9.6875 -9.953125 C 9.6875 -10.472656 9.585938 -10.914062 9.390625 -11.28125 C 9.203125 -11.644531 8.957031 -11.914062 8.65625 -12.09375 C 8.363281 -12.28125 8.039062 -12.375 7.6875 -12.375 L 4.453125 -12.375 Z M 4.453125 -7.53125 "/></g></g></g><g fill="#ffffff" fill-opacity="1"><g transform="translate(149.053555, 254.805569)"><g/></g></g><g fill="#ffffff" fill-opacity="1"><g transform="translate(154.09074, 254.805569)"><g><path d="M 11.90625 -2.546875 L 11.90625 0 L 1.546875 0 L 1.546875 -14.90625 L 11.71875 -14.90625 L 11.71875 -12.375 L 4.453125 -12.375 L 4.453125 -8.78125 L 10.734375 -8.78125 L 10.734375 -6.421875 L 4.453125 -6.421875 L 4.453125 -2.546875 Z M 11.90625 -2.546875 "/></g></g></g><g fill="#ffffff" fill-opacity="1"><g transform="translate(166.704703, 254.805569)"><g/></g></g><g fill="#ffffff" fill-opacity="1"><g transform="translate(171.741889, 254.805569)"><g><path d="M 1.546875 0 L 1.546875 -14.90625 L 7.875 -14.90625 C 8.5625 -14.90625 9.191406 -14.765625 9.765625 -14.484375 C 10.335938 -14.203125 10.835938 -13.820312 11.265625 -13.34375 C 11.691406 -12.875 12.023438 -12.34375 12.265625 -11.75 C 12.503906 -11.164062 12.625 -10.566406 12.625 -9.953125 C 12.625 -9.109375 12.425781 -8.304688 12.03125 -7.546875 C 11.632812 -6.796875 11.09375 -6.179688 10.40625 -5.703125 C 9.726562 -5.234375 8.921875 -5 7.984375 -5 L 4.453125 -5 L 4.453125 0 Z M 4.453125 -7.53125 L 7.8125 -7.53125 C 8.164062 -7.53125 8.476562 -7.628906 8.75 -7.828125 C 9.03125 -8.023438 9.253906 -8.304688 9.421875 -8.671875 C 9.597656 -9.046875 9.6875 -9.472656 9.6875 -9.953125 C 9.6875 -10.472656 9.585938 -10.914062 9.390625 -11.28125 C 9.203125 -11.644531 8.957031 -11.914062 8.65625 -12.09375 C 8.363281 -12.28125 8.039062 -12.375 7.6875 -12.375 L 4.453125 -12.375 Z M 4.453125 -7.53125 "/></g></g></g><g fill="#ffffff" fill-opacity="1"><g transform="translate(184.250784, 254.805569)"><g/></g></g><g fill="#ffffff" fill-opacity="1"><g transform="translate(189.287969, 254.805569)"><g><path d="M 1.546875 0 L 1.546875 -14.90625 L 7.875 -14.90625 C 8.5625 -14.90625 9.191406 -14.765625 9.765625 -14.484375 C 10.335938 -14.203125 10.835938 -13.820312 11.265625 -13.34375 C 11.691406 -12.875 12.023438 -12.34375 12.265625 -11.75 C 12.503906 -11.164062 12.625 -10.566406 12.625 -9.953125 C 12.625 -9.109375 12.425781 -8.304688 12.03125 -7.546875 C 11.632812 -6.796875 11.09375 -6.179688 10.40625 -5.703125 C 9.726562 -5.234375 8.921875 -5 7.984375 -5 L 4.453125 -5 L 4.453125 0 Z M 4.453125 -7.53125 L 7.8125 -7.53125 C 8.164062 -7.53125 8.476562 -7.628906 8.75 -7.828125 C 9.03125 -8.023438 9.253906 -8.304688 9.421875 -8.671875 C 9.597656 -9.046875 9.6875 -9.472656 9.6875 -9.953125 C 9.6875 -10.472656 9.585938 -10.914062 9.390625 -11.28125 C 9.203125 -11.644531 8.957031 -11.914062 8.65625 -12.09375 C 8.363281 -12.28125 8.039062 -12.375 7.6875 -12.375 L 4.453125 -12.375 Z M 4.453125 -7.53125 "/></g></g></g><g fill="#ffffff" fill-opacity="1"><g transform="translate(201.796864, 254.805569)"><g/></g></g><g fill="#ffffff" fill-opacity="1"><g transform="translate(206.83405, 254.805569)"><g><path d="M 11.90625 -2.546875 L 11.90625 0 L 1.546875 0 L 1.546875 -14.90625 L 11.71875 -14.90625 L 11.71875 -12.375 L 4.453125 -12.375 L 4.453125 -8.78125 L 10.734375 -8.78125 L 10.734375 -6.421875 L 4.453125 -6.421875 L 4.453125 -2.546875 Z M 11.90625 -2.546875 "/></g></g></g><g fill="#ffffff" fill-opacity="1"><g transform="translate(219.448013, 254.805569)"><g/></g></g><g fill="#ffffff" fill-opacity="1"><g transform="translate(224.485198, 254.805569)"><g><path d="M 1.546875 0 L 1.546875 -14.90625 L 8.140625 -14.90625 C 8.828125 -14.90625 9.460938 -14.765625 10.046875 -14.484375 C 10.628906 -14.203125 11.132812 -13.820312 11.5625 -13.34375 C 11.988281 -12.875 12.316406 -12.34375 12.546875 -11.75 C 12.773438 -11.164062 12.890625 -10.566406 12.890625 -9.953125 C 12.890625 -9.328125 12.78125 -8.722656 12.5625 -8.140625 C 12.351562 -7.554688 12.046875 -7.046875 11.640625 -6.609375 C 11.234375 -6.179688 10.753906 -5.847656 10.203125 -5.609375 L 13.609375 0 L 10.421875 0 L 7.34375 -5 L 4.453125 -5 L 4.453125 0 Z M 4.453125 -7.53125 L 8.078125 -7.53125 C 8.441406 -7.53125 8.765625 -7.640625 9.046875 -7.859375 C 9.328125 -8.078125 9.550781 -8.367188 9.71875 -8.734375 C 9.882812 -9.097656 9.96875 -9.503906 9.96875 -9.953125 C 9.96875 -10.429688 9.867188 -10.847656 9.671875 -11.203125 C 9.484375 -11.554688 9.238281 -11.835938 8.9375 -12.046875 C 8.632812 -12.265625 8.304688 -12.375 7.953125 -12.375 L 4.453125 -12.375 Z M 4.453125 -7.53125 "/></g></g></g></svg>