<svg xmlns="http://www.w3.org/2000/svg" xmlns:xlink="http://www.w3.org/1999/xlink" width="500" zoomAndPan="magnify" viewBox="0 0 375 374.999991" height="500" preserveAspectRatio="xMidYMid meet" version="1.0"><defs><g/><clipPath id="a5a48ceed1"><path d="M 0.5 0.976562 L 294.5 0.976562 L 294.5 294.976562 L 0.5 294.976562 Z M 0.5 0.976562 " clip-rule="nonzero"/></clipPath><clipPath id="ed0883ece6"><path d="M 147.5 0.976562 C 66.3125 0.976562 0.5 66.789062 0.5 147.976562 C 0.5 229.160156 66.3125 294.976562 147.5 294.976562 C 228.6875 294.976562 294.5 229.160156 294.5 147.976562 C 294.5 66.789062 228.6875 0.976562 147.5 0.976562 Z M 147.5 0.976562 " clip-rule="nonzero"/></clipPath><clipPath id="75bddb3ae9"><path d="M 0.5 0.976562 L 294.5 0.976562 L 294.5 294.976562 L 0.5 294.976562 Z M 0.5 0.976562 " clip-rule="nonzero"/></clipPath><clipPath id="af70e282ef"><path d="M 147.5 0.976562 C 66.3125 0.976562 0.5 66.789062 0.5 147.976562 C 0.5 229.160156 66.3125 294.976562 147.5 294.976562 C 228.6875 294.976562 294.5 229.160156 294.5 147.976562 C 294.5 66.789062 228.6875 0.976562 147.5 0.976562 Z M 147.5 0.976562 " clip-rule="nonzero"/></clipPath><clipPath id="3a6eb71c5c"><rect x="0" width="295" y="0" height="295"/></clipPath><clipPath id="e0af5b3a0d"><path d="M 61.507812 27.507812 L 233.476562 27.507812 L 233.476562 268.433594 L 61.507812 268.433594 Z M 61.507812 27.507812 " clip-rule="nonzero"/></clipPath><clipPath id="b3a7b065cc"><rect x="0" width="295" y="0" height="296"/></clipPath><clipPath id="ae39bf4d60"><rect x="0" width="120" y="0" height="45"/></clipPath><clipPath id="e0000c7e30"><rect x="0" width="184" y="0" height="39"/></clipPath></defs><g transform="matrix(1, 0, 0, 1, 40, 6)"><g clip-path="url(#b3a7b065cc)"><g clip-path="url(#a5a48ceed1)"><g clip-path="url(#ed0883ece6)"><g><g clip-path="url(#3a6eb71c5c)"><g clip-path="url(#75bddb3ae9)"><g clip-path="url(#af70e282ef)"><path fill="#ff8b00" d="M 0.5 0.976562 L 294.5 0.976562 L 294.5 294.976562 L 0.5 294.976562 Z M 0.5 0.976562 " fill-opacity="1" fill-rule="nonzero"/></g></g></g></g></g></g><g clip-path="url(#e0af5b3a0d)"><path fill="#ffffff" d="M 162.523438 136.378906 C 158.34375 137.773438 156.570312 131.195312 160.710938 129.804688 C 167.914062 127.386719 178.214844 123.796875 184.359375 130.332031 C 187.867188 134.070312 188.523438 139.722656 188.539062 144.609375 C 188.550781 151.726562 187.417969 158.914062 186.445312 165.945312 C 185.851562 170.289062 179.285156 168.433594 179.875 164.132812 C 180.640625 158.554688 181.378906 152.929688 181.644531 147.292969 C 181.824219 143.648438 182.207031 138.140625 179.542969 135.160156 C 175.726562 130.894531 166.789062 134.949219 162.523438 136.378906 Z M 178.433594 178.445312 C 178.613281 176.535156 179.847656 175.125 181.839844 175.03125 C 183.558594 174.953125 185.417969 176.65625 185.246094 178.445312 C 185.074219 180.308594 184.898438 182.191406 184.792969 184.0625 C 184.699219 185.976562 183.3125 187.390625 181.390625 187.476562 C 179.609375 187.5625 177.882812 185.851562 177.976562 184.0625 C 178.078125 182.191406 178.257812 180.308594 178.433594 178.445312 Z M 223.265625 146.152344 C 220.125 156.945312 215.800781 176.164062 213 206.351562 C 211.015625 227.78125 204.035156 240.414062 193.121094 242.78125 C 194.421875 240.132812 195.445312 237.332031 196.144531 234.394531 C 198.050781 226.417969 197.546875 220.492188 196.910156 212.984375 C 195.972656 202 194.695312 186.964844 199.964844 154.757812 C 202.835938 137.210938 199.992188 127.34375 199.871094 126.9375 L 199.675781 126.347656 C 196.714844 116.210938 187.527344 109.136719 176.988281 108.832031 C 176.535156 107.433594 176.171875 105.398438 176.84375 103.425781 C 177.625 101.140625 179.730469 99.261719 183.101562 97.851562 C 195.675781 92.5625 209.519531 96.050781 220.125 107.179688 C 231.226562 118.816406 225.234375 139.390625 223.265625 146.152344 Z M 148.730469 261.621094 L 146.257812 261.621094 C 126.289062 261.621094 109.515625 249.769531 105.460938 232.8125 C 103.808594 225.90625 104.25 220.722656 104.859375 213.5625 C 105.824219 202.222656 107.148438 186.695312 101.738281 153.660156 C 99.625 140.746094 100.882812 132.460938 101.425781 129.804688 L 101.707031 128.75 C 103.726562 121.019531 110.71875 115.613281 118.703125 115.613281 C 119.089844 115.613281 119.464844 115.640625 119.839844 115.671875 L 120.429688 115.707031 C 121.136719 115.777344 121.851562 115.894531 122.609375 116.066406 L 122.695312 116.082031 C 124.828125 116.507812 128.089844 117.359375 131.496094 118.984375 C 138.742188 122.433594 147.140625 122.476562 147.496094 122.476562 C 147.847656 122.476562 156.238281 122.433594 163.484375 118.984375 C 166.898438 117.359375 170.152344 116.507812 172.289062 116.082031 L 172.375 116.066406 C 173.039062 115.910156 173.675781 115.800781 174.339844 115.722656 L 175.140625 115.671875 C 175.515625 115.640625 175.898438 115.613281 176.28125 115.613281 C 184.257812 115.613281 191.246094 121.019531 193.273438 128.75 L 193.554688 129.789062 C 194.101562 132.453125 195.359375 140.738281 193.238281 153.660156 C 187.835938 186.695312 189.152344 202.222656 190.125 213.5625 C 190.738281 220.722656 191.171875 225.90625 189.519531 232.8125 C 185.46875 249.769531 168.695312 261.621094 148.730469 261.621094 Z M 81.980469 206.351562 C 79.183594 176.152344 74.851562 156.945312 71.710938 146.152344 C 69.742188 139.390625 63.757812 118.816406 74.851562 107.179688 C 85.46875 96.050781 99.3125 92.5625 111.886719 97.851562 C 115.25 99.261719 117.355469 101.140625 118.136719 103.425781 C 118.808594 105.398438 118.445312 107.433594 118 108.832031 C 107.644531 109.128906 98.601562 115.953125 95.472656 125.796875 L 95.113281 126.9375 C 94.992188 127.34375 92.144531 137.210938 95.019531 154.757812 C 100.289062 186.964844 99.007812 202 98.074219 212.984375 C 97.433594 220.492188 96.929688 226.417969 98.835938 234.394531 C 99.539062 237.332031 100.5625 240.132812 101.863281 242.789062 C 90.949219 240.421875 83.964844 227.78125 81.980469 206.351562 Z M 121.726562 88.257812 C 124.953125 87.433594 128.535156 88.019531 132.40625 89.996094 C 130.25 94.042969 127.015625 97.523438 122.980469 98.039062 C 121.328125 95.585938 118.8125 93.570312 115.480469 92.015625 C 116.941406 90.535156 119.027344 88.949219 121.726562 88.257812 Z M 127.292969 41.003906 C 117.28125 42.371094 115.769531 53.648438 118.445312 61.683594 C 116.972656 61.832031 115.65625 61.96875 114.242188 61.953125 C 111.292969 55.742188 109.960938 47.375 114.097656 41.628906 C 120.25 33.085938 133.039062 31.886719 139.972656 39.644531 C 151.464844 52.492188 150.664062 71.324219 153.78125 87.171875 C 155.269531 94.746094 161.578125 103.1875 169.707031 104.71875 C 169.589844 106.5 169.800781 108.160156 170.144531 109.574219 C 167.648438 110.117188 164.191406 111.101562 160.554688 112.835938 C 154.734375 115.609375 147.554688 115.664062 147.496094 115.664062 C 147.421875 115.664062 140.296875 115.628906 134.425781 112.835938 C 130.796875 111.101562 127.332031 110.117188 124.84375 109.574219 C 125.195312 108.085938 125.410156 106.332031 125.25 104.445312 C 127.933594 103.703125 130.582031 102.21875 132.5 100.75 C 138.222656 96.378906 140.761719 89.625 141.941406 82.734375 C 143.320312 74.71875 143.832031 66.414062 142.496094 58.359375 C 141.246094 50.84375 136.761719 39.710938 127.292969 41.003906 Z M 119.421875 61.445312 C 119.5 61.300781 119.519531 61.355469 119.421875 61.445312 Z M 173.199219 88.242188 C 175.921875 88.925781 178.027344 90.523438 179.5 92.015625 C 176.171875 93.574219 173.652344 95.589844 172 98.046875 C 167.828125 97.59375 164.140625 94.242188 162.046875 90.277344 C 166.097656 88.09375 169.835938 87.40625 173.199219 88.242188 Z M 225.054688 102.476562 C 214.039062 90.921875 199.964844 86.347656 186.414062 89.609375 C 184.472656 87.050781 180.683594 83.132812 174.945312 81.660156 C 170.21875 80.449219 165.222656 81.125 160.039062 83.65625 C 159.210938 78.820312 159.023438 73.804688 158.214844 68.992188 C 155.832031 54.902344 151.15625 34.359375 136.015625 28.699219 C 127.496094 25.515625 116.605469 29.003906 110.460938 35.402344 C 103.925781 42.207031 103.683594 52.074219 106.480469 60.609375 C 107.144531 62.636719 107.867188 65.160156 109.125 66.917969 C 111.636719 70.425781 119.695312 69.304688 122.988281 67.183594 C 124.085938 66.472656 125.144531 65.4375 125.609375 64.191406 C 126.546875 61.683594 124.515625 59.617188 124.015625 57.191406 C 123.183594 53.175781 126.199219 44.253906 131.378906 49.035156 C 136.425781 53.6875 136.5625 63.265625 136.429688 69.554688 C 136.335938 73.941406 135.902344 78.335938 135.050781 82.644531 C 134.988281 82.960938 134.917969 83.28125 134.835938 83.605469 C 129.691406 81.121094 124.726562 80.460938 120.039062 81.660156 C 114.292969 83.132812 110.511719 87.050781 108.570312 89.609375 C 95.019531 86.347656 80.941406 90.921875 69.921875 102.476562 C 56.121094 116.949219 62.933594 140.359375 65.175781 148.058594 C 68.230469 158.5625 72.453125 177.316406 75.199219 206.980469 C 78.585938 243.570312 94.722656 250.015625 105.664062 250.015625 C 105.902344 250.015625 106.128906 250.007812 106.367188 250 C 115.152344 261.320312 129.78125 268.429688 146.257812 268.429688 L 148.730469 268.429688 C 165.203125 268.429688 179.832031 261.320312 188.617188 250 C 188.847656 250.007812 189.078125 250.015625 189.316406 250.015625 C 200.261719 250.015625 216.398438 243.5625 219.785156 206.980469 C 222.535156 177.316406 226.75 158.5625 229.804688 148.058594 C 232.042969 140.359375 238.855469 116.949219 225.054688 102.476562 " fill-opacity="1" fill-rule="nonzero"/></g></g></g><g transform="matrix(1, 0, 0, 1, 128, 301)"><g clip-path="url(#ae39bf4d60)"><g fill="#ff8b00" fill-opacity="1"><g transform="translate(1.400085, 34.627052)"><g><path d="M 23.90625 -6.78125 C 23.90625 -5.289062 23.519531 -4.046875 22.75 -3.046875 C 21.988281 -2.046875 20.960938 -1.285156 19.671875 -0.765625 C 18.378906 -0.253906 16.96875 0 15.4375 0 L 2.734375 0 L 2.734375 -26.28125 L 16.8125 -26.28125 C 18.039062 -26.28125 19.101562 -25.953125 20 -25.296875 C 20.90625 -24.640625 21.597656 -23.800781 22.078125 -22.78125 C 22.554688 -21.757812 22.796875 -20.691406 22.796875 -19.578125 C 22.796875 -18.316406 22.472656 -17.117188 21.828125 -15.984375 C 21.191406 -14.847656 20.257812 -14.007812 19.03125 -13.46875 C 20.53125 -13.03125 21.71875 -12.226562 22.59375 -11.0625 C 23.46875 -9.90625 23.90625 -8.476562 23.90625 -6.78125 Z M 18.765625 -7.734375 C 18.765625 -8.398438 18.628906 -9 18.359375 -9.53125 C 18.085938 -10.0625 17.722656 -10.476562 17.265625 -10.78125 C 16.804688 -11.09375 16.28125 -11.25 15.6875 -11.25 L 7.84375 -11.25 L 7.84375 -4.328125 L 15.4375 -4.328125 C 16.050781 -4.328125 16.609375 -4.476562 17.109375 -4.78125 C 17.617188 -5.09375 18.019531 -5.507812 18.3125 -6.03125 C 18.613281 -6.550781 18.765625 -7.117188 18.765625 -7.734375 Z M 7.84375 -21.90625 L 7.84375 -15.28125 L 14.65625 -15.28125 C 15.226562 -15.28125 15.75 -15.414062 16.21875 -15.6875 C 16.6875 -15.96875 17.0625 -16.351562 17.34375 -16.84375 C 17.625 -17.332031 17.765625 -17.925781 17.765625 -18.625 C 17.765625 -19.289062 17.632812 -19.867188 17.375 -20.359375 C 17.113281 -20.847656 16.765625 -21.226562 16.328125 -21.5 C 15.898438 -21.769531 15.414062 -21.90625 14.875 -21.90625 Z M 7.84375 -21.90625 "/></g></g></g><g fill="#ff8b00" fill-opacity="1"><g transform="translate(26.568258, 34.627052)"><g/></g></g><g fill="#ff8b00" fill-opacity="1"><g transform="translate(35.45114, 34.627052)"><g><path d="M 20.984375 -4.484375 L 20.984375 0 L 2.734375 0 L 2.734375 -26.28125 L 20.65625 -26.28125 L 20.65625 -21.796875 L 7.84375 -21.796875 L 7.84375 -15.46875 L 18.921875 -15.46875 L 18.921875 -11.328125 L 7.84375 -11.328125 L 7.84375 -4.484375 Z M 20.984375 -4.484375 "/></g></g></g><g fill="#ff8b00" fill-opacity="1"><g transform="translate(57.695379, 34.627052)"><g/></g></g><g fill="#ff8b00" fill-opacity="1"><g transform="translate(66.578261, 34.627052)"><g><path d="M 2.734375 0 L 2.734375 -26.28125 L 7.84375 -26.28125 L 7.84375 -4.484375 L 21.25 -4.484375 L 21.25 0 Z M 2.734375 0 "/></g></g></g><g fill="#ff8b00" fill-opacity="1"><g transform="translate(87.082697, 34.627052)"><g/></g></g><g fill="#ff8b00" fill-opacity="1"><g transform="translate(95.965579, 34.627052)"><g><path d="M 2.734375 0 L 2.734375 -26.28125 L 7.84375 -26.28125 L 7.84375 -4.484375 L 21.25 -4.484375 L 21.25 0 Z M 2.734375 0 "/></g></g></g></g></g><g transform="matrix(1, 0, 0, 1, 96, 336)"><g clip-path="url(#e0000c7e30)"><g fill="#ff8b00" fill-opacity="1"><g transform="translate(1.637116, 34.65205)"><g><path d="M 2.734375 0 L 2.734375 -26.28125 L 13.875 -26.28125 C 15.082031 -26.28125 16.191406 -26.03125 17.203125 -25.53125 C 18.222656 -25.039062 19.109375 -24.375 19.859375 -23.53125 C 20.609375 -22.695312 21.191406 -21.757812 21.609375 -20.71875 C 22.035156 -19.6875 22.25 -18.628906 22.25 -17.546875 C 22.25 -16.066406 21.898438 -14.660156 21.203125 -13.328125 C 20.515625 -11.992188 19.566406 -10.90625 18.359375 -10.0625 C 17.148438 -9.226562 15.71875 -8.8125 14.0625 -8.8125 L 7.84375 -8.8125 L 7.84375 0 Z M 7.84375 -13.28125 L 13.765625 -13.28125 C 14.378906 -13.28125 14.929688 -13.453125 15.421875 -13.796875 C 15.921875 -14.148438 16.316406 -14.648438 16.609375 -15.296875 C 16.910156 -15.953125 17.0625 -16.703125 17.0625 -17.546875 C 17.0625 -18.460938 16.894531 -19.238281 16.5625 -19.875 C 16.226562 -20.519531 15.796875 -21 15.265625 -21.3125 C 14.734375 -21.632812 14.160156 -21.796875 13.546875 -21.796875 L 7.84375 -21.796875 Z M 7.84375 -13.28125 "/></g></g></g><g fill="#ff8b00" fill-opacity="1"><g transform="translate(23.69607, 34.65205)"><g/></g></g><g fill="#ff8b00" fill-opacity="1"><g transform="translate(32.578952, 34.65205)"><g><path d="M 20.984375 -4.484375 L 20.984375 0 L 2.734375 0 L 2.734375 -26.28125 L 20.65625 -26.28125 L 20.65625 -21.796875 L 7.84375 -21.796875 L 7.84375 -15.46875 L 18.921875 -15.46875 L 18.921875 -11.328125 L 7.84375 -11.328125 L 7.84375 -4.484375 Z M 20.984375 -4.484375 "/></g></g></g><g fill="#ff8b00" fill-opacity="1"><g transform="translate(54.823191, 34.65205)"><g/></g></g><g fill="#ff8b00" fill-opacity="1"><g transform="translate(63.706073, 34.65205)"><g><path d="M 2.734375 0 L 2.734375 -26.28125 L 13.875 -26.28125 C 15.082031 -26.28125 16.191406 -26.03125 17.203125 -25.53125 C 18.222656 -25.039062 19.109375 -24.375 19.859375 -23.53125 C 20.609375 -22.695312 21.191406 -21.757812 21.609375 -20.71875 C 22.035156 -19.6875 22.25 -18.628906 22.25 -17.546875 C 22.25 -16.066406 21.898438 -14.660156 21.203125 -13.328125 C 20.515625 -11.992188 19.566406 -10.90625 18.359375 -10.0625 C 17.148438 -9.226562 15.71875 -8.8125 14.0625 -8.8125 L 7.84375 -8.8125 L 7.84375 0 Z M 7.84375 -13.28125 L 13.765625 -13.28125 C 14.378906 -13.28125 14.929688 -13.453125 15.421875 -13.796875 C 15.921875 -14.148438 16.316406 -14.648438 16.609375 -15.296875 C 16.910156 -15.953125 17.0625 -16.703125 17.0625 -17.546875 C 17.0625 -18.460938 16.894531 -19.238281 16.5625 -19.875 C 16.226562 -20.519531 15.796875 -21 15.265625 -21.3125 C 14.734375 -21.632812 14.160156 -21.796875 13.546875 -21.796875 L 7.84375 -21.796875 Z M 7.84375 -13.28125 "/></g></g></g><g fill="#ff8b00" fill-opacity="1"><g transform="translate(85.765028, 34.65205)"><g/></g></g><g fill="#ff8b00" fill-opacity="1"><g transform="translate(94.64791, 34.65205)"><g><path d="M 2.734375 0 L 2.734375 -26.28125 L 13.875 -26.28125 C 15.082031 -26.28125 16.191406 -26.03125 17.203125 -25.53125 C 18.222656 -25.039062 19.109375 -24.375 19.859375 -23.53125 C 20.609375 -22.695312 21.191406 -21.757812 21.609375 -20.71875 C 22.035156 -19.6875 22.25 -18.628906 22.25 -17.546875 C 22.25 -16.066406 21.898438 -14.660156 21.203125 -13.328125 C 20.515625 -11.992188 19.566406 -10.90625 18.359375 -10.0625 C 17.148438 -9.226562 15.71875 -8.8125 14.0625 -8.8125 L 7.84375 -8.8125 L 7.84375 0 Z M 7.84375 -13.28125 L 13.765625 -13.28125 C 14.378906 -13.28125 14.929688 -13.453125 15.421875 -13.796875 C 15.921875 -14.148438 16.316406 -14.648438 16.609375 -15.296875 C 16.910156 -15.953125 17.0625 -16.703125 17.0625 -17.546875 C 17.0625 -18.460938 16.894531 -19.238281 16.5625 -19.875 C 16.226562 -20.519531 15.796875 -21 15.265625 -21.3125 C 14.734375 -21.632812 14.160156 -21.796875 13.546875 -21.796875 L 7.84375 -21.796875 Z M 7.84375 -13.28125 "/></g></g></g><g fill="#ff8b00" fill-opacity="1"><g transform="translate(116.706864, 34.65205)"><g/></g></g><g fill="#ff8b00" fill-opacity="1"><g transform="translate(125.589747, 34.65205)"><g><path d="M 20.984375 -4.484375 L 20.984375 0 L 2.734375 0 L 2.734375 -26.28125 L 20.65625 -26.28125 L 20.65625 -21.796875 L 7.84375 -21.796875 L 7.84375 -15.46875 L 18.921875 -15.46875 L 18.921875 -11.328125 L 7.84375 -11.328125 L 7.84375 -4.484375 Z M 20.984375 -4.484375 "/></g></g></g><g fill="#ff8b00" fill-opacity="1"><g transform="translate(147.833985, 34.65205)"><g/></g></g><g fill="#ff8b00" fill-opacity="1"><g transform="translate(156.716868, 34.65205)"><g><path d="M 2.734375 0 L 2.734375 -26.28125 L 14.359375 -26.28125 C 15.566406 -26.28125 16.679688 -26.03125 17.703125 -25.53125 C 18.734375 -25.039062 19.625 -24.375 20.375 -23.53125 C 21.125 -22.695312 21.703125 -21.757812 22.109375 -20.71875 C 22.523438 -19.6875 22.734375 -18.628906 22.734375 -17.546875 C 22.734375 -16.429688 22.539062 -15.363281 22.15625 -14.34375 C 21.769531 -13.320312 21.21875 -12.425781 20.5 -11.65625 C 19.789062 -10.894531 18.953125 -10.304688 17.984375 -9.890625 L 23.984375 0 L 18.359375 0 L 12.953125 -8.8125 L 7.84375 -8.8125 L 7.84375 0 Z M 7.84375 -13.28125 L 14.25 -13.28125 C 14.894531 -13.28125 15.460938 -13.472656 15.953125 -13.859375 C 16.441406 -14.242188 16.832031 -14.753906 17.125 -15.390625 C 17.425781 -16.035156 17.578125 -16.753906 17.578125 -17.546875 C 17.578125 -18.378906 17.40625 -19.109375 17.0625 -19.734375 C 16.71875 -20.367188 16.28125 -20.867188 15.75 -21.234375 C 15.21875 -21.609375 14.644531 -21.796875 14.03125 -21.796875 L 7.84375 -21.796875 Z M 7.84375 -13.28125 "/></g></g></g></g></g></svg>