<svg xmlns="http://www.w3.org/2000/svg" xmlns:xlink="http://www.w3.org/1999/xlink" width="500" zoomAndPan="magnify" viewBox="0 0 375 374.999991" height="500" preserveAspectRatio="xMidYMid meet" version="1.0"><defs><g/><clipPath id="ee19234dbd"><path d="M 100.4375 100.4375 L 274.5625 100.4375 L 274.5625 274.5625 L 100.4375 274.5625 Z M 100.4375 100.4375 " clip-rule="nonzero"/></clipPath><clipPath id="8a28387a66"><path d="M 187.5 100.4375 C 139.417969 100.4375 100.4375 139.417969 100.4375 187.5 C 100.4375 235.582031 139.417969 274.5625 187.5 274.5625 C 235.582031 274.5625 274.5625 235.582031 274.5625 187.5 C 274.5625 139.417969 235.582031 100.4375 187.5 100.4375 Z M 187.5 100.4375 " clip-rule="nonzero"/></clipPath><clipPath id="27fea65469"><path d="M 0.4375 0.4375 L 174.5625 0.4375 L 174.5625 174.5625 L 0.4375 174.5625 Z M 0.4375 0.4375 " clip-rule="nonzero"/></clipPath><clipPath id="58cc4af96a"><path d="M 87.5 0.4375 C 39.417969 0.4375 0.4375 39.417969 0.4375 87.5 C 0.4375 135.582031 39.417969 174.5625 87.5 174.5625 C 135.582031 174.5625 174.5625 135.582031 174.5625 87.5 C 174.5625 39.417969 135.582031 0.4375 87.5 0.4375 Z M 87.5 0.4375 " clip-rule="nonzero"/></clipPath><clipPath id="af3b10f780"><rect x="0" width="175" y="0" height="175"/></clipPath><clipPath id="c879a20212"><path d="M 145.578125 117.101562 L 229.578125 117.101562 L 229.578125 198.851562 L 145.578125 198.851562 Z M 145.578125 117.101562 " clip-rule="nonzero"/></clipPath></defs><g clip-path="url(#ee19234dbd)"><g clip-path="url(#8a28387a66)"><g transform="matrix(1, 0, 0, 1, 100, 100)"><g clip-path="url(#af3b10f780)"><g clip-path="url(#27fea65469)"><g clip-path="url(#58cc4af96a)"><path fill="#297506" d="M 0.4375 0.4375 L 174.5625 0.4375 L 174.5625 174.5625 L 0.4375 174.5625 Z M 0.4375 0.4375 " fill-opacity="1" fill-rule="nonzero"/></g></g></g></g></g></g><g clip-path="url(#c879a20212)"><path fill="#ffffff" d="M 151.28125 199.027344 C 150.777344 199.054688 150.117188 198.953125 149.472656 198.769531 C 148.976562 198.625 148.476562 198.5 147.984375 198.347656 C 146.90625 198.015625 146.148438 197.328125 145.746094 196.265625 C 145.664062 196.054688 145.625 195.839844 145.621094 195.613281 C 145.609375 194.75 145.679688 193.886719 145.742188 193.027344 C 145.84375 191.667969 145.988281 190.3125 146.199219 188.964844 C 146.398438 187.714844 146.640625 186.472656 146.878906 185.226562 C 147.28125 183.136719 147.585938 181.027344 147.972656 178.933594 C 148.59375 175.59375 149.355469 172.28125 150.632812 169.117188 C 151.316406 167.421875 152.167969 165.808594 153.214844 164.304688 C 153.65625 163.671875 154.1875 163.125 154.742188 162.59375 C 155.597656 161.777344 156.457031 160.964844 157.238281 160.074219 C 158.148438 159.03125 158.921875 157.890625 159.632812 156.710938 C 160.175781 155.8125 160.761719 154.949219 161.542969 154.238281 C 161.941406 153.871094 162.367188 153.53125 162.789062 153.191406 C 163.363281 152.726562 163.925781 152.25 164.441406 151.71875 C 165.78125 150.335938 167.226562 149.074219 168.742188 147.890625 C 169.648438 147.183594 170.429688 146.359375 171.121094 145.441406 C 171.871094 144.4375 172.625 143.4375 173.4375 142.480469 C 174.398438 141.351562 175.480469 140.355469 176.625 139.421875 C 177.8125 138.453125 179.007812 137.492188 180.160156 136.484375 C 180.996094 135.753906 181.777344 134.957031 182.570312 134.171875 C 183.730469 133.027344 184.910156 131.90625 186.195312 130.902344 C 187.691406 129.734375 189.257812 128.675781 190.941406 127.796875 C 191.65625 127.421875 192.359375 127.023438 192.980469 126.496094 C 193.214844 126.296875 193.417969 126.070312 193.617188 125.835938 C 194.699219 124.59375 196.035156 123.703125 197.535156 123.050781 C 199.628906 122.144531 201.730469 121.257812 203.835938 120.367188 C 204.515625 120.082031 205.222656 119.867188 205.941406 119.691406 C 206.980469 119.433594 208.019531 119.171875 209.070312 118.949219 C 211.039062 118.53125 212.914062 118.820312 214.683594 119.785156 C 214.867188 119.886719 215 119.886719 215.175781 119.78125 C 216.234375 119.160156 217.402344 118.90625 218.613281 118.871094 C 219.597656 118.839844 220.589844 118.84375 221.578125 118.882812 C 223.507812 118.957031 225.339844 118.5625 227.121094 117.855469 C 227.585938 117.671875 228.046875 117.480469 228.515625 117.300781 C 228.75 117.207031 229.007812 117.101562 229.203125 117.355469 C 229.390625 117.597656 229.261719 117.832031 229.132812 118.054688 C 228.953125 118.359375 228.699219 118.59375 228.410156 118.792969 C 226.898438 119.835938 225.273438 120.648438 223.5 121.148438 C 223.042969 121.277344 222.585938 121.402344 222.148438 121.578125 C 221.664062 121.773438 221.226562 122.035156 220.851562 122.402344 C 220.449219 122.800781 220.3125 123.296875 220.273438 123.839844 C 220.261719 123.992188 220.324219 124.101562 220.429688 124.207031 C 221.582031 125.335938 222.117188 126.761719 222.257812 128.316406 C 222.582031 131.929688 221.980469 135.390625 220.425781 138.675781 C 219.898438 139.796875 219.261719 140.863281 218.625 141.925781 C 217.878906 143.171875 217.285156 144.488281 216.746094 145.835938 C 216.355469 146.816406 215.945312 147.792969 215.480469 148.746094 C 214.835938 150.074219 214.003906 151.261719 212.949219 152.296875 C 212.042969 153.191406 211.234375 154.160156 210.59375 155.265625 C 210.308594 155.761719 210.015625 156.253906 209.742188 156.753906 C 208.945312 158.207031 208.023438 159.585938 207.113281 160.96875 C 206.519531 161.878906 205.980469 162.820312 205.4375 163.761719 C 204.652344 165.128906 203.609375 166.28125 202.460938 167.347656 C 201.546875 168.203125 200.625 169.050781 199.726562 169.925781 C 198.746094 170.875 197.941406 171.941406 197.300781 173.144531 C 196.550781 174.554688 195.589844 175.816406 194.460938 176.945312 C 193.949219 177.460938 193.390625 177.921875 192.800781 178.339844 C 191.332031 179.382812 189.9375 180.507812 188.566406 181.671875 C 187.527344 182.558594 186.40625 183.339844 185.265625 184.085938 C 183.980469 184.925781 182.777344 185.867188 181.660156 186.921875 C 180.511719 188 179.160156 188.78125 177.746094 189.449219 C 176.902344 189.847656 176.039062 190.207031 175.195312 190.597656 C 174.21875 191.046875 173.296875 191.601562 172.394531 192.179688 C 170.664062 193.292969 168.828125 194.179688 166.871094 194.816406 C 165.042969 195.414062 163.269531 196.15625 161.496094 196.890625 C 159.253906 197.8125 156.917969 198.375 154.519531 198.679688 C 153.910156 198.753906 153.304688 198.84375 152.699219 198.941406 C 152.285156 199.007812 151.867188 199.015625 151.28125 199.027344 Z M 227.8125 118.378906 C 227.132812 118.625 226.476562 118.886719 225.800781 119.109375 C 224.382812 119.578125 222.917969 119.742188 221.4375 119.6875 C 220.351562 119.648438 219.265625 119.605469 218.183594 119.652344 C 217.371094 119.6875 216.582031 119.863281 215.832031 120.179688 C 215.625 120.269531 215.496094 120.367188 215.558594 120.652344 C 215.628906 120.988281 215.367188 121.175781 215.039062 121.058594 C 214.898438 121.007812 214.769531 120.914062 214.648438 120.828125 C 213.183594 119.796875 211.546875 119.5 209.804688 119.695312 C 208.957031 119.792969 208.148438 120.070312 207.316406 120.242188 C 206.0625 120.507812 204.828125 120.851562 203.644531 121.351562 C 201.8125 122.128906 199.976562 122.898438 198.148438 123.6875 C 196.730469 124.296875 195.398438 125.039062 194.378906 126.238281 C 193.5625 127.203125 192.535156 127.878906 191.429688 128.460938 C 190.417969 128.992188 189.429688 129.558594 188.492188 130.214844 C 186.507812 131.59375 184.679688 133.15625 182.988281 134.878906 C 182.519531 135.355469 182.042969 135.824219 181.558594 136.285156 C 180.15625 137.625 178.617188 138.800781 177.128906 140.03125 C 176.0625 140.910156 175.039062 141.828125 174.140625 142.878906 C 173.324219 143.832031 172.574219 144.835938 171.824219 145.839844 C 171.03125 146.90625 170.109375 147.851562 169.0625 148.671875 C 167.679688 149.75 166.359375 150.902344 165.132812 152.164062 C 164.511719 152.804688 163.839844 153.386719 163.136719 153.933594 C 162.375 154.527344 161.65625 155.160156 161.097656 155.957031 C 160.785156 156.402344 160.492188 156.859375 160.222656 157.332031 C 159.03125 159.398438 157.539062 161.222656 155.753906 162.808594 C 154.78125 163.671875 153.9375 164.648438 153.269531 165.773438 C 152.574219 166.945312 151.9375 168.152344 151.410156 169.414062 C 150.394531 171.835938 149.777344 174.382812 149.175781 176.929688 C 148.796875 178.515625 148.574219 180.128906 148.289062 181.730469 C 147.894531 183.9375 147.457031 186.132812 147.046875 188.335938 C 146.78125 189.761719 146.574219 191.191406 146.648438 192.648438 C 146.660156 192.859375 146.660156 193.070312 146.636719 193.277344 C 146.550781 194.011719 146.589844 194.75 146.566406 195.484375 C 146.539062 196.347656 146.976562 196.898438 147.6875 197.289062 C 147.96875 197.445312 148.277344 197.542969 148.585938 197.625 C 148.921875 197.71875 149.261719 197.792969 149.59375 197.894531 C 150.53125 198.183594 151.484375 198.207031 152.445312 198.085938 C 153.34375 197.96875 154.238281 197.84375 155.132812 197.714844 C 156.984375 197.453125 158.800781 197.035156 160.546875 196.347656 C 162.796875 195.457031 165.035156 194.527344 167.332031 193.753906 C 168.574219 193.332031 169.765625 192.792969 170.875 192.085938 C 172.84375 190.839844 174.878906 189.730469 177.03125 188.828125 C 178.5625 188.183594 179.992188 187.328125 181.203125 186.167969 C 182.324219 185.097656 183.554688 184.171875 184.847656 183.316406 C 186.007812 182.550781 187.144531 181.742188 188.203125 180.835938 C 189.511719 179.710938 190.863281 178.640625 192.265625 177.628906 C 193.90625 176.449219 195.199219 174.949219 196.238281 173.226562 C 196.554688 172.699219 196.835938 172.15625 197.15625 171.636719 C 197.925781 170.386719 198.976562 169.386719 200.03125 168.398438 C 200.933594 167.546875 201.859375 166.722656 202.734375 165.84375 C 203.464844 165.109375 204.09375 164.300781 204.617188 163.40625 C 205.160156 162.480469 205.675781 161.542969 206.257812 160.640625 C 207.125 159.296875 208.046875 157.984375 208.804688 156.570312 C 209.871094 154.582031 211.140625 152.75 212.769531 151.175781 C 213.238281 150.722656 213.609375 150.175781 213.953125 149.617188 C 214.664062 148.460938 215.195312 147.21875 215.707031 145.96875 C 216.238281 144.667969 216.761719 143.363281 217.464844 142.140625 C 217.949219 141.292969 218.445312 140.457031 218.917969 139.605469 C 219.769531 138.078125 220.457031 136.484375 220.855469 134.773438 C 221.097656 133.730469 221.265625 132.671875 221.347656 131.601562 C 221.433594 130.433594 221.484375 129.265625 221.3125 128.101562 C 221.085938 126.5625 220.488281 125.21875 219.230469 124.230469 C 218.933594 124 218.660156 123.742188 218.371094 123.503906 C 218.242188 123.398438 218.136719 123.285156 218.230469 123.117188 C 218.316406 122.960938 218.472656 122.945312 218.632812 122.984375 C 218.824219 123.027344 218.980469 123.152344 219.152344 123.242188 C 219.296875 123.316406 219.414062 123.453125 219.609375 123.460938 C 219.636719 123.328125 219.664062 123.207031 219.6875 123.085938 C 219.777344 122.621094 219.996094 122.226562 220.332031 121.890625 C 220.640625 121.585938 220.984375 121.332031 221.371094 121.132812 C 221.910156 120.855469 222.484375 120.6875 223.0625 120.542969 C 224.273438 120.242188 225.425781 119.796875 226.515625 119.195312 C 226.964844 118.949219 227.421875 118.714844 227.8125 118.378906 Z M 227.8125 118.378906 " fill-opacity="1" fill-rule="nonzero"/></g><path fill="#ffffff" d="M 204.308594 151.125 C 203.453125 151.078125 202.78125 151.410156 202.191406 151.941406 C 201.871094 152.230469 201.585938 152.558594 201.324219 152.902344 C 200.363281 154.167969 199.207031 155.21875 197.886719 156.097656 C 197.597656 156.292969 197.324219 156.511719 197.050781 156.726562 C 196.371094 157.261719 195.898438 157.949219 195.730469 158.796875 C 195.511719 159.902344 194.902344 160.71875 194.007812 161.359375 C 193.523438 161.710938 193.054688 162.085938 192.582031 162.453125 C 191.820312 163.042969 191.238281 163.78125 190.757812 164.605469 C 190.503906 165.039062 190.234375 165.460938 189.914062 165.851562 C 189.414062 166.457031 188.796875 166.914062 188.023438 167.078125 C 186.117188 167.484375 184.578125 168.535156 183.164062 169.804688 C 182.886719 170.054688 182.617188 170.316406 182.347656 170.582031 C 181.46875 171.4375 180.40625 172.019531 179.335938 172.589844 C 178.425781 173.078125 177.546875 173.609375 176.785156 174.320312 C 176.21875 174.847656 175.734375 175.4375 175.398438 176.132812 C 174.566406 177.855469 173.242188 179.121094 171.726562 180.222656 C 170.972656 180.777344 170.167969 181.25 169.355469 181.707031 C 168.535156 182.164062 167.871094 182.769531 167.371094 183.570312 C 167.03125 184.113281 166.671875 184.644531 166.257812 185.136719 C 165.875 185.59375 165.429688 185.96875 164.886719 186.207031 C 163.679688 186.738281 162.667969 187.527344 161.75 188.457031 C 160.375 189.847656 158.886719 191.097656 157.296875 192.234375 C 156.5 192.800781 155.660156 193.289062 154.796875 193.746094 C 154.378906 193.964844 153.976562 194.214844 153.566406 194.445312 C 152.144531 195.246094 150.652344 195.898438 149.109375 196.429688 C 148.914062 196.5 148.703125 196.53125 148.496094 196.558594 C 148.359375 196.578125 148.199219 196.566406 148.144531 196.40625 C 148.097656 196.261719 148.21875 196.171875 148.324219 196.109375 C 148.527344 195.992188 148.738281 195.875 148.953125 195.785156 C 150.597656 195.089844 152.183594 194.273438 153.78125 193.488281 C 155.722656 192.539062 157.445312 191.273438 159.105469 189.910156 C 159.910156 189.246094 160.644531 188.5 161.394531 187.769531 C 162.316406 186.871094 163.320312 186.085938 164.503906 185.550781 C 165.089844 185.28125 165.535156 184.847656 165.90625 184.328125 C 166.226562 183.875 166.542969 183.417969 166.847656 182.953125 C 167.359375 182.164062 168.023438 181.546875 168.835938 181.082031 C 169.804688 180.53125 170.761719 179.960938 171.644531 179.277344 C 172.652344 178.496094 173.582031 177.644531 174.25 176.539062 C 174.40625 176.277344 174.558594 176.011719 174.699219 175.738281 C 175.410156 174.359375 176.511719 173.359375 177.804688 172.546875 C 178.40625 172.167969 179.03125 171.828125 179.65625 171.496094 C 180.511719 171.042969 181.285156 170.488281 181.980469 169.808594 C 182.769531 169.042969 183.605469 168.328125 184.523438 167.714844 C 185.46875 167.082031 186.472656 166.574219 187.59375 166.339844 C 188.464844 166.15625 189.097656 165.652344 189.589844 164.9375 C 189.753906 164.695312 189.914062 164.453125 190.0625 164.199219 C 190.660156 163.175781 191.441406 162.316406 192.390625 161.605469 C 192.824219 161.277344 193.257812 160.953125 193.691406 160.628906 C 194.339844 160.144531 194.796875 159.542969 194.949219 158.726562 C 195.1875 157.445312 195.949219 156.515625 196.976562 155.769531 C 197.269531 155.558594 197.558594 155.34375 197.859375 155.140625 C 199.066406 154.332031 200.023438 153.269531 200.925781 152.144531 C 201.40625 151.542969 201.949219 151.003906 202.679688 150.703125 C 203.300781 150.445312 203.929688 150.324219 204.585938 150.578125 C 204.730469 150.636719 204.871094 150.699219 204.96875 150.824219 C 205.082031 150.96875 205.035156 151.101562 204.855469 151.121094 C 204.660156 151.140625 204.464844 151.125 204.308594 151.125 Z M 204.308594 151.125 " fill-opacity="1" fill-rule="nonzero"/><path fill="#ffffff" d="M 147.792969 194.539062 C 147.816406 194.277344 147.902344 194.039062 147.996094 193.808594 C 148.292969 193.089844 148.570312 192.359375 148.902344 191.65625 C 149.847656 189.652344 150.898438 187.703125 152.113281 185.847656 C 152.804688 184.796875 153.574219 183.8125 154.464844 182.925781 C 155.226562 182.171875 155.835938 181.320312 156.238281 180.320312 C 156.792969 178.933594 157.6875 177.785156 158.832031 176.839844 C 159.675781 176.144531 160.308594 175.296875 160.867188 174.371094 C 161.234375 173.765625 161.632812 173.179688 162.089844 172.632812 C 162.617188 171.992188 163.25 171.472656 163.898438 170.96875 C 164.207031 170.726562 164.507812 170.480469 164.828125 170.257812 C 166.058594 169.398438 166.859375 168.21875 167.417969 166.847656 C 167.503906 166.644531 167.597656 166.441406 167.691406 166.238281 C 168.070312 165.414062 168.644531 164.738281 169.34375 164.167969 C 170.648438 163.109375 170.652344 163.21875 171.382812 161.550781 C 171.789062 160.625 172.386719 159.855469 173.296875 159.363281 C 173.703125 159.144531 174.140625 158.996094 174.582031 158.875 C 174.972656 158.765625 175.363281 158.667969 175.75 158.554688 C 176.492188 158.332031 177.109375 157.925781 177.585938 157.308594 C 177.773438 157.066406 177.972656 156.832031 178.164062 156.597656 C 178.386719 156.324219 178.664062 156.109375 178.96875 155.941406 C 179.078125 155.882812 179.195312 155.828125 179.316406 155.796875 C 179.449219 155.765625 179.609375 155.730469 179.699219 155.871094 C 179.792969 156.011719 179.679688 156.132812 179.59375 156.242188 C 179.570312 156.273438 179.539062 156.304688 179.507812 156.332031 C 179.03125 156.785156 178.617188 157.292969 178.222656 157.8125 C 177.667969 158.535156 176.953125 159.015625 176.097656 159.292969 C 175.660156 159.433594 175.21875 159.558594 174.769531 159.65625 C 173.457031 159.953125 172.566406 160.734375 172.0625 161.96875 C 172.035156 162.035156 172.003906 162.097656 171.980469 162.164062 C 171.632812 163.132812 171.058594 163.929688 170.214844 164.535156 C 169.25 165.226562 168.582031 166.144531 168.152344 167.257812 C 167.632812 168.605469 166.851562 169.777344 165.675781 170.65625 C 165.375 170.882812 165.09375 171.132812 164.78125 171.339844 C 163.382812 172.285156 162.265625 173.488281 161.4375 174.957031 C 160.871094 175.964844 160.125 176.8125 159.234375 177.550781 C 158.28125 178.34375 157.503906 179.28125 157.015625 180.4375 C 156.984375 180.515625 156.941406 180.585938 156.910156 180.664062 C 156.480469 181.707031 155.871094 182.632812 155.0625 183.421875 C 153.707031 184.75 152.6875 186.324219 151.722656 187.945312 C 150.476562 190.042969 149.378906 192.214844 148.433594 194.464844 C 148.390625 194.566406 148.351562 194.671875 148.296875 194.765625 C 148.234375 194.878906 148.140625 194.972656 147.996094 194.9375 C 147.828125 194.902344 147.796875 194.761719 147.792969 194.617188 C 147.792969 194.585938 147.792969 194.558594 147.792969 194.539062 Z M 147.792969 194.539062 " fill-opacity="1" fill-rule="nonzero"/><path fill="#ffffff" d="M 150.179688 197.597656 C 149.949219 197.566406 149.710938 197.617188 149.605469 197.378906 C 149.546875 197.238281 149.714844 197.089844 150.089844 197.023438 C 151.382812 196.789062 152.632812 196.410156 153.867188 195.972656 C 154.695312 195.683594 155.511719 195.375 156.289062 194.957031 C 156.902344 194.628906 157.535156 194.335938 158.175781 194.066406 C 159.59375 193.46875 160.9375 192.742188 162.234375 191.929688 C 163.457031 191.167969 164.726562 190.507812 166.089844 190.042969 C 167.773438 189.464844 169.085938 188.417969 170.125 187 C 170.304688 186.753906 170.5 186.515625 170.664062 186.257812 C 171.53125 184.925781 172.707031 183.996094 174.1875 183.433594 C 174.628906 183.265625 175.0625 183.070312 175.5 182.894531 C 177.308594 182.171875 178.824219 181.046875 180.046875 179.53125 C 180.859375 178.53125 181.746094 177.617188 182.839844 176.917969 C 183.273438 176.640625 183.726562 176.394531 184.183594 176.160156 C 184.765625 175.859375 185.347656 175.558594 185.925781 175.253906 C 186.882812 174.75 187.652344 174.042969 188.222656 173.121094 C 188.546875 172.601562 188.855469 172.070312 189.242188 171.59375 C 189.703125 171.03125 190.203125 170.511719 190.894531 170.21875 C 191.050781 170.15625 191.207031 170.085938 191.378906 170.101562 C 191.574219 170.121094 191.640625 170.25 191.546875 170.425781 C 191.480469 170.550781 191.371094 170.644531 191.261719 170.730469 C 190.273438 171.507812 189.519531 172.480469 188.902344 173.570312 C 188.792969 173.761719 188.660156 173.941406 188.53125 174.121094 C 187.890625 175 187.035156 175.605469 186.085938 176.101562 C 185.605469 176.355469 185.125 176.601562 184.632812 176.832031 C 183.066406 177.570312 181.765625 178.632812 180.695312 179.992188 C 179.363281 181.683594 177.679688 182.898438 175.679688 183.6875 C 175.046875 183.9375 174.417969 184.203125 173.800781 184.492188 C 172.921875 184.90625 172.210938 185.503906 171.640625 186.289062 C 171.242188 186.839844 170.839844 187.390625 170.414062 187.921875 C 169.449219 189.128906 168.273438 190.078125 166.804688 190.601562 C 165.078125 191.21875 163.464844 192.058594 161.917969 193.03125 C 160.636719 193.832031 159.253906 194.417969 157.855469 194.976562 C 157.53125 195.105469 157.21875 195.253906 156.910156 195.414062 C 154.917969 196.441406 152.820312 197.164062 150.609375 197.546875 C 150.457031 197.570312 150.304688 197.582031 150.179688 197.597656 Z M 150.179688 197.597656 " fill-opacity="1" fill-rule="nonzero"/><path fill="#ffffff" d="M 146.804688 193.421875 C 146.84375 192.222656 146.976562 191.03125 147.257812 189.867188 C 147.730469 187.90625 148.234375 185.953125 148.878906 184.035156 C 149.554688 182.027344 150.445312 180.128906 151.792969 178.484375 C 152.871094 177.167969 153.460938 175.675781 153.652344 174 C 153.746094 173.167969 153.917969 172.351562 154.242188 171.574219 C 154.648438 170.605469 155.265625 169.785156 156.003906 169.058594 C 156.667969 168.40625 157.125 167.65625 157.40625 166.773438 C 157.722656 165.789062 158.152344 164.855469 158.851562 164.066406 C 159.421875 163.421875 160.113281 162.9375 160.855469 162.515625 C 161.144531 162.347656 161.433594 162.179688 161.722656 162.011719 C 162.667969 161.46875 163.425781 160.722656 164.035156 159.820312 C 164.308594 159.417969 164.570312 159.007812 164.820312 158.585938 C 165.394531 157.609375 166.167969 156.820312 167.105469 156.1875 C 167.660156 155.816406 168.21875 155.453125 168.785156 155.101562 C 169.484375 154.667969 169.984375 154.070312 170.335938 153.335938 C 170.570312 152.847656 170.769531 152.339844 171.066406 151.882812 C 171.429688 151.332031 171.851562 150.835938 172.414062 150.476562 C 172.589844 150.363281 172.773438 150.265625 172.988281 150.242188 C 173.074219 150.234375 173.164062 150.238281 173.21875 150.3125 C 173.285156 150.402344 173.253906 150.503906 173.195312 150.585938 C 173.140625 150.664062 173.078125 150.738281 173.007812 150.808594 C 172.832031 150.984375 172.652344 151.160156 172.472656 151.335938 C 171.980469 151.800781 171.59375 152.335938 171.308594 152.953125 C 171.132812 153.332031 170.960938 153.710938 170.753906 154.074219 C 170.417969 154.667969 169.980469 155.160156 169.414062 155.535156 C 168.890625 155.882812 168.363281 156.222656 167.835938 156.558594 C 166.792969 157.222656 165.945312 158.066406 165.351562 159.15625 C 165.28125 159.292969 165.195312 159.417969 165.117188 159.550781 C 164.234375 161.089844 163.003906 162.261719 161.410156 163.054688 C 160.519531 163.496094 159.703125 164.050781 159.109375 164.875 C 158.699219 165.449219 158.417969 166.082031 158.183594 166.738281 C 158.074219 167.042969 157.96875 167.34375 157.863281 167.644531 C 157.660156 168.21875 157.335938 168.71875 156.914062 169.15625 C 156.675781 169.40625 156.449219 169.671875 156.207031 169.921875 C 155.164062 170.992188 154.625 172.289062 154.433594 173.753906 C 154.367188 174.277344 154.277344 174.800781 154.175781 175.320312 C 153.953125 176.425781 153.496094 177.433594 152.816406 178.34375 C 152.5 178.765625 152.183594 179.191406 151.875 179.617188 C 151.199219 180.546875 150.640625 181.539062 150.207031 182.601562 C 149.285156 184.859375 148.550781 187.179688 147.976562 189.550781 C 147.613281 191.058594 147.472656 192.597656 147.421875 194.144531 C 147.417969 194.335938 147.429688 194.535156 147.34375 194.71875 C 147.308594 194.796875 147.261719 194.867188 147.167969 194.875 C 147.070312 194.878906 147.015625 194.8125 146.976562 194.734375 C 146.867188 194.519531 146.824219 194.285156 146.808594 194.050781 C 146.792969 193.839844 146.804688 193.628906 146.804688 193.421875 Z M 146.804688 193.421875 " fill-opacity="1" fill-rule="nonzero"/><path fill="#ffffff" d="M 214.914062 124.542969 C 214.777344 125.558594 214.429688 126.5 213.734375 127.289062 C 213.261719 127.832031 212.683594 128.238281 212.074219 128.609375 C 211.527344 128.941406 210.964844 129.25 210.449219 129.636719 C 209.832031 130.097656 209.390625 130.691406 209.085938 131.398438 C 208.878906 131.882812 208.738281 132.394531 208.574219 132.898438 C 208.429688 133.335938 208.269531 133.765625 208.058594 134.175781 C 207.722656 134.816406 207.261719 135.34375 206.671875 135.765625 C 206.320312 136.011719 205.960938 136.253906 205.578125 136.457031 C 204.691406 136.933594 203.960938 137.585938 203.40625 138.429688 C 202.652344 139.582031 201.71875 140.566406 200.675781 141.457031 C 200.398438 141.691406 200.148438 141.957031 199.886719 142.203125 C 199.339844 142.722656 198.941406 143.332031 198.726562 144.058594 C 198.34375 145.347656 197.640625 146.429688 196.621094 147.308594 C 196.039062 147.808594 195.433594 148.277344 194.769531 148.664062 C 194.195312 149.003906 193.617188 149.34375 193.027344 149.652344 C 191.777344 150.304688 190.667969 151.113281 189.824219 152.269531 C 189.484375 152.742188 189.0625 153.152344 188.679688 153.59375 C 188.523438 153.773438 188.375 153.957031 188.226562 154.144531 C 187.988281 154.441406 187.898438 154.777344 187.964844 155.160156 C 188.003906 155.378906 188.007812 155.601562 188.019531 155.824219 C 188.054688 156.496094 187.769531 157.003906 187.234375 157.394531 C 187.054688 157.527344 186.863281 157.636719 186.660156 157.734375 C 186.300781 157.914062 185.941406 158.101562 185.574219 158.265625 C 184.679688 158.671875 184.074219 159.351562 183.679688 160.238281 C 183.535156 160.570312 183.371094 160.894531 183.175781 161.199219 C 182.964844 161.53125 182.695312 161.8125 182.351562 162.011719 C 182.144531 162.136719 181.917969 162.199219 181.671875 162.152344 C 181.535156 162.125 181.394531 162.078125 181.371094 161.910156 C 181.351562 161.761719 181.457031 161.683594 181.570312 161.621094 C 181.644531 161.578125 181.71875 161.542969 181.796875 161.511719 C 182.175781 161.363281 182.457031 161.101562 182.648438 160.75 C 182.796875 160.480469 182.941406 160.210938 183.058594 159.929688 C 183.503906 158.886719 184.21875 158.101562 185.238281 157.601562 C 185.460938 157.492188 185.6875 157.382812 185.914062 157.277344 C 186.207031 157.144531 186.488281 156.996094 186.757812 156.820312 C 187.171875 156.550781 187.355469 156.171875 187.308594 155.683594 C 187.296875 155.585938 187.289062 155.488281 187.273438 155.394531 C 187.140625 154.6875 187.328125 154.070312 187.796875 153.535156 C 188.253906 153.011719 188.761719 152.519531 189.160156 151.957031 C 190.160156 150.535156 191.53125 149.585938 193.042969 148.800781 C 194.054688 148.273438 195.03125 147.683594 195.917969 146.957031 C 196.886719 146.160156 197.648438 145.226562 198.011719 144.007812 C 198.34375 142.890625 199.011719 142 199.882812 141.246094 C 201.003906 140.277344 202.0625 139.253906 202.84375 137.980469 C 202.878906 137.917969 202.921875 137.867188 202.964844 137.808594 C 203.558594 136.960938 204.304688 136.289062 205.210938 135.789062 C 205.429688 135.667969 205.640625 135.527344 205.851562 135.398438 C 206.796875 134.820312 207.417969 133.996094 207.765625 132.949219 C 207.976562 132.316406 208.179688 131.679688 208.449219 131.066406 C 208.847656 130.164062 209.445312 129.429688 210.269531 128.886719 C 210.792969 128.542969 211.320312 128.203125 211.859375 127.890625 C 213.121094 127.164062 213.925781 126.09375 214.324219 124.707031 C 214.367188 124.558594 214.417969 124.414062 214.46875 124.269531 C 214.511719 124.164062 214.570312 124.058594 214.707031 124.078125 C 214.835938 124.09375 214.878906 124.207031 214.898438 124.320312 C 214.910156 124.390625 214.910156 124.460938 214.914062 124.542969 Z M 214.914062 124.542969 " fill-opacity="1" fill-rule="nonzero"/><path fill="#ffffff" d="M 215.597656 121.605469 C 215.707031 121.617188 215.847656 121.625 215.980469 121.652344 C 216.105469 121.679688 216.226562 121.738281 216.230469 121.890625 C 216.234375 122.023438 216.140625 122.089844 216.035156 122.136719 C 215.949219 122.175781 215.855469 122.207031 215.757812 122.226562 C 215.582031 122.269531 215.40625 122.300781 215.226562 122.335938 C 214.601562 122.449219 214.023438 122.671875 213.535156 123.09375 C 212.886719 123.65625 212.152344 124.078125 211.382812 124.445312 C 210.957031 124.652344 210.535156 124.863281 210.117188 125.089844 C 209.242188 125.570312 208.484375 126.203125 207.816406 126.941406 C 206.886719 127.96875 205.769531 128.734375 204.550781 129.367188 C 203.511719 129.902344 202.472656 130.441406 201.53125 131.144531 C 200.992188 131.546875 200.503906 132 200.097656 132.539062 C 199.449219 133.390625 199.210938 134.390625 199.136719 135.429688 C 199.054688 136.582031 198.730469 137.640625 198.03125 138.574219 C 197.8125 138.859375 197.609375 139.164062 197.390625 139.453125 C 196.828125 140.195312 196.316406 140.976562 195.886719 141.808594 C 194.964844 143.601562 193.601562 144.941406 191.78125 145.816406 C 191.378906 146.007812 190.980469 146.210938 190.585938 146.414062 C 189.820312 146.800781 189.132812 147.289062 188.519531 147.886719 C 188.113281 148.285156 187.691406 148.675781 187.269531 149.058594 C 186.628906 149.644531 185.910156 150.125 185.144531 150.527344 C 183.675781 151.296875 182.71875 152.496094 182.152344 154.03125 C 182.089844 154.199219 182.019531 154.367188 181.949219 154.535156 C 181.90625 154.640625 181.832031 154.734375 181.699219 154.707031 C 181.574219 154.683594 181.53125 154.574219 181.503906 154.460938 C 181.460938 154.292969 181.511719 154.128906 181.554688 153.96875 C 181.953125 152.546875 182.664062 151.328125 183.90625 150.476562 C 184.25 150.242188 184.597656 150.007812 184.960938 149.796875 C 185.859375 149.277344 186.679688 148.660156 187.390625 147.910156 C 188.441406 146.800781 189.660156 145.945312 191.039062 145.300781 C 191.339844 145.160156 191.636719 145 191.929688 144.839844 C 193.246094 144.117188 194.269531 143.09375 194.988281 141.78125 C 195.621094 140.613281 196.363281 139.523438 197.179688 138.480469 C 197.417969 138.171875 197.628906 137.84375 197.820312 137.503906 C 198.140625 136.933594 198.296875 136.320312 198.34375 135.671875 C 198.378906 135.214844 198.4375 134.757812 198.527344 134.308594 C 198.792969 132.957031 199.484375 131.859375 200.535156 130.976562 C 201.347656 130.289062 202.253906 129.75 203.183594 129.242188 C 203.648438 128.988281 204.117188 128.742188 204.582031 128.492188 C 205.558594 127.96875 206.433594 127.316406 207.183594 126.488281 C 208.070312 125.511719 209.101562 124.714844 210.296875 124.136719 C 210.660156 123.960938 211.019531 123.777344 211.382812 123.601562 C 211.972656 123.3125 212.527344 122.972656 213.03125 122.546875 C 213.765625 121.933594 214.617188 121.644531 215.597656 121.605469 Z M 215.597656 121.605469 " fill-opacity="1" fill-rule="nonzero"/><path fill="#ffffff" d="M 174.695312 148.953125 C 174.699219 148.695312 174.796875 148.480469 174.929688 148.277344 C 175.246094 147.78125 175.714844 147.457031 176.222656 147.1875 C 176.582031 147 176.960938 146.855469 177.351562 146.757812 C 178.570312 146.460938 179.519531 145.792969 180.238281 144.765625 C 181.136719 143.472656 182.171875 142.285156 183.277344 141.164062 C 184.070312 140.363281 184.675781 139.4375 185.070312 138.375 C 185.386719 137.523438 185.78125 136.714844 186.394531 136.023438 C 186.960938 135.390625 187.636719 134.910156 188.375 134.515625 C 188.855469 134.261719 189.34375 134.019531 189.839844 133.804688 C 190.828125 133.386719 191.707031 132.824219 192.4375 132.027344 C 193.050781 131.363281 193.679688 130.710938 194.4375 130.203125 C 195.097656 129.761719 195.789062 129.367188 196.492188 129 C 197.519531 128.464844 198.386719 127.738281 199.140625 126.863281 C 199.890625 125.996094 200.777344 125.316406 201.863281 124.921875 C 202.632812 124.644531 203.324219 124.234375 203.925781 123.683594 C 205.363281 122.363281 207.117188 121.742188 208.984375 121.375 C 209.121094 121.347656 209.261719 121.347656 209.402344 121.351562 C 209.519531 121.355469 209.621094 121.410156 209.65625 121.53125 C 209.691406 121.648438 209.640625 121.75 209.558594 121.832031 C 209.460938 121.9375 209.335938 122 209.210938 122.0625 C 208.960938 122.183594 208.691406 122.253906 208.421875 122.320312 C 207.949219 122.4375 207.472656 122.550781 207.011719 122.710938 C 206.019531 123.054688 205.1875 123.652344 204.40625 124.332031 C 203.75 124.90625 203.03125 125.371094 202.199219 125.652344 C 201.183594 126 200.359375 126.617188 199.675781 127.4375 C 198.75 128.550781 197.597656 129.355469 196.324219 130.015625 C 195.492188 130.445312 194.699219 130.9375 194.019531 131.589844 C 193.6875 131.90625 193.371094 132.238281 193.066406 132.582031 C 192.265625 133.488281 191.277344 134.117188 190.171875 134.582031 C 189.476562 134.871094 188.804688 135.203125 188.164062 135.597656 C 187.121094 136.238281 186.445312 137.167969 186.007812 138.285156 C 185.707031 139.066406 185.40625 139.84375 184.914062 140.53125 C 184.644531 140.90625 184.367188 141.269531 184.042969 141.597656 C 182.828125 142.828125 181.726562 144.152344 180.707031 145.550781 C 179.992188 146.53125 179.035156 147.164062 177.847656 147.449219 C 177.496094 147.53125 177.148438 147.632812 176.808594 147.75 C 176.101562 147.992188 175.511719 148.386719 175.140625 149.058594 C 175.121094 149.09375 175.097656 149.132812 175.074219 149.164062 C 175.023438 149.234375 174.960938 149.292969 174.867188 149.277344 C 174.753906 149.253906 174.714844 149.164062 174.703125 149.0625 C 174.695312 149.023438 174.695312 148.980469 174.695312 148.953125 Z M 174.695312 148.953125 " fill-opacity="1" fill-rule="nonzero"/><path fill="#ffffff" d="M 148.285156 195.828125 C 148.175781 195.832031 148.09375 195.816406 148.039062 195.746094 C 147.96875 195.652344 148 195.558594 148.054688 195.472656 C 148.136719 195.34375 148.246094 195.230469 148.371094 195.144531 C 149.414062 194.457031 150.273438 193.558594 151.175781 192.714844 C 151.847656 192.085938 152.570312 191.523438 153.269531 190.925781 C 154.257812 190.085938 155.199219 189.199219 156.078125 188.25 C 156.640625 187.644531 157.054688 186.933594 157.460938 186.214844 C 157.765625 185.667969 158.074219 185.125 158.390625 184.585938 C 158.867188 183.769531 159.535156 183.160156 160.371094 182.71875 C 161.097656 182.335938 161.792969 181.898438 162.425781 181.367188 C 163.359375 180.582031 164.09375 179.660156 164.515625 178.503906 C 164.726562 177.925781 164.9375 177.351562 165.261719 176.824219 C 165.757812 176.003906 166.421875 175.335938 167.183594 174.761719 C 167.738281 174.339844 168.296875 173.925781 168.859375 173.511719 C 169.605469 172.960938 170.226562 172.292969 170.730469 171.511719 C 171.117188 170.917969 171.503906 170.320312 171.957031 169.773438 C 172.683594 168.894531 173.570312 168.246094 174.617188 167.8125 C 175.765625 167.332031 176.644531 166.558594 177.210938 165.441406 C 177.347656 165.167969 177.5 164.902344 177.644531 164.632812 C 177.945312 164.078125 178.292969 163.558594 178.761719 163.132812 C 178.972656 162.945312 179.195312 162.78125 179.445312 162.65625 C 179.542969 162.605469 179.644531 162.558594 179.761719 162.558594 C 179.832031 162.558594 179.898438 162.578125 179.9375 162.644531 C 179.980469 162.71875 179.949219 162.785156 179.90625 162.835938 C 179.835938 162.921875 179.757812 163.003906 179.675781 163.078125 C 179.007812 163.671875 178.519531 164.386719 178.140625 165.191406 C 177.921875 165.65625 177.695312 166.117188 177.40625 166.546875 C 176.902344 167.292969 176.257812 167.867188 175.457031 168.269531 C 175.207031 168.394531 174.957031 168.523438 174.703125 168.632812 C 173.582031 169.117188 172.730469 169.917969 172.039062 170.90625 C 171.917969 171.074219 171.792969 171.246094 171.6875 171.425781 C 170.90625 172.746094 169.835938 173.78125 168.578125 174.640625 C 168.164062 174.921875 167.769531 175.234375 167.375 175.542969 C 166.414062 176.285156 165.730469 177.230469 165.347656 178.390625 C 164.988281 179.476562 164.4375 180.449219 163.636719 181.273438 C 162.90625 182.027344 162.058594 182.636719 161.144531 183.152344 C 160.5625 183.480469 159.972656 183.789062 159.527344 184.3125 C 159.160156 184.738281 158.886719 185.222656 158.613281 185.707031 C 158.371094 186.128906 158.132812 186.554688 157.898438 186.980469 C 157.238281 188.179688 156.316406 189.15625 155.332031 190.089844 C 154.039062 191.320312 152.625 192.402344 151.277344 193.570312 C 150.5 194.242188 149.757812 194.960938 148.898438 195.539062 C 148.703125 195.671875 148.503906 195.796875 148.285156 195.828125 Z M 148.285156 195.828125 " fill-opacity="1" fill-rule="nonzero"/><path fill="#ffffff" d="M 206.511719 146.894531 C 206.503906 146.683594 206.582031 146.457031 206.726562 146.265625 C 207.242188 145.578125 207.582031 144.8125 207.800781 143.980469 C 207.921875 143.53125 208.21875 143.164062 208.53125 142.824219 C 208.8125 142.515625 209.097656 142.210938 209.382812 141.90625 C 209.851562 141.414062 210.203125 140.84375 210.382812 140.191406 C 210.765625 138.824219 211.476562 137.679688 212.570312 136.765625 C 213.179688 136.253906 213.496094 135.5625 213.628906 134.78125 C 213.785156 133.859375 213.976562 132.949219 214.410156 132.109375 C 214.710938 131.523438 215.054688 130.96875 215.46875 130.460938 C 216.421875 129.296875 217.148438 128.007812 217.679688 126.605469 C 217.75 126.421875 217.828125 126.242188 217.910156 126.066406 C 217.957031 125.964844 218.019531 125.871094 218.121094 125.8125 C 218.261719 125.726562 218.410156 125.792969 218.421875 125.957031 C 218.429688 126.066406 218.402344 126.179688 218.378906 126.285156 C 218.046875 127.820312 217.402344 129.210938 216.46875 130.46875 C 216.011719 131.082031 215.554688 131.695312 215.207031 132.382812 C 214.890625 133.007812 214.664062 133.667969 214.59375 134.363281 C 214.449219 135.734375 213.882812 136.863281 212.808594 137.738281 C 212.089844 138.328125 211.625 139.089844 211.363281 139.984375 C 211.019531 141.164062 210.394531 142.164062 209.484375 142.988281 C 208.921875 143.496094 208.53125 144.09375 208.367188 144.851562 C 208.246094 145.398438 207.949219 145.878906 207.628906 146.339844 C 207.398438 146.671875 207.144531 146.992188 207.289062 147.445312 C 207.324219 147.550781 207.277344 147.671875 207.167969 147.730469 C 207.03125 147.800781 206.921875 147.722656 206.832031 147.632812 C 206.632812 147.441406 206.515625 147.210938 206.511719 146.894531 Z M 206.511719 146.894531 " fill-opacity="1" fill-rule="nonzero"/><path fill="#ffffff" d="M 219.996094 128.96875 C 219.945312 129.523438 219.890625 130.089844 219.839844 130.660156 C 219.792969 131.242188 219.734375 131.824219 219.703125 132.40625 C 219.652344 133.378906 219.320312 134.257812 218.824219 135.078125 C 218.121094 136.234375 217.488281 137.421875 216.9375 138.65625 C 216.535156 139.554688 215.964844 140.34375 215.34375 141.097656 C 214.410156 142.226562 213.710938 143.472656 213.289062 144.886719 C 212.777344 146.601562 211.675781 147.882812 210.203125 148.859375 C 210.007812 148.992188 209.792969 149.097656 209.582031 149.203125 C 209.484375 149.25 209.371094 149.28125 209.265625 149.300781 C 209.09375 149.328125 208.914062 149.320312 208.828125 149.136719 C 208.738281 148.933594 208.898438 148.839844 209.042969 148.742188 C 209.804688 148.226562 210.515625 147.652344 211.128906 146.953125 C 211.730469 146.265625 212.203125 145.5 212.464844 144.617188 C 212.941406 142.996094 213.808594 141.597656 214.894531 140.324219 C 215.550781 139.554688 216.070312 138.707031 216.480469 137.785156 C 216.929688 136.777344 217.476562 135.820312 218.0625 134.890625 C 218.648438 133.964844 218.960938 132.972656 219.007812 131.863281 C 219.054688 130.753906 219.207031 129.648438 219.316406 128.539062 C 219.324219 128.457031 219.339844 128.375 219.359375 128.292969 C 219.398438 128.160156 219.441406 128.003906 219.605469 127.996094 C 219.796875 127.984375 219.859375 128.148438 219.902344 128.296875 C 219.964844 128.511719 220 128.730469 219.996094 128.96875 Z M 219.996094 128.96875 " fill-opacity="1" fill-rule="nonzero"/><path fill="#ffffff" d="M 206.960938 154.0625 C 206.945312 154.492188 206.746094 154.933594 206.464844 155.339844 C 206.050781 155.925781 205.515625 156.390625 204.964844 156.839844 C 204.066406 157.574219 203.242188 158.375 202.523438 159.289062 C 201.789062 160.226562 200.890625 160.996094 199.960938 161.730469 C 199.546875 162.058594 199.15625 162.410156 198.773438 162.777344 C 198.140625 163.386719 197.667969 164.097656 197.347656 164.914062 C 197.109375 165.519531 196.878906 166.132812 196.558594 166.707031 C 195.992188 167.707031 195.238281 168.527344 194.191406 169.046875 C 194.003906 169.136719 193.808594 169.210938 193.601562 169.246094 C 193.472656 169.269531 193.335938 169.273438 193.277344 169.132812 C 193.226562 169.003906 193.328125 168.925781 193.417969 168.859375 C 193.484375 168.808594 193.554688 168.761719 193.625 168.71875 C 194.820312 167.96875 195.664062 166.925781 196.175781 165.613281 C 196.253906 165.417969 196.339844 165.226562 196.402344 165.03125 C 196.886719 163.535156 197.824219 162.367188 199.023438 161.390625 C 199.390625 161.09375 199.757812 160.792969 200.128906 160.496094 C 200.769531 159.980469 201.355469 159.40625 201.863281 158.757812 C 202.683594 157.707031 203.660156 156.824219 204.679688 155.980469 C 204.972656 155.742188 205.242188 155.484375 205.5 155.210938 C 205.867188 154.820312 206.148438 154.375 206.3125 153.863281 C 206.347656 153.757812 206.386719 153.652344 206.433594 153.550781 C 206.480469 153.449219 206.546875 153.34375 206.675781 153.351562 C 206.804688 153.359375 206.855469 153.46875 206.890625 153.578125 C 206.9375 153.710938 206.964844 153.847656 206.960938 154.0625 Z M 206.960938 154.0625 " fill-opacity="1" fill-rule="nonzero"/><g fill="#ffffff" fill-opacity="1"><g transform="translate(139.697003, 226.01272)"><g><path d="M 13.5625 -3.84375 C 13.5625 -3 13.34375 -2.289062 12.90625 -1.71875 C 12.476562 -1.15625 11.894531 -0.726562 11.15625 -0.4375 C 10.425781 -0.144531 9.625 0 8.75 0 L 1.546875 0 L 1.546875 -14.90625 L 9.53125 -14.90625 C 10.226562 -14.90625 10.832031 -14.71875 11.34375 -14.34375 C 11.851562 -13.976562 12.242188 -13.503906 12.515625 -12.921875 C 12.796875 -12.335938 12.9375 -11.734375 12.9375 -11.109375 C 12.9375 -10.390625 12.753906 -9.707031 12.390625 -9.0625 C 12.023438 -8.425781 11.492188 -7.953125 10.796875 -7.640625 C 11.648438 -7.390625 12.320312 -6.9375 12.8125 -6.28125 C 13.3125 -5.625 13.5625 -4.8125 13.5625 -3.84375 Z M 10.640625 -4.390625 C 10.640625 -4.765625 10.5625 -5.101562 10.40625 -5.40625 C 10.257812 -5.707031 10.054688 -5.945312 9.796875 -6.125 C 9.535156 -6.300781 9.238281 -6.390625 8.90625 -6.390625 L 4.453125 -6.390625 L 4.453125 -2.453125 L 8.75 -2.453125 C 9.101562 -2.453125 9.421875 -2.539062 9.703125 -2.71875 C 9.992188 -2.894531 10.222656 -3.128906 10.390625 -3.421875 C 10.554688 -3.710938 10.640625 -4.035156 10.640625 -4.390625 Z M 4.453125 -12.4375 L 4.453125 -8.671875 L 8.3125 -8.671875 C 8.632812 -8.671875 8.925781 -8.75 9.1875 -8.90625 C 9.457031 -9.0625 9.671875 -9.273438 9.828125 -9.546875 C 9.992188 -9.828125 10.078125 -10.164062 10.078125 -10.5625 C 10.078125 -10.9375 10.003906 -11.265625 9.859375 -11.546875 C 9.710938 -11.828125 9.515625 -12.046875 9.265625 -12.203125 C 9.023438 -12.359375 8.75 -12.4375 8.4375 -12.4375 Z M 4.453125 -12.4375 "/></g></g></g><g fill="#ffffff" fill-opacity="1"><g transform="translate(153.969032, 226.01272)"><g/></g></g><g fill="#ffffff" fill-opacity="1"><g transform="translate(159.006217, 226.01272)"><g><path d="M 1.546875 0 L 1.546875 -14.90625 L 4.453125 -14.90625 L 4.453125 0 Z M 1.546875 0 "/></g></g></g><g fill="#ffffff" fill-opacity="1"><g transform="translate(165.008872, 226.01272)"><g/></g></g><g fill="#ffffff" fill-opacity="1"><g transform="translate(169.437277, 226.01272)"><g><path d="M 12.703125 -12.375 L 7.9375 -12.375 L 7.9375 0 L 5.0625 0 L 5.0625 -12.375 L 0.296875 -12.375 L 0.296875 -14.90625 L 12.703125 -14.90625 Z M 12.703125 -12.375 "/></g></g></g><g fill="#ffffff" fill-opacity="1"><g transform="translate(181.820242, 226.01272)"><g/></g></g><g fill="#ffffff" fill-opacity="1"><g transform="translate(186.248647, 226.01272)"><g><path d="M 12.703125 -12.375 L 7.9375 -12.375 L 7.9375 0 L 5.0625 0 L 5.0625 -12.375 L 0.296875 -12.375 L 0.296875 -14.90625 L 12.703125 -14.90625 Z M 12.703125 -12.375 "/></g></g></g><g fill="#ffffff" fill-opacity="1"><g transform="translate(198.631611, 226.01272)"><g/></g></g><g fill="#ffffff" fill-opacity="1"><g transform="translate(203.668797, 226.01272)"><g><path d="M 11.90625 -2.546875 L 11.90625 0 L 1.546875 0 L 1.546875 -14.90625 L 11.71875 -14.90625 L 11.71875 -12.375 L 4.453125 -12.375 L 4.453125 -8.78125 L 10.734375 -8.78125 L 10.734375 -6.421875 L 4.453125 -6.421875 L 4.453125 -2.546875 Z M 11.90625 -2.546875 "/></g></g></g><g fill="#ffffff" fill-opacity="1"><g transform="translate(216.28276, 226.01272)"><g/></g></g><g fill="#ffffff" fill-opacity="1"><g transform="translate(221.319945, 226.01272)"><g><path d="M 1.546875 0 L 1.546875 -14.90625 L 8.140625 -14.90625 C 8.828125 -14.90625 9.460938 -14.765625 10.046875 -14.484375 C 10.628906 -14.203125 11.132812 -13.820312 11.5625 -13.34375 C 11.988281 -12.875 12.316406 -12.34375 12.546875 -11.75 C 12.773438 -11.164062 12.890625 -10.566406 12.890625 -9.953125 C 12.890625 -9.328125 12.78125 -8.722656 12.5625 -8.140625 C 12.351562 -7.554688 12.046875 -7.046875 11.640625 -6.609375 C 11.234375 -6.179688 10.753906 -5.847656 10.203125 -5.609375 L 13.609375 0 L 10.421875 0 L 7.34375 -5 L 4.453125 -5 L 4.453125 0 Z M 4.453125 -7.53125 L 8.078125 -7.53125 C 8.441406 -7.53125 8.765625 -7.640625 9.046875 -7.859375 C 9.328125 -8.078125 9.550781 -8.367188 9.71875 -8.734375 C 9.882812 -9.097656 9.96875 -9.503906 9.96875 -9.953125 C 9.96875 -10.429688 9.867188 -10.847656 9.671875 -11.203125 C 9.484375 -11.554688 9.238281 -11.835938 8.9375 -12.046875 C 8.632812 -12.265625 8.304688 -12.375 7.953125 -12.375 L 4.453125 -12.375 Z M 4.453125 -7.53125 "/></g></g></g><g fill="#ffffff" fill-opacity="1"><g transform="translate(139.509503, 251.062834)"><g><path d="M 7.75 0.109375 C 6.78125 0.109375 5.863281 -0.0859375 5 -0.484375 C 4.144531 -0.878906 3.390625 -1.421875 2.734375 -2.109375 C 2.085938 -2.804688 1.582031 -3.613281 1.21875 -4.53125 C 0.851562 -5.457031 0.671875 -6.457031 0.671875 -7.53125 C 0.671875 -8.5625 0.851562 -9.523438 1.21875 -10.421875 C 1.582031 -11.328125 2.09375 -12.125 2.75 -12.8125 C 3.40625 -13.5 4.175781 -14.035156 5.0625 -14.421875 C 5.945312 -14.816406 6.90625 -15.015625 7.9375 -15.015625 C 9.332031 -15.015625 10.53125 -14.71875 11.53125 -14.125 C 12.539062 -13.53125 13.296875 -12.742188 13.796875 -11.765625 L 11.640625 -10.15625 C 11.253906 -10.90625 10.722656 -11.472656 10.046875 -11.859375 C 9.367188 -12.253906 8.628906 -12.453125 7.828125 -12.453125 C 7.203125 -12.453125 6.628906 -12.316406 6.109375 -12.046875 C 5.585938 -11.785156 5.140625 -11.421875 4.765625 -10.953125 C 4.390625 -10.492188 4.097656 -9.960938 3.890625 -9.359375 C 3.691406 -8.765625 3.59375 -8.128906 3.59375 -7.453125 C 3.59375 -6.742188 3.695312 -6.085938 3.90625 -5.484375 C 4.125 -4.878906 4.429688 -4.351562 4.828125 -3.90625 C 5.234375 -3.457031 5.703125 -3.101562 6.234375 -2.84375 C 6.765625 -2.582031 7.351562 -2.453125 8 -2.453125 C 8.757812 -2.453125 9.484375 -2.648438 10.171875 -3.046875 C 10.867188 -3.441406 11.515625 -4.015625 12.109375 -4.765625 L 12.109375 -1.90625 C 10.867188 -0.5625 9.414062 0.109375 7.75 0.109375 Z M 11.90625 -5.546875 L 8.90625 -5.546875 L 8.90625 -7.671875 L 14.296875 -7.671875 L 14.296875 0 L 11.90625 0 Z M 11.90625 -5.546875 "/></g></g></g><g fill="#ffffff" fill-opacity="1"><g transform="translate(154.726013, 251.062834)"><g/></g></g><g fill="#ffffff" fill-opacity="1"><g transform="translate(159.763198, 251.062834)"><g><path d="M 7.921875 0.109375 C 6.828125 0.109375 5.832031 -0.0976562 4.9375 -0.515625 C 4.050781 -0.941406 3.289062 -1.515625 2.65625 -2.234375 C 2.019531 -2.953125 1.523438 -3.765625 1.171875 -4.671875 C 0.828125 -5.578125 0.65625 -6.503906 0.65625 -7.453125 C 0.65625 -8.453125 0.835938 -9.398438 1.203125 -10.296875 C 1.578125 -11.203125 2.085938 -12.007812 2.734375 -12.71875 C 3.390625 -13.425781 4.160156 -13.984375 5.046875 -14.390625 C 5.941406 -14.804688 6.921875 -15.015625 7.984375 -15.015625 C 9.054688 -15.015625 10.035156 -14.796875 10.921875 -14.359375 C 11.816406 -13.929688 12.578125 -13.351562 13.203125 -12.625 C 13.835938 -11.894531 14.328125 -11.082031 14.671875 -10.1875 C 15.023438 -9.289062 15.203125 -8.363281 15.203125 -7.40625 C 15.203125 -6.425781 15.019531 -5.484375 14.65625 -4.578125 C 14.289062 -3.679688 13.78125 -2.878906 13.125 -2.171875 C 12.476562 -1.460938 11.707031 -0.90625 10.8125 -0.5 C 9.925781 -0.09375 8.960938 0.109375 7.921875 0.109375 Z M 3.59375 -7.453125 C 3.59375 -6.804688 3.6875 -6.179688 3.875 -5.578125 C 4.070312 -4.984375 4.359375 -4.453125 4.734375 -3.984375 C 5.109375 -3.515625 5.5625 -3.140625 6.09375 -2.859375 C 6.632812 -2.585938 7.25 -2.453125 7.9375 -2.453125 C 8.632812 -2.453125 9.253906 -2.59375 9.796875 -2.875 C 10.347656 -3.164062 10.804688 -3.550781 11.171875 -4.03125 C 11.535156 -4.519531 11.8125 -5.0625 12 -5.65625 C 12.1875 -6.25 12.28125 -6.847656 12.28125 -7.453125 C 12.28125 -8.097656 12.175781 -8.71875 11.96875 -9.3125 C 11.769531 -9.90625 11.484375 -10.4375 11.109375 -10.90625 C 10.742188 -11.375 10.289062 -11.742188 9.75 -12.015625 C 9.21875 -12.296875 8.613281 -12.4375 7.9375 -12.4375 C 7.21875 -12.4375 6.585938 -12.289062 6.046875 -12 C 5.515625 -11.71875 5.066406 -11.335938 4.703125 -10.859375 C 4.335938 -10.378906 4.0625 -9.84375 3.875 -9.25 C 3.6875 -8.664062 3.59375 -8.066406 3.59375 -7.453125 Z M 3.59375 -7.453125 "/></g></g></g><g fill="#ffffff" fill-opacity="1"><g transform="translate(175.630339, 251.062834)"><g/></g></g><g fill="#ffffff" fill-opacity="1"><g transform="translate(180.667524, 251.062834)"><g><path d="M 7.875 0.109375 C 6.6875 0.109375 5.675781 -0.0859375 4.84375 -0.484375 C 4.007812 -0.890625 3.335938 -1.441406 2.828125 -2.140625 C 2.316406 -2.835938 1.941406 -3.628906 1.703125 -4.515625 C 1.460938 -5.410156 1.34375 -6.34375 1.34375 -7.3125 L 1.34375 -14.90625 L 4.234375 -14.90625 L 4.234375 -7.3125 C 4.234375 -6.695312 4.289062 -6.097656 4.40625 -5.515625 C 4.53125 -4.929688 4.734375 -4.40625 5.015625 -3.9375 C 5.296875 -3.476562 5.664062 -3.113281 6.125 -2.84375 C 6.59375 -2.582031 7.171875 -2.453125 7.859375 -2.453125 C 8.554688 -2.453125 9.140625 -2.585938 9.609375 -2.859375 C 10.078125 -3.140625 10.445312 -3.507812 10.71875 -3.96875 C 10.988281 -4.425781 11.1875 -4.945312 11.3125 -5.53125 C 11.445312 -6.113281 11.515625 -6.707031 11.515625 -7.3125 L 11.515625 -14.90625 L 14.390625 -14.90625 L 14.390625 -7.3125 C 14.390625 -6.289062 14.265625 -5.332031 14.015625 -4.4375 C 13.773438 -3.539062 13.390625 -2.75 12.859375 -2.0625 C 12.335938 -1.382812 11.660156 -0.851562 10.828125 -0.46875 C 10.003906 -0.0820312 9.019531 0.109375 7.875 0.109375 Z M 7.875 0.109375 "/></g></g></g><g fill="#ffffff" fill-opacity="1"><g transform="translate(196.408734, 251.062834)"><g/></g></g><g fill="#ffffff" fill-opacity="1"><g transform="translate(201.445919, 251.062834)"><g><path d="M 1.546875 0 L 1.546875 -14.90625 L 8.140625 -14.90625 C 8.828125 -14.90625 9.460938 -14.765625 10.046875 -14.484375 C 10.628906 -14.203125 11.132812 -13.820312 11.5625 -13.34375 C 11.988281 -12.875 12.316406 -12.34375 12.546875 -11.75 C 12.773438 -11.164062 12.890625 -10.566406 12.890625 -9.953125 C 12.890625 -9.328125 12.78125 -8.722656 12.5625 -8.140625 C 12.351562 -7.554688 12.046875 -7.046875 11.640625 -6.609375 C 11.234375 -6.179688 10.753906 -5.847656 10.203125 -5.609375 L 13.609375 0 L 10.421875 0 L 7.34375 -5 L 4.453125 -5 L 4.453125 0 Z M 4.453125 -7.53125 L 8.078125 -7.53125 C 8.441406 -7.53125 8.765625 -7.640625 9.046875 -7.859375 C 9.328125 -8.078125 9.550781 -8.367188 9.71875 -8.734375 C 9.882812 -9.097656 9.96875 -9.503906 9.96875 -9.953125 C 9.96875 -10.429688 9.867188 -10.847656 9.671875 -11.203125 C 9.484375 -11.554688 9.238281 -11.835938 8.9375 -12.046875 C 8.632812 -12.265625 8.304688 -12.375 7.953125 -12.375 L 4.453125 -12.375 Z M 4.453125 -7.53125 "/></g></g></g><g fill="#ffffff" fill-opacity="1"><g transform="translate(215.403133, 251.062834)"><g/></g></g><g fill="#ffffff" fill-opacity="1"><g transform="translate(220.440318, 251.062834)"><g><path d="M 1.546875 0 L 1.546875 -14.90625 L 6.96875 -14.90625 C 8.59375 -14.90625 9.953125 -14.570312 11.046875 -13.90625 C 12.140625 -13.25 12.957031 -12.351562 13.5 -11.21875 C 14.050781 -10.09375 14.328125 -8.84375 14.328125 -7.46875 C 14.328125 -5.957031 14.023438 -4.640625 13.421875 -3.515625 C 12.816406 -2.398438 11.960938 -1.535156 10.859375 -0.921875 C 9.765625 -0.304688 8.46875 0 6.96875 0 Z M 11.40625 -7.46875 C 11.40625 -8.4375 11.226562 -9.285156 10.875 -10.015625 C 10.53125 -10.753906 10.023438 -11.332031 9.359375 -11.75 C 8.703125 -12.164062 7.90625 -12.375 6.96875 -12.375 L 4.453125 -12.375 L 4.453125 -2.546875 L 6.96875 -2.546875 C 7.925781 -2.546875 8.734375 -2.757812 9.390625 -3.1875 C 10.046875 -3.613281 10.546875 -4.195312 10.890625 -4.9375 C 11.234375 -5.6875 11.40625 -6.53125 11.40625 -7.46875 Z M 11.40625 -7.46875 "/></g></g></g></svg>