<svg xmlns="http://www.w3.org/2000/svg" xmlns:xlink="http://www.w3.org/1999/xlink" width="500" zoomAndPan="magnify" viewBox="0 0 375 374.999991" height="500" preserveAspectRatio="xMidYMid meet" version="1.0"><defs><g/><clipPath id="a6729197c9"><path d="M 40.5 6.976562 L 334.5 6.976562 L 334.5 300.976562 L 40.5 300.976562 Z M 40.5 6.976562 " clip-rule="nonzero"/></clipPath><clipPath id="bac8cecd08"><path d="M 187.5 6.976562 C 106.3125 6.976562 40.5 72.789062 40.5 153.976562 C 40.5 235.160156 106.3125 300.976562 187.5 300.976562 C 268.6875 300.976562 334.5 235.160156 334.5 153.976562 C 334.5 72.789062 268.6875 6.976562 187.5 6.976562 Z M 187.5 6.976562 " clip-rule="nonzero"/></clipPath><clipPath id="4f2dc60412"><path d="M 0.5 0.976562 L 294.5 0.976562 L 294.5 294.976562 L 0.5 294.976562 Z M 0.5 0.976562 " clip-rule="nonzero"/></clipPath><clipPath id="be117c4d2e"><path d="M 147.5 0.976562 C 66.3125 0.976562 0.5 66.789062 0.5 147.976562 C 0.5 229.160156 66.3125 294.976562 147.5 294.976562 C 228.6875 294.976562 294.5 229.160156 294.5 147.976562 C 294.5 66.789062 228.6875 0.976562 147.5 0.976562 Z M 147.5 0.976562 " clip-rule="nonzero"/></clipPath><clipPath id="ab037ee970"><rect x="0" width="295" y="0" height="295"/></clipPath><clipPath id="7b96552de3"><path d="M 112 54 L 295.757812 54 L 295.757812 254.617188 L 112 254.617188 Z M 112 54 " clip-rule="nonzero"/></clipPath><clipPath id="fe9f4fcd0e"><rect x="0" width="172" y="0" height="45"/></clipPath><clipPath id="0f09c4e407"><rect x="0" width="172" y="0" height="39"/></clipPath></defs><g clip-path="url(#a6729197c9)"><g clip-path="url(#bac8cecd08)"><g transform="matrix(1, 0, 0, 1, 40, 6)"><g clip-path="url(#ab037ee970)"><g clip-path="url(#4f2dc60412)"><g clip-path="url(#be117c4d2e)"><path fill="#297506" d="M 0.5 0.976562 L 294.5 0.976562 L 294.5 294.976562 L 0.5 294.976562 Z M 0.5 0.976562 " fill-opacity="1" fill-rule="nonzero"/></g></g></g></g></g></g><path fill="#ffffff" d="M 229.375 71.507812 C 227.960938 72.378906 226.519531 73.371094 225.089844 74.375 C 210.132812 84.933594 210.714844 71.726562 180.167969 98.320312 C 173.777344 103.878906 167.828125 103.398438 154.710938 117.144531 C 151.507812 120.5 156.617188 125.253906 159.761719 121.945312 C 172.078125 109.039062 177.523438 109.859375 184.75 103.566406 C 214.644531 77.59375 211.351562 92.621094 229.121094 80.082031 C 230.449219 79.140625 231.792969 78.242188 233.109375 77.410156 C 233.5 77.164062 233.828125 76.851562 234.097656 76.472656 C 234.363281 76.09375 234.546875 75.679688 234.648438 75.226562 C 234.75 74.777344 234.761719 74.320312 234.683594 73.867188 C 234.605469 73.410156 234.441406 72.984375 234.195312 72.59375 C 233.949219 72.203125 233.632812 71.871094 233.257812 71.605469 C 232.878906 71.339844 232.460938 71.15625 232.011719 71.050781 C 231.558594 70.949219 231.105469 70.9375 230.648438 71.019531 C 230.191406 71.097656 229.769531 71.257812 229.375 71.507812 Z M 229.375 71.507812 " fill-opacity="1" fill-rule="nonzero"/><path fill="#ffffff" d="M 159.105469 229.75 C 159.570312 229.6875 160.007812 229.535156 160.414062 229.292969 C 160.816406 229.050781 161.160156 228.742188 161.4375 228.363281 C 161.71875 227.984375 161.914062 227.566406 162.023438 227.105469 C 162.132812 226.648438 162.148438 226.1875 162.070312 225.722656 C 161.996094 225.257812 161.832031 224.828125 161.578125 224.429688 C 161.328125 224.03125 161.007812 223.695312 160.621094 223.425781 C 160.234375 223.15625 159.8125 222.976562 159.351562 222.878906 C 158.890625 222.78125 158.429688 222.773438 157.964844 222.863281 C 140.308594 225.789062 135.390625 241.128906 114.042969 240.574219 C 118.40625 238.527344 124.042969 234.902344 136.789062 223.832031 C 150.890625 211.589844 146.386719 221.214844 175.367188 193.839844 C 177.355469 191.957031 199.644531 174.609375 215.167969 156.171875 C 215.332031 156 215.476562 155.8125 215.601562 155.609375 C 215.726562 155.40625 215.832031 155.195312 215.914062 154.972656 C 215.996094 154.75 216.054688 154.519531 216.089844 154.285156 C 216.125 154.050781 216.136719 153.8125 216.121094 153.574219 C 216.109375 153.339844 216.070312 153.105469 216.011719 152.875 C 215.949219 152.644531 215.867188 152.421875 215.761719 152.210938 C 215.65625 151.996094 215.527344 151.796875 215.382812 151.609375 C 215.234375 151.425781 215.070312 151.253906 214.890625 151.101562 C 214.707031 150.945312 214.511719 150.8125 214.304688 150.699219 C 214.09375 150.585938 213.875 150.496094 213.648438 150.425781 C 213.421875 150.355469 213.1875 150.3125 212.953125 150.289062 C 212.714844 150.269531 212.480469 150.269531 212.242188 150.296875 C 212.007812 150.324219 211.777344 150.375 211.550781 150.449219 C 211.324219 150.523438 211.105469 150.617188 210.902344 150.738281 C 210.695312 150.855469 210.503906 150.992188 210.324219 151.152344 C 210.144531 151.308594 209.984375 151.480469 209.84375 151.671875 C 194.570312 169.792969 173.214844 186.261719 170.566406 188.761719 C 141.9375 215.820312 147.503906 205.277344 132.203125 218.558594 C 110.554688 237.347656 111.824219 232.84375 99.335938 239.617188 C 99.285156 239.0625 99.320312 238.511719 99.429688 237.964844 C 102.457031 222.195312 94.628906 221.675781 111.671875 197.523438 C 116.632812 190.492188 117.320312 186.304688 117.980469 182.246094 C 118.90625 176.574219 119.867188 170.742188 135.175781 153.152344 C 138.882812 148.894531 141.375 142.714844 145.582031 136.816406 C 145.816406 136.4375 145.976562 136.03125 146.058594 135.59375 C 146.140625 135.15625 146.136719 134.71875 146.050781 134.28125 C 145.964844 133.84375 145.800781 133.441406 145.558594 133.066406 C 145.316406 132.691406 145.015625 132.375 144.652344 132.117188 C 144.292969 131.859375 143.894531 131.675781 143.460938 131.570312 C 143.03125 131.460938 142.59375 131.4375 142.152344 131.5 C 141.710938 131.558594 141.296875 131.699219 140.910156 131.917969 C 140.519531 132.136719 140.1875 132.417969 139.90625 132.765625 C 135.5 138.945312 133 145.035156 129.925781 148.570312 C 113.296875 167.671875 112.125 174.824219 111.089844 181.136719 C 110.480469 184.855469 110 187.789062 105.96875 193.507812 C 98.449219 204.15625 95.292969 210.917969 94 216.199219 C 92.578125 209.015625 92.835938 201.625 101.355469 186.742188 C 105.832031 178.957031 105.503906 173.71875 105.191406 168.652344 C 104.753906 161.699219 104.316406 154.511719 118.746094 136.542969 C 123.824219 130.222656 124.535156 119.140625 132.6875 111.953125 C 136.535156 108.566406 140.152344 104.949219 143.542969 101.101562 C 150.738281 92.933594 161.808594 92.238281 168.128906 87.15625 C 186.101562 72.722656 193.289062 73.167969 200.242188 73.601562 C 205.296875 73.914062 210.519531 74.238281 218.339844 69.761719 C 230.339844 62.890625 242.441406 60.792969 253.339844 63.695312 C 253.789062 63.8125 254.242188 63.84375 254.699219 63.78125 C 255.160156 63.722656 255.589844 63.574219 255.992188 63.339844 C 256.390625 63.109375 256.734375 62.808594 257.015625 62.441406 C 257.296875 62.074219 257.496094 61.664062 257.613281 61.21875 C 257.734375 60.769531 257.761719 60.316406 257.699219 59.855469 C 257.640625 59.398438 257.492188 58.96875 257.257812 58.566406 C 257.027344 58.164062 256.726562 57.824219 256.359375 57.542969 C 255.988281 57.261719 255.582031 57.0625 255.132812 56.945312 C 242.609375 53.609375 228.3125 56.011719 214.871094 63.703125 C 208.867188 67.144531 205.269531 66.914062 200.671875 66.632812 C 192.777344 66.144531 183.832031 65.585938 163.753906 81.714844 C 158.824219 85.671875 146.710938 86.953125 138.300781 96.488281 C 135.105469 100.109375 131.695312 103.519531 128.070312 106.71875 C 118.519531 115.132812 117.257812 127.226562 113.300781 132.167969 C 97.171875 152.242188 97.726562 161.195312 98.214844 169.089844 C 98.5 173.664062 98.726562 177.28125 95.289062 183.285156 C 79.035156 211.6875 89.792969 217.894531 90.371094 235.285156 C 90.425781 237.257812 90.835938 239.15625 91.609375 240.972656 C 92.382812 242.792969 93.460938 244.40625 94.84375 245.816406 C 97.242188 248.257812 100.699219 248.835938 104.105469 248.179688 C 118.269531 245.464844 121.164062 253.207031 147.257812 234.792969 C 152.953125 230.773438 156.082031 230.253906 159.105469 229.75 Z M 159.105469 229.75 " fill-opacity="1" fill-rule="nonzero"/><path fill="#ffffff" d="M 196.003906 200.070312 C 187.710938 204.796875 189.300781 204.355469 182.140625 210.167969 C 181.792969 210.464844 181.511719 210.8125 181.304688 211.21875 C 181.09375 211.625 180.96875 212.054688 180.925781 212.507812 C 180.882812 212.960938 180.929688 213.40625 181.0625 213.84375 C 181.195312 214.277344 181.402344 214.675781 181.691406 215.027344 C 181.976562 215.382812 182.320312 215.667969 182.722656 215.886719 C 183.121094 216.109375 183.546875 216.242188 184 216.296875 C 184.453125 216.347656 184.898438 216.3125 185.339844 216.191406 C 185.777344 216.070312 186.179688 215.867188 186.539062 215.589844 C 188.316406 214.148438 190.207031 212.554688 192.171875 210.84375 C 197.144531 206.519531 207.128906 203.363281 215.515625 194.261719 C 227.652344 181.117188 228.9375 183.285156 237.730469 167.863281 C 239.390625 164.941406 240.832031 162.417969 242.433594 160.574219 C 262.460938 137.566406 260.070312 131.804688 261.9375 124.527344 C 262.054688 124.078125 262.078125 123.625 262.015625 123.164062 C 261.949219 122.707031 261.800781 122.277344 261.566406 121.878906 C 261.332031 121.480469 261.027344 121.140625 260.65625 120.859375 C 260.289062 120.582031 259.878906 120.386719 259.429688 120.269531 C 258.980469 120.152344 258.527344 120.128906 258.066406 120.191406 C 257.609375 120.257812 257.179688 120.40625 256.78125 120.644531 C 256.382812 120.878906 256.042969 121.183594 255.765625 121.550781 C 255.484375 121.921875 255.289062 122.332031 255.171875 122.78125 C 253.160156 130.636719 255.816406 134.566406 237.167969 155.984375 C 235.105469 158.347656 233.433594 161.285156 231.660156 164.398438 C 223.410156 178.875 222.929688 175.941406 210.386719 189.519531 C 205.835938 194.464844 200.613281 197.441406 196.003906 200.070312 Z M 196.003906 200.070312 " fill-opacity="1" fill-rule="nonzero"/><g clip-path="url(#7b96552de3)"><path fill="#ffffff" d="M 294.777344 59.378906 C 294.296875 58.894531 293.785156 58.445312 293.246094 58.027344 C 292.710938 57.609375 292.144531 57.226562 291.558594 56.882812 C 290.972656 56.535156 290.367188 56.226562 289.738281 55.957031 C 289.113281 55.6875 288.472656 55.457031 287.816406 55.269531 C 287.160156 55.082031 286.496094 54.9375 285.824219 54.832031 C 285.148438 54.730469 284.472656 54.667969 283.789062 54.652344 C 283.109375 54.632812 282.429688 54.660156 281.75 54.726562 C 281.070312 54.796875 280.398438 54.90625 279.734375 55.0625 C 279.070312 55.214844 278.421875 55.410156 277.78125 55.648438 C 277.140625 55.882812 276.519531 56.160156 275.914062 56.476562 C 275.3125 56.789062 274.730469 57.144531 274.167969 57.53125 C 273.609375 57.921875 273.078125 58.347656 272.570312 58.804688 C 272.066406 59.261719 271.589844 59.746094 271.148438 60.265625 C 270.703125 60.78125 270.292969 61.324219 269.917969 61.894531 C 269.542969 62.464844 269.207031 63.054688 268.90625 63.667969 C 268.605469 64.28125 268.347656 64.910156 268.125 65.554688 C 261.398438 65.773438 250.492188 72.394531 235.5625 85.355469 C 221.472656 97.574219 225.9375 87.972656 196.980469 115.347656 C 195.0625 117.160156 192.792969 118.976562 190.160156 121.074219 C 166.917969 139.625 149.25 162.941406 146.921875 165.410156 C 119.570312 194.359375 129.164062 189.894531 116.925781 203.988281 C 115.738281 205.355469 114.609375 206.671875 113.566406 207.917969 C 113.265625 208.269531 113.046875 208.667969 112.90625 209.109375 C 112.765625 209.550781 112.714844 210.003906 112.753906 210.464844 C 112.792969 210.925781 112.917969 211.363281 113.128906 211.773438 C 113.34375 212.1875 113.625 212.539062 113.980469 212.839844 C 114.335938 213.136719 114.730469 213.359375 115.171875 213.5 C 115.613281 213.640625 116.066406 213.691406 116.527344 213.652344 C 116.988281 213.613281 117.425781 213.488281 117.835938 213.273438 C 118.25 213.0625 118.605469 212.777344 118.902344 212.425781 C 124.304688 206.015625 126.886719 203.570312 130.734375 196.503906 C 133.035156 192.28125 135.644531 187.496094 151.996094 170.1875 C 154.007812 168.054688 156 165.5625 158.105469 162.925781 C 176.628906 139.71875 198.257812 123.746094 201.78125 120.40625 C 230.410156 93.347656 224.828125 103.898438 240.144531 90.609375 C 257.410156 75.636719 265.929688 72.496094 268.296875 72.472656 C 268.265625 74.832031 265.121094 83.382812 250.144531 100.625 C 237.972656 114.65625 245.820312 111.144531 226.34375 132.535156 C 226.03125 132.878906 225.796875 133.265625 225.640625 133.703125 C 225.484375 134.136719 225.414062 134.585938 225.4375 135.050781 C 225.457031 135.511719 225.566406 135.953125 225.765625 136.371094 C 225.960938 136.792969 226.230469 137.15625 226.574219 137.46875 C 226.914062 137.78125 227.304688 138.015625 227.738281 138.171875 C 228.175781 138.328125 228.625 138.398438 229.085938 138.375 C 229.550781 138.355469 229.992188 138.246094 230.410156 138.046875 C 230.828125 137.851562 231.195312 137.582031 231.507812 137.238281 C 251.355469 115.417969 244.164062 118.160156 255.421875 105.203125 C 264.855469 94.328125 270.917969 85.613281 273.617188 79.058594 C 280.519531 90.996094 279.726562 107.136719 270.996094 122.417969 C 266.519531 130.238281 266.847656 135.464844 267.160156 140.515625 C 267.597656 147.46875 268.035156 154.660156 253.605469 172.628906 C 248.53125 178.949219 247.816406 190.03125 239.640625 197.214844 C 235.796875 200.605469 232.179688 204.226562 228.789062 208.070312 C 221.625 216.234375 210.542969 216.925781 204.214844 222.011719 C 186.246094 236.445312 179.054688 235.976562 172.101562 235.542969 C 167.046875 235.226562 161.824219 234.90625 154.003906 239.382812 C 146.3125 243.785156 139.992188 246.3125 134.667969 247.113281 C 134.207031 247.179688 133.78125 247.335938 133.382812 247.574219 C 132.988281 247.8125 132.652344 248.117188 132.375 248.492188 C 132.101562 248.863281 131.910156 249.273438 131.796875 249.722656 C 131.683594 250.171875 131.664062 250.625 131.734375 251.085938 C 131.800781 251.542969 131.957031 251.96875 132.195312 252.367188 C 132.433594 252.761719 132.738281 253.097656 133.109375 253.375 C 133.484375 253.648438 133.894531 253.84375 134.34375 253.957031 C 134.792969 254.066406 135.246094 254.089844 135.703125 254.019531 C 141.984375 253.078125 148.902344 250.355469 157.472656 245.449219 C 163.476562 242.007812 167.074219 242.230469 171.667969 242.515625 C 179.558594 243.007812 188.511719 243.5625 208.585938 227.4375 C 213.515625 223.480469 225.632812 222.199219 234.042969 212.664062 C 237.238281 209.039062 240.648438 205.628906 244.273438 202.4375 C 253.824219 194.023438 255.085938 181.925781 259.042969 176.980469 C 275.167969 156.90625 274.617188 147.957031 274.121094 140.0625 C 273.839844 135.484375 273.617188 131.871094 277.054688 125.863281 C 290.050781 103.167969 286.542969 81.550781 274.503906 68.515625 C 274.699219 67.730469 274.992188 66.980469 275.390625 66.273438 C 275.785156 65.566406 276.265625 64.921875 276.832031 64.339844 C 277.402344 63.761719 278.035156 63.265625 278.734375 62.851562 C 279.433594 62.441406 280.171875 62.128906 280.957031 61.914062 C 281.738281 61.699219 282.535156 61.59375 283.347656 61.589844 C 284.160156 61.589844 284.957031 61.695312 285.738281 61.90625 C 286.523438 62.117188 287.265625 62.425781 287.96875 62.835938 C 288.667969 63.242188 289.304688 63.738281 289.871094 64.316406 C 290.207031 64.597656 290.582031 64.808594 290.996094 64.949219 C 291.410156 65.089844 291.839844 65.152344 292.277344 65.132812 C 292.714844 65.113281 293.132812 65.011719 293.53125 64.835938 C 293.933594 64.660156 294.289062 64.414062 294.597656 64.105469 C 294.90625 63.792969 295.148438 63.4375 295.320312 63.035156 C 295.496094 62.632812 295.59375 62.214844 295.609375 61.777344 C 295.625 61.339844 295.5625 60.914062 295.417969 60.5 C 295.277344 60.085938 295.0625 59.710938 294.777344 59.378906 Z M 294.777344 59.378906 " fill-opacity="1" fill-rule="nonzero"/></g><g transform="matrix(1, 0, 0, 1, 102, 301)"><g clip-path="url(#fe9f4fcd0e)"><g fill="#297506" fill-opacity="1"><g transform="translate(1.196152, 34.627052)"><g><path d="M 23.90625 -6.78125 C 23.90625 -5.289062 23.519531 -4.046875 22.75 -3.046875 C 21.988281 -2.046875 20.960938 -1.285156 19.671875 -0.765625 C 18.378906 -0.253906 16.96875 0 15.4375 0 L 2.734375 0 L 2.734375 -26.28125 L 16.8125 -26.28125 C 18.039062 -26.28125 19.101562 -25.953125 20 -25.296875 C 20.90625 -24.640625 21.597656 -23.800781 22.078125 -22.78125 C 22.554688 -21.757812 22.796875 -20.691406 22.796875 -19.578125 C 22.796875 -18.316406 22.472656 -17.117188 21.828125 -15.984375 C 21.191406 -14.847656 20.257812 -14.007812 19.03125 -13.46875 C 20.53125 -13.03125 21.71875 -12.226562 22.59375 -11.0625 C 23.46875 -9.90625 23.90625 -8.476562 23.90625 -6.78125 Z M 18.765625 -7.734375 C 18.765625 -8.398438 18.628906 -9 18.359375 -9.53125 C 18.085938 -10.0625 17.722656 -10.476562 17.265625 -10.78125 C 16.804688 -11.09375 16.28125 -11.25 15.6875 -11.25 L 7.84375 -11.25 L 7.84375 -4.328125 L 15.4375 -4.328125 C 16.050781 -4.328125 16.609375 -4.476562 17.109375 -4.78125 C 17.617188 -5.09375 18.019531 -5.507812 18.3125 -6.03125 C 18.613281 -6.550781 18.765625 -7.117188 18.765625 -7.734375 Z M 7.84375 -21.90625 L 7.84375 -15.28125 L 14.65625 -15.28125 C 15.226562 -15.28125 15.75 -15.414062 16.21875 -15.6875 C 16.6875 -15.96875 17.0625 -16.351562 17.34375 -16.84375 C 17.625 -17.332031 17.765625 -17.925781 17.765625 -18.625 C 17.765625 -19.289062 17.632812 -19.867188 17.375 -20.359375 C 17.113281 -20.847656 16.765625 -21.226562 16.328125 -21.5 C 15.898438 -21.769531 15.414062 -21.90625 14.875 -21.90625 Z M 7.84375 -21.90625 "/></g></g></g><g fill="#297506" fill-opacity="1"><g transform="translate(26.364325, 34.627052)"><g/></g></g><g fill="#297506" fill-opacity="1"><g transform="translate(35.247207, 34.627052)"><g><path d="M 2.734375 0 L 2.734375 -26.28125 L 7.84375 -26.28125 L 7.84375 0 Z M 2.734375 0 "/></g></g></g><g fill="#297506" fill-opacity="1"><g transform="translate(45.832657, 34.627052)"><g/></g></g><g fill="#297506" fill-opacity="1"><g transform="translate(53.64198, 34.627052)"><g><path d="M 22.390625 -21.796875 L 13.984375 -21.796875 L 13.984375 0 L 8.921875 0 L 8.921875 -21.796875 L 0.515625 -21.796875 L 0.515625 -26.28125 L 22.390625 -26.28125 Z M 22.390625 -21.796875 "/></g></g></g><g fill="#297506" fill-opacity="1"><g transform="translate(75.47886, 34.627052)"><g/></g></g><g fill="#297506" fill-opacity="1"><g transform="translate(83.288183, 34.627052)"><g><path d="M 22.390625 -21.796875 L 13.984375 -21.796875 L 13.984375 0 L 8.921875 0 L 8.921875 -21.796875 L 0.515625 -21.796875 L 0.515625 -26.28125 L 22.390625 -26.28125 Z M 22.390625 -21.796875 "/></g></g></g><g fill="#297506" fill-opacity="1"><g transform="translate(105.125063, 34.627052)"><g/></g></g><g fill="#297506" fill-opacity="1"><g transform="translate(114.007945, 34.627052)"><g><path d="M 20.984375 -4.484375 L 20.984375 0 L 2.734375 0 L 2.734375 -26.28125 L 20.65625 -26.28125 L 20.65625 -21.796875 L 7.84375 -21.796875 L 7.84375 -15.46875 L 18.921875 -15.46875 L 18.921875 -11.328125 L 7.84375 -11.328125 L 7.84375 -4.484375 Z M 20.984375 -4.484375 "/></g></g></g><g fill="#297506" fill-opacity="1"><g transform="translate(136.252184, 34.627052)"><g/></g></g><g fill="#297506" fill-opacity="1"><g transform="translate(145.135066, 34.627052)"><g><path d="M 2.734375 0 L 2.734375 -26.28125 L 14.359375 -26.28125 C 15.566406 -26.28125 16.679688 -26.03125 17.703125 -25.53125 C 18.734375 -25.039062 19.625 -24.375 20.375 -23.53125 C 21.125 -22.695312 21.703125 -21.757812 22.109375 -20.71875 C 22.523438 -19.6875 22.734375 -18.628906 22.734375 -17.546875 C 22.734375 -16.429688 22.539062 -15.363281 22.15625 -14.34375 C 21.769531 -13.320312 21.21875 -12.425781 20.5 -11.65625 C 19.789062 -10.894531 18.953125 -10.304688 17.984375 -9.890625 L 23.984375 0 L 18.359375 0 L 12.953125 -8.8125 L 7.84375 -8.8125 L 7.84375 0 Z M 7.84375 -13.28125 L 14.25 -13.28125 C 14.894531 -13.28125 15.460938 -13.472656 15.953125 -13.859375 C 16.441406 -14.242188 16.832031 -14.753906 17.125 -15.390625 C 17.425781 -16.035156 17.578125 -16.753906 17.578125 -17.546875 C 17.578125 -18.378906 17.40625 -19.109375 17.0625 -19.734375 C 16.71875 -20.367188 16.28125 -20.867188 15.75 -21.234375 C 15.21875 -21.609375 14.644531 -21.796875 14.03125 -21.796875 L 7.84375 -21.796875 Z M 7.84375 -13.28125 "/></g></g></g></g></g><g transform="matrix(1, 0, 0, 1, 102, 336)"><g clip-path="url(#0f09c4e407)"><g fill="#297506" fill-opacity="1"><g transform="translate(0.865503, 34.65205)"><g><path d="M 13.65625 0.1875 C 11.957031 0.1875 10.347656 -0.15625 8.828125 -0.84375 C 7.304688 -1.539062 5.972656 -2.5 4.828125 -3.71875 C 3.679688 -4.9375 2.785156 -6.359375 2.140625 -7.984375 C 1.503906 -9.617188 1.1875 -11.382812 1.1875 -13.28125 C 1.1875 -15.082031 1.503906 -16.78125 2.140625 -18.375 C 2.785156 -19.96875 3.6875 -21.367188 4.84375 -22.578125 C 6.007812 -23.785156 7.367188 -24.734375 8.921875 -25.421875 C 10.472656 -26.117188 12.160156 -26.46875 13.984375 -26.46875 C 16.453125 -26.46875 18.566406 -25.941406 20.328125 -24.890625 C 22.097656 -23.835938 23.425781 -22.453125 24.3125 -20.734375 L 20.5 -17.921875 C 19.832031 -19.222656 18.898438 -20.21875 17.703125 -20.90625 C 16.515625 -21.601562 15.21875 -21.953125 13.8125 -21.953125 C 12.695312 -21.953125 11.679688 -21.71875 10.765625 -21.25 C 9.859375 -20.78125 9.070312 -20.132812 8.40625 -19.3125 C 7.738281 -18.5 7.222656 -17.5625 6.859375 -16.5 C 6.503906 -15.445312 6.328125 -14.328125 6.328125 -13.140625 C 6.328125 -11.878906 6.519531 -10.71875 6.90625 -9.65625 C 7.289062 -8.59375 7.832031 -7.664062 8.53125 -6.875 C 9.238281 -6.09375 10.0625 -5.472656 11 -5.015625 C 11.9375 -4.554688 12.972656 -4.328125 14.109375 -4.328125 C 15.441406 -4.328125 16.71875 -4.671875 17.9375 -5.359375 C 19.15625 -6.054688 20.296875 -7.070312 21.359375 -8.40625 L 21.359375 -3.375 C 19.160156 -1 16.59375 0.1875 13.65625 0.1875 Z M 20.984375 -9.765625 L 15.6875 -9.765625 L 15.6875 -13.515625 L 25.203125 -13.515625 L 25.203125 0 L 20.984375 0 Z M 20.984375 -9.765625 "/></g></g></g><g fill="#297506" fill-opacity="1"><g transform="translate(27.699232, 34.65205)"><g/></g></g><g fill="#297506" fill-opacity="1"><g transform="translate(36.582114, 34.65205)"><g><path d="M 13.953125 0.1875 C 12.023438 0.1875 10.273438 -0.179688 8.703125 -0.921875 C 7.140625 -1.660156 5.796875 -2.664062 4.671875 -3.9375 C 3.554688 -5.207031 2.6875 -6.640625 2.0625 -8.234375 C 1.445312 -9.828125 1.140625 -11.460938 1.140625 -13.140625 C 1.140625 -14.890625 1.46875 -16.5625 2.125 -18.15625 C 2.78125 -19.75 3.679688 -21.164062 4.828125 -22.40625 C 5.972656 -23.65625 7.328125 -24.644531 8.890625 -25.375 C 10.460938 -26.101562 12.1875 -26.46875 14.0625 -26.46875 C 15.96875 -26.46875 17.703125 -26.082031 19.265625 -25.3125 C 20.828125 -24.550781 22.164062 -23.53125 23.28125 -22.25 C 24.394531 -20.96875 25.257812 -19.535156 25.875 -17.953125 C 26.488281 -16.367188 26.796875 -14.738281 26.796875 -13.0625 C 26.796875 -11.332031 26.472656 -9.671875 25.828125 -8.078125 C 25.191406 -6.492188 24.300781 -5.078125 23.15625 -3.828125 C 22.007812 -2.585938 20.648438 -1.609375 19.078125 -0.890625 C 17.515625 -0.171875 15.804688 0.1875 13.953125 0.1875 Z M 6.328125 -13.140625 C 6.328125 -12.003906 6.5 -10.90625 6.84375 -9.84375 C 7.1875 -8.78125 7.6875 -7.835938 8.34375 -7.015625 C 9 -6.191406 9.800781 -5.535156 10.75 -5.046875 C 11.695312 -4.566406 12.773438 -4.328125 13.984375 -4.328125 C 15.222656 -4.328125 16.320312 -4.578125 17.28125 -5.078125 C 18.25 -5.585938 19.050781 -6.269531 19.6875 -7.125 C 20.332031 -7.976562 20.820312 -8.925781 21.15625 -9.96875 C 21.488281 -11.019531 21.65625 -12.078125 21.65625 -13.140625 C 21.65625 -14.273438 21.472656 -15.363281 21.109375 -16.40625 C 20.753906 -17.457031 20.25 -18.394531 19.59375 -19.21875 C 18.945312 -20.050781 18.144531 -20.707031 17.1875 -21.1875 C 16.238281 -21.664062 15.171875 -21.90625 13.984375 -21.90625 C 12.734375 -21.90625 11.628906 -21.648438 10.671875 -21.140625 C 9.722656 -20.640625 8.925781 -19.96875 8.28125 -19.125 C 7.644531 -18.289062 7.160156 -17.351562 6.828125 -16.3125 C 6.492188 -15.28125 6.328125 -14.222656 6.328125 -13.140625 Z M 6.328125 -13.140625 "/></g></g></g><g fill="#297506" fill-opacity="1"><g transform="translate(64.563205, 34.65205)"><g/></g></g><g fill="#297506" fill-opacity="1"><g transform="translate(73.446088, 34.65205)"><g><path d="M 13.875 0.1875 C 11.78125 0.1875 10 -0.160156 8.53125 -0.859375 C 7.0625 -1.566406 5.875 -2.535156 4.96875 -3.765625 C 4.070312 -5.003906 3.414062 -6.40625 3 -7.96875 C 2.582031 -9.539062 2.375 -11.175781 2.375 -12.875 L 2.375 -26.28125 L 7.484375 -26.28125 L 7.484375 -12.875 C 7.484375 -11.789062 7.585938 -10.738281 7.796875 -9.71875 C 8.003906 -8.695312 8.351562 -7.773438 8.84375 -6.953125 C 9.34375 -6.140625 10 -5.5 10.8125 -5.03125 C 11.625 -4.5625 12.632812 -4.328125 13.84375 -4.328125 C 15.070312 -4.328125 16.097656 -4.566406 16.921875 -5.046875 C 17.753906 -5.535156 18.410156 -6.1875 18.890625 -7 C 19.378906 -7.8125 19.734375 -8.726562 19.953125 -9.75 C 20.171875 -10.78125 20.28125 -11.820312 20.28125 -12.875 L 20.28125 -26.28125 L 25.359375 -26.28125 L 25.359375 -12.875 C 25.359375 -11.070312 25.140625 -9.378906 24.703125 -7.796875 C 24.273438 -6.222656 23.597656 -4.835938 22.671875 -3.640625 C 21.742188 -2.441406 20.550781 -1.503906 19.09375 -0.828125 C 17.644531 -0.148438 15.90625 0.1875 13.875 0.1875 Z M 13.875 0.1875 "/></g></g></g><g fill="#297506" fill-opacity="1"><g transform="translate(101.205104, 34.65205)"><g/></g></g><g fill="#297506" fill-opacity="1"><g transform="translate(110.087987, 34.65205)"><g><path d="M 2.734375 0 L 2.734375 -26.28125 L 14.359375 -26.28125 C 15.566406 -26.28125 16.679688 -26.03125 17.703125 -25.53125 C 18.734375 -25.039062 19.625 -24.375 20.375 -23.53125 C 21.125 -22.695312 21.703125 -21.757812 22.109375 -20.71875 C 22.523438 -19.6875 22.734375 -18.628906 22.734375 -17.546875 C 22.734375 -16.429688 22.539062 -15.363281 22.15625 -14.34375 C 21.769531 -13.320312 21.21875 -12.425781 20.5 -11.65625 C 19.789062 -10.894531 18.953125 -10.304688 17.984375 -9.890625 L 23.984375 0 L 18.359375 0 L 12.953125 -8.8125 L 7.84375 -8.8125 L 7.84375 0 Z M 7.84375 -13.28125 L 14.25 -13.28125 C 14.894531 -13.28125 15.460938 -13.472656 15.953125 -13.859375 C 16.441406 -14.242188 16.832031 -14.753906 17.125 -15.390625 C 17.425781 -16.035156 17.578125 -16.753906 17.578125 -17.546875 C 17.578125 -18.378906 17.40625 -19.109375 17.0625 -19.734375 C 16.71875 -20.367188 16.28125 -20.867188 15.75 -21.234375 C 15.21875 -21.609375 14.644531 -21.796875 14.03125 -21.796875 L 7.84375 -21.796875 Z M 7.84375 -13.28125 "/></g></g></g><g fill="#297506" fill-opacity="1"><g transform="translate(134.700995, 34.65205)"><g/></g></g><g fill="#297506" fill-opacity="1"><g transform="translate(143.583877, 34.65205)"><g><path d="M 2.734375 0 L 2.734375 -26.28125 L 12.296875 -26.28125 C 15.148438 -26.28125 17.539062 -25.691406 19.46875 -24.515625 C 21.394531 -23.347656 22.835938 -21.769531 23.796875 -19.78125 C 24.765625 -17.800781 25.25 -15.597656 25.25 -13.171875 C 25.25 -10.515625 24.71875 -8.195312 23.65625 -6.21875 C 22.59375 -4.238281 21.09375 -2.707031 19.15625 -1.625 C 17.21875 -0.539062 14.929688 0 12.296875 0 Z M 20.09375 -13.171875 C 20.09375 -14.878906 19.785156 -16.378906 19.171875 -17.671875 C 18.554688 -18.972656 17.664062 -19.984375 16.5 -20.703125 C 15.34375 -21.429688 13.941406 -21.796875 12.296875 -21.796875 L 7.84375 -21.796875 L 7.84375 -4.484375 L 12.296875 -4.484375 C 13.972656 -4.484375 15.390625 -4.859375 16.546875 -5.609375 C 17.703125 -6.359375 18.582031 -7.394531 19.1875 -8.71875 C 19.789062 -10.039062 20.09375 -11.523438 20.09375 -13.171875 Z M 20.09375 -13.171875 "/></g></g></g></g></g></svg>