<svg xmlns="http://www.w3.org/2000/svg" xmlns:xlink="http://www.w3.org/1999/xlink" width="500" zoomAndPan="magnify" viewBox="0 0 375 374.999991" height="500" preserveAspectRatio="xMidYMid meet" version="1.0"><defs><g/><clipPath id="0be76b6063"><path d="M 100.4375 100.4375 L 274.5625 100.4375 L 274.5625 274.5625 L 100.4375 274.5625 Z M 100.4375 100.4375 " clip-rule="nonzero"/></clipPath><clipPath id="d6f5f3369c"><path d="M 187.5 100.4375 C 139.417969 100.4375 100.4375 139.417969 100.4375 187.5 C 100.4375 235.582031 139.417969 274.5625 187.5 274.5625 C 235.582031 274.5625 274.5625 235.582031 274.5625 187.5 C 274.5625 139.417969 235.582031 100.4375 187.5 100.4375 Z M 187.5 100.4375 " clip-rule="nonzero"/></clipPath><clipPath id="52e17900ed"><path d="M 0.4375 0.4375 L 174.5625 0.4375 L 174.5625 174.5625 L 0.4375 174.5625 Z M 0.4375 0.4375 " clip-rule="nonzero"/></clipPath><clipPath id="3de56a2b3f"><path d="M 87.5 0.4375 C 39.417969 0.4375 0.4375 39.417969 0.4375 87.5 C 0.4375 135.582031 39.417969 174.5625 87.5 174.5625 C 135.582031 174.5625 174.5625 135.582031 174.5625 87.5 C 174.5625 39.417969 135.582031 0.4375 87.5 0.4375 Z M 87.5 0.4375 " clip-rule="nonzero"/></clipPath><clipPath id="0898b899a0"><rect x="0" width="175" y="0" height="175"/></clipPath><clipPath id="4f34d3778f"><path d="M 130 122.226562 L 245.355469 122.226562 L 245.355469 200.976562 L 130 200.976562 Z M 130 122.226562 " clip-rule="nonzero"/></clipPath></defs><g clip-path="url(#0be76b6063)"><g clip-path="url(#d6f5f3369c)"><g transform="matrix(1, 0, 0, 1, 100, 100)"><g clip-path="url(#0898b899a0)"><g clip-path="url(#52e17900ed)"><g clip-path="url(#3de56a2b3f)"><path fill="#8fc73f" d="M 0.4375 0.4375 L 174.5625 0.4375 L 174.5625 174.5625 L 0.4375 174.5625 Z M 0.4375 0.4375 " fill-opacity="1" fill-rule="nonzero"/></g></g></g></g></g></g><g clip-path="url(#4f34d3778f)"><path fill="#ffffff" d="M 232.417969 177.085938 C 232.625 177.109375 232.875 177.152344 233.128906 177.175781 C 234.253906 177.292969 235.285156 177.636719 236.296875 178.140625 C 237.488281 178.761719 238.753906 179.242188 240.105469 179.359375 C 240.175781 179.359375 240.222656 179.378906 240.289062 179.378906 C 241.667969 179.792969 242.882812 180.527344 243.894531 181.539062 C 244.71875 182.363281 244.996094 183.488281 245.066406 184.613281 C 245.132812 185.875 245.085938 187.164062 245.066406 188.425781 C 245.042969 189.664062 244.882812 190.925781 244.902344 192.167969 C 244.925781 193.84375 244.167969 194.988281 242.792969 195.863281 C 241.4375 196.710938 240.128906 197.605469 238.820312 198.5 C 237.835938 199.167969 236.710938 199.511719 235.628906 199.925781 C 234.367188 200.40625 233.035156 200.523438 231.707031 200.683594 C 227.457031 201.164062 223.234375 200.957031 219.035156 200.085938 C 217.75 199.808594 216.53125 199.28125 215.40625 198.617188 C 213.546875 197.492188 211.597656 196.640625 209.53125 196.023438 C 208.796875 195.792969 208.109375 195.449219 207.441406 195.082031 C 205.949219 194.230469 205.332031 192.855469 205.375 191.203125 C 205.398438 190.492188 205.398438 189.800781 205.214844 189.113281 C 205.03125 188.378906 205.101562 187.621094 205.332031 186.886719 C 205.445312 186.496094 205.605469 186.105469 205.742188 185.714844 C 205.789062 185.578125 205.8125 185.441406 205.835938 185.28125 C 204.527344 186.40625 202.875 186.792969 201.359375 187.460938 C 199.796875 188.125 198.261719 188.835938 196.722656 189.550781 C 194.289062 190.652344 191.765625 190.8125 189.148438 190.328125 C 187.929688 190.101562 186.804688 189.734375 185.726562 189.136719 C 185.109375 188.792969 184.417969 188.5625 183.707031 188.402344 C 182.535156 188.125 181.527344 187.621094 180.585938 186.910156 C 179.367188 185.992188 178.335938 184.933594 177.671875 183.535156 C 177.164062 182.503906 176.707031 181.445312 176.222656 180.390625 C 175.902344 179.65625 175.558594 178.945312 175.238281 178.1875 C 175.054688 177.726562 174.871094 177.246094 174.730469 176.765625 C 174.664062 176.511719 174.753906 176.210938 174.777344 175.9375 C 174.777344 175.84375 174.824219 175.753906 174.800781 175.660156 C 174.527344 173.894531 175.007812 172.289062 175.652344 170.679688 C 176.039062 169.695312 176.292969 168.636719 176.589844 167.582031 C 176.40625 167.535156 176.246094 167.511719 176.109375 167.46875 C 174.503906 167.007812 172.894531 166.550781 171.289062 166.066406 C 167.730469 164.964844 164.195312 163.792969 160.636719 162.691406 C 158.664062 162.097656 156.851562 161.132812 154.945312 160.375 C 152.464844 159.410156 150.148438 158.101562 147.875 156.722656 C 145.992188 155.578125 144.292969 154.175781 142.734375 152.570312 C 141.515625 151.308594 140.230469 150.113281 138.992188 148.851562 C 138.234375 148.070312 137.546875 147.246094 136.789062 146.464844 C 135.917969 145.570312 135.019531 144.671875 134.101562 143.824219 C 133.160156 142.976562 132.289062 142.054688 131.625 140.976562 C 130.199219 138.726562 129.855469 136.339844 130.773438 133.816406 C 131.164062 132.714844 131.738281 131.726562 132.542969 130.855469 C 132.976562 130.394531 133.34375 129.890625 133.78125 129.453125 C 134.445312 128.8125 135.113281 128.191406 135.824219 127.617188 C 136.582031 126.976562 137.363281 126.378906 138.144531 125.78125 C 139.0625 125.046875 140.09375 124.519531 141.21875 124.128906 C 145.027344 122.820312 148.886719 122.246094 152.855469 122.566406 C 155.222656 122.75 157.609375 122.84375 159.925781 123.53125 C 161.304688 123.945312 162.679688 124.335938 164.058594 124.773438 C 165.964844 125.347656 167.867188 125.941406 169.773438 126.515625 C 171.21875 126.953125 172.6875 127.273438 174.136719 127.757812 C 175.972656 128.351562 177.808594 128.972656 179.597656 129.683594 C 181.824219 130.554688 184.121094 131.128906 186.460938 131.636719 C 188.757812 132.140625 191.007812 132.851562 193.140625 133.929688 C 193.992188 134.367188 194.839844 134.847656 195.691406 135.285156 C 196.652344 135.789062 197.410156 136.523438 197.960938 137.464844 C 199.042969 139.277344 199.890625 141.207031 200.714844 143.160156 C 201.0625 144.007812 200.96875 144.878906 200.921875 145.753906 C 200.855469 146.648438 200.902344 147.519531 201.222656 148.367188 C 201.613281 149.425781 201.496094 150.480469 201.039062 151.492188 C 200.992188 151.605469 200.945312 151.71875 200.902344 151.859375 C 200.902344 151.859375 200.902344 151.882812 200.921875 151.925781 C 201.105469 151.835938 201.289062 151.789062 201.453125 151.675781 C 201.839844 151.398438 202.253906 151.167969 202.574219 150.800781 C 203.355469 149.929688 204.390625 149.492188 205.445312 149.105469 C 206.363281 148.78125 207.28125 148.460938 208.199219 148.09375 C 209.53125 147.566406 210.910156 147.613281 212.285156 147.703125 C 214.078125 147.839844 215.867188 148 217.65625 147.863281 C 218.691406 147.796875 219.652344 148.117188 220.640625 148.414062 C 221.328125 148.621094 222.019531 148.851562 222.683594 149.105469 C 223.738281 149.492188 224.703125 150.023438 225.53125 150.777344 C 226.90625 152.042969 228.285156 153.328125 229.664062 154.613281 C 230.789062 155.667969 231.292969 157 231.476562 158.492188 C 231.5 158.722656 231.566406 158.8125 231.820312 158.859375 C 233.726562 159.179688 234.894531 160.054688 235.242188 161.75 C 235.285156 162.003906 235.46875 162.257812 235.628906 162.484375 C 236.730469 164.09375 237.765625 165.746094 238.15625 167.695312 C 238.363281 168.753906 238.339844 169.808594 238.085938 170.863281 C 237.972656 171.347656 237.835938 171.851562 237.742188 172.355469 C 237.488281 173.800781 236.640625 174.8125 235.402344 175.5 C 234.367188 176.027344 233.382812 176.558594 232.417969 177.085938 Z M 150.652344 154.335938 C 150.652344 154.3125 150.675781 154.3125 150.675781 154.292969 C 151.25 154.542969 151.800781 154.796875 152.375 155.027344 C 154.304688 155.828125 156.300781 156.265625 158.367188 156.5625 C 159.996094 156.816406 161.511719 157.34375 162.820312 158.421875 C 163.070312 158.628906 163.347656 158.789062 163.597656 158.949219 C 165.597656 160.257812 167.777344 161.199219 170.117188 161.660156 C 171.335938 161.890625 172.574219 161.890625 173.8125 162.003906 C 173.976562 162.027344 174.136719 162.027344 174.34375 162.027344 C 174.273438 161.84375 174.226562 161.707031 174.179688 161.589844 C 173.929688 160.902344 173.792969 160.214844 173.859375 159.480469 C 174.042969 158.011719 173.859375 156.5625 173.402344 155.164062 C 173.195312 154.519531 173.078125 153.855469 173.011719 153.191406 C 172.917969 152.269531 173.125 151.351562 173.46875 150.480469 C 173.769531 149.746094 173.996094 148.988281 173.835938 148.164062 C 173.652344 147.222656 173.859375 146.347656 174.25 145.523438 C 174.546875 144.925781 174.824219 144.328125 175.121094 143.730469 C 175.605469 142.8125 176.109375 141.894531 176.914062 141.253906 C 178.429688 140.035156 179.484375 138.40625 180.769531 136.9375 C 180.699219 136.890625 180.632812 136.824219 180.5625 136.777344 C 179.484375 136.113281 178.359375 135.515625 177.050781 135.46875 C 175.628906 135.421875 174.433594 134.941406 173.46875 133.886719 C 172.117188 132.371094 170.371094 131.636719 168.398438 131.289062 C 168.328125 131.269531 168.257812 131.222656 168.214844 131.199219 C 168.214844 131.152344 168.214844 131.128906 168.214844 131.085938 C 168.417969 131.0625 168.625 131.015625 168.832031 131.015625 C 170.921875 131.105469 172.871094 131.703125 174.59375 132.945312 C 175.328125 133.472656 176.15625 133.816406 177.050781 134.023438 C 177.488281 134.113281 177.945312 134.253906 178.335938 134.480469 C 179.367188 135.078125 180.355469 135.742188 181.367188 136.363281 C 181.457031 136.433594 181.597656 136.457031 181.710938 136.433594 C 182.167969 136.339844 182.628906 136.203125 183.085938 136.15625 C 183.730469 136.089844 184.257812 135.835938 184.71875 135.375 C 185.335938 134.757812 186.117188 134.34375 186.96875 134.207031 C 187.863281 134.070312 188.757812 134 189.5625 133.90625 C 189.539062 133.90625 189.421875 133.863281 189.308594 133.839844 C 188.34375 133.65625 187.378906 133.402344 186.394531 133.289062 C 183.476562 132.964844 180.792969 131.957031 178.246094 130.535156 C 177.53125 130.121094 176.773438 129.800781 176.019531 129.453125 C 173.285156 128.238281 170.417969 127.457031 167.546875 126.722656 C 164.496094 125.941406 161.371094 125.460938 158.273438 124.957031 C 156.734375 124.703125 155.152344 124.679688 153.589844 124.566406 C 150.125 124.289062 146.660156 124.382812 143.238281 125.160156 C 141.90625 125.460938 140.574219 125.734375 139.429688 126.492188 C 139.039062 126.746094 138.695312 127.066406 138.347656 127.367188 C 139.335938 127.664062 140.277344 127.941406 141.21875 128.214844 C 141.953125 128.421875 142.710938 128.492188 143.492188 128.375 C 144.523438 128.238281 145.582031 128.144531 146.636719 128.191406 C 148.746094 128.308594 150.789062 128.742188 152.832031 129.246094 C 154.714844 129.707031 156.574219 130.234375 158.503906 130.394531 C 162.519531 130.738281 165.988281 132.460938 169.246094 134.710938 C 169.429688 134.824219 169.589844 134.988281 169.707031 135.148438 C 169.773438 135.238281 169.726562 135.421875 169.726562 135.558594 C 169.613281 135.539062 169.453125 135.539062 169.359375 135.46875 C 169.15625 135.332031 168.992188 135.148438 168.765625 135.007812 C 165.734375 133.195312 162.566406 131.980469 158.941406 132.300781 C 158.390625 132.347656 157.835938 132.324219 157.285156 132.277344 C 156.046875 132.140625 154.898438 131.660156 153.753906 131.175781 C 151.800781 130.351562 149.871094 129.5 147.785156 129.085938 C 146.199219 128.765625 144.640625 128.835938 143.171875 129.570312 C 142.480469 129.914062 141.722656 129.914062 140.988281 129.800781 C 139.613281 129.570312 138.28125 129.132812 136.878906 129.132812 C 136.765625 129.132812 136.605469 129.085938 136.511719 129.019531 C 136.304688 128.859375 136.167969 128.949219 136.03125 129.085938 C 134.835938 130.121094 133.851562 131.335938 132.886719 132.578125 C 132.40625 133.195312 132.242188 133.953125 132.199219 134.734375 C 132.199219 134.824219 132.242188 134.964844 132.3125 135.054688 C 132.425781 135.285156 132.609375 135.492188 132.679688 135.722656 C 133 136.640625 133.574219 137.328125 134.378906 137.878906 C 135.066406 138.339844 135.664062 138.890625 136.144531 139.601562 C 136.8125 140.585938 137.707031 141.367188 138.738281 141.917969 C 140.484375 142.835938 142.273438 143.664062 144.066406 144.445312 C 145.007812 144.855469 145.902344 145.246094 146.726562 145.890625 C 149.367188 147.910156 152.28125 149.402344 155.496094 150.273438 C 156.414062 150.527344 157.378906 150.664062 158.34375 150.847656 C 158.527344 150.894531 158.734375 150.941406 158.917969 151.007812 C 158.917969 151.054688 158.894531 151.101562 158.894531 151.148438 C 158.800781 151.148438 158.710938 151.191406 158.617188 151.167969 C 158.320312 151.148438 158.023438 151.125 157.746094 151.101562 C 154.714844 150.917969 151.753906 150.320312 148.886719 149.332031 C 147.417969 148.828125 146.132812 148 145.050781 146.878906 C 144.707031 146.53125 144.316406 146.210938 143.90625 145.9375 C 142.824219 145.246094 141.746094 144.535156 140.597656 143.960938 C 138.832031 143.042969 137.246094 141.894531 135.800781 140.566406 C 135.570312 140.359375 135.296875 140.175781 135.019531 140.035156 C 134.195312 139.644531 133.34375 139.300781 132.519531 138.957031 C 132.609375 139.140625 132.703125 139.371094 132.816406 139.601562 C 133.484375 140.816406 134.355469 141.871094 135.410156 142.792969 C 136.285156 143.546875 137.132812 144.328125 137.890625 145.203125 C 139.453125 147.015625 140.945312 148.898438 142.503906 150.710938 C 143.214844 151.535156 143.949219 152.386719 144.800781 153.050781 C 146.039062 154.015625 147.347656 154.910156 148.703125 155.667969 C 150.953125 156.953125 153.269531 158.148438 155.703125 159.066406 C 157.378906 159.707031 159.007812 160.535156 160.730469 161.085938 C 165.597656 162.625 170.484375 164.070312 175.375 165.539062 C 175.902344 165.699219 176.429688 165.816406 176.957031 165.976562 C 176.203125 165.21875 175.535156 164.4375 175.03125 163.519531 C 175.007812 163.449219 174.894531 163.425781 174.800781 163.402344 C 174.296875 163.3125 173.792969 163.242188 173.285156 163.128906 C 172.644531 162.96875 172.046875 162.714844 171.402344 162.554688 C 170.96875 162.464844 170.507812 162.484375 170.074219 162.417969 C 166.929688 161.890625 163.921875 160.925781 161.097656 159.386719 C 160.453125 159.042969 159.789062 158.722656 159.101562 158.46875 C 156.347656 157.503906 153.707031 156.289062 151.203125 154.75 C 151.066406 154.636719 150.859375 154.476562 150.652344 154.335938 Z M 176.339844 174.398438 C 176.339844 174.558594 176.339844 174.722656 176.339844 174.882812 C 176.453125 176.304688 176.867188 177.566406 177.96875 178.554688 C 178.726562 179.242188 179.4375 180 180.195312 180.664062 C 181.367188 181.699219 182.652344 182.570312 184.304688 182.707031 C 184.832031 182.753906 185.40625 182.894531 185.886719 183.121094 C 187.335938 183.832031 188.871094 183.996094 190.433594 183.949219 C 192.5 183.902344 194.472656 183.328125 196.46875 182.824219 C 198.71875 182.226562 200.878906 181.421875 202.921875 180.320312 C 203.496094 180.023438 204.066406 179.679688 204.503906 179.21875 C 205.859375 177.867188 207.027344 176.328125 207.925781 174.605469 C 208.910156 172.722656 209.070312 170.796875 208.359375 168.796875 C 208.175781 168.292969 208.109375 167.742188 208.015625 167.214844 C 207.925781 166.457031 207.878906 165.699219 207.785156 164.917969 C 207.535156 162.714844 206.753906 160.695312 205.675781 158.765625 C 205.398438 158.261719 205.101562 157.757812 204.480469 157.597656 C 204.320312 157.550781 204.207031 157.4375 204.066406 157.320312 C 203.699219 157.046875 203.332031 156.769531 202.945312 156.519531 C 202.070312 155.96875 201.128906 155.578125 200.074219 155.714844 C 198.878906 155.851562 197.6875 156.082031 196.515625 156.496094 C 195.828125 156.746094 195.117188 156.953125 194.40625 157.160156 C 191.925781 157.894531 189.46875 158.652344 187.082031 159.640625 C 186.050781 160.074219 185.128906 160.671875 184.304688 161.429688 C 182.835938 162.761719 181.367188 164.070312 179.875 165.378906 C 178.980469 166.160156 178.289062 167.101562 177.921875 168.226562 C 177.464844 169.578125 177.074219 170.933594 176.589844 172.289062 C 176.40625 173.023438 176.246094 173.6875 176.339844 174.398438 Z M 192.382812 155.738281 C 193.625 155.507812 194.839844 155.277344 196.058594 155.027344 C 196.148438 155.003906 196.242188 154.886719 196.308594 154.820312 C 197.160156 153.695312 198.144531 152.753906 199.5 152.292969 C 199.84375 152.179688 200.003906 151.996094 200.074219 151.652344 C 200.28125 150.6875 200.304688 149.722656 199.9375 148.804688 C 199.683594 148.207031 199.613281 147.613281 199.707031 146.96875 C 199.796875 146.394531 199.867188 145.796875 200.027344 145.222656 C 200.328125 144.214844 200.074219 143.34375 199.523438 142.515625 C 198.582031 141.070312 197.640625 139.625 196.722656 138.175781 C 195.894531 136.867188 194.726562 136.113281 193.234375 135.789062 C 192.683594 135.675781 192.15625 135.582031 191.605469 135.492188 C 190.15625 135.238281 188.710938 135.125 187.289062 135.558594 C 186.785156 135.722656 186.234375 135.972656 185.863281 136.363281 C 185.0625 137.167969 184.144531 137.601562 183.019531 137.695312 C 182.285156 137.765625 181.617188 138.039062 181.066406 138.589844 C 179.921875 139.785156 178.726562 140.933594 177.578125 142.101562 C 177.417969 142.261719 177.304688 142.445312 177.164062 142.628906 C 176.292969 143.800781 175.789062 145.15625 175.238281 146.464844 C 175.078125 146.855469 175.007812 147.359375 175.078125 147.773438 C 175.214844 148.851562 175.097656 149.859375 174.6875 150.847656 C 174.136719 152.203125 174.066406 153.558594 174.570312 154.933594 C 175.097656 156.402344 175.214844 157.917969 175.097656 159.457031 C 175.054688 160.007812 175.121094 160.625 175.328125 161.15625 C 175.671875 162.050781 176.132812 162.875 176.589844 163.703125 C 176.914062 164.253906 177.417969 164.667969 177.898438 164.964844 C 178.152344 164.757812 178.359375 164.574219 178.566406 164.390625 C 180.332031 162.832031 182.054688 161.222656 183.84375 159.6875 C 184.464844 159.15625 185.199219 158.722656 185.933594 158.332031 C 186.828125 157.871094 187.769531 157.527344 188.6875 157.113281 C 188.804688 157.070312 188.894531 157.023438 189.054688 156.953125 C 188.527344 156.585938 188.296875 156.082031 188.253906 155.507812 C 188.207031 154.84375 188.230469 154.175781 188.230469 153.488281 C 188.230469 153.351562 188.253906 153.191406 188.34375 153.074219 C 188.4375 152.9375 188.597656 152.867188 188.734375 152.777344 C 188.828125 152.914062 188.988281 153.027344 189.011719 153.167969 C 189.054688 153.488281 189.03125 153.808594 189.03125 154.109375 C 189.054688 154.542969 189.03125 155.003906 189.125 155.4375 C 189.285156 156.152344 189.90625 156.402344 190.503906 155.96875 C 190.871094 155.714844 191.167969 155.371094 191.464844 155.027344 C 191.832031 154.589844 191.808594 154.335938 191.421875 153.925781 C 190.960938 153.464844 190.480469 153.027344 190.042969 152.570312 C 189.949219 152.476562 189.949219 152.316406 189.90625 152.179688 C 190.042969 152.179688 190.226562 152.109375 190.320312 152.179688 C 190.984375 152.570312 191.648438 152.984375 192.269531 153.441406 C 192.890625 153.902344 192.980469 154.636719 192.636719 155.324219 C 192.546875 155.484375 192.476562 155.601562 192.382812 155.738281 Z M 219.882812 176.601562 C 219.242188 176.695312 218.390625 176.808594 217.542969 176.949219 C 217.472656 176.96875 217.40625 177.015625 217.335938 177.0625 C 216.898438 177.269531 216.488281 177.5 216.050781 177.703125 C 215.429688 177.980469 214.789062 178.210938 214.191406 178.53125 C 213.433594 178.945312 212.699219 179.402344 211.988281 179.839844 C 211.667969 180.046875 211.367188 180.277344 211.09375 180.527344 C 210.242188 181.355469 209.417969 182.226562 208.589844 183.078125 C 208.5 183.167969 208.429688 183.28125 208.335938 183.375 C 208.132812 183.648438 208.015625 183.949219 208.152344 184.269531 C 208.476562 185.027344 208.75 185.808594 209.164062 186.519531 C 209.691406 187.460938 210.425781 188.285156 211.484375 188.652344 C 212.953125 189.160156 214.328125 189.871094 215.730469 190.492188 C 216.898438 191.019531 218.09375 191.453125 219.378906 191.546875 C 220.296875 191.617188 221.125 191.84375 221.902344 192.234375 C 222.15625 192.371094 222.433594 192.464844 222.683594 192.578125 C 223.601562 193.015625 224.566406 193.175781 225.597656 193.105469 C 226.355469 193.0625 227.136719 193.105469 227.894531 193.175781 C 228.929688 193.269531 229.9375 193.382812 230.949219 193.0625 C 232.277344 192.625 233.65625 192.578125 235.035156 192.738281 C 236.042969 192.855469 237.054688 192.738281 237.949219 192.234375 C 239.210938 191.523438 240.472656 190.8125 241.714844 190.078125 C 242.355469 189.710938 242.839844 189.160156 243.113281 188.46875 C 243.847656 186.632812 243.78125 184.820312 242.816406 183.078125 C 242.722656 182.894531 242.585938 182.707031 242.425781 182.570312 C 241.53125 181.882812 240.632812 181.195312 239.578125 180.757812 C 238.796875 180.4375 238.039062 180.070312 237.285156 179.65625 C 236.664062 179.335938 236.089844 178.945312 235.492188 178.578125 C 234.894531 178.210938 234.230469 178.003906 233.519531 177.957031 C 231.476562 177.886719 229.410156 177.796875 227.367188 177.773438 C 226.609375 177.773438 225.898438 177.683594 225.164062 177.476562 C 223.511719 177.0625 221.835938 176.742188 219.882812 176.601562 Z M 197.917969 154.636719 C 197.9375 154.679688 197.9375 154.726562 197.960938 154.773438 C 198.628906 154.703125 199.292969 154.613281 199.980469 154.542969 C 201.519531 154.40625 202.898438 154.75 204.089844 155.785156 C 204.78125 156.378906 205.558594 156.886719 206.273438 157.460938 C 206.777344 157.871094 207.351562 158.261719 207.742188 158.765625 C 208.773438 160.097656 209.808594 161.429688 210.726562 162.832031 C 211.296875 163.679688 211.710938 164.644531 212.125 165.585938 C 212.285156 165.929688 212.402344 166.160156 212.789062 166.226562 C 213.480469 166.367188 214.144531 166.640625 214.878906 166.527344 C 215.730469 166.386719 216.554688 166.25 217.40625 166.136719 C 218.484375 166.019531 219.585938 165.953125 220.6875 165.835938 C 222.636719 165.609375 224.453125 164.964844 226.105469 163.933594 C 227.4375 163.082031 228.628906 162.074219 229.59375 160.808594 C 229.847656 160.488281 230.007812 160.074219 230.074219 159.6875 C 230.28125 158.261719 230.007812 156.90625 229.132812 155.738281 C 228.148438 154.40625 226.90625 153.304688 225.714844 152.15625 C 224.335938 150.800781 222.707031 149.929688 220.824219 149.539062 C 219.539062 149.265625 218.277344 149.105469 216.945312 149.265625 C 215.707031 149.425781 214.445312 149.242188 213.179688 149.148438 C 212.035156 149.082031 210.886719 148.804688 209.738281 148.851562 C 208.015625 148.921875 206.410156 149.609375 204.824219 150.226562 C 204.230469 150.457031 203.769531 150.847656 203.402344 151.398438 C 202.714844 152.410156 201.820312 153.121094 200.625 153.464844 C 200.050781 153.625 199.523438 153.855469 198.972656 154.085938 C 198.605469 154.246094 198.261719 154.453125 197.917969 154.636719 Z M 243.574219 189.871094 C 242.792969 190.835938 241.714844 191.269531 240.75 191.820312 C 240.128906 192.1875 239.488281 192.554688 238.867188 192.945312 C 237.652344 193.726562 236.363281 194.140625 234.917969 194.070312 C 233.703125 194.027344 232.53125 194.164062 231.382812 194.597656 C 230.417969 194.964844 229.410156 194.988281 228.375 194.804688 C 227.34375 194.621094 226.3125 194.4375 225.277344 194.347656 C 224.269531 194.253906 223.328125 193.980469 222.433594 193.542969 C 221.878906 193.289062 221.375 192.992188 220.824219 192.738281 C 220.550781 192.625 220.207031 192.511719 219.90625 192.535156 C 217.726562 192.601562 215.683594 192.003906 213.730469 191.085938 C 213.042969 190.765625 212.355469 190.421875 211.644531 190.125 C 210.679688 189.734375 209.875 189.160156 209.1875 188.378906 C 208.359375 187.460938 207.765625 186.382812 207.144531 185.324219 C 207.097656 185.257812 207.050781 185.1875 206.984375 185.097656 C 206.730469 185.785156 206.476562 186.425781 206.273438 187.070312 C 206.066406 187.714844 206.019531 188.378906 206.316406 188.976562 C 206.707031 189.800781 206.753906 190.628906 206.800781 191.523438 C 206.84375 192.625 207.234375 193.613281 208.246094 194.210938 C 208.957031 194.621094 209.667969 194.988281 210.425781 195.289062 C 212.011719 195.886719 213.664062 196.34375 215.222656 197.101562 C 217.015625 197.996094 218.898438 198.546875 220.894531 198.730469 C 224.476562 199.050781 228.03125 199.398438 231.613281 199.304688 C 233.566406 199.257812 235.492188 199.03125 237.328125 198.339844 C 237.742188 198.179688 238.15625 197.972656 238.523438 197.742188 C 239.1875 197.332031 239.808594 196.871094 240.449219 196.4375 C 241.140625 195.953125 241.828125 195.496094 242.515625 194.988281 C 243.113281 194.53125 243.550781 193.933594 243.550781 193.152344 C 243.574219 192.074219 243.574219 191.019531 243.574219 189.871094 Z M 177.671875 180.230469 C 177.648438 180.253906 177.625 180.277344 177.601562 180.296875 C 177.714844 180.550781 177.808594 180.78125 177.921875 181.035156 C 178.199219 181.539062 178.496094 182.019531 178.75 182.503906 C 179.460938 183.878906 180.449219 185.050781 181.640625 186.015625 C 182.332031 186.566406 183.066406 186.933594 183.984375 187 C 184.945312 187.070312 185.867188 187.277344 186.738281 187.714844 C 187.519531 188.101562 188.320312 188.378906 189.171875 188.539062 C 189.722656 188.652344 190.273438 188.769531 190.824219 188.90625 C 192.914062 189.367188 194.910156 189.226562 196.882812 188.332031 C 197.847656 187.898438 198.765625 187.414062 199.613281 186.773438 C 200.878906 185.785156 202.300781 185.121094 203.816406 184.660156 C 204.78125 184.363281 205.699219 183.925781 206.433594 183.167969 C 207.144531 182.410156 207.832031 181.652344 208.589844 180.941406 C 209.484375 180.113281 210.152344 179.128906 210.359375 177.957031 C 210.609375 176.535156 211.160156 175.226562 211.644531 173.894531 C 211.941406 173.023438 212.21875 172.148438 212.402344 171.253906 C 212.539062 170.566406 212.675781 169.808594 212.539062 169.164062 C 212.101562 167.101562 211.113281 165.285156 209.714844 163.679688 C 209.667969 163.632812 209.625 163.609375 209.53125 163.519531 C 209.554688 163.703125 209.578125 163.816406 209.601562 163.933594 C 209.738281 164.875 209.992188 165.792969 209.761719 166.734375 C 209.507812 167.765625 209.601562 168.796875 209.667969 169.832031 C 209.785156 171.414062 209.578125 172.929688 208.933594 174.398438 C 208.0625 176.464844 206.84375 178.300781 205.46875 180.070312 C 205.054688 180.597656 204.527344 181.054688 204 181.445312 C 201.679688 183.121094 199.132812 184.339844 196.355469 185.097656 C 193.921875 185.738281 191.488281 185.96875 189.011719 185.441406 C 187.90625 185.210938 186.738281 185.074219 185.820312 184.363281 C 185.085938 183.8125 184.328125 183.628906 183.453125 183.605469 C 183.316406 183.605469 183.203125 183.582031 183.066406 183.558594 C 181.410156 183.238281 179.964844 182.503906 178.75 181.355469 C 178.40625 180.941406 178.039062 180.574219 177.671875 180.230469 Z M 220.367188 173.160156 C 220.550781 173.230469 220.664062 173.273438 220.757812 173.273438 C 221.582031 173.414062 222.410156 173.550781 223.234375 173.640625 C 224.589844 173.800781 225.921875 173.734375 227.253906 173.34375 C 229.113281 172.792969 230.972656 172.21875 232.875 171.851562 C 234.574219 171.53125 236.019531 170.703125 236.871094 169.097656 C 237.054688 168.730469 237.214844 168.292969 237.191406 167.902344 C 237.078125 166.019531 236.136719 164.550781 234.667969 163.449219 C 234.09375 163.015625 233.632812 162.53125 233.425781 161.84375 C 233.382812 161.660156 233.289062 161.5 233.21875 161.316406 C 232.875 160.582031 232.234375 160.191406 231.523438 159.730469 C 231.5 159.9375 231.5 160.074219 231.5 160.191406 C 231.523438 161.085938 231.5 161.957031 231.542969 162.851562 C 231.613281 164.046875 231.339844 165.171875 230.972656 166.296875 C 230.742188 166.984375 230.351562 167.511719 229.707031 167.902344 C 228.996094 168.339844 228.261719 168.753906 227.597656 169.257812 C 225.597656 170.773438 223.441406 172.011719 221.054688 172.863281 C 220.871094 172.953125 220.664062 173.046875 220.367188 173.160156 Z M 230.488281 161.683594 C 230.398438 161.75 230.351562 161.796875 230.304688 161.820312 C 229.480469 162.648438 228.582031 163.382812 227.527344 163.933594 C 226.863281 164.277344 226.242188 164.667969 225.554688 164.988281 C 224.3125 165.5625 223.074219 166.203125 221.765625 166.617188 C 220.550781 167.007812 219.242188 167.144531 217.957031 167.375 C 216.785156 167.605469 215.613281 167.765625 214.421875 167.511719 C 213.824219 167.375 213.226562 167.238281 212.585938 167.078125 C 213.410156 168.753906 213.386719 170.542969 213.203125 172.402344 C 214.007812 172.402344 214.765625 172.425781 215.5 172.402344 C 216.121094 172.378906 216.761719 172.425781 217.359375 172.265625 C 219.425781 171.691406 221.46875 171.09375 223.488281 170.429688 C 225.554688 169.761719 227.296875 168.5 229.066406 167.261719 C 229.5 166.960938 229.683594 166.550781 229.753906 166.042969 C 229.890625 165.261719 230.050781 164.460938 230.167969 163.679688 C 230.328125 163.035156 230.398438 162.394531 230.488281 161.683594 Z M 237.03125 170.015625 C 236.9375 170.152344 236.914062 170.199219 236.871094 170.246094 C 235.976562 171.757812 234.644531 172.792969 232.992188 173.320312 C 231.566406 173.78125 230.074219 174.125 228.582031 174.355469 C 226.171875 174.722656 223.71875 174.628906 221.285156 174.652344 C 220.207031 174.652344 219.171875 174.398438 218.207031 173.941406 C 218.023438 173.847656 217.816406 173.847656 217.609375 173.824219 C 216.832031 173.800781 216.050781 173.800781 215.292969 173.734375 C 214.605469 173.664062 213.9375 173.433594 213.226562 173.550781 C 212.929688 173.597656 212.90625 173.800781 212.90625 173.964844 C 212.90625 174.078125 213.019531 174.261719 213.136719 174.332031 C 213.753906 174.605469 214.351562 174.882812 214.996094 175.109375 C 216.441406 175.640625 217.910156 176.257812 219.492188 175.570312 C 219.515625 175.570312 219.539062 175.570312 219.5625 175.546875 C 221.007812 175.273438 222.433594 175.410156 223.855469 175.59375 C 225.4375 175.800781 227.023438 176.097656 228.605469 176.351562 C 230.304688 176.625 231.890625 176.375 233.382812 175.476562 C 233.886719 175.179688 234.367188 174.882812 234.851562 174.558594 C 235.425781 174.148438 235.953125 173.6875 236.179688 173 C 236.480469 172.082031 236.730469 171.09375 237.03125 170.015625 Z M 214.605469 176.558594 C 214.167969 176.417969 213.777344 176.328125 213.433594 176.167969 C 213.066406 176.007812 212.746094 175.753906 212.421875 175.570312 C 212.035156 176.328125 211.574219 177.867188 211.597656 178.460938 C 212.605469 177.84375 213.570312 177.222656 214.605469 176.558594 Z M 214.605469 176.558594 " fill-opacity="1" fill-rule="nonzero"/></g><path fill="#ffffff" d="M 152.628906 139.164062 C 152.464844 139.300781 152.304688 139.484375 152.121094 139.601562 C 151.203125 140.152344 150.195312 140.449219 149.136719 140.542969 C 148.105469 140.632812 147.070312 140.632812 146.039062 140.632812 C 145.808594 140.632812 145.535156 140.566406 145.328125 140.449219 C 145.210938 140.382812 145.097656 140.199219 145.097656 140.058594 C 145.097656 139.96875 145.28125 139.808594 145.398438 139.761719 C 145.582031 139.691406 145.785156 139.691406 145.992188 139.691406 C 147.371094 139.644531 148.746094 139.644531 150.125 139.554688 C 150.859375 139.484375 151.570312 139.234375 152.28125 139.074219 C 152.375 139.050781 152.445312 139.050781 152.535156 139.027344 C 152.582031 139.074219 152.605469 139.117188 152.628906 139.164062 Z M 152.628906 139.164062 " fill-opacity="1" fill-rule="nonzero"/><path fill="#ffffff" d="M 143.101562 137.375 C 143.699219 137.328125 144.433594 137.257812 145.167969 137.234375 C 145.328125 137.234375 145.464844 137.328125 145.625 137.398438 C 145.535156 137.511719 145.464844 137.695312 145.328125 137.765625 C 144.109375 138.382812 142.800781 138.5 141.472656 138.429688 C 141.402344 138.429688 141.332031 138.40625 141.265625 138.382812 C 140.988281 138.316406 140.757812 138.175781 140.78125 137.855469 C 140.804688 137.535156 141.035156 137.398438 141.3125 137.398438 C 141.882812 137.375 142.433594 137.375 143.101562 137.375 Z M 143.101562 137.375 " fill-opacity="1" fill-rule="nonzero"/><path fill="#ffffff" d="M 157.5625 140.152344 C 157.425781 140.265625 157.285156 140.425781 157.101562 140.519531 C 156.046875 141.117188 154.921875 141.503906 153.707031 141.6875 C 153.109375 141.78125 152.488281 141.804688 151.871094 141.851562 C 151.617188 141.871094 151.226562 141.917969 151.203125 141.621094 C 151.179688 141.300781 151.570312 141.320312 151.800781 141.300781 C 152.925781 141.136719 154.050781 141 155.152344 140.792969 C 155.933594 140.632812 156.691406 140.359375 157.449219 140.128906 C 157.492188 140.128906 157.539062 140.152344 157.5625 140.152344 Z M 157.5625 140.152344 " fill-opacity="1" fill-rule="nonzero"/><path fill="#ffffff" d="M 192.132812 169.511719 C 192.039062 169.488281 191.949219 169.488281 191.878906 169.441406 C 190.984375 168.980469 190.136719 168.523438 189.46875 167.742188 C 189.445312 167.71875 189.421875 167.695312 189.398438 167.671875 C 188.757812 166.984375 188.550781 166.960938 187.863281 167.628906 C 187.152344 168.316406 186.804688 169.210938 186.554688 170.128906 C 186.53125 170.222656 186.621094 170.40625 186.714844 170.472656 C 187.082031 170.703125 187.496094 170.796875 187.929688 170.636719 C 188.367188 170.472656 188.78125 170.3125 189.214844 170.128906 C 189.722656 169.898438 190.25 169.878906 190.777344 169.96875 C 190.960938 169.992188 191.144531 170.085938 191.28125 170.199219 C 191.582031 170.429688 191.535156 170.796875 191.214844 170.980469 C 191.097656 171.046875 190.960938 171.070312 190.847656 171.09375 C 190.113281 171.300781 189.398438 171.484375 188.664062 171.691406 C 187.746094 171.964844 186.898438 171.851562 186.070312 171.371094 C 185.589844 171.070312 185.3125 170.636719 185.40625 170.0625 C 185.613281 168.613281 186.140625 167.328125 187.355469 166.433594 C 188.414062 165.652344 189.355469 165.816406 190.019531 166.9375 C 190.480469 167.71875 191.03125 168.410156 191.695312 169.027344 C 191.855469 169.164062 192.015625 169.304688 192.15625 169.441406 C 192.15625 169.441406 192.132812 169.488281 192.132812 169.511719 Z M 192.132812 169.511719 " fill-opacity="1" fill-rule="nonzero"/><path fill="#ffffff" d="M 194.726562 168.019531 C 194.726562 167.535156 194.703125 167.054688 194.726562 166.570312 C 194.75 165.90625 194.839844 165.261719 194.886719 164.597656 C 194.910156 164.140625 194.792969 163.957031 194.359375 163.933594 C 193.851562 163.886719 193.347656 163.957031 192.867188 164.046875 C 192.363281 164.140625 191.855469 164.324219 191.351562 164.4375 C 191.121094 164.484375 190.984375 164.621094 191.03125 164.828125 C 191.074219 165.148438 191.097656 165.492188 191.257812 165.769531 C 191.648438 166.386719 192.085938 166.960938 192.523438 167.558594 C 192.660156 167.765625 192.820312 167.972656 192.957031 168.203125 C 193.097656 168.429688 193.117188 168.683594 192.890625 168.867188 C 192.660156 169.050781 192.40625 168.960938 192.222656 168.777344 C 191.992188 168.546875 191.789062 168.292969 191.605469 168.019531 C 191.214844 167.398438 190.824219 166.753906 190.457031 166.113281 C 190.089844 165.515625 189.882812 164.894531 190.066406 164.183594 C 190.179688 163.792969 190.386719 163.449219 190.800781 163.335938 C 191.902344 163.035156 193.003906 162.691406 194.175781 162.832031 C 194.40625 162.851562 194.632812 162.898438 194.863281 162.992188 C 195.667969 163.265625 195.988281 163.773438 195.941406 164.644531 C 195.894531 165.332031 195.804688 166 195.460938 166.617188 C 195.253906 166.984375 195.160156 167.398438 195.023438 167.765625 C 194.976562 167.855469 194.933594 167.949219 194.886719 168.042969 C 194.792969 168.042969 194.75 168.042969 194.726562 168.019531 Z M 194.726562 168.019531 " fill-opacity="1" fill-rule="nonzero"/><path fill="#ffffff" d="M 194.816406 171.347656 C 194.886719 171.4375 194.976562 171.53125 195.046875 171.644531 C 195.597656 172.496094 195.851562 173.433594 196.011719 174.421875 C 196.078125 174.90625 195.941406 175.339844 195.597656 175.683594 C 194.566406 176.671875 193.074219 177.199219 191.605469 176.488281 C 191.304688 176.351562 191.03125 176.121094 190.777344 175.890625 C 190.480469 175.617188 190.386719 175.25 190.546875 174.859375 C 190.824219 174.148438 191.074219 173.414062 191.421875 172.722656 C 191.625 172.3125 191.949219 171.964844 192.269531 171.621094 C 192.429688 171.4375 192.707031 171.347656 192.933594 171.53125 C 193.164062 171.714844 193.164062 171.964844 193.027344 172.195312 C 192.914062 172.425781 192.75 172.65625 192.566406 172.863281 C 191.992188 173.433594 191.671875 174.148438 191.421875 174.90625 C 191.398438 174.996094 191.464844 175.179688 191.558594 175.226562 C 192.613281 175.753906 193.851562 175.617188 194.839844 174.835938 C 194.976562 174.722656 195.046875 174.492188 195.046875 174.308594 C 195.09375 173.433594 195.046875 172.585938 194.773438 171.757812 C 194.726562 171.644531 194.726562 171.53125 194.726562 171.414062 C 194.75 171.371094 194.792969 171.371094 194.816406 171.347656 Z M 194.816406 171.347656 " fill-opacity="1" fill-rule="nonzero"/><path fill="#ffffff" d="M 195.851562 170.105469 C 195.917969 170.0625 195.988281 169.992188 196.058594 169.96875 C 196.929688 169.648438 197.800781 169.328125 198.695312 169.050781 C 199.363281 168.84375 200.027344 168.84375 200.511719 169.464844 C 200.992188 170.105469 201.0625 170.886719 200.671875 171.554688 C 200.304688 172.171875 199.960938 172.769531 199.730469 173.433594 C 199.429688 174.214844 198.675781 174.421875 197.894531 174.445312 C 197.203125 174.46875 196.746094 174.101562 196.46875 173.480469 C 196.21875 172.953125 195.964844 172.425781 195.691406 171.898438 C 195.644531 171.78125 195.550781 171.667969 195.527344 171.554688 C 195.527344 171.390625 195.574219 171.230469 195.597656 171.070312 C 195.757812 171.09375 195.941406 171.09375 196.035156 171.1875 C 196.285156 171.414062 196.515625 171.691406 196.699219 171.964844 C 196.976562 172.355469 197.203125 172.746094 197.457031 173.160156 C 197.664062 173.527344 198.007812 173.480469 198.328125 173.414062 C 198.628906 173.34375 198.859375 173.183594 198.835938 172.839844 C 198.789062 172.171875 199.019531 171.621094 199.410156 171.09375 C 199.546875 170.910156 199.636719 170.679688 199.683594 170.453125 C 199.777344 170.015625 199.59375 169.738281 199.132812 169.761719 C 198.511719 169.808594 197.917969 169.898438 197.320312 169.992188 C 197 170.039062 196.699219 170.128906 196.378906 170.199219 C 196.21875 170.222656 196.058594 170.222656 195.917969 170.246094 C 195.875 170.175781 195.851562 170.152344 195.851562 170.105469 Z M 195.851562 170.105469 " fill-opacity="1" fill-rule="nonzero"/><path fill="#ffffff" d="M 195.253906 168.753906 C 195.4375 166.984375 196.242188 165.585938 197.617188 164.484375 C 197.894531 164.253906 198.238281 164.183594 198.582031 164.300781 C 199.5 164.597656 200.164062 165.171875 200.554688 166.066406 C 200.855469 166.777344 200.347656 168.179688 199.660156 168.523438 C 199.453125 168.613281 199.203125 168.636719 198.972656 168.613281 C 198.859375 168.613281 198.695312 168.453125 198.675781 168.339844 C 198.652344 168.226562 198.742188 168.0625 198.835938 167.949219 C 198.902344 167.855469 199.042969 167.835938 199.132812 167.789062 C 199.820312 167.511719 199.960938 166.777344 199.410156 166.273438 C 198.605469 165.585938 198.488281 165.585938 197.734375 166.273438 C 197 166.917969 196.46875 167.71875 195.964844 168.546875 C 195.875 168.707031 195.78125 168.890625 195.667969 169.027344 C 195.597656 169.121094 195.484375 169.144531 195.390625 169.210938 C 195.34375 169.121094 195.300781 169.003906 195.277344 168.914062 C 195.230469 168.867188 195.253906 168.820312 195.253906 168.753906 Z M 195.253906 168.753906 " fill-opacity="1" fill-rule="nonzero"/><path fill="#ffffff" d="M 190.457031 171.875 C 189.972656 172.105469 189.492188 172.332031 188.988281 172.539062 C 188.804688 172.632812 188.597656 172.722656 188.414062 172.839844 C 188.230469 172.953125 187.90625 173.113281 187.929688 173.230469 C 187.976562 173.550781 188.113281 173.847656 188.277344 174.125 C 188.34375 174.214844 188.574219 174.214844 188.734375 174.261719 C 188.78125 174.261719 188.828125 174.238281 188.871094 174.238281 C 189.355469 174.101562 189.652344 174.167969 189.8125 174.46875 C 189.996094 174.765625 189.90625 175.109375 189.582031 175.457031 C 188.757812 176.351562 187.242188 176.050781 186.714844 174.859375 C 186.484375 174.308594 186.4375 173.734375 186.507812 173.160156 C 186.578125 172.722656 186.828125 172.378906 187.242188 172.289062 C 188.160156 172.058594 189.101562 171.898438 190.042969 171.738281 C 190.15625 171.714844 190.296875 171.78125 190.410156 171.804688 C 190.457031 171.828125 190.457031 171.851562 190.457031 171.875 Z M 190.457031 171.875 " fill-opacity="1" fill-rule="nonzero"/><path fill="#ffffff" d="M 186.003906 145.660156 C 186.070312 145.222656 186.09375 144.765625 186.234375 144.351562 C 186.417969 143.710938 186.875 143.480469 187.539062 143.527344 C 188.136719 143.570312 188.710938 143.570312 189.308594 143.640625 C 191.28125 143.824219 192.339844 145.429688 191.605469 147.082031 C 191.167969 148.09375 190.503906 149.035156 189.949219 150 C 189.90625 150.089844 189.746094 150.113281 189.652344 150.160156 C 189.652344 150.042969 189.652344 149.953125 189.675781 149.839844 C 190.019531 148.714844 190.386719 147.589844 190.6875 146.464844 C 190.871094 145.753906 190.570312 145.203125 189.90625 144.902344 C 189.539062 144.71875 189.101562 144.628906 188.710938 144.511719 C 188.320312 144.398438 187.929688 144.351562 187.539062 144.261719 C 187.105469 144.167969 186.875 144.28125 186.875 144.765625 C 186.875 145.523438 186.988281 146.257812 187.335938 146.945312 C 187.703125 147.679688 188.070312 148.414062 188.390625 149.171875 C 188.503906 149.425781 188.527344 149.746094 188.574219 150.042969 C 188.597656 150.273438 188.550781 150.550781 188.296875 150.574219 C 188.113281 150.59375 187.839844 150.503906 187.722656 150.367188 C 187.519531 150.136719 187.378906 149.839844 187.265625 149.539062 C 187.011719 148.964844 186.804688 148.367188 186.53125 147.773438 C 186.164062 147.105469 185.980469 146.417969 186.003906 145.660156 Z M 186.003906 145.660156 " fill-opacity="1" fill-rule="nonzero"/><path fill="#ffffff" d="M 187.21875 150.894531 C 187.171875 150.871094 187.105469 150.847656 187.082031 150.800781 C 186.371094 149.929688 185.679688 149.058594 184.96875 148.183594 C 184.785156 147.957031 184.625 147.726562 184.417969 147.566406 C 184.007812 147.246094 183.546875 147.289062 183.226562 147.703125 C 182.972656 148.023438 182.699219 148.414062 182.675781 148.78125 C 182.605469 149.539062 182.675781 150.320312 182.699219 151.101562 C 182.71875 151.492188 182.972656 151.699219 183.339844 151.8125 C 183.9375 151.972656 184.488281 151.996094 185.039062 151.675781 C 185.3125 151.515625 185.679688 151.445312 186.003906 151.375 C 186.253906 151.332031 186.507812 151.421875 186.601562 151.71875 C 186.691406 151.996094 186.53125 152.203125 186.300781 152.339844 C 185.222656 152.960938 184.097656 153.257812 182.859375 152.800781 C 182.238281 152.570312 181.824219 152.179688 181.6875 151.535156 C 181.457031 150.550781 181.457031 149.515625 181.550781 148.507812 C 181.617188 147.839844 181.984375 147.265625 182.492188 146.808594 C 183.433594 145.957031 184.832031 146.121094 185.476562 147.246094 C 186.09375 148.324219 186.644531 149.449219 187.242188 150.550781 C 187.289062 150.640625 187.289062 150.757812 187.3125 150.871094 C 187.289062 150.871094 187.242188 150.871094 187.21875 150.894531 Z M 187.21875 150.894531 " fill-opacity="1" fill-rule="nonzero"/><path fill="#ffffff" d="M 193.003906 152.730469 C 192.589844 152.660156 192.15625 152.617188 191.765625 152.523438 C 191.488281 152.453125 191.238281 152.292969 191.304688 151.949219 C 191.375 151.605469 191.671875 151.582031 191.949219 151.605469 C 192.429688 151.675781 192.933594 151.765625 193.417969 151.835938 C 194.335938 151.925781 194.703125 151.699219 195 150.800781 C 195.277344 149.953125 194.773438 148.714844 194.015625 148.277344 C 193.785156 148.140625 193.601562 148.164062 193.417969 148.347656 C 192.5 149.195312 191.582031 150.023438 190.640625 150.847656 C 190.570312 150.917969 190.433594 150.964844 190.339844 150.941406 C 190.273438 150.917969 190.179688 150.777344 190.179688 150.6875 C 190.203125 150.480469 190.203125 150.25 190.296875 150.066406 C 190.824219 148.941406 191.605469 148 192.523438 147.152344 C 193.117188 146.601562 193.808594 146.625 194.449219 147.105469 C 195.894531 148.183594 196.195312 150.664062 195.023438 152.019531 C 194.609375 152.5 194.058594 152.617188 193.464844 152.636719 C 193.324219 152.636719 193.1875 152.636719 193.050781 152.636719 C 193.027344 152.683594 193.003906 152.707031 193.003906 152.730469 Z M 193.003906 152.730469 " fill-opacity="1" fill-rule="nonzero"/><path fill="#ffffff" d="M 187.953125 153.304688 C 187.90625 154.085938 187.886719 154.75 187.816406 155.417969 C 187.679688 156.816406 186.300781 157.597656 185.039062 157 C 184.351562 156.679688 183.800781 156.171875 183.363281 155.554688 C 182.902344 154.910156 183.179688 153.925781 183.890625 153.578125 C 184.050781 153.511719 184.28125 153.578125 184.488281 153.578125 C 184.464844 153.761719 184.488281 153.96875 184.417969 154.109375 C 184.210938 154.519531 184.210938 154.636719 184.558594 154.933594 C 184.855469 155.1875 185.175781 155.4375 185.496094 155.691406 C 185.980469 156.035156 186.460938 155.945312 186.714844 155.371094 C 187.035156 154.679688 187.289062 153.945312 187.5625 153.234375 C 187.585938 153.210938 187.585938 153.167969 187.609375 153.144531 C 187.679688 153.027344 187.769531 152.9375 187.839844 152.820312 C 187.886719 152.960938 187.953125 153.074219 188 153.210938 C 187.976562 153.257812 187.953125 153.328125 187.953125 153.304688 Z M 187.953125 153.304688 " fill-opacity="1" fill-rule="nonzero"/><path fill="#ffffff" d="M 223.992188 187.757812 C 224.542969 187.804688 225.09375 187.875 225.644531 187.851562 C 226.082031 187.851562 226.539062 187.757812 226.976562 187.714844 C 227.207031 187.691406 227.273438 187.53125 227.183594 187.324219 C 227.023438 186.976562 226.886719 186.632812 226.65625 186.335938 C 226.332031 185.898438 225.945312 185.507812 225.597656 185.097656 C 225.554688 185.027344 225.53125 184.933594 225.484375 184.867188 C 225.578125 184.84375 225.667969 184.820312 225.761719 184.796875 C 225.804688 184.796875 225.851562 184.820312 225.898438 184.84375 C 226.746094 185.417969 227.597656 185.96875 228.191406 186.816406 C 228.8125 187.714844 228.539062 188.609375 227.527344 189.019531 C 226.792969 189.320312 226.011719 189.34375 225.230469 189.25 C 224.636719 189.160156 224.039062 189.113281 223.441406 189.042969 C 222.433594 188.953125 221.558594 188.632812 220.894531 187.851562 C 220.320312 187.183594 220.273438 186.519531 220.871094 185.898438 C 221.558594 185.164062 222.410156 184.613281 223.351562 184.222656 C 223.488281 184.179688 223.648438 184.15625 223.808594 184.15625 C 224.292969 184.179688 224.496094 184.636719 224.222656 185.027344 C 224.085938 185.210938 223.902344 185.347656 223.71875 185.464844 C 223.1875 185.785156 222.636719 186.105469 222.109375 186.40625 C 221.492188 186.75 221.46875 186.957031 222.019531 187.414062 C 222.363281 187.714844 222.777344 187.78125 223.210938 187.804688 C 223.488281 187.828125 223.761719 187.804688 224.015625 187.804688 C 223.992188 187.804688 223.992188 187.78125 223.992188 187.757812 Z M 223.992188 187.757812 " fill-opacity="1" fill-rule="nonzero"/><path fill="#ffffff" d="M 222.570312 179.3125 C 222.777344 179.726562 222.9375 180.09375 223.121094 180.414062 C 223.304688 180.734375 223.511719 181.054688 223.648438 181.421875 C 222.984375 180.871094 222.292969 180.390625 221.835938 179.65625 C 221.492188 179.105469 221.789062 178.417969 222.453125 178.300781 C 222.9375 178.210938 223.441406 178.210938 223.921875 178.300781 C 225.324219 178.578125 226.703125 178.921875 228.078125 179.242188 C 228.652344 179.378906 228.996094 179.886719 229.019531 180.480469 C 229.042969 181.332031 228.675781 182.019531 228.007812 182.503906 C 227.414062 182.9375 226.722656 183.144531 226.011719 183.28125 C 225.828125 183.304688 225.554688 183.238281 225.460938 183.097656 C 225.371094 182.9375 225.324219 182.617188 225.414062 182.480469 C 225.621094 182.203125 225.921875 181.972656 226.21875 181.789062 C 226.539062 181.605469 226.90625 181.5625 227.253906 181.421875 C 227.640625 181.285156 227.894531 181.011719 227.988281 180.621094 C 228.078125 180.34375 227.988281 180.160156 227.6875 180.09375 C 226.332031 179.816406 224.980469 179.542969 223.601562 179.265625 C 223.328125 179.265625 223.003906 179.3125 222.570312 179.3125 Z M 222.570312 179.3125 " fill-opacity="1" fill-rule="nonzero"/><path fill="#ffffff" d="M 218.414062 185.671875 C 217.886719 185.691406 217.472656 185.417969 217.222656 184.980469 C 216.808594 184.246094 216.554688 183.445312 216.507812 182.59375 C 216.464844 181.699219 216.855469 180.964844 217.566406 180.4375 C 218.023438 180.09375 218.550781 179.976562 219.082031 180.207031 C 219.699219 180.480469 220.296875 180.804688 220.917969 181.101562 C 221.007812 181.148438 221.125 181.21875 221.167969 181.308594 C 221.238281 181.46875 221.375 181.699219 221.308594 181.789062 C 221.238281 181.929688 220.984375 182.042969 220.824219 182.019531 C 220.527344 181.972656 220.226562 181.835938 219.929688 181.722656 C 219.5625 181.585938 219.21875 181.421875 218.851562 181.261719 C 218.597656 181.148438 218.367188 181.238281 218.230469 181.445312 C 217.957031 181.789062 217.792969 182.179688 217.933594 182.640625 C 218.09375 183.144531 218.277344 183.648438 218.4375 184.15625 C 218.507812 184.382812 218.667969 184.476562 218.898438 184.40625 C 219.21875 184.316406 219.539062 184.269531 219.835938 184.132812 C 220.550781 183.855469 221.238281 183.558594 221.925781 183.28125 C 222.042969 183.238281 222.179688 183.28125 222.316406 183.304688 C 222.25 183.421875 222.226562 183.558594 222.132812 183.628906 C 221.375 184.15625 220.617188 184.707031 219.816406 185.1875 C 219.402344 185.441406 218.898438 185.578125 218.4375 185.785156 C 218.4375 185.738281 218.414062 185.714844 218.414062 185.671875 Z M 218.414062 185.671875 " fill-opacity="1" fill-rule="nonzero"/><path fill="#ffffff" d="M 228.421875 184.867188 C 228.746094 185.074219 228.996094 185.234375 229.25 185.417969 C 229.777344 185.761719 230.304688 186.082031 230.789062 186.472656 C 231.132812 186.75 231.453125 186.773438 231.84375 186.679688 C 232.667969 186.496094 233.265625 186.015625 233.679688 185.304688 C 233.726562 185.210938 233.839844 185.1875 233.933594 185.121094 C 233.953125 185.210938 234.023438 185.324219 234.023438 185.394531 C 233.816406 186.773438 232.507812 187.851562 231.429688 187.875 C 230.992188 187.898438 230.601562 187.78125 230.375 187.4375 C 229.800781 186.609375 229.019531 186.015625 228.261719 185.371094 C 228.171875 185.304688 228.078125 185.210938 228.007812 185.121094 C 227.824219 184.867188 227.871094 184.613281 228.125 184.453125 C 228.605469 184.15625 229.089844 183.925781 229.664062 183.902344 C 230.535156 183.878906 231.429688 183.855469 232.300781 183.8125 C 232.554688 183.8125 232.832031 183.8125 232.898438 184.109375 C 232.96875 184.429688 232.738281 184.546875 232.484375 184.636719 C 231.707031 184.914062 230.925781 184.933594 230.121094 184.773438 C 229.730469 184.683594 229.316406 184.683594 228.90625 184.660156 C 228.789062 184.683594 228.652344 184.773438 228.421875 184.867188 Z M 228.421875 184.867188 " fill-opacity="1" fill-rule="nonzero"/><path fill="#ffffff" d="M 231.523438 180.621094 C 232.507812 180.621094 233.472656 181.515625 233.566406 182.25 C 233.585938 182.503906 233.542969 182.753906 233.3125 182.894531 C 233.058594 183.03125 232.832031 182.960938 232.625 182.800781 C 232.441406 182.664062 232.257812 182.503906 232.09375 182.339844 C 231.84375 182.089844 231.589844 182.089844 231.292969 182.226562 C 230.558594 182.546875 229.824219 182.871094 229.089844 183.167969 C 228.882812 183.261719 228.652344 183.328125 228.421875 183.375 C 228.355469 183.398438 228.261719 183.328125 228.171875 183.304688 C 228.191406 183.214844 228.214844 183.121094 228.261719 183.054688 C 229.019531 182.386719 229.753906 181.699219 230.558594 181.078125 C 230.878906 180.804688 231.316406 180.710938 231.523438 180.621094 Z M 231.523438 180.621094 " fill-opacity="1" fill-rule="nonzero"/><path fill="#ffffff" d="M 215.476562 160.949219 C 215.015625 159.984375 214.605469 159.113281 214.167969 158.238281 C 214.191406 158.214844 214.214844 158.195312 214.214844 158.171875 C 214.328125 158.238281 214.445312 158.261719 214.511719 158.355469 C 215.085938 159.066406 215.660156 159.777344 216.1875 160.535156 C 216.578125 161.085938 216.394531 161.707031 215.753906 161.957031 C 215.222656 162.164062 214.648438 162.324219 214.097656 162.417969 C 213.59375 162.507812 213.113281 162.347656 212.699219 162.074219 C 212.402344 161.867188 212.101562 161.660156 211.804688 161.429688 C 210.976562 160.765625 211.023438 159.664062 211.941406 159.132812 C 212.421875 158.859375 212.789062 158.5625 212.859375 157.988281 C 212.882812 157.917969 212.90625 157.804688 212.972656 157.757812 C 213.089844 157.664062 213.25 157.621094 213.363281 157.527344 C 213.433594 157.664062 213.546875 157.828125 213.523438 157.941406 C 213.410156 158.605469 213.226562 159.273438 212.515625 159.570312 C 212.402344 159.617188 212.308594 159.707031 212.238281 159.777344 C 211.964844 160.054688 212.011719 160.328125 212.378906 160.488281 C 212.722656 160.648438 213.066406 160.789062 213.410156 160.925781 C 214.097656 161.246094 214.71875 160.992188 215.476562 160.949219 Z M 215.476562 160.949219 " fill-opacity="1" fill-rule="nonzero"/><path fill="#ffffff" d="M 214.855469 156.335938 C 215.796875 155.554688 217.152344 155.785156 218.117188 154.933594 C 217.382812 154.496094 216.785156 153.992188 215.914062 154.0625 C 215.589844 154.085938 215.269531 153.96875 214.949219 153.925781 C 214.71875 153.902344 214.488281 153.855469 214.261719 153.878906 C 213.984375 153.902344 213.894531 154.109375 214.007812 154.335938 C 214.121094 154.566406 214.304688 154.75 214.421875 155.003906 C 214.535156 155.234375 214.628906 155.484375 214.648438 155.761719 C 214.648438 155.875 214.488281 156.035156 214.351562 156.082031 C 214.238281 156.128906 214.007812 156.058594 213.960938 155.96875 C 213.6875 155.507812 213.363281 155.046875 213.25 154.566406 C 212.996094 153.488281 213.753906 153.007812 214.765625 153.074219 C 214.972656 153.097656 215.179688 153.191406 215.382812 153.234375 C 215.523438 153.257812 215.707031 153.328125 215.84375 153.28125 C 216.578125 153.050781 217.222656 153.328125 217.839844 153.625 C 218.164062 153.761719 218.484375 153.945312 218.757812 154.152344 C 219.171875 154.453125 219.308594 154.886719 219.101562 155.347656 C 218.851562 155.921875 218.4375 156.335938 217.773438 156.355469 C 216.855469 156.402344 215.9375 156.425781 215.015625 156.449219 C 214.972656 156.402344 214.949219 156.378906 214.855469 156.335938 Z M 214.855469 156.335938 " fill-opacity="1" fill-rule="nonzero"/><path fill="#ffffff" d="M 215.339844 157.320312 C 215.382812 157.296875 215.453125 157.230469 215.5 157.230469 C 216.554688 157.070312 217.589844 156.886719 218.644531 156.792969 C 219.355469 156.746094 219.953125 157.070312 220.390625 157.644531 C 220.777344 158.148438 220.800781 158.675781 220.390625 159.15625 C 219.929688 159.6875 219.46875 160.191406 218.964844 160.671875 C 218.550781 161.085938 217.726562 161.085938 217.152344 160.648438 C 216.832031 160.421875 216.554688 160.121094 216.28125 159.824219 C 215.890625 159.410156 215.523438 158.972656 215.179688 158.539062 C 215.085938 158.421875 215.0625 158.214844 215.015625 158.054688 C 215.199219 158.03125 215.429688 157.941406 215.523438 158.03125 C 215.957031 158.378906 216.371094 158.765625 216.785156 159.15625 C 217.039062 159.386719 217.265625 159.664062 217.519531 159.871094 C 217.910156 160.167969 218.183594 160.121094 218.507812 159.730469 C 218.78125 159.386719 219.101562 159.066406 219.402344 158.722656 C 219.699219 158.398438 219.699219 158.285156 219.425781 157.964844 C 219.101562 157.597656 218.667969 157.4375 218.207031 157.414062 C 217.40625 157.390625 216.601562 157.414062 215.820312 157.4375 C 215.660156 157.4375 215.5 157.4375 215.339844 157.4375 C 215.339844 157.390625 215.339844 157.367188 215.339844 157.320312 Z M 215.339844 157.320312 " fill-opacity="1" fill-rule="nonzero"/><path fill="#ffffff" d="M 213.226562 156.152344 C 213.066406 156.058594 212.90625 155.988281 212.769531 155.898438 C 212.378906 155.601562 212.035156 155.277344 211.644531 154.980469 C 211.230469 154.660156 210.953125 154.703125 210.65625 155.09375 C 210.585938 155.1875 210.5625 155.324219 210.542969 155.4375 C 210.472656 155.785156 210.425781 156.152344 210.335938 156.496094 C 210.265625 156.792969 210.152344 157.070312 210.105469 157.367188 C 210.035156 157.804688 210.3125 157.988281 210.703125 157.804688 C 210.929688 157.710938 211.136719 157.550781 211.34375 157.4375 C 211.574219 157.296875 211.828125 157.207031 212.054688 157.4375 C 212.285156 157.6875 212.171875 157.941406 211.988281 158.171875 C 211.503906 158.722656 210.886719 158.949219 210.152344 158.8125 C 209.601562 158.722656 209.140625 158.214844 209.140625 157.644531 C 209.140625 157.136719 209.277344 156.632812 209.347656 156.128906 C 209.394531 155.875 209.484375 155.621094 209.460938 155.371094 C 209.417969 154.636719 209.921875 154.292969 210.449219 153.96875 C 210.953125 153.648438 211.527344 153.71875 211.941406 154.152344 C 212.355469 154.566406 212.675781 155.070312 213.019531 155.554688 C 213.136719 155.714844 213.226562 155.875 213.320312 156.035156 C 213.273438 156.082031 213.25 156.105469 213.226562 156.152344 Z M 213.226562 156.152344 " fill-opacity="1" fill-rule="nonzero"/><g fill="#ffffff" fill-opacity="1"><g transform="translate(117.558614, 229.473851)"><g><path d="M 0.59375 -6.84375 C 0.59375 -7.664062 0.738281 -8.472656 1.03125 -9.265625 C 1.332031 -10.054688 1.765625 -10.773438 2.328125 -11.421875 C 2.898438 -12.078125 3.597656 -12.597656 4.421875 -12.984375 C 5.242188 -13.367188 6.179688 -13.5625 7.234375 -13.5625 C 8.472656 -13.5625 9.546875 -13.289062 10.453125 -12.75 C 11.359375 -12.207031 12.035156 -11.5 12.484375 -10.625 L 10.46875 -9.234375 C 10.238281 -9.742188 9.941406 -10.144531 9.578125 -10.4375 C 9.210938 -10.738281 8.816406 -10.945312 8.390625 -11.0625 C 7.972656 -11.1875 7.5625 -11.25 7.15625 -11.25 C 6.5 -11.25 5.925781 -11.113281 5.4375 -10.84375 C 4.957031 -10.582031 4.550781 -10.234375 4.21875 -9.796875 C 3.882812 -9.367188 3.640625 -8.890625 3.484375 -8.359375 C 3.328125 -7.828125 3.25 -7.296875 3.25 -6.765625 C 3.25 -6.171875 3.34375 -5.597656 3.53125 -5.046875 C 3.71875 -4.492188 3.984375 -4.003906 4.328125 -3.578125 C 4.679688 -3.148438 5.101562 -2.8125 5.59375 -2.5625 C 6.082031 -2.320312 6.617188 -2.203125 7.203125 -2.203125 C 7.617188 -2.203125 8.039062 -2.269531 8.46875 -2.40625 C 8.90625 -2.550781 9.304688 -2.773438 9.671875 -3.078125 C 10.035156 -3.378906 10.320312 -3.769531 10.53125 -4.25 L 12.671875 -3.015625 C 12.410156 -2.347656 11.976562 -1.78125 11.375 -1.3125 C 10.769531 -0.84375 10.09375 -0.488281 9.34375 -0.25 C 8.601562 -0.0078125 7.863281 0.109375 7.125 0.109375 C 6.164062 0.109375 5.285156 -0.0859375 4.484375 -0.484375 C 3.679688 -0.878906 2.992188 -1.410156 2.421875 -2.078125 C 1.847656 -2.742188 1.398438 -3.488281 1.078125 -4.3125 C 0.753906 -5.144531 0.59375 -5.988281 0.59375 -6.84375 Z M 0.59375 -6.84375 "/></g></g></g><g fill="#ffffff" fill-opacity="1"><g transform="translate(130.589955, 229.473851)"><g/></g></g><g fill="#ffffff" fill-opacity="1"><g transform="translate(135.149029, 229.473851)"><g><path d="M 7.125 0.09375 C 6.050781 0.09375 5.132812 -0.0820312 4.375 -0.4375 C 3.625 -0.800781 3.015625 -1.300781 2.546875 -1.9375 C 2.085938 -2.570312 1.75 -3.289062 1.53125 -4.09375 C 1.320312 -4.894531 1.21875 -5.734375 1.21875 -6.609375 L 1.21875 -13.484375 L 3.84375 -13.484375 L 3.84375 -6.609375 C 3.84375 -6.054688 3.894531 -5.515625 4 -4.984375 C 4.101562 -4.460938 4.28125 -3.988281 4.53125 -3.5625 C 4.789062 -3.144531 5.128906 -2.816406 5.546875 -2.578125 C 5.960938 -2.335938 6.484375 -2.21875 7.109375 -2.21875 C 7.742188 -2.21875 8.269531 -2.34375 8.6875 -2.59375 C 9.113281 -2.84375 9.445312 -3.175781 9.6875 -3.59375 C 9.9375 -4.007812 10.117188 -4.476562 10.234375 -5 C 10.347656 -5.53125 10.40625 -6.066406 10.40625 -6.609375 L 10.40625 -13.484375 L 13.015625 -13.484375 L 13.015625 -6.609375 C 13.015625 -5.679688 12.898438 -4.8125 12.671875 -4 C 12.453125 -3.195312 12.101562 -2.488281 11.625 -1.875 C 11.15625 -1.257812 10.546875 -0.773438 9.796875 -0.421875 C 9.054688 -0.078125 8.164062 0.09375 7.125 0.09375 Z M 7.125 0.09375 "/></g></g></g><g fill="#ffffff" fill-opacity="1"><g transform="translate(149.396121, 229.473851)"><g/></g></g><g fill="#ffffff" fill-opacity="1"><g transform="translate(153.955195, 229.473851)"><g><path d="M 0.59375 -6.84375 C 0.59375 -7.664062 0.738281 -8.472656 1.03125 -9.265625 C 1.332031 -10.054688 1.765625 -10.773438 2.328125 -11.421875 C 2.898438 -12.078125 3.597656 -12.597656 4.421875 -12.984375 C 5.242188 -13.367188 6.179688 -13.5625 7.234375 -13.5625 C 8.472656 -13.5625 9.546875 -13.289062 10.453125 -12.75 C 11.359375 -12.207031 12.035156 -11.5 12.484375 -10.625 L 10.46875 -9.234375 C 10.238281 -9.742188 9.941406 -10.144531 9.578125 -10.4375 C 9.210938 -10.738281 8.816406 -10.945312 8.390625 -11.0625 C 7.972656 -11.1875 7.5625 -11.25 7.15625 -11.25 C 6.5 -11.25 5.925781 -11.113281 5.4375 -10.84375 C 4.957031 -10.582031 4.550781 -10.234375 4.21875 -9.796875 C 3.882812 -9.367188 3.640625 -8.890625 3.484375 -8.359375 C 3.328125 -7.828125 3.25 -7.296875 3.25 -6.765625 C 3.25 -6.171875 3.34375 -5.597656 3.53125 -5.046875 C 3.71875 -4.492188 3.984375 -4.003906 4.328125 -3.578125 C 4.679688 -3.148438 5.101562 -2.8125 5.59375 -2.5625 C 6.082031 -2.320312 6.617188 -2.203125 7.203125 -2.203125 C 7.617188 -2.203125 8.039062 -2.269531 8.46875 -2.40625 C 8.90625 -2.550781 9.304688 -2.773438 9.671875 -3.078125 C 10.035156 -3.378906 10.320312 -3.769531 10.53125 -4.25 L 12.671875 -3.015625 C 12.410156 -2.347656 11.976562 -1.78125 11.375 -1.3125 C 10.769531 -0.84375 10.09375 -0.488281 9.34375 -0.25 C 8.601562 -0.0078125 7.863281 0.109375 7.125 0.109375 C 6.164062 0.109375 5.285156 -0.0859375 4.484375 -0.484375 C 3.679688 -0.878906 2.992188 -1.410156 2.421875 -2.078125 C 1.847656 -2.742188 1.398438 -3.488281 1.078125 -4.3125 C 0.753906 -5.144531 0.59375 -5.988281 0.59375 -6.84375 Z M 0.59375 -6.84375 "/></g></g></g><g fill="#ffffff" fill-opacity="1"><g transform="translate(166.986536, 229.473851)"><g/></g></g><g fill="#ffffff" fill-opacity="1"><g transform="translate(171.54561, 229.473851)"><g><path d="M 7.125 0.09375 C 6.050781 0.09375 5.132812 -0.0820312 4.375 -0.4375 C 3.625 -0.800781 3.015625 -1.300781 2.546875 -1.9375 C 2.085938 -2.570312 1.75 -3.289062 1.53125 -4.09375 C 1.320312 -4.894531 1.21875 -5.734375 1.21875 -6.609375 L 1.21875 -13.484375 L 3.84375 -13.484375 L 3.84375 -6.609375 C 3.84375 -6.054688 3.894531 -5.515625 4 -4.984375 C 4.101562 -4.460938 4.28125 -3.988281 4.53125 -3.5625 C 4.789062 -3.144531 5.128906 -2.816406 5.546875 -2.578125 C 5.960938 -2.335938 6.484375 -2.21875 7.109375 -2.21875 C 7.742188 -2.21875 8.269531 -2.34375 8.6875 -2.59375 C 9.113281 -2.84375 9.445312 -3.175781 9.6875 -3.59375 C 9.9375 -4.007812 10.117188 -4.476562 10.234375 -5 C 10.347656 -5.53125 10.40625 -6.066406 10.40625 -6.609375 L 10.40625 -13.484375 L 13.015625 -13.484375 L 13.015625 -6.609375 C 13.015625 -5.679688 12.898438 -4.8125 12.671875 -4 C 12.453125 -3.195312 12.101562 -2.488281 11.625 -1.875 C 11.15625 -1.257812 10.546875 -0.773438 9.796875 -0.421875 C 9.054688 -0.078125 8.164062 0.09375 7.125 0.09375 Z M 7.125 0.09375 "/></g></g></g><g fill="#ffffff" fill-opacity="1"><g transform="translate(185.792702, 229.473851)"><g/></g></g><g fill="#ffffff" fill-opacity="1"><g transform="translate(190.351776, 229.473851)"><g><path d="M 12.40625 0 L 12.40625 -8.859375 L 8.953125 -2.265625 L 7.484375 -2.265625 L 4.03125 -8.859375 L 4.03125 0 L 1.40625 0 L 1.40625 -13.484375 L 4.21875 -13.484375 L 8.203125 -5.8125 L 12.234375 -13.484375 L 15.03125 -13.484375 L 15.03125 0 Z M 12.40625 0 "/></g></g></g><g fill="#ffffff" fill-opacity="1"><g transform="translate(206.783419, 229.473851)"><g/></g></g><g fill="#ffffff" fill-opacity="1"><g transform="translate(211.342493, 229.473851)"><g><path d="M 12.28125 -3.484375 C 12.28125 -2.722656 12.082031 -2.082031 11.6875 -1.5625 C 11.289062 -1.050781 10.757812 -0.660156 10.09375 -0.390625 C 9.425781 -0.128906 8.703125 0 7.921875 0 L 1.40625 0 L 1.40625 -13.484375 L 8.625 -13.484375 C 9.257812 -13.484375 9.804688 -13.316406 10.265625 -12.984375 C 10.734375 -12.648438 11.085938 -12.21875 11.328125 -11.6875 C 11.578125 -11.164062 11.703125 -10.617188 11.703125 -10.046875 C 11.703125 -9.398438 11.535156 -8.785156 11.203125 -8.203125 C 10.878906 -7.617188 10.398438 -7.191406 9.765625 -6.921875 C 10.535156 -6.691406 11.144531 -6.273438 11.59375 -5.671875 C 12.050781 -5.078125 12.28125 -4.347656 12.28125 -3.484375 Z M 9.640625 -3.96875 C 9.640625 -4.3125 9.566406 -4.617188 9.421875 -4.890625 C 9.285156 -5.160156 9.097656 -5.375 8.859375 -5.53125 C 8.628906 -5.695312 8.363281 -5.78125 8.0625 -5.78125 L 4.03125 -5.78125 L 4.03125 -2.21875 L 7.921875 -2.21875 C 8.234375 -2.21875 8.519531 -2.296875 8.78125 -2.453125 C 9.039062 -2.617188 9.25 -2.832031 9.40625 -3.09375 C 9.5625 -3.363281 9.640625 -3.65625 9.640625 -3.96875 Z M 4.03125 -11.25 L 4.03125 -7.84375 L 7.53125 -7.84375 C 7.820312 -7.84375 8.085938 -7.910156 8.328125 -8.046875 C 8.566406 -8.191406 8.757812 -8.390625 8.90625 -8.640625 C 9.050781 -8.898438 9.125 -9.207031 9.125 -9.5625 C 9.125 -9.894531 9.054688 -10.1875 8.921875 -10.4375 C 8.785156 -10.695312 8.609375 -10.894531 8.390625 -11.03125 C 8.171875 -11.175781 7.921875 -11.25 7.640625 -11.25 Z M 4.03125 -11.25 "/></g></g></g><g fill="#ffffff" fill-opacity="1"><g transform="translate(224.259851, 229.473851)"><g/></g></g><g fill="#ffffff" fill-opacity="1"><g transform="translate(228.818925, 229.473851)"><g><path d="M 10.765625 -2.296875 L 10.765625 0 L 1.40625 0 L 1.40625 -13.484375 L 10.609375 -13.484375 L 10.609375 -11.1875 L 4.03125 -11.1875 L 4.03125 -7.9375 L 9.703125 -7.9375 L 9.703125 -5.8125 L 4.03125 -5.8125 L 4.03125 -2.296875 Z M 10.765625 -2.296875 "/></g></g></g><g fill="#ffffff" fill-opacity="1"><g transform="translate(240.235596, 229.473851)"><g/></g></g><g fill="#ffffff" fill-opacity="1"><g transform="translate(244.79467, 229.473851)"><g><path d="M 1.40625 0 L 1.40625 -13.484375 L 7.375 -13.484375 C 7.988281 -13.484375 8.554688 -13.359375 9.078125 -13.109375 C 9.609375 -12.859375 10.066406 -12.515625 10.453125 -12.078125 C 10.835938 -11.648438 11.132812 -11.171875 11.34375 -10.640625 C 11.5625 -10.109375 11.671875 -9.5625 11.671875 -9 C 11.671875 -8.4375 11.570312 -7.890625 11.375 -7.359375 C 11.175781 -6.835938 10.890625 -6.378906 10.515625 -5.984375 C 10.148438 -5.585938 9.722656 -5.285156 9.234375 -5.078125 L 12.3125 0 L 9.421875 0 L 6.65625 -4.515625 L 4.03125 -4.515625 L 4.03125 0 Z M 4.03125 -6.828125 L 7.3125 -6.828125 C 7.644531 -6.828125 7.9375 -6.921875 8.1875 -7.109375 C 8.4375 -7.304688 8.640625 -7.566406 8.796875 -7.890625 C 8.953125 -8.222656 9.03125 -8.59375 9.03125 -9 C 9.03125 -9.4375 8.941406 -9.816406 8.765625 -10.140625 C 8.585938 -10.460938 8.359375 -10.71875 8.078125 -10.90625 C 7.804688 -11.09375 7.515625 -11.1875 7.203125 -11.1875 L 4.03125 -11.1875 Z M 4.03125 -6.828125 "/></g></g></g></svg>