<svg xmlns="http://www.w3.org/2000/svg" xmlns:xlink="http://www.w3.org/1999/xlink" width="500" zoomAndPan="magnify" viewBox="0 0 375 374.999991" height="500" preserveAspectRatio="xMidYMid meet" version="1.0"><defs><g/><clipPath id="424cfdf596"><path d="M 100.390625 68.78125 L 134.890625 68.78125 L 134.890625 95.78125 L 100.390625 95.78125 Z M 100.390625 68.78125 " clip-rule="nonzero"/></clipPath><clipPath id="279d6efc53"><path d="M 0.648438 0.796875 L 34.890625 0.796875 L 34.890625 27.769531 L 0.648438 27.769531 Z M 0.648438 0.796875 " clip-rule="nonzero"/></clipPath><clipPath id="02f10f00bd"><rect x="0" width="35" y="0" height="28"/></clipPath><clipPath id="e1ccc40162"><path d="M 128.949219 89.773438 L 225.558594 89.773438 L 225.558594 181.273438 L 128.949219 181.273438 Z M 128.949219 89.773438 " clip-rule="nonzero"/></clipPath><clipPath id="12c629f955"><path d="M 112.855469 71.03125 L 274.855469 71.03125 L 274.855469 236.78125 L 112.855469 236.78125 Z M 112.855469 71.03125 " clip-rule="nonzero"/></clipPath><clipPath id="2407ba6c41"><path d="M 184.035156 208 L 200 208 L 200 223 L 184.035156 223 Z M 184.035156 208 " clip-rule="nonzero"/></clipPath><clipPath id="68a8079b72"><path d="M 195 219 L 203.535156 219 L 203.535156 227 L 195 227 Z M 195 219 " clip-rule="nonzero"/></clipPath></defs><g clip-path="url(#424cfdf596)"><g transform="matrix(1, 0, 0, 1, 100, 68)"><g clip-path="url(#02f10f00bd)"><g clip-path="url(#279d6efc53)"><path fill="#08af0f" d="M 2.855469 10.429688 C 7.226562 18.453125 15.761719 20.863281 16.601562 21.085938 C 23.132812 22.824219 28.480469 21.15625 31.035156 20.089844 C 31.640625 21.246094 32.148438 22.476562 32.554688 23.769531 C 32.964844 25.074219 33.265625 26.417969 33.4375 27.769531 L 35.148438 27.496094 C 33.878906 20.355469 29.289062 13.601562 22.523438 10.929688 C 20.636719 10.152344 18.652344 9.726562 16.648438 9.445312 C 14.496094 9.128906 12.296875 9.117188 10.144531 9.410156 C 10.140625 9.410156 10.136719 9.414062 10.128906 9.414062 C 12.265625 9.117188 15.105469 8.746094 17.296875 9.058594 C 19.324219 9.335938 21.347656 9.757812 23.304688 10.519531 C 26.652344 11.777344 29.4375 14.042969 31.640625 16.835938 C 31.476562 15.941406 31.25 15.054688 30.957031 14.195312 C 29.722656 10.609375 27.867188 8.820312 26.820312 7.988281 C 21.496094 3.757812 12.015625 4.332031 11.179688 4.394531 C 10.09375 4.46875 8.699219 4.644531 6.890625 4.136719 C 3.214844 3.101562 0.960938 0.796875 0.960938 0.796875 C 0.316406 1.183594 0.527344 6.15625 2.855469 10.429688 " fill-opacity="1" fill-rule="nonzero"/></g></g></g></g><g clip-path="url(#e1ccc40162)"><path fill="#ff8811" d="M 177.253906 178.277344 C 152.324219 178.277344 132.117188 159.136719 132.117188 135.527344 C 132.117188 111.917969 152.324219 92.777344 177.253906 92.777344 C 202.179688 92.777344 222.390625 111.917969 222.390625 135.527344 C 222.390625 159.136719 202.179688 178.277344 177.253906 178.277344 Z M 177.253906 89.773438 C 150.574219 89.773438 128.949219 110.257812 128.949219 135.527344 C 128.949219 160.792969 150.574219 181.277344 177.253906 181.277344 C 203.929688 181.277344 225.554688 160.792969 225.554688 135.527344 C 225.554688 110.257812 203.929688 89.773438 177.253906 89.773438 " fill-opacity="1" fill-rule="nonzero"/></g><path fill="#ffecbb" d="M 210.824219 149.222656 L 184.210938 137.15625 C 182.75 136.308594 182.164062 135.90625 181.902344 134.722656 C 181.671875 133.683594 182.578125 133.050781 183.824219 132.652344 C 183.96875 132.609375 212.820312 122.484375 212.820312 122.484375 C 213.945312 122.113281 215.1875 122.605469 215.746094 123.667969 C 219.945312 131.632812 219.789062 141.390625 215.859375 147.789062 C 214.847656 149.441406 212.667969 150.054688 210.824219 149.222656 Z M 212.03125 155.953125 C 210.335938 163.132812 205.292969 167.5625 197.925781 170.09375 C 196.652344 170.53125 194.019531 170.023438 193.390625 168.882812 C 193.390625 168.882812 180.441406 141.574219 180.097656 139.878906 C 179.734375 138.121094 180.9375 137.3125 182.0625 137.382812 C 183.707031 137.484375 188.683594 140.578125 189.621094 141.175781 C 190.4375 141.695312 210.628906 151.722656 211.402344 152.191406 C 212.390625 152.792969 212.300781 154.800781 212.03125 155.953125 Z M 185.945312 173.761719 C 180.015625 176.074219 172.890625 175.65625 168.183594 173.367188 C 166.625 172.609375 164.191406 170.609375 164.742188 168.988281 L 174.097656 145.097656 C 174.257812 144.621094 175.050781 142.640625 175.246094 142.175781 C 176.476562 139.234375 177.992188 137.046875 180.015625 142.738281 C 180.253906 143.410156 180.691406 144.671875 180.886719 145.359375 L 188.960938 169.554688 C 189.417969 171.183594 187.542969 173.140625 185.945312 173.761719 Z M 157.589844 168.984375 C 150.214844 166.015625 145.078125 161.382812 143.1875 154.347656 C 142.886719 153.21875 143.3125 152.125 144.277344 151.617188 C 145.03125 151.21875 145.785156 150.824219 146.539062 150.425781 C 148.625 149.328125 169.453125 139.609375 172.34375 138.640625 C 174.742188 137.835938 175.253906 139.289062 174.507812 141.289062 C 173.804688 143.183594 161.777344 168.0625 161.777344 168.0625 C 161.1875 169.117188 158.867188 169.5 157.589844 168.984375 Z M 139.597656 147.929688 C 135.714844 141.839844 135.574219 133.964844 139.585938 126.738281 C 140.207031 125.617188 141.699219 125.265625 142.910156 125.570312 L 170.574219 133.453125 C 171.964844 134.125 172.734375 134.464844 172.890625 135.453125 C 173.074219 136.589844 172.105469 137.214844 170.675781 138.011719 L 144.425781 148.917969 C 142.617188 149.699219 140.605469 149.515625 139.597656 147.929688 Z M 141.929688 117.542969 C 143.535156 110.730469 150.816406 105.535156 154.808594 102.996094 C 156.222656 102.097656 159.222656 102.273438 160.070312 103.71875 L 173.5625 128.972656 C 176.160156 133.402344 172.511719 132.710938 170.734375 132.417969 C 168.695312 132.082031 151.898438 126.292969 145.550781 123.933594 C 143.511719 123.171875 140.996094 121.5 141.929688 117.542969 Z M 165.90625 97.972656 C 170.871094 95.574219 178.484375 94.921875 184.898438 96.976562 C 186.628906 97.527344 188.164062 99.394531 187.726562 101 L 180.378906 124.875 C 180.191406 125.550781 179.761719 126.800781 179.53125 127.464844 C 177.542969 133.085938 175.851562 131.003906 174.445312 128.175781 C 174.222656 127.726562 173.308594 125.824219 173.121094 125.363281 L 163.171875 102.335938 C 162.53125 100.773438 164.261719 98.761719 165.90625 97.972656 Z M 197.332031 100.835938 C 204.300781 102.324219 208.6875 107.097656 211.285156 114.15625 C 211.738281 115.375 211.851562 118.609375 210.761719 119.238281 C 210.761719 119.238281 184.160156 131.59375 182.535156 131.960938 C 180.84375 132.34375 180.039062 131.199219 180.078125 130.117188 C 180.144531 128.523438 182.40625 123.960938 182.960938 123.039062 C 183.441406 122.242188 192.425781 102.816406 192.863281 102.0625 C 193.421875 101.09375 196.21875 100.59375 197.332031 100.835938 Z M 177.253906 92.777344 C 152.324219 92.777344 132.117188 111.917969 132.117188 135.527344 C 132.117188 159.136719 152.324219 178.277344 177.253906 178.277344 C 202.179688 178.277344 222.390625 159.136719 222.390625 135.527344 C 222.390625 111.917969 202.179688 92.777344 177.253906 92.777344 " fill-opacity="1" fill-rule="nonzero"/><path fill="#ffa724" d="M 170.734375 132.417969 C 168.695312 132.082031 151.898438 126.292969 145.550781 123.933594 C 143.511719 123.171875 140.996094 121.5 141.929688 117.542969 C 143.535156 110.730469 150.816406 105.535156 154.808594 102.996094 C 156.222656 102.097656 159.222656 102.273438 160.070312 103.71875 L 173.5625 128.972656 C 176.160156 133.402344 172.511719 132.710938 170.734375 132.417969 " fill-opacity="1" fill-rule="nonzero"/><path fill="#ffa724" d="M 174.507812 141.289062 C 173.804688 143.183594 161.777344 168.0625 161.777344 168.0625 C 161.1875 169.117188 158.867188 169.5 157.589844 168.984375 C 150.214844 166.015625 145.078125 161.382812 143.1875 154.347656 C 142.886719 153.21875 143.3125 152.125 144.277344 151.617188 C 145.03125 151.21875 145.785156 150.824219 146.539062 150.425781 C 148.625 149.328125 169.453125 139.609375 172.34375 138.640625 C 174.742188 137.835938 175.253906 139.289062 174.507812 141.289062 " fill-opacity="1" fill-rule="nonzero"/><path fill="#ffa724" d="M 185.945312 173.761719 C 180.015625 176.074219 172.890625 175.65625 168.183594 173.367188 C 166.625 172.609375 164.191406 170.609375 164.742188 168.988281 L 174.097656 145.097656 C 174.257812 144.621094 175.050781 142.640625 175.246094 142.175781 C 176.476562 139.234375 177.992188 137.046875 180.015625 142.738281 C 180.253906 143.410156 180.691406 144.671875 180.886719 145.359375 L 188.960938 169.554688 C 189.417969 171.183594 187.542969 173.140625 185.945312 173.761719 " fill-opacity="1" fill-rule="nonzero"/><path fill="#ffa724" d="M 212.03125 155.953125 C 210.335938 163.132812 205.292969 167.5625 197.925781 170.09375 C 196.652344 170.53125 194.019531 170.023438 193.390625 168.882812 C 193.390625 168.882812 180.441406 141.574219 180.097656 139.878906 C 179.734375 138.121094 180.9375 137.3125 182.0625 137.382812 C 183.707031 137.484375 188.683594 140.578125 189.621094 141.175781 C 190.4375 141.695312 210.628906 151.722656 211.402344 152.191406 C 212.390625 152.792969 212.300781 154.800781 212.03125 155.953125 " fill-opacity="1" fill-rule="nonzero"/><path fill="#ffa724" d="M 215.859375 147.789062 C 214.847656 149.441406 212.667969 150.054688 210.824219 149.222656 L 184.210938 137.15625 C 182.75 136.308594 182.164062 135.90625 181.902344 134.722656 C 181.671875 133.683594 182.578125 133.050781 183.824219 132.652344 C 183.96875 132.609375 212.820312 122.484375 212.820312 122.484375 C 213.945312 122.113281 215.1875 122.605469 215.746094 123.667969 C 219.945312 131.632812 219.789062 141.390625 215.859375 147.789062 " fill-opacity="1" fill-rule="nonzero"/><path fill="#ffa724" d="M 170.675781 138.011719 L 144.425781 148.917969 C 142.617188 149.699219 140.605469 149.515625 139.597656 147.929688 C 135.714844 141.839844 135.574219 133.964844 139.585938 126.738281 C 140.207031 125.617188 141.699219 125.265625 142.910156 125.570312 L 170.574219 133.453125 C 171.964844 134.125 172.734375 134.464844 172.890625 135.453125 C 173.074219 136.589844 172.105469 137.214844 170.675781 138.011719 " fill-opacity="1" fill-rule="nonzero"/><path fill="#ffa724" d="M 187.726562 101 L 180.378906 124.875 C 180.191406 125.550781 179.761719 126.800781 179.53125 127.464844 C 177.542969 133.085938 175.851562 131.003906 174.445312 128.175781 C 174.222656 127.726562 173.308594 125.824219 173.121094 125.363281 L 163.171875 102.335938 C 162.53125 100.773438 164.261719 98.761719 165.90625 97.972656 C 170.871094 95.574219 178.484375 94.921875 184.898438 96.976562 C 186.628906 97.527344 188.164062 99.394531 187.726562 101 " fill-opacity="1" fill-rule="nonzero"/><path fill="#ffa724" d="M 210.761719 119.238281 C 210.761719 119.238281 184.160156 131.59375 182.535156 131.960938 C 180.84375 132.34375 180.039062 131.199219 180.078125 130.117188 C 180.144531 128.523438 182.40625 123.960938 182.960938 123.039062 C 183.441406 122.242188 192.425781 102.816406 192.863281 102.0625 C 193.421875 101.09375 196.21875 100.59375 197.332031 100.835938 C 204.300781 102.324219 208.6875 107.097656 211.285156 114.15625 C 211.738281 115.375 211.851562 118.609375 210.761719 119.238281 " fill-opacity="1" fill-rule="nonzero"/><g clip-path="url(#12c629f955)"><path fill="#1c7c7d" d="M 176.957031 71.03125 C 141.609375 71.03125 112.875 99.769531 112.875 135.113281 C 112.875 170.460938 141.609375 199.195312 176.957031 199.195312 C 190.949219 199.195312 203.867188 194.636719 214.414062 187.003906 L 263.980469 236.566406 L 274.640625 225.90625 L 225.53125 176.800781 C 235.171875 165.582031 241.039062 151.035156 241.039062 135.113281 C 241.039062 99.769531 212.304688 71.03125 176.957031 71.03125 Z M 176.957031 78.570312 C 208.230469 78.570312 233.5 103.84375 233.5 135.113281 C 233.5 166.386719 208.230469 191.65625 176.957031 191.65625 C 145.683594 191.65625 120.414062 166.386719 120.414062 135.113281 C 120.414062 103.84375 145.683594 78.570312 176.957031 78.570312 Z M 176.957031 78.570312 " fill-opacity="1" fill-rule="nonzero"/></g><path fill="#1c7c7d" d="M 172.679688 222.929688 C 172.378906 222.929688 172.082031 222.914062 171.785156 222.875 C 171.488281 222.839844 171.195312 222.785156 170.90625 222.710938 C 170.613281 222.640625 170.328125 222.550781 170.050781 222.441406 C 169.773438 222.335938 169.5 222.210938 169.238281 222.070312 C 168.972656 221.929688 168.71875 221.773438 168.476562 221.601562 C 168.230469 221.429688 167.996094 221.242188 167.777344 221.042969 C 167.554688 220.839844 167.34375 220.628906 167.148438 220.402344 C 166.953125 220.175781 166.773438 219.9375 166.609375 219.6875 C 166.441406 219.441406 166.292969 219.183594 166.15625 218.914062 C 166.023438 218.648438 165.90625 218.375 165.804688 218.09375 C 165.703125 217.8125 165.621094 217.523438 165.554688 217.234375 C 165.488281 216.941406 165.441406 216.648438 165.414062 216.347656 C 165.382812 216.050781 165.371094 215.753906 165.378906 215.453125 C 165.386719 215.15625 165.414062 214.859375 165.457031 214.5625 C 165.5 214.265625 165.5625 213.976562 165.640625 213.6875 C 165.722656 213.398438 165.820312 213.117188 165.933594 212.839844 C 166.046875 212.5625 166.179688 212.296875 166.324219 212.035156 C 166.472656 211.777344 166.636719 211.527344 166.8125 211.285156 C 166.992188 211.046875 167.183594 210.816406 167.390625 210.601562 C 167.597656 210.382812 167.816406 210.179688 168.046875 209.992188 C 168.277344 209.800781 168.519531 209.628906 168.773438 209.46875 C 169.023438 209.308594 169.285156 209.164062 169.558594 209.035156 C 169.828125 208.910156 170.105469 208.796875 170.386719 208.703125 C 170.671875 208.609375 170.960938 208.535156 171.253906 208.476562 C 171.546875 208.417969 171.84375 208.378906 172.140625 208.355469 C 172.4375 208.335938 172.738281 208.332031 173.035156 208.34375 C 173.335938 208.359375 173.632812 208.394531 173.925781 208.445312 C 174.21875 208.496094 174.511719 208.566406 174.796875 208.652344 C 175.082031 208.738281 175.363281 208.84375 175.636719 208.964844 C 175.910156 209.085938 176.175781 209.222656 176.429688 209.378906 C 176.6875 209.53125 176.933594 209.699219 177.167969 209.882812 C 177.402344 210.066406 177.628906 210.265625 177.839844 210.476562 C 178.347656 210.988281 178.773438 211.5625 179.113281 212.195312 C 179.457031 212.832031 179.695312 213.503906 179.835938 214.214844 C 179.976562 214.921875 180.011719 215.632812 179.941406 216.351562 C 179.871094 217.070312 179.699219 217.761719 179.421875 218.429688 C 179.144531 219.097656 178.777344 219.707031 178.320312 220.265625 C 177.863281 220.824219 177.332031 221.304688 176.734375 221.703125 C 176.132812 222.105469 175.488281 222.410156 174.796875 222.617188 C 174.105469 222.828125 173.398438 222.929688 172.679688 222.929688 Z M 172.679688 209.945312 C 172.242188 209.941406 171.808594 209.992188 171.382812 210.089844 C 170.957031 210.1875 170.550781 210.335938 170.15625 210.527344 C 169.765625 210.71875 169.398438 210.953125 169.0625 211.230469 C 168.722656 211.507812 168.421875 211.816406 168.15625 212.164062 C 167.886719 212.511719 167.664062 212.882812 167.484375 213.28125 C 167.300781 213.675781 167.167969 214.089844 167.082031 214.519531 C 166.996094 214.945312 166.960938 215.378906 166.976562 215.816406 C 166.988281 216.253906 167.050781 216.683594 167.164062 217.105469 C 167.277344 217.527344 167.4375 217.929688 167.640625 218.316406 C 167.847656 218.703125 168.09375 219.058594 168.382812 219.386719 C 168.667969 219.714844 168.992188 220.007812 169.34375 220.261719 C 169.699219 220.519531 170.078125 220.730469 170.484375 220.894531 C 170.886719 221.0625 171.304688 221.183594 171.734375 221.253906 C 172.164062 221.324219 172.597656 221.347656 173.035156 221.320312 C 173.472656 221.289062 173.898438 221.214844 174.316406 221.085938 C 174.734375 220.960938 175.132812 220.789062 175.511719 220.570312 C 175.890625 220.351562 176.238281 220.09375 176.558594 219.792969 C 176.875 219.496094 177.15625 219.164062 177.398438 218.800781 C 177.640625 218.4375 177.839844 218.050781 177.996094 217.640625 C 178.148438 217.234375 178.253906 216.8125 178.308594 216.378906 C 178.367188 215.945312 178.375 215.511719 178.332031 215.078125 C 178.289062 214.640625 178.195312 214.21875 178.054688 213.804688 C 177.914062 213.390625 177.730469 213 177.496094 212.628906 C 177.265625 212.257812 176.996094 211.917969 176.6875 211.609375 C 176.15625 211.078125 175.542969 210.667969 174.847656 210.378906 C 174.152344 210.089844 173.429688 209.945312 172.679688 209.945312 Z M 172.679688 209.945312 " fill-opacity="1" fill-rule="nonzero"/><path fill="#1c7c7d" d="M 183.023438 226.785156 C 182.800781 226.78125 182.613281 226.703125 182.457031 226.546875 L 176.703125 220.796875 C 176.546875 220.640625 176.46875 220.453125 176.46875 220.230469 C 176.46875 220.007812 176.546875 219.820312 176.703125 219.664062 C 176.859375 219.507812 177.050781 219.429688 177.269531 219.429688 C 177.492188 219.429688 177.683594 219.507812 177.839844 219.664062 L 183.585938 225.417969 C 183.839844 225.667969 183.894531 225.960938 183.761719 226.289062 C 183.625 226.617188 183.378906 226.78125 183.023438 226.785156 Z M 183.023438 226.785156 " fill-opacity="1" fill-rule="nonzero"/><g clip-path="url(#2407ba6c41)"><path fill="#1c7c7d" d="M 191.933594 222.929688 C 191.632812 222.929688 191.335938 222.914062 191.039062 222.875 C 190.742188 222.839844 190.449219 222.785156 190.160156 222.710938 C 189.867188 222.640625 189.585938 222.550781 189.304688 222.441406 C 189.027344 222.335938 188.753906 222.210938 188.492188 222.070312 C 188.226562 221.929688 187.972656 221.773438 187.730469 221.601562 C 187.484375 221.429688 187.25 221.242188 187.03125 221.042969 C 186.808594 220.839844 186.601562 220.628906 186.40625 220.402344 C 186.210938 220.175781 186.027344 219.9375 185.863281 219.6875 C 185.695312 219.441406 185.546875 219.183594 185.410156 218.914062 C 185.277344 218.648438 185.160156 218.375 185.058594 218.09375 C 184.957031 217.8125 184.875 217.523438 184.808594 217.234375 C 184.742188 216.941406 184.695312 216.648438 184.667969 216.347656 C 184.636719 216.050781 184.625 215.753906 184.632812 215.453125 C 184.640625 215.15625 184.667969 214.859375 184.710938 214.5625 C 184.753906 214.265625 184.816406 213.976562 184.894531 213.6875 C 184.976562 213.398438 185.074219 213.117188 185.1875 212.839844 C 185.300781 212.5625 185.433594 212.296875 185.582031 212.035156 C 185.726562 211.777344 185.890625 211.527344 186.070312 211.285156 C 186.246094 211.046875 186.4375 210.816406 186.644531 210.601562 C 186.851562 210.382812 187.070312 210.179688 187.300781 209.992188 C 187.53125 209.800781 187.773438 209.628906 188.027344 209.46875 C 188.28125 209.308594 188.539062 209.164062 188.8125 209.035156 C 189.082031 208.910156 189.359375 208.796875 189.640625 208.703125 C 189.925781 208.609375 190.214844 208.535156 190.507812 208.476562 C 190.800781 208.417969 191.097656 208.378906 191.394531 208.355469 C 191.695312 208.335938 191.992188 208.332031 192.289062 208.34375 C 192.589844 208.359375 192.886719 208.394531 193.179688 208.445312 C 193.476562 208.496094 193.765625 208.566406 194.050781 208.652344 C 194.335938 208.738281 194.617188 208.84375 194.890625 208.964844 C 195.164062 209.085938 195.429688 209.222656 195.683594 209.378906 C 195.941406 209.53125 196.1875 209.699219 196.421875 209.882812 C 196.65625 210.066406 196.882812 210.265625 197.09375 210.476562 C 197.601562 210.988281 198.027344 211.5625 198.367188 212.195312 C 198.710938 212.832031 198.949219 213.503906 199.089844 214.214844 C 199.230469 214.921875 199.265625 215.632812 199.195312 216.351562 C 199.125 217.070312 198.953125 217.761719 198.675781 218.429688 C 198.398438 219.097656 198.03125 219.707031 197.574219 220.265625 C 197.117188 220.824219 196.585938 221.304688 195.988281 221.703125 C 195.386719 222.105469 194.742188 222.410156 194.050781 222.617188 C 193.359375 222.828125 192.652344 222.929688 191.933594 222.929688 Z M 191.933594 209.945312 C 191.496094 209.941406 191.0625 209.992188 190.636719 210.089844 C 190.210938 210.1875 189.804688 210.335938 189.410156 210.527344 C 189.019531 210.71875 188.652344 210.953125 188.316406 211.230469 C 187.976562 211.507812 187.675781 211.816406 187.410156 212.164062 C 187.140625 212.511719 186.917969 212.882812 186.738281 213.28125 C 186.554688 213.675781 186.421875 214.089844 186.335938 214.519531 C 186.25 214.945312 186.214844 215.378906 186.230469 215.816406 C 186.242188 216.253906 186.304688 216.683594 186.417969 217.105469 C 186.53125 217.527344 186.691406 217.929688 186.894531 218.316406 C 187.101562 218.703125 187.347656 219.058594 187.636719 219.386719 C 187.921875 219.714844 188.246094 220.007812 188.597656 220.261719 C 188.953125 220.519531 189.332031 220.730469 189.738281 220.894531 C 190.140625 221.0625 190.558594 221.183594 190.988281 221.253906 C 191.421875 221.324219 191.855469 221.347656 192.289062 221.320312 C 192.726562 221.289062 193.152344 221.214844 193.570312 221.085938 C 193.988281 220.960938 194.386719 220.789062 194.765625 220.570312 C 195.144531 220.351562 195.492188 220.09375 195.8125 219.792969 C 196.128906 219.496094 196.410156 219.164062 196.652344 218.800781 C 196.894531 218.4375 197.09375 218.050781 197.25 217.640625 C 197.402344 217.234375 197.507812 216.8125 197.566406 216.378906 C 197.621094 215.945312 197.628906 215.511719 197.585938 215.078125 C 197.542969 214.640625 197.449219 214.21875 197.308594 213.804688 C 197.167969 213.390625 196.984375 213 196.753906 212.628906 C 196.519531 212.257812 196.25 211.917969 195.941406 211.609375 C 195.410156 211.078125 194.796875 210.667969 194.101562 210.378906 C 193.40625 210.089844 192.683594 209.945312 191.933594 209.945312 Z M 191.933594 209.945312 " fill-opacity="1" fill-rule="nonzero"/></g><g clip-path="url(#68a8079b72)"><path fill="#1c7c7d" d="M 202.277344 226.785156 C 202.054688 226.78125 201.867188 226.703125 201.710938 226.546875 L 195.957031 220.796875 C 195.800781 220.640625 195.722656 220.453125 195.722656 220.230469 C 195.722656 220.007812 195.800781 219.820312 195.957031 219.664062 C 196.113281 219.507812 196.304688 219.429688 196.523438 219.429688 C 196.746094 219.429688 196.9375 219.507812 197.09375 219.664062 L 202.84375 225.417969 C 203.09375 225.667969 203.148438 225.960938 203.015625 226.289062 C 202.878906 226.617188 202.632812 226.78125 202.277344 226.785156 Z M 202.277344 226.785156 " fill-opacity="1" fill-rule="nonzero"/></g><g fill="#1c7c7d" fill-opacity="1"><g transform="translate(148.549903, 225.471415)"><g><path d="M 2.140625 0 L 2.140625 -17.09375 L 13.359375 -17.09375 L 13.359375 -15.609375 L 3.828125 -15.609375 L 3.828125 -9.3125 L 11.875 -9.3125 L 11.875 -7.921875 L 3.828125 -7.921875 L 3.828125 0 Z M 2.140625 0 "/></g></g></g><g fill="#1c7c7d" fill-opacity="1"><g transform="translate(205.578228, 225.471415)"><g><path d="M 2.140625 0 L 2.140625 -17.09375 L 7.953125 -17.09375 C 9.765625 -17.09375 11.273438 -16.710938 12.484375 -15.953125 C 13.691406 -15.191406 14.597656 -14.164062 15.203125 -12.875 C 15.816406 -11.582031 16.125 -10.148438 16.125 -8.578125 C 16.125 -6.835938 15.789062 -5.328125 15.125 -4.046875 C 14.46875 -2.765625 13.523438 -1.769531 12.296875 -1.0625 C 11.066406 -0.351562 9.617188 0 7.953125 0 Z M 14.453125 -8.578125 C 14.453125 -9.941406 14.195312 -11.148438 13.6875 -12.203125 C 13.1875 -13.265625 12.453125 -14.097656 11.484375 -14.703125 C 10.523438 -15.304688 9.347656 -15.609375 7.953125 -15.609375 L 3.828125 -15.609375 L 3.828125 -1.5 L 7.953125 -1.5 C 9.359375 -1.5 10.539062 -1.8125 11.5 -2.4375 C 12.46875 -3.0625 13.203125 -3.90625 13.703125 -4.96875 C 14.203125 -6.039062 14.453125 -7.242188 14.453125 -8.578125 Z M 14.453125 -8.578125 "/></g></g></g><g fill="#ffa724" fill-opacity="1"><g transform="translate(148.698627, 249.126135)"><g><path d="M 1.78125 0 L 1.78125 -17.09375 L 5.109375 -17.09375 L 5.109375 -2.90625 L 13.828125 -2.90625 L 13.828125 0 Z M 1.78125 0 "/></g></g></g><g fill="#ffa724" fill-opacity="1"><g transform="translate(167.571238, 249.126135)"><g><path d="M 13.65625 -2.90625 L 13.65625 0 L 1.78125 0 L 1.78125 -17.09375 L 13.4375 -17.09375 L 13.4375 -14.1875 L 5.109375 -14.1875 L 5.109375 -10.0625 L 12.296875 -10.0625 L 12.296875 -7.375 L 5.109375 -7.375 L 5.109375 -2.90625 Z M 13.65625 -2.90625 "/></g></g></g><g fill="#ffa724" fill-opacity="1"><g transform="translate(186.853043, 249.126135)"><g><path d="M 5.109375 -10.984375 L 5.109375 0 L 1.78125 0 L 1.78125 -17.09375 L 4.4375 -17.09375 L 13.265625 -5.828125 L 13.265625 -17.078125 L 16.59375 -17.078125 L 16.59375 0 L 13.828125 0 Z M 5.109375 -10.984375 "/></g></g></g><g fill="#ffa724" fill-opacity="1"><g transform="translate(210.034251, 249.126135)"><g><path d="M 11.96875 -12.609375 C 11.851562 -12.722656 11.644531 -12.875 11.34375 -13.0625 C 11.050781 -13.257812 10.691406 -13.445312 10.265625 -13.625 C 9.835938 -13.800781 9.375 -13.957031 8.875 -14.09375 C 8.382812 -14.226562 7.882812 -14.296875 7.375 -14.296875 C 6.46875 -14.296875 5.785156 -14.128906 5.328125 -13.796875 C 4.867188 -13.460938 4.640625 -12.988281 4.640625 -12.375 C 4.640625 -11.90625 4.785156 -11.535156 5.078125 -11.265625 C 5.367188 -10.992188 5.800781 -10.757812 6.375 -10.5625 C 6.957031 -10.375 7.679688 -10.164062 8.546875 -9.9375 C 9.671875 -9.664062 10.644531 -9.332031 11.46875 -8.9375 C 12.300781 -8.550781 12.9375 -8.039062 13.375 -7.40625 C 13.8125 -6.769531 14.03125 -5.929688 14.03125 -4.890625 C 14.03125 -3.972656 13.863281 -3.1875 13.53125 -2.53125 C 13.195312 -1.882812 12.734375 -1.359375 12.140625 -0.953125 C 11.546875 -0.554688 10.867188 -0.265625 10.109375 -0.078125 C 9.359375 0.0976562 8.554688 0.1875 7.703125 0.1875 C 6.847656 0.1875 5.992188 0.0976562 5.140625 -0.078125 C 4.296875 -0.253906 3.476562 -0.503906 2.6875 -0.828125 C 1.90625 -1.160156 1.1875 -1.554688 0.53125 -2.015625 L 2 -4.890625 C 2.144531 -4.742188 2.398438 -4.550781 2.765625 -4.3125 C 3.140625 -4.082031 3.585938 -3.851562 4.109375 -3.625 C 4.640625 -3.394531 5.21875 -3.195312 5.84375 -3.03125 C 6.476562 -2.875 7.113281 -2.796875 7.75 -2.796875 C 8.644531 -2.796875 9.328125 -2.945312 9.796875 -3.25 C 10.265625 -3.550781 10.5 -3.984375 10.5 -4.546875 C 10.5 -5.066406 10.3125 -5.46875 9.9375 -5.75 C 9.570312 -6.039062 9.0625 -6.296875 8.40625 -6.515625 C 7.75 -6.734375 6.96875 -6.96875 6.0625 -7.21875 C 4.988281 -7.53125 4.085938 -7.875 3.359375 -8.25 C 2.640625 -8.625 2.101562 -9.097656 1.75 -9.671875 C 1.40625 -10.253906 1.234375 -10.976562 1.234375 -11.84375 C 1.234375 -13.019531 1.507812 -14.003906 2.0625 -14.796875 C 2.613281 -15.585938 3.363281 -16.1875 4.3125 -16.59375 C 5.257812 -17.007812 6.3125 -17.21875 7.46875 -17.21875 C 8.269531 -17.21875 9.023438 -17.128906 9.734375 -16.953125 C 10.453125 -16.773438 11.125 -16.539062 11.75 -16.25 C 12.375 -15.957031 12.9375 -15.644531 13.4375 -15.3125 Z M 11.96875 -12.609375 "/></g></g></g></svg>