<svg xmlns="http://www.w3.org/2000/svg" xmlns:xlink="http://www.w3.org/1999/xlink" width="500" zoomAndPan="magnify" viewBox="0 0 375 374.999991" height="500" preserveAspectRatio="xMidYMid meet" version="1.0"><defs><clipPath id="5de46650d9"><path d="M 1.390625 0.542969 L 74.1875 0.542969 L 74.1875 57.515625 L 1.390625 57.515625 Z M 1.390625 0.542969 " clip-rule="nonzero"/></clipPath><clipPath id="6a268b98a6"><path d="M 0.9375 0.574219 L 73.1875 0.574219 L 73.1875 57.484375 L 0.9375 57.484375 Z M 0.9375 0.574219 " clip-rule="nonzero"/></clipPath><clipPath id="5a22c109aa"><rect x="0" width="74" y="0" height="58"/></clipPath><clipPath id="e91ec5ef8f"><path d="M 61.65625 44.839844 L 265.496094 44.839844 L 265.496094 237.902344 L 61.65625 237.902344 Z M 61.65625 44.839844 " clip-rule="nonzero"/></clipPath><clipPath id="bdae805be6"><path d="M 27.691406 5.292969 L 369 5.292969 L 369 355 L 27.691406 355 Z M 27.691406 5.292969 " clip-rule="nonzero"/></clipPath><clipPath id="7efefdc544"><rect x="0" width="369" y="0" height="356"/></clipPath></defs><g transform="matrix(1, 0, 0, 1, 6, 10)"><g clip-path="url(#7efefdc544)"><g clip-path="url(#5de46650d9)"><g transform="matrix(1, 0, 0, 1, 1, 0)"><g clip-path="url(#5a22c109aa)"><g clip-path="url(#6a268b98a6)"><path fill="#08af0f" d="M 5.59375 20.898438 C 14.820312 37.832031 32.828125 42.914062 34.605469 43.386719 C 48.382812 47.046875 59.664062 43.527344 65.050781 41.28125 C 66.332031 43.722656 67.40625 46.320312 68.257812 49.042969 C 69.128906 51.800781 69.761719 54.632812 70.125 57.484375 L 73.730469 56.90625 C 71.054688 41.84375 61.375 27.589844 47.097656 21.953125 C 43.113281 20.316406 38.925781 19.410156 34.695312 18.820312 C 30.160156 18.152344 25.515625 18.125 20.980469 18.75 C 20.96875 18.753906 20.957031 18.753906 20.945312 18.753906 C 25.449219 18.128906 31.445312 17.34375 36.066406 18.007812 C 40.347656 18.585938 44.613281 19.476562 48.742188 21.089844 C 55.804688 23.746094 61.683594 28.527344 66.328125 34.417969 C 65.988281 32.527344 65.511719 30.660156 64.886719 28.84375 C 62.285156 21.273438 58.371094 17.503906 56.164062 15.75 C 44.929688 6.824219 24.921875 8.035156 23.160156 8.160156 C 20.871094 8.324219 17.929688 8.691406 14.113281 7.621094 C 6.359375 5.4375 1.601562 0.574219 1.601562 0.574219 C 0.242188 1.386719 0.683594 11.882812 5.59375 20.898438 " fill-opacity="1" fill-rule="nonzero"/></g></g></g></g><g clip-path="url(#e91ec5ef8f)"><path fill="#ff8811" d="M 163.574219 231.574219 C 110.976562 231.574219 68.339844 191.191406 68.339844 141.375 C 68.339844 91.554688 110.976562 51.171875 163.574219 51.171875 C 216.171875 51.171875 258.8125 91.554688 258.8125 141.375 C 258.8125 191.191406 216.171875 231.574219 163.574219 231.574219 Z M 163.574219 44.839844 C 107.285156 44.839844 61.65625 88.058594 61.65625 141.375 C 61.65625 194.6875 107.285156 237.90625 163.574219 237.90625 C 219.863281 237.90625 265.492188 194.6875 265.492188 141.375 C 265.492188 88.058594 219.863281 44.839844 163.574219 44.839844 " fill-opacity="1" fill-rule="nonzero"/></g><path fill="#ffecbb" d="M 234.410156 170.269531 L 178.253906 144.808594 C 175.175781 143.019531 173.933594 142.175781 173.382812 139.679688 C 172.902344 137.484375 174.8125 136.148438 177.445312 135.308594 C 177.742188 135.214844 238.625 113.855469 238.625 113.855469 C 240.992188 113.070312 243.617188 114.109375 244.796875 116.351562 C 253.652344 133.160156 253.324219 153.75 245.035156 167.25 C 242.898438 170.738281 238.296875 172.03125 234.410156 170.269531 Z M 236.953125 184.46875 C 233.382812 199.621094 222.738281 208.96875 207.195312 214.308594 C 204.507812 215.230469 198.953125 214.164062 197.625 211.753906 C 197.625 211.753906 170.300781 154.132812 169.574219 150.5625 C 168.8125 146.847656 171.351562 145.144531 173.71875 145.289062 C 177.195312 145.507812 187.691406 152.035156 189.671875 153.296875 C 191.394531 154.386719 234 175.542969 235.632812 176.539062 C 237.714844 177.808594 237.527344 182.042969 236.953125 184.46875 Z M 181.917969 222.050781 C 169.40625 226.933594 154.367188 226.046875 144.433594 221.21875 C 141.144531 219.621094 136.019531 215.394531 137.175781 211.972656 L 156.914062 161.570312 C 157.253906 160.558594 158.929688 156.386719 159.34375 155.402344 C 161.9375 149.195312 165.136719 144.585938 169.40625 156.589844 C 169.90625 158.003906 170.832031 160.671875 171.238281 162.117188 L 188.277344 213.171875 C 189.242188 216.605469 185.289062 220.738281 181.917969 222.050781 Z M 122.089844 211.972656 C 106.519531 205.703125 95.6875 195.929688 91.695312 181.082031 C 91.058594 178.703125 91.960938 176.394531 93.992188 175.320312 C 95.585938 174.484375 97.175781 173.648438 98.765625 172.8125 C 103.171875 170.496094 147.117188 149.984375 153.21875 147.945312 C 158.277344 146.25 159.359375 149.3125 157.785156 153.535156 C 156.300781 157.527344 130.921875 210.023438 130.921875 210.023438 C 129.675781 212.25 124.785156 213.054688 122.089844 211.972656 Z M 84.117188 167.542969 C 75.925781 154.691406 75.632812 138.078125 84.097656 122.828125 C 85.410156 120.464844 88.558594 119.71875 91.109375 120.371094 L 149.484375 136.996094 C 152.417969 138.417969 154.039062 139.132812 154.371094 141.21875 C 154.757812 143.613281 152.710938 144.9375 149.695312 146.617188 L 94.308594 169.632812 C 90.496094 171.28125 86.25 170.890625 84.117188 167.542969 Z M 89.039062 103.429688 C 92.425781 89.054688 107.796875 78.09375 116.214844 72.734375 C 119.203125 70.835938 125.53125 71.207031 127.320312 74.261719 L 155.789062 127.546875 C 161.265625 136.894531 153.570312 135.433594 149.820312 134.8125 C 145.519531 134.101562 110.074219 121.890625 96.683594 116.910156 C 92.378906 115.308594 87.074219 111.773438 89.039062 103.429688 Z M 139.628906 62.132812 C 150.109375 57.078125 166.167969 55.699219 179.710938 60.035156 C 183.355469 61.199219 186.59375 65.132812 185.675781 68.523438 L 170.167969 118.898438 C 169.777344 120.324219 168.871094 122.960938 168.378906 124.359375 C 164.1875 136.222656 160.617188 131.832031 157.648438 125.863281 C 157.179688 124.914062 155.253906 120.902344 154.855469 119.925781 L 133.863281 71.34375 C 132.515625 68.042969 136.160156 63.804688 139.628906 62.132812 Z M 205.945312 68.171875 C 220.644531 71.3125 229.898438 81.390625 235.386719 96.285156 C 236.335938 98.855469 236.578125 105.679688 234.28125 107.003906 C 234.28125 107.003906 178.148438 133.074219 174.714844 133.851562 C 171.152344 134.65625 169.449219 132.242188 169.539062 129.957031 C 169.671875 126.59375 174.445312 116.964844 175.617188 115.027344 C 176.628906 113.347656 195.589844 72.355469 196.511719 70.761719 C 197.691406 68.722656 203.589844 67.667969 205.945312 68.171875 Z M 163.574219 51.171875 C 110.976562 51.171875 68.339844 91.554688 68.339844 141.375 C 68.339844 191.191406 110.976562 231.574219 163.574219 231.574219 C 216.171875 231.574219 258.8125 191.191406 258.8125 141.375 C 258.8125 91.554688 216.171875 51.171875 163.574219 51.171875 " fill-opacity="1" fill-rule="nonzero"/><path fill="#ffa724" d="M 149.820312 134.8125 C 145.519531 134.101562 110.074219 121.890625 96.683594 116.910156 C 92.378906 115.308594 87.074219 111.773438 89.039062 103.429688 C 92.425781 89.054688 107.796875 78.09375 116.214844 72.734375 C 119.203125 70.835938 125.53125 71.207031 127.320312 74.261719 L 155.789062 127.546875 C 161.265625 136.894531 153.570312 135.433594 149.820312 134.8125 " fill-opacity="1" fill-rule="nonzero"/><path fill="#ffa724" d="M 157.785156 153.535156 C 156.300781 157.527344 130.921875 210.023438 130.921875 210.023438 C 129.675781 212.25 124.785156 213.054688 122.089844 211.972656 C 106.519531 205.703125 95.6875 195.929688 91.695312 181.082031 C 91.058594 178.703125 91.960938 176.394531 93.992188 175.320312 C 95.585938 174.484375 97.175781 173.648438 98.765625 172.8125 C 103.171875 170.496094 147.117188 149.984375 153.21875 147.945312 C 158.277344 146.25 159.359375 149.3125 157.785156 153.535156 " fill-opacity="1" fill-rule="nonzero"/><path fill="#ffa724" d="M 181.917969 222.050781 C 169.40625 226.933594 154.367188 226.046875 144.433594 221.21875 C 141.144531 219.621094 136.019531 215.394531 137.175781 211.972656 L 156.914062 161.570312 C 157.253906 160.558594 158.929688 156.386719 159.34375 155.402344 C 161.9375 149.195312 165.136719 144.585938 169.40625 156.589844 C 169.90625 158.003906 170.832031 160.671875 171.238281 162.117188 L 188.277344 213.171875 C 189.242188 216.605469 185.289062 220.738281 181.917969 222.050781 " fill-opacity="1" fill-rule="nonzero"/><path fill="#ffa724" d="M 236.953125 184.46875 C 233.382812 199.621094 222.738281 208.96875 207.195312 214.308594 C 204.507812 215.230469 198.953125 214.164062 197.625 211.753906 C 197.625 211.753906 170.300781 154.132812 169.574219 150.5625 C 168.8125 146.847656 171.351562 145.144531 173.71875 145.289062 C 177.195312 145.507812 187.691406 152.035156 189.671875 153.296875 C 191.394531 154.386719 234 175.542969 235.632812 176.539062 C 237.714844 177.808594 237.527344 182.042969 236.953125 184.46875 " fill-opacity="1" fill-rule="nonzero"/><path fill="#ffa724" d="M 245.035156 167.25 C 242.898438 170.738281 238.296875 172.03125 234.410156 170.269531 L 178.253906 144.808594 C 175.175781 143.019531 173.933594 142.175781 173.382812 139.679688 C 172.902344 137.484375 174.8125 136.148438 177.445312 135.308594 C 177.742188 135.214844 238.625 113.855469 238.625 113.855469 C 240.992188 113.070312 243.617188 114.109375 244.796875 116.351562 C 253.652344 133.160156 253.324219 153.75 245.035156 167.25 " fill-opacity="1" fill-rule="nonzero"/><path fill="#ffa724" d="M 149.695312 146.617188 L 94.308594 169.632812 C 90.496094 171.28125 86.25 170.890625 84.117188 167.542969 C 75.925781 154.691406 75.632812 138.078125 84.097656 122.828125 C 85.410156 120.464844 88.558594 119.71875 91.109375 120.371094 L 149.484375 136.996094 C 152.417969 138.417969 154.039062 139.132812 154.371094 141.21875 C 154.757812 143.613281 152.710938 144.9375 149.695312 146.617188 " fill-opacity="1" fill-rule="nonzero"/><path fill="#ffa724" d="M 185.675781 68.523438 L 170.167969 118.898438 C 169.777344 120.324219 168.871094 122.960938 168.378906 124.359375 C 164.1875 136.222656 160.617188 131.832031 157.648438 125.863281 C 157.179688 124.914062 155.253906 120.902344 154.855469 119.925781 L 133.863281 71.34375 C 132.515625 68.042969 136.160156 63.804688 139.628906 62.132812 C 150.109375 57.078125 166.167969 55.699219 179.710938 60.035156 C 183.355469 61.199219 186.59375 65.132812 185.675781 68.523438 " fill-opacity="1" fill-rule="nonzero"/><path fill="#ffa724" d="M 234.28125 107.003906 C 234.28125 107.003906 178.148438 133.074219 174.714844 133.851562 C 171.152344 134.65625 169.449219 132.242188 169.539062 129.957031 C 169.671875 126.59375 174.445312 116.964844 175.617188 115.027344 C 176.628906 113.347656 195.589844 72.355469 196.511719 70.761719 C 197.691406 68.722656 203.589844 67.667969 205.945312 68.171875 C 220.644531 71.3125 229.898438 81.390625 235.386719 96.285156 C 236.335938 98.855469 236.578125 105.679688 234.28125 107.003906 " fill-opacity="1" fill-rule="nonzero"/><g clip-path="url(#bdae805be6)"><path fill="#1c7c7d" d="M 162.949219 5.292969 C 88.367188 5.292969 27.738281 65.921875 27.738281 140.503906 C 27.738281 215.085938 88.367188 275.714844 162.949219 275.714844 C 192.476562 275.714844 219.730469 266.097656 241.988281 249.988281 L 346.566406 354.566406 L 369.058594 332.074219 L 265.445312 228.457031 C 285.78125 204.792969 298.160156 174.097656 298.160156 140.503906 C 298.160156 65.921875 237.53125 5.292969 162.949219 5.292969 Z M 162.949219 21.199219 C 228.933594 21.199219 282.253906 74.519531 282.253906 140.503906 C 282.253906 206.488281 228.933594 259.808594 162.949219 259.808594 C 96.964844 259.808594 43.644531 206.488281 43.644531 140.503906 C 43.644531 74.519531 96.964844 21.199219 162.949219 21.199219 Z M 162.949219 21.199219 " fill-opacity="1" fill-rule="nonzero"/></g></g></g></svg>