<svg xmlns="http://www.w3.org/2000/svg" xmlns:xlink="http://www.w3.org/1999/xlink" width="500" zoomAndPan="magnify" viewBox="0 0 375 374.999991" height="500" preserveAspectRatio="xMidYMid meet" version="1.0"><defs><g/><clipPath id="d4e75a2b35"><path d="M 100.4375 100.4375 L 274.5625 100.4375 L 274.5625 274.5625 L 100.4375 274.5625 Z M 100.4375 100.4375 " clip-rule="nonzero"/></clipPath><clipPath id="0551e772a5"><path d="M 187.5 100.4375 C 139.417969 100.4375 100.4375 139.417969 100.4375 187.5 C 100.4375 235.582031 139.417969 274.5625 187.5 274.5625 C 235.582031 274.5625 274.5625 235.582031 274.5625 187.5 C 274.5625 139.417969 235.582031 100.4375 187.5 100.4375 Z M 187.5 100.4375 " clip-rule="nonzero"/></clipPath><clipPath id="f15519d963"><path d="M 0.4375 0.4375 L 174.5625 0.4375 L 174.5625 174.5625 L 0.4375 174.5625 Z M 0.4375 0.4375 " clip-rule="nonzero"/></clipPath><clipPath id="0bef57d040"><path d="M 87.5 0.4375 C 39.417969 0.4375 0.4375 39.417969 0.4375 87.5 C 0.4375 135.582031 39.417969 174.5625 87.5 174.5625 C 135.582031 174.5625 174.5625 135.582031 174.5625 87.5 C 174.5625 39.417969 135.582031 0.4375 87.5 0.4375 Z M 87.5 0.4375 " clip-rule="nonzero"/></clipPath><clipPath id="b170f44b12"><rect x="0" width="175" y="0" height="175"/></clipPath><clipPath id="d1be4f7ceb"><path d="M 202 115 L 208 115 L 208 119 L 202 119 Z M 202 115 " clip-rule="nonzero"/></clipPath><clipPath id="173488c00b"><path d="M 209.308594 100.441406 L 249.335938 162.082031 L 165.675781 216.410156 L 125.648438 154.765625 Z M 209.308594 100.441406 " clip-rule="nonzero"/></clipPath><clipPath id="b92f666269"><path d="M 209.308594 100.441406 L 249.335938 162.082031 L 165.675781 216.410156 L 125.648438 154.765625 Z M 209.308594 100.441406 " clip-rule="nonzero"/></clipPath><clipPath id="6588a87cba"><path d="M 205 118 L 210 118 L 210 123 L 205 123 Z M 205 118 " clip-rule="nonzero"/></clipPath><clipPath id="4455cfccf4"><path d="M 209.308594 100.441406 L 249.335938 162.082031 L 165.675781 216.410156 L 125.648438 154.765625 Z M 209.308594 100.441406 " clip-rule="nonzero"/></clipPath><clipPath id="d950892afd"><path d="M 209.308594 100.441406 L 249.335938 162.082031 L 165.675781 216.410156 L 125.648438 154.765625 Z M 209.308594 100.441406 " clip-rule="nonzero"/></clipPath><clipPath id="7f55a76d98"><path d="M 150 118 L 196 118 L 196 147 L 150 147 Z M 150 118 " clip-rule="nonzero"/></clipPath><clipPath id="29e34b08ec"><path d="M 209.308594 100.441406 L 249.335938 162.082031 L 165.675781 216.410156 L 125.648438 154.765625 Z M 209.308594 100.441406 " clip-rule="nonzero"/></clipPath><clipPath id="7479da928e"><path d="M 209.308594 100.441406 L 249.335938 162.082031 L 165.675781 216.410156 L 125.648438 154.765625 Z M 209.308594 100.441406 " clip-rule="nonzero"/></clipPath><clipPath id="66e4b5f3fe"><path d="M 154 128 L 202 128 L 202 150 L 154 150 Z M 154 128 " clip-rule="nonzero"/></clipPath><clipPath id="06d1c1b938"><path d="M 209.308594 100.441406 L 249.335938 162.082031 L 165.675781 216.410156 L 125.648438 154.765625 Z M 209.308594 100.441406 " clip-rule="nonzero"/></clipPath><clipPath id="615b1ec00c"><path d="M 209.308594 100.441406 L 249.335938 162.082031 L 165.675781 216.410156 L 125.648438 154.765625 Z M 209.308594 100.441406 " clip-rule="nonzero"/></clipPath><clipPath id="537a215519"><path d="M 128 110 L 241 110 L 241 216 L 128 216 Z M 128 110 " clip-rule="nonzero"/></clipPath><clipPath id="94896eff31"><path d="M 209.308594 100.441406 L 249.335938 162.082031 L 165.675781 216.410156 L 125.648438 154.765625 Z M 209.308594 100.441406 " clip-rule="nonzero"/></clipPath><clipPath id="26121f21ef"><path d="M 209.308594 100.441406 L 249.335938 162.082031 L 165.675781 216.410156 L 125.648438 154.765625 Z M 209.308594 100.441406 " clip-rule="nonzero"/></clipPath><clipPath id="389b6a890c"><path d="M 209.332031 100.480469 L 249.359375 162.121094 L 165.660156 216.472656 L 125.632812 154.832031 Z M 209.332031 100.480469 " clip-rule="nonzero"/></clipPath><clipPath id="a24e4a6cf7"><path d="M 178 145 L 211 145 L 211 195 L 178 195 Z M 178 145 " clip-rule="nonzero"/></clipPath><clipPath id="9c312eb282"><path d="M 209.308594 100.441406 L 249.335938 162.082031 L 165.675781 216.410156 L 125.648438 154.765625 Z M 209.308594 100.441406 " clip-rule="nonzero"/></clipPath><clipPath id="71c6f0b7b1"><path d="M 209.308594 100.441406 L 249.335938 162.082031 L 165.675781 216.410156 L 125.648438 154.765625 Z M 209.308594 100.441406 " clip-rule="nonzero"/></clipPath><clipPath id="fb698978f1"><path d="M 183 152 L 223 152 L 223 197 L 183 197 Z M 183 152 " clip-rule="nonzero"/></clipPath><clipPath id="083370401c"><path d="M 209.308594 100.441406 L 249.335938 162.082031 L 165.675781 216.410156 L 125.648438 154.765625 Z M 209.308594 100.441406 " clip-rule="nonzero"/></clipPath><clipPath id="5659cd72cc"><path d="M 209.308594 100.441406 L 249.335938 162.082031 L 165.675781 216.410156 L 125.648438 154.765625 Z M 209.308594 100.441406 " clip-rule="nonzero"/></clipPath><clipPath id="f40cbecc78"><path d="M 214 135 L 220 135 L 220 139 L 214 139 Z M 214 135 " clip-rule="nonzero"/></clipPath><clipPath id="e2af18eb78"><path d="M 209.308594 100.441406 L 249.335938 162.082031 L 165.675781 216.410156 L 125.648438 154.765625 Z M 209.308594 100.441406 " clip-rule="nonzero"/></clipPath><clipPath id="3ee68525b2"><path d="M 209.308594 100.441406 L 249.335938 162.082031 L 165.675781 216.410156 L 125.648438 154.765625 Z M 209.308594 100.441406 " clip-rule="nonzero"/></clipPath><clipPath id="874e0ad63e"><path d="M 220 137 L 223 137 L 223 144 L 220 144 Z M 220 137 " clip-rule="nonzero"/></clipPath><clipPath id="bd3bc49d30"><path d="M 209.308594 100.441406 L 249.335938 162.082031 L 165.675781 216.410156 L 125.648438 154.765625 Z M 209.308594 100.441406 " clip-rule="nonzero"/></clipPath><clipPath id="de771bed4b"><path d="M 209.308594 100.441406 L 249.335938 162.082031 L 165.675781 216.410156 L 125.648438 154.765625 Z M 209.308594 100.441406 " clip-rule="nonzero"/></clipPath></defs><g clip-path="url(#d4e75a2b35)"><g clip-path="url(#0551e772a5)"><g transform="matrix(1, 0, 0, 1, 100, 100)"><g clip-path="url(#b170f44b12)"><g clip-path="url(#f15519d963)"><g clip-path="url(#0bef57d040)"><path fill="#85aa29" d="M 0.4375 0.4375 L 174.5625 0.4375 L 174.5625 174.5625 L 0.4375 174.5625 Z M 0.4375 0.4375 " fill-opacity="1" fill-rule="nonzero"/></g></g></g></g></g></g><g clip-path="url(#d1be4f7ceb)"><g clip-path="url(#173488c00b)"><g clip-path="url(#b92f666269)"><path fill="#ffffff" d="M 202.695312 117.167969 C 202.792969 117.316406 202.941406 117.433594 203.121094 117.492188 C 204.996094 118.089844 206.730469 118.121094 206.804688 118.121094 C 207.238281 118.125 207.601562 117.777344 207.605469 117.339844 C 207.613281 116.902344 207.261719 116.542969 206.824219 116.535156 C 206.808594 116.535156 205.246094 116.507812 203.601562 115.984375 C 203.183594 115.851562 202.738281 116.078125 202.605469 116.496094 C 202.53125 116.734375 202.570312 116.976562 202.695312 117.167969 " fill-opacity="1" fill-rule="nonzero"/></g></g></g><g clip-path="url(#6588a87cba)"><g clip-path="url(#4455cfccf4)"><g clip-path="url(#d950892afd)"><path fill="#ffffff" d="M 206.019531 121.484375 C 205.863281 121.753906 205.882812 122.074219 206.039062 122.316406 C 206.105469 122.417969 206.191406 122.503906 206.304688 122.570312 C 206.679688 122.789062 207.164062 122.664062 207.386719 122.289062 C 207.757812 121.65625 208.753906 120.429688 209.105469 120.007812 C 209.390625 119.671875 209.34375 119.175781 209.007812 118.894531 C 208.671875 118.609375 208.175781 118.65625 207.894531 118.988281 C 207.839844 119.058594 206.535156 120.613281 206.019531 121.484375 " fill-opacity="1" fill-rule="nonzero"/></g></g></g><g clip-path="url(#7f55a76d98)"><g clip-path="url(#29e34b08ec)"><g clip-path="url(#7479da928e)"><path fill="#ffffff" d="M 191.921875 122.546875 C 193.007812 121.53125 193.949219 120.652344 194.882812 119.875 C 195.21875 119.589844 195.265625 119.09375 194.984375 118.757812 C 194.703125 118.421875 194.207031 118.375 193.867188 118.65625 C 192.898438 119.46875 191.902344 120.398438 190.839844 121.386719 C 185.144531 126.703125 176.539062 134.738281 150.90625 144.5625 C 150.5 144.71875 150.292969 145.175781 150.449219 145.585938 C 150.472656 145.636719 150.5 145.6875 150.527344 145.734375 C 150.726562 146.042969 151.117188 146.179688 151.476562 146.039062 C 177.394531 136.105469 186.136719 127.945312 191.921875 122.546875 " fill-opacity="1" fill-rule="nonzero"/></g></g></g><g clip-path="url(#66e4b5f3fe)"><g clip-path="url(#06d1c1b938)"><g clip-path="url(#615b1ec00c)"><path fill="#ffffff" d="M 200.976562 128.527344 C 197.183594 128.160156 192.574219 131.03125 186.742188 134.667969 C 178.679688 139.691406 168.648438 145.941406 155.070312 147.945312 C 154.640625 148.007812 154.339844 148.410156 154.402344 148.84375 C 154.417969 148.960938 154.460938 149.066406 154.523438 149.160156 C 154.6875 149.410156 154.984375 149.558594 155.300781 149.511719 C 169.207031 147.460938 179.824219 140.839844 187.582031 136.011719 C 193.15625 132.535156 197.566406 129.789062 200.824219 130.105469 C 201.261719 130.144531 201.648438 129.824219 201.6875 129.386719 C 201.730469 128.953125 201.414062 128.566406 200.976562 128.527344 " fill-opacity="1" fill-rule="nonzero"/></g></g></g><g clip-path="url(#537a215519)"><g clip-path="url(#94896eff31)"><g clip-path="url(#26121f21ef)"><g clip-path="url(#389b6a890c)"><path fill="#ffffff" d="M 165.621094 213.484375 C 165.375 213.253906 165.414062 212.425781 166.324219 211.316406 C 166.84375 210.652344 167.40625 209.964844 167.976562 209.261719 C 168.496094 208.628906 169.023438 207.976562 169.554688 207.308594 C 171.863281 204.394531 173.675781 201.023438 174.941406 197.28125 C 180.160156 181.816406 188.722656 169.636719 195.605469 159.851562 C 199.691406 154.039062 202.917969 149.449219 204.378906 145.664062 C 204.867188 144.402344 205.082031 142.972656 205.046875 141.28125 C 204.960938 137.480469 206.589844 135.660156 208.070312 134.792969 C 208.078125 134.785156 208.085938 134.78125 208.09375 134.777344 C 208.863281 134.332031 209.582031 134.140625 210.011719 134.0625 C 210.234375 134.414062 210.417969 134.941406 210.636719 135.566406 C 211.015625 136.632812 211.503906 138.023438 212.53125 139.601562 C 213.785156 141.53125 215.832031 143.742188 219.445312 146.003906 C 222.816406 148.117188 226.046875 147.523438 227.394531 147.117188 C 228.964844 149.921875 228.582031 153.789062 226.457031 155.527344 C 225.726562 156.125 224.667969 157.058594 223.898438 158.296875 C 220.40625 163.910156 207.703125 183.152344 190.929688 194.925781 C 188.507812 196.625 186.476562 198.300781 184.722656 200.046875 C 182.914062 201.855469 181.230469 202.875 179.445312 203.957031 C 177.265625 205.273438 174.800781 206.769531 171.800781 209.921875 C 168.3125 213.589844 166.09375 213.90625 165.621094 213.484375 Z M 157.429688 176.324219 C 155.773438 175.652344 154.082031 175.550781 152.441406 175.453125 C 149.285156 175.269531 146.773438 175.117188 145.175781 171.191406 C 174.898438 170.035156 185.882812 161.007812 194.710938 153.75 C 196.824219 152.011719 198.855469 150.347656 200.976562 148.949219 C 199.289062 151.859375 196.921875 155.226562 194.3125 158.9375 C 193.164062 160.570312 191.96875 162.273438 190.753906 164.039062 C 189.230469 164.828125 177.335938 170.78125 161.144531 173.046875 C 160.710938 173.105469 160.414062 173.507812 160.472656 173.941406 C 160.488281 174.058594 160.527344 174.167969 160.589844 174.261719 C 160.75 174.511719 161.050781 174.660156 161.363281 174.613281 C 174.171875 172.824219 184.355469 168.746094 188.972656 166.648438 C 187.339844 169.082031 185.683594 171.644531 184.058594 174.339844 C 170.96875 180.457031 157.507812 176.34375 157.429688 176.324219 Z M 205.171875 134.277344 C 205.136719 134.285156 205.105469 134.296875 205.070312 134.304688 C 199.582031 136.273438 195.953125 138.519531 192.707031 140.652344 C 184.214844 146.234375 175.140625 149.992188 165.730469 151.839844 C 157.179688 153.511719 151.535156 153.042969 147.414062 152.707031 C 144.117188 152.433594 141.738281 152.238281 139.535156 153.234375 C 134.9375 155.371094 132.152344 155.40625 130.625 155.0625 C 130.183594 154.960938 130.074219 154.578125 130.050781 154.464844 C 130.027344 154.347656 129.980469 153.941406 130.355469 153.664062 C 131.617188 152.757812 133.867188 151.734375 137.042969 150.621094 C 140.867188 149.285156 144.5 147.355469 147.84375 144.882812 C 155.277344 139.386719 165.285156 133.410156 174.113281 128.140625 C 183.554688 122.503906 191.007812 118.050781 192.960938 115.675781 C 196.035156 112.535156 198.941406 112.085938 200.441406 112.105469 C 199.449219 114.320312 199.226562 117.554688 202.007812 121.84375 C 202.269531 122.242188 202.554688 122.648438 202.867188 123.066406 C 203.015625 123.273438 206.367188 127.867188 210.097656 128.105469 C 210.464844 133.039062 205.394531 134.226562 205.171875 134.277344 Z M 207.800781 115.722656 C 208.054688 115.964844 208.441406 116.011719 208.746094 115.835938 L 211.820312 114.0625 C 211.882812 114.179688 211.945312 114.296875 212.019531 114.414062 C 212.648438 115.378906 213.796875 116.261719 214.9375 116.722656 L 211.726562 119.078125 C 210 120.300781 210.011719 122.984375 210.023438 125.824219 C 210.027344 126.050781 210.023438 126.28125 210.027344 126.511719 C 207.609375 126.230469 205.019531 123.339844 204.144531 122.128906 C 200.671875 117.496094 201.035156 114.285156 202.105469 112.304688 C 204.820312 112.863281 207.769531 115.6875 207.800781 115.722656 Z M 213.203125 113.277344 C 214.300781 113.1875 215.738281 113.703125 216.472656 114.460938 C 216.722656 114.710938 216.855469 114.964844 216.84375 115.152344 C 216.800781 115.425781 216.703125 115.464844 216.511719 115.480469 C 215.511719 115.5625 213.632812 114.296875 213.199219 113.277344 C 213.199219 113.277344 213.199219 113.277344 213.203125 113.277344 Z M 218.042969 134.742188 C 218.265625 134.933594 218.558594 134.964844 218.816406 134.875 C 219.136719 134.875 219.4375 134.6875 219.5625 134.371094 L 221.039062 130.507812 C 221.875 131.171875 223.027344 131.476562 224.027344 131.535156 C 224.453125 131.554688 224.914062 131.535156 225.359375 131.453125 C 225.050781 132.417969 224.699219 133.605469 224.445312 134.742188 C 224.121094 136.21875 224.203125 137.78125 224.691406 139.269531 C 225.332031 141.234375 226.175781 143.820312 226.753906 145.652344 C 225.566406 145.96875 222.96875 146.34375 220.285156 144.664062 C 214.175781 140.835938 212.945312 137.347656 212.132812 135.042969 C 211.953125 134.523438 211.789062 134.0625 211.59375 133.65625 C 215.503906 132.65625 217.933594 134.652344 218.042969 134.742188 Z M 223.0625 128.105469 C 223.988281 127.882812 225.28125 127.949219 225.867188 128.851562 C 225.949219 128.976562 226.132812 129.292969 226.039062 129.460938 C 225.898438 129.703125 225.210938 130.011719 224.113281 129.953125 C 222.984375 129.890625 222.050781 129.480469 221.660156 128.871094 C 221.757812 128.695312 222.214844 128.304688 223.0625 128.105469 Z M 233.621094 153.929688 C 233.847656 155.398438 233.617188 156.933594 232.957031 158.253906 C 231.082031 162.015625 229.347656 163.878906 220.804688 165.816406 C 221.785156 164.417969 222.640625 163.15625 223.367188 162.050781 C 226.671875 161.515625 229.054688 159.550781 229.15625 159.460938 C 229.492188 159.183594 229.542969 158.679688 229.253906 158.347656 C 228.972656 158.015625 228.472656 157.96875 228.136719 158.25 C 228.117188 158.265625 226.707031 159.433594 224.621094 160.121094 C 224.851562 159.757812 225.0625 159.421875 225.246094 159.128906 C 225.738281 158.332031 226.425781 157.597656 227.457031 156.753906 C 228.042969 156.273438 228.527344 155.675781 228.90625 155.003906 C 229.238281 155.957031 229.707031 157.050781 230.335938 158.023438 C 230.417969 158.148438 230.503906 158.277344 230.59375 158.402344 C 230.847656 158.753906 231.34375 158.835938 231.699219 158.578125 C 232.054688 158.320312 232.132812 157.824219 231.878906 157.46875 C 230.558594 155.644531 229.933594 152.949219 229.816406 152.402344 C 230.179688 150.238281 229.765625 147.820312 228.5 145.871094 C 228.488281 145.855469 228.476562 145.835938 228.464844 145.816406 C 228.351562 145.445312 228.21875 145.03125 228.078125 144.582031 C 231.609375 146.980469 232.738281 148.386719 233.621094 153.929688 Z M 238.804688 148.898438 C 239.042969 149.519531 239.25 150.507812 238.824219 151.699219 C 238.714844 152 238.5 152.269531 238.214844 152.460938 C 237.566406 152.886719 236.417969 153.566406 235.210938 153.921875 C 235.203125 153.84375 235.195312 153.761719 235.183594 153.679688 C 234.972656 152.355469 234.742188 151.234375 234.46875 150.273438 C 235.539062 150.066406 237.34375 149.644531 238.804688 148.898438 Z M 172.949219 211.015625 C 175.804688 208.015625 178.074219 206.640625 180.265625 205.3125 C 182.132812 204.179688 183.894531 203.109375 185.84375 201.167969 C 187.53125 199.488281 189.492188 197.871094 191.839844 196.222656 C 203.59375 187.972656 213.359375 176.136719 219.441406 167.730469 C 229.496094 165.648438 232.015625 163.691406 234.375 158.960938 C 234.90625 157.886719 235.210938 156.730469 235.273438 155.554688 C 236.832031 155.167969 238.296875 154.304688 239.085938 153.78125 C 239.65625 153.40625 240.09375 152.851562 240.316406 152.230469 C 240.90625 150.578125 240.621094 149.191406 240.273438 148.316406 C 240.117188 147.90625 239.789062 147.582031 239.375 147.425781 C 238.964844 147.269531 238.5 147.292969 238.101562 147.492188 C 236.703125 148.199219 234.882812 148.589844 233.949219 148.757812 C 232.746094 145.777344 230.839844 144.480469 227.304688 142.171875 C 226.921875 141 226.535156 139.804688 226.195312 138.777344 C 225.796875 137.558594 225.726562 136.285156 225.992188 135.085938 C 226.515625 132.742188 227.511719 130.042969 227.523438 130.019531 C 227.523438 130.015625 227.523438 130.007812 227.523438 130.003906 C 227.695312 129.570312 227.769531 128.875 227.195312 127.988281 C 226.046875 126.21875 223.695312 126.125 221.992188 126.78125 C 221.011719 127.160156 220.363281 127.753906 220.140625 128.417969 C 220.140625 128.417969 220.140625 128.421875 220.140625 128.421875 L 220.125 128.457031 C 220.125 128.460938 220.121094 128.464844 220.121094 128.46875 L 218.371094 133.046875 C 217.152344 132.3125 214.425781 131.140625 210.710938 132.269531 C 211.503906 130.996094 211.925781 129.347656 211.605469 127.273438 C 211.609375 126.78125 211.609375 126.296875 211.609375 125.816406 C 211.597656 123.402344 211.589844 121.117188 212.652344 120.363281 L 217.628906 116.714844 C 217.640625 116.710938 217.644531 116.699219 217.652344 116.695312 C 218.050781 116.402344 218.324219 115.949219 218.414062 115.371094 C 218.414062 115.359375 218.417969 115.347656 218.417969 115.339844 C 218.492188 114.65625 218.214844 113.96875 217.605469 113.351562 C 216.546875 112.261719 214.636719 111.566406 213.070312 111.699219 C 212.808594 111.722656 212.554688 111.804688 212.339844 111.9375 C 212.335938 111.9375 212.332031 111.9375 212.328125 111.9375 L 208.457031 114.171875 C 207.386719 113.230469 204.558594 110.96875 201.847656 110.664062 C 201.367188 110.550781 196.6875 109.605469 191.785156 114.617188 C 189.957031 116.832031 182.238281 121.441406 173.300781 126.777344 C 164.441406 132.070312 154.398438 138.0625 146.902344 143.609375 C 143.683594 145.984375 140.195312 147.84375 136.519531 149.128906 C 133.148438 150.304688 130.832031 151.367188 129.429688 152.378906 C 128.667969 152.933594 128.308594 153.851562 128.5 154.78125 C 128.558594 155.082031 128.675781 155.363281 128.835938 155.609375 C 129.160156 156.109375 129.667969 156.46875 130.28125 156.609375 C 132.042969 157.007812 135.203125 156.992188 140.195312 154.671875 C 142.015625 153.847656 144.222656 154.03125 147.285156 154.285156 C 151.5 154.632812 157.269531 155.109375 166.035156 153.394531 C 175.644531 151.511719 184.910156 147.667969 193.578125 141.976562 C 196.53125 140.035156 199.824219 138 204.570312 136.191406 C 203.875 137.441406 203.414062 139.101562 203.460938 141.316406 C 203.496094 142.792969 203.308594 144.03125 202.898438 145.097656 C 202.753906 145.46875 202.585938 145.859375 202.402344 146.257812 C 199.316406 147.917969 196.585938 150.15625 193.703125 152.527344 C 185.050781 159.640625 174.28125 168.492188 145.027344 169.613281 C 144.511719 169.632812 143.960938 169.929688 143.683594 170.34375 C 143.472656 170.660156 143.421875 171.039062 143.550781 171.386719 C 143.875 172.253906 144.238281 172.984375 144.636719 173.601562 C 146.652344 176.699219 149.539062 176.871094 152.347656 177.039062 C 153.859375 177.125 155.421875 177.214844 156.894531 177.8125 C 157.441406 177.984375 169.75 181.757812 182.695312 176.648438 C 179.21875 182.664062 175.949219 189.332031 173.4375 196.773438 C 172.234375 200.339844 170.511719 203.554688 168.316406 206.324219 C 167.789062 206.984375 167.265625 207.628906 166.75 208.257812 C 166.167969 208.972656 165.605469 209.667969 165.085938 210.324219 C 163.734375 211.972656 163.675781 213.417969 164.238281 214.285156 C 164.332031 214.429688 164.445312 214.558594 164.570312 214.667969 C 165.796875 215.753906 168.730469 215.453125 172.949219 211.015625 " fill-opacity="1" fill-rule="nonzero"/></g></g></g></g><g clip-path="url(#a24e4a6cf7)"><g clip-path="url(#9c312eb282)"><g clip-path="url(#71c6f0b7b1)"><path fill="#ffffff" d="M 192.949219 176.871094 C 202.566406 165.359375 211.648438 154.480469 209.972656 145.933594 C 209.886719 145.5 209.472656 145.222656 209.042969 145.308594 C 208.613281 145.390625 208.332031 145.808594 208.417969 146.238281 C 209.949219 154.046875 200.691406 165.132812 191.734375 175.855469 C 186.835938 181.71875 181.777344 187.78125 178.261719 193.492188 C 178.097656 193.761719 178.113281 194.09375 178.273438 194.34375 C 178.335938 194.4375 178.417969 194.519531 178.523438 194.585938 C 178.894531 194.8125 179.382812 194.699219 179.613281 194.324219 C 183.0625 188.707031 188.09375 182.691406 192.949219 176.871094 " fill-opacity="1" fill-rule="nonzero"/></g></g></g><g clip-path="url(#fb698978f1)"><g clip-path="url(#083370401c)"><g clip-path="url(#5659cd72cc)"><path fill="#ffffff" d="M 221.507812 154.132812 C 221.941406 154.074219 222.242188 153.675781 222.183594 153.242188 C 222.121094 152.8125 221.722656 152.507812 221.289062 152.566406 C 218.257812 152.984375 215.308594 157.082031 210.421875 163.871094 C 204.578125 171.984375 196.574219 183.101562 183.421875 195.183594 C 183.132812 195.445312 183.089844 195.875 183.296875 196.195312 C 183.320312 196.230469 183.34375 196.265625 183.375 196.300781 C 183.671875 196.621094 184.171875 196.644531 184.496094 196.347656 C 197.765625 184.160156 206.15625 172.503906 211.707031 164.792969 C 216.027344 158.796875 219.144531 154.460938 221.507812 154.132812 " fill-opacity="1" fill-rule="nonzero"/></g></g></g><g clip-path="url(#f40cbecc78)"><g clip-path="url(#e2af18eb78)"><g clip-path="url(#3ee68525b2)"><path fill="#ffffff" d="M 214.570312 137.984375 C 214.574219 138.128906 214.621094 138.257812 214.691406 138.371094 C 214.84375 138.601562 215.109375 138.75 215.402344 138.730469 C 216.738281 138.65625 218.652344 137.515625 218.867188 137.390625 C 219.242188 137.164062 219.359375 136.675781 219.136719 136.300781 C 218.941406 135.910156 218.421875 135.808594 218.046875 136.03125 C 217.367188 136.445312 216.027344 137.109375 215.3125 137.148438 C 214.875 137.171875 214.542969 137.546875 214.570312 137.984375 " fill-opacity="1" fill-rule="nonzero"/></g></g></g><g clip-path="url(#874e0ad63e)"><g clip-path="url(#bd3bc49d30)"><g clip-path="url(#de771bed4b)"><path fill="#ffffff" d="M 220.890625 142.28125 C 220.902344 142.417969 220.949219 142.546875 221.019531 142.65625 C 221.171875 142.890625 221.4375 143.035156 221.738281 143.015625 C 222.175781 142.984375 222.503906 142.605469 222.476562 142.171875 C 222.386719 140.898438 222.625 138.449219 222.628906 138.421875 C 222.671875 137.988281 222.351562 137.601562 221.917969 137.554688 C 221.484375 137.511719 221.09375 137.832031 221.050781 138.269531 C 221.039062 138.371094 220.796875 140.875 220.890625 142.28125 " fill-opacity="1" fill-rule="nonzero"/></g></g></g><g fill="#ffffff" fill-opacity="1"><g transform="translate(151.404034, 241.04282)"><g><path d="M 7.921875 0.109375 C 6.828125 0.109375 5.832031 -0.0976562 4.9375 -0.515625 C 4.050781 -0.941406 3.289062 -1.515625 2.65625 -2.234375 C 2.019531 -2.953125 1.523438 -3.765625 1.171875 -4.671875 C 0.828125 -5.578125 0.65625 -6.503906 0.65625 -7.453125 C 0.65625 -8.453125 0.835938 -9.398438 1.203125 -10.296875 C 1.578125 -11.203125 2.085938 -12.007812 2.734375 -12.71875 C 3.390625 -13.425781 4.160156 -13.984375 5.046875 -14.390625 C 5.941406 -14.804688 6.921875 -15.015625 7.984375 -15.015625 C 9.054688 -15.015625 10.035156 -14.796875 10.921875 -14.359375 C 11.816406 -13.929688 12.578125 -13.351562 13.203125 -12.625 C 13.835938 -11.894531 14.328125 -11.082031 14.671875 -10.1875 C 15.023438 -9.289062 15.203125 -8.363281 15.203125 -7.40625 C 15.203125 -6.425781 15.019531 -5.484375 14.65625 -4.578125 C 14.289062 -3.679688 13.78125 -2.878906 13.125 -2.171875 C 12.476562 -1.460938 11.707031 -0.90625 10.8125 -0.5 C 9.925781 -0.09375 8.960938 0.109375 7.921875 0.109375 Z M 3.59375 -7.453125 C 3.59375 -6.804688 3.6875 -6.179688 3.875 -5.578125 C 4.070312 -4.984375 4.359375 -4.453125 4.734375 -3.984375 C 5.109375 -3.515625 5.5625 -3.140625 6.09375 -2.859375 C 6.632812 -2.585938 7.25 -2.453125 7.9375 -2.453125 C 8.632812 -2.453125 9.253906 -2.59375 9.796875 -2.875 C 10.347656 -3.164062 10.804688 -3.550781 11.171875 -4.03125 C 11.535156 -4.519531 11.8125 -5.0625 12 -5.65625 C 12.1875 -6.25 12.28125 -6.847656 12.28125 -7.453125 C 12.28125 -8.097656 12.175781 -8.71875 11.96875 -9.3125 C 11.769531 -9.90625 11.484375 -10.4375 11.109375 -10.90625 C 10.742188 -11.375 10.289062 -11.742188 9.75 -12.015625 C 9.21875 -12.296875 8.613281 -12.4375 7.9375 -12.4375 C 7.21875 -12.4375 6.585938 -12.289062 6.046875 -12 C 5.515625 -11.71875 5.066406 -11.335938 4.703125 -10.859375 C 4.335938 -10.378906 4.0625 -9.84375 3.875 -9.25 C 3.6875 -8.664062 3.59375 -8.066406 3.59375 -7.453125 Z M 3.59375 -7.453125 "/></g></g></g><g fill="#ffffff" fill-opacity="1"><g transform="translate(167.271174, 241.04282)"><g/></g></g><g fill="#ffffff" fill-opacity="1"><g transform="translate(172.30836, 241.04282)"><g><path d="M 1.546875 0 L 1.546875 -14.890625 L 4.453125 -14.890625 L 4.453125 -7.8125 L 10.703125 -14.90625 L 13.90625 -14.90625 L 8.1875 -8.296875 L 14.265625 0 L 10.984375 0 L 6.34375 -6.421875 L 4.453125 -4.453125 L 4.453125 0 Z M 1.546875 0 "/></g></g></g><g fill="#ffffff" fill-opacity="1"><g transform="translate(186.097619, 241.04282)"><g/></g></g><g fill="#ffffff" fill-opacity="1"><g transform="translate(191.134805, 241.04282)"><g><path d="M 1.546875 0 L 1.546875 -14.90625 L 8.140625 -14.90625 C 8.828125 -14.90625 9.460938 -14.765625 10.046875 -14.484375 C 10.628906 -14.203125 11.132812 -13.820312 11.5625 -13.34375 C 11.988281 -12.875 12.316406 -12.34375 12.546875 -11.75 C 12.773438 -11.164062 12.890625 -10.566406 12.890625 -9.953125 C 12.890625 -9.328125 12.78125 -8.722656 12.5625 -8.140625 C 12.351562 -7.554688 12.046875 -7.046875 11.640625 -6.609375 C 11.234375 -6.179688 10.753906 -5.847656 10.203125 -5.609375 L 13.609375 0 L 10.421875 0 L 7.34375 -5 L 4.453125 -5 L 4.453125 0 Z M 4.453125 -7.53125 L 8.078125 -7.53125 C 8.441406 -7.53125 8.765625 -7.640625 9.046875 -7.859375 C 9.328125 -8.078125 9.550781 -8.367188 9.71875 -8.734375 C 9.882812 -9.097656 9.96875 -9.503906 9.96875 -9.953125 C 9.96875 -10.429688 9.867188 -10.847656 9.671875 -11.203125 C 9.484375 -11.554688 9.238281 -11.835938 8.9375 -12.046875 C 8.632812 -12.265625 8.304688 -12.375 7.953125 -12.375 L 4.453125 -12.375 Z M 4.453125 -7.53125 "/></g></g></g><g fill="#ffffff" fill-opacity="1"><g transform="translate(205.092018, 241.04282)"><g/></g></g><g fill="#ffffff" fill-opacity="1"><g transform="translate(209.478435, 241.04282)"><g><path d="M 5.609375 -14.90625 L 8.546875 -14.90625 L 14.03125 0 L 11.046875 0 L 9.65625 -3.71875 L 4.453125 -3.71875 L 3.09375 0 L 0.109375 0 Z M 9.140625 -5.75 L 7.078125 -11.90625 L 4.9375 -5.75 Z M 9.140625 -5.75 "/></g></g></g></svg>