<svg xmlns="http://www.w3.org/2000/svg" xmlns:xlink="http://www.w3.org/1999/xlink" width="500" zoomAndPan="magnify" viewBox="0 0 375 374.999991" height="500" preserveAspectRatio="xMidYMid meet" version="1.0"><defs><g/><clipPath id="7dbfe9238d"><path d="M 40.5 6.976562 L 334.5 6.976562 L 334.5 300.976562 L 40.5 300.976562 Z M 40.5 6.976562 " clip-rule="nonzero"/></clipPath><clipPath id="f2a88a06c3"><path d="M 187.5 6.976562 C 106.3125 6.976562 40.5 72.789062 40.5 153.976562 C 40.5 235.160156 106.3125 300.976562 187.5 300.976562 C 268.6875 300.976562 334.5 235.160156 334.5 153.976562 C 334.5 72.789062 268.6875 6.976562 187.5 6.976562 Z M 187.5 6.976562 " clip-rule="nonzero"/></clipPath><clipPath id="a4ff5f026b"><path d="M 0.5 0.976562 L 294.5 0.976562 L 294.5 294.976562 L 0.5 294.976562 Z M 0.5 0.976562 " clip-rule="nonzero"/></clipPath><clipPath id="102435c3f5"><path d="M 147.5 0.976562 C 66.3125 0.976562 0.5 66.789062 0.5 147.976562 C 0.5 229.160156 66.3125 294.976562 147.5 294.976562 C 228.6875 294.976562 294.5 229.160156 294.5 147.976562 C 294.5 66.789062 228.6875 0.976562 147.5 0.976562 Z M 147.5 0.976562 " clip-rule="nonzero"/></clipPath><clipPath id="c1c93d0704"><rect x="0" width="295" y="0" height="295"/></clipPath><clipPath id="f048845591"><path d="M 61 57.136719 L 189.917969 57.136719 L 189.917969 225.136719 L 61 225.136719 Z M 61 57.136719 " clip-rule="nonzero"/></clipPath><clipPath id="63c4c95637"><path d="M 185.117188 57.136719 L 314.117188 57.136719 L 314.117188 225.136719 L 185.117188 225.136719 Z M 185.117188 57.136719 " clip-rule="nonzero"/></clipPath><clipPath id="37411f795f"><path d="M 0.117188 0.136719 L 129 0.136719 L 129 168.136719 L 0.117188 168.136719 Z M 0.117188 0.136719 " clip-rule="nonzero"/></clipPath><clipPath id="77a6e8bf14"><rect x="0" width="130" y="0" height="169"/></clipPath></defs><g fill="#85aa29" fill-opacity="1"><g transform="translate(123.877211, 335.524987)"><g><path d="M 13.953125 0.1875 C 12.023438 0.1875 10.273438 -0.179688 8.703125 -0.921875 C 7.140625 -1.660156 5.796875 -2.664062 4.671875 -3.9375 C 3.554688 -5.207031 2.6875 -6.640625 2.0625 -8.234375 C 1.445312 -9.828125 1.140625 -11.460938 1.140625 -13.140625 C 1.140625 -14.890625 1.46875 -16.554688 2.125 -18.140625 C 2.78125 -19.734375 3.679688 -21.148438 4.828125 -22.390625 C 5.972656 -23.640625 7.328125 -24.628906 8.890625 -25.359375 C 10.460938 -26.085938 12.1875 -26.453125 14.0625 -26.453125 C 15.957031 -26.453125 17.6875 -26.066406 19.25 -25.296875 C 20.820312 -24.535156 22.160156 -23.515625 23.265625 -22.234375 C 24.378906 -20.953125 25.242188 -19.519531 25.859375 -17.9375 C 26.472656 -16.363281 26.78125 -14.738281 26.78125 -13.0625 C 26.78125 -11.332031 26.457031 -9.671875 25.8125 -8.078125 C 25.175781 -6.492188 24.285156 -5.078125 23.140625 -3.828125 C 21.992188 -2.585938 20.632812 -1.609375 19.0625 -0.890625 C 17.5 -0.171875 15.796875 0.1875 13.953125 0.1875 Z M 6.328125 -13.140625 C 6.328125 -12.003906 6.5 -10.90625 6.84375 -9.84375 C 7.1875 -8.78125 7.6875 -7.832031 8.34375 -7 C 9 -6.175781 9.800781 -5.523438 10.75 -5.046875 C 11.695312 -4.566406 12.773438 -4.328125 13.984375 -4.328125 C 15.222656 -4.328125 16.320312 -4.578125 17.28125 -5.078125 C 18.238281 -5.585938 19.035156 -6.269531 19.671875 -7.125 C 20.316406 -7.976562 20.804688 -8.925781 21.140625 -9.96875 C 21.472656 -11.019531 21.640625 -12.078125 21.640625 -13.140625 C 21.640625 -14.273438 21.460938 -15.363281 21.109375 -16.40625 C 20.753906 -17.457031 20.25 -18.394531 19.59375 -19.21875 C 18.9375 -20.050781 18.132812 -20.707031 17.1875 -21.1875 C 16.238281 -21.664062 15.171875 -21.90625 13.984375 -21.90625 C 12.722656 -21.90625 11.617188 -21.648438 10.671875 -21.140625 C 9.722656 -20.640625 8.925781 -19.96875 8.28125 -19.125 C 7.644531 -18.289062 7.160156 -17.351562 6.828125 -16.3125 C 6.492188 -15.28125 6.328125 -14.222656 6.328125 -13.140625 Z M 6.328125 -13.140625 "/></g></g></g><g fill="#85aa29" fill-opacity="1"><g transform="translate(151.846238, 335.524987)"><g/></g></g><g fill="#85aa29" fill-opacity="1"><g transform="translate(160.725296, 335.524987)"><g><path d="M 2.734375 0 L 2.734375 -26.234375 L 7.84375 -26.234375 L 7.84375 -13.765625 L 18.875 -26.265625 L 24.5 -26.265625 L 14.4375 -14.609375 L 25.125 0 L 19.34375 0 L 11.171875 -11.328125 L 7.84375 -7.84375 L 7.84375 0 Z M 2.734375 0 "/></g></g></g><g fill="#85aa29" fill-opacity="1"><g transform="translate(185.031687, 335.524987)"><g/></g></g><g fill="#85aa29" fill-opacity="1"><g transform="translate(193.910746, 335.524987)"><g><path d="M 2.734375 0 L 2.734375 -26.265625 L 14.359375 -26.265625 C 15.566406 -26.265625 16.679688 -26.019531 17.703125 -25.53125 C 18.722656 -25.039062 19.609375 -24.375 20.359375 -23.53125 C 21.117188 -22.695312 21.703125 -21.757812 22.109375 -20.71875 C 22.515625 -19.6875 22.71875 -18.625 22.71875 -17.53125 C 22.71875 -16.425781 22.523438 -15.359375 22.140625 -14.328125 C 21.765625 -13.304688 21.21875 -12.414062 20.5 -11.65625 C 19.78125 -10.894531 18.941406 -10.300781 17.984375 -9.875 L 23.96875 0 L 18.359375 0 L 12.953125 -8.8125 L 7.84375 -8.8125 L 7.84375 0 Z M 7.84375 -13.28125 L 14.25 -13.28125 C 14.882812 -13.28125 15.445312 -13.472656 15.9375 -13.859375 C 16.4375 -14.242188 16.832031 -14.753906 17.125 -15.390625 C 17.425781 -16.035156 17.578125 -16.75 17.578125 -17.53125 C 17.578125 -18.375 17.398438 -19.109375 17.046875 -19.734375 C 16.703125 -20.367188 16.265625 -20.867188 15.734375 -21.234375 C 15.210938 -21.609375 14.640625 -21.796875 14.015625 -21.796875 L 7.84375 -21.796875 Z M 7.84375 -13.28125 "/></g></g></g><g fill="#85aa29" fill-opacity="1"><g transform="translate(218.513127, 335.524987)"><g/></g></g><g fill="#85aa29" fill-opacity="1"><g transform="translate(226.245258, 335.524987)"><g><path d="M 9.875 -26.265625 L 15.0625 -26.265625 L 24.71875 0 L 19.46875 0 L 17.015625 -6.546875 L 7.84375 -6.546875 L 5.4375 0 L 0.1875 0 Z M 16.09375 -10.140625 L 12.46875 -20.984375 L 8.6875 -10.140625 Z M 16.09375 -10.140625 "/></g></g></g><g clip-path="url(#7dbfe9238d)"><g clip-path="url(#f2a88a06c3)"><g transform="matrix(1, 0, 0, 1, 40, 6)"><g clip-path="url(#c1c93d0704)"><g clip-path="url(#a4ff5f026b)"><g clip-path="url(#102435c3f5)"><path fill="#85aa29" d="M 0.5 0.976562 L 294.5 0.976562 L 294.5 294.976562 L 0.5 294.976562 Z M 0.5 0.976562 " fill-opacity="1" fill-rule="nonzero"/></g></g></g></g></g></g><g clip-path="url(#f048845591)"><path fill="#ffffff" d="M 188.644531 116.742188 C 188.261719 114.980469 187.597656 113.335938 186.652344 111.800781 C 185.707031 110.269531 184.535156 108.933594 183.136719 107.800781 L 183.246094 107.5625 C 183.996094 105.964844 184.59375 104.316406 185.039062 102.609375 C 185.484375 100.902344 185.769531 99.167969 185.894531 97.410156 C 186.019531 95.652344 185.984375 93.894531 185.785156 92.144531 C 185.589844 90.390625 185.234375 88.671875 184.71875 86.984375 C 184.203125 85.296875 184.183594 83.605469 184.660156 81.90625 L 187.804688 70.652344 C 187.988281 69.980469 188.097656 69.296875 188.132812 68.605469 C 188.167969 67.910156 188.132812 67.222656 188.023438 66.535156 C 187.910156 65.851562 187.730469 65.183594 187.476562 64.539062 C 187.222656 63.890625 186.90625 63.277344 186.523438 62.699219 C 186.140625 62.117188 185.699219 61.585938 185.203125 61.101562 C 184.707031 60.617188 184.164062 60.1875 183.574219 59.820312 C 182.988281 59.449219 182.367188 59.144531 181.714844 58.910156 C 181.0625 58.671875 180.390625 58.507812 179.703125 58.410156 L 175.105469 57.820312 C 174.546875 57.746094 173.984375 57.71875 173.417969 57.742188 C 172.855469 57.769531 172.296875 57.839844 171.746094 57.960938 C 171.195312 58.085938 170.65625 58.253906 170.136719 58.46875 C 169.613281 58.683594 169.113281 58.945312 168.636719 59.246094 C 168.160156 59.550781 167.714844 59.894531 167.300781 60.273438 C 166.882812 60.65625 166.503906 61.070312 166.160156 61.519531 C 165.816406 61.96875 165.511719 62.441406 165.25 62.941406 C 164.992188 63.445312 164.777344 63.964844 164.605469 64.5 L 162.929688 69.773438 C 162.269531 71.839844 161.222656 73.6875 159.789062 75.316406 C 158.355469 76.945312 156.652344 78.21875 154.6875 79.132812 C 151.464844 80.699219 147.171875 82.171875 145.207031 85.382812 L 142.542969 89.1875 C 141.570312 89.097656 140.59375 89.085938 139.621094 89.160156 C 138.644531 89.230469 137.683594 89.382812 136.734375 89.613281 C 135.78125 89.84375 134.859375 90.152344 133.960938 90.535156 C 133.0625 90.921875 132.199219 91.378906 131.375 91.90625 C 130.554688 92.433594 129.78125 93.023438 129.054688 93.683594 C 128.332031 94.339844 127.664062 95.050781 127.058594 95.816406 C 126.453125 96.582031 125.914062 97.394531 125.441406 98.253906 C 124.96875 99.109375 124.574219 99.996094 124.25 100.921875 C 122.476562 105.445312 108.617188 145.042969 106.820312 148.359375 L 92.949219 178.976562 C 91.449219 182.222656 89.71875 185.34375 87.753906 188.339844 C 85.792969 191.332031 83.625 194.164062 81.242188 196.835938 C 78.863281 199.507812 76.296875 201.992188 73.550781 204.285156 C 70.804688 206.578125 67.902344 208.65625 64.847656 210.519531 C 64.257812 210.941406 63.742188 211.4375 63.300781 212.011719 C 62.859375 212.585938 62.511719 213.210938 62.253906 213.890625 C 62 214.566406 61.847656 215.269531 61.800781 215.992188 C 61.753906 216.714844 61.8125 217.429688 61.976562 218.132812 C 62.144531 218.839844 62.40625 219.503906 62.773438 220.128906 C 63.136719 220.757812 63.582031 221.316406 64.113281 221.8125 C 64.640625 222.304688 65.234375 222.710938 65.882812 223.027344 C 66.535156 223.34375 67.21875 223.5625 67.933594 223.675781 C 73.429688 224.613281 78.964844 225.105469 84.539062 225.15625 C 89.808594 225.15625 95.039062 224.691406 100.222656 223.757812 C 105.410156 222.824219 110.472656 221.4375 115.410156 219.601562 C 120.351562 217.765625 125.085938 215.503906 129.621094 212.824219 C 134.15625 210.140625 138.421875 207.078125 142.410156 203.632812 C 148.835938 198.597656 154.53125 192.832031 159.492188 186.347656 C 164.453125 179.859375 168.523438 172.855469 171.703125 165.335938 L 187.753906 126.59375 C 188.402344 125.039062 188.800781 123.417969 188.953125 121.738281 C 189.105469 120.054688 189.003906 118.390625 188.644531 116.742188 Z M 152.679688 86.664062 C 159.835938 83.890625 166.386719 79.277344 168.628906 71.582031 L 170.304688 66.3125 C 170.4375 65.894531 170.636719 65.515625 170.902344 65.171875 C 171.171875 64.824219 171.488281 64.535156 171.855469 64.300781 C 172.222656 64.066406 172.621094 63.902344 173.046875 63.808594 C 173.472656 63.710938 173.902344 63.691406 174.335938 63.75 L 178.933594 64.34375 C 179.199219 64.378906 179.457031 64.441406 179.707031 64.535156 C 179.960938 64.625 180.199219 64.738281 180.425781 64.882812 C 180.652344 65.023438 180.859375 65.1875 181.050781 65.375 C 181.242188 65.558594 181.410156 65.765625 181.558594 65.988281 C 181.707031 66.207031 181.828125 66.445312 181.925781 66.691406 C 182.023438 66.941406 182.089844 67.199219 182.132812 67.460938 C 182.175781 67.726562 182.191406 67.988281 182.175781 68.257812 C 182.160156 68.523438 182.117188 68.785156 182.046875 69.042969 L 178.902344 80.292969 C 178.113281 83.113281 178.144531 85.925781 178.996094 88.726562 C 179.808594 91.386719 180.117188 94.101562 179.933594 96.878906 C 179.746094 99.652344 179.074219 102.304688 177.917969 104.832031 L 148.527344 91.066406 C 149.632812 89.527344 150.835938 87.382812 152.679688 86.664062 Z M 182.230469 124.304688 L 166.179688 163.046875 C 163.175781 170.136719 159.332031 176.734375 154.644531 182.84375 C 149.953125 188.953125 144.574219 194.375 138.503906 199.109375 C 136.292969 201.011719 133.992188 202.792969 131.59375 204.457031 C 129.195312 206.117188 126.71875 207.644531 124.160156 209.042969 C 121.601562 210.441406 118.972656 211.699219 116.28125 212.820312 C 113.589844 213.941406 110.847656 214.914062 108.050781 215.746094 C 105.253906 216.574219 102.421875 217.253906 99.554688 217.785156 C 96.6875 218.316406 93.800781 218.691406 90.894531 218.917969 C 87.984375 219.140625 85.074219 219.210938 82.160156 219.128906 C 79.246094 219.042969 76.34375 218.804688 73.453125 218.414062 C 78.121094 217.253906 82.570312 215.539062 86.808594 213.261719 C 87.15625 213.074219 87.457031 212.828125 87.707031 212.519531 C 87.957031 212.214844 88.140625 211.871094 88.253906 211.492188 C 88.367188 211.113281 88.40625 210.726562 88.367188 210.332031 C 88.328125 209.9375 88.214844 209.566406 88.027344 209.214844 C 87.839844 208.867188 87.59375 208.566406 87.289062 208.316406 C 86.980469 208.066406 86.640625 207.882812 86.261719 207.765625 C 85.878906 207.652344 85.492188 207.613281 85.101562 207.652344 C 84.707031 207.691406 84.332031 207.804688 83.984375 207.988281 C 80.347656 209.945312 76.53125 211.4375 72.535156 212.472656 C 78.167969 208.5625 83.179688 203.976562 87.566406 198.710938 C 91.957031 193.445312 95.566406 187.6875 98.394531 181.445312 C 100.640625 176.226562 113.527344 148.714844 115.074219 143.917969 L 129.871094 102.953125 C 130.195312 102.066406 130.613281 101.230469 131.128906 100.441406 C 131.644531 99.648438 132.242188 98.929688 132.925781 98.277344 C 133.605469 97.628906 134.351562 97.0625 135.164062 96.582031 C 135.976562 96.101562 136.832031 95.722656 137.730469 95.441406 C 138.898438 95.078125 140.089844 94.9375 141.3125 95.019531 C 142.53125 95.101562 143.691406 95.402344 144.800781 95.921875 L 173.167969 109.207031 C 170.175781 117.058594 166.800781 124.808594 163.074219 132.277344 C 157.332031 143.75 150.78125 154.738281 143.417969 165.246094 C 136.054688 175.753906 127.964844 185.664062 119.140625 194.976562 C 118.867188 195.265625 118.660156 195.59375 118.519531 195.964844 C 118.378906 196.335938 118.316406 196.71875 118.328125 197.113281 C 118.339844 197.511719 118.425781 197.890625 118.585938 198.25 C 118.75 198.613281 118.972656 198.929688 119.261719 199.203125 C 119.550781 199.472656 119.878906 199.679688 120.25 199.820312 C 120.621094 199.960938 121.003906 200.027344 121.398438 200.015625 C 121.796875 200.003906 122.175781 199.917969 122.535156 199.757812 C 122.898438 199.59375 123.214844 199.371094 123.488281 199.082031 C 132.511719 189.554688 140.789062 179.417969 148.320312 168.671875 C 155.851562 157.921875 162.550781 146.679688 168.421875 134.945312 C 172.144531 127.484375 175.527344 119.738281 178.539062 111.898438 C 179.621094 112.597656 180.53125 113.472656 181.269531 114.527344 C 182.007812 115.585938 182.519531 116.742188 182.800781 117.996094 C 183.269531 120.160156 183.082031 122.261719 182.230469 124.304688 Z M 182.230469 124.304688 " fill-opacity="1" fill-rule="nonzero"/></g><path fill="#ffffff" d="M 149.65625 121.011719 C 149.792969 120.644531 149.855469 120.265625 149.84375 119.875 C 149.832031 119.480469 149.746094 119.109375 149.585938 118.75 C 149.425781 118.394531 149.207031 118.078125 148.921875 117.808594 C 148.640625 117.535156 148.316406 117.328125 147.953125 117.183594 C 147.589844 117.042969 147.214844 116.972656 146.820312 116.976562 C 146.429688 116.980469 146.054688 117.058594 145.695312 117.210938 C 145.332031 117.359375 145.015625 117.574219 144.738281 117.851562 C 144.460938 118.128906 144.246094 118.449219 144.097656 118.808594 C 139.289062 130.9375 133.660156 142.671875 127.210938 154.015625 C 117.484375 171.105469 106.085938 186.996094 93.019531 201.691406 C 92.753906 201.988281 92.558594 202.324219 92.425781 202.699219 C 92.296875 203.074219 92.242188 203.460938 92.265625 203.855469 C 92.289062 204.253906 92.386719 204.628906 92.558594 204.988281 C 92.730469 205.34375 92.96875 205.65625 93.265625 205.917969 C 93.5625 206.183594 93.898438 206.378906 94.273438 206.507812 C 94.648438 206.640625 95.035156 206.691406 95.429688 206.667969 C 95.828125 206.644531 96.203125 206.542969 96.558594 206.371094 C 96.917969 206.195312 97.226562 205.960938 97.488281 205.664062 C 108.589844 193.183594 118.519531 179.839844 127.28125 165.621094 C 136.042969 151.402344 143.5 136.535156 149.65625 121.011719 Z M 149.65625 121.011719 " fill-opacity="1" fill-rule="nonzero"/><g clip-path="url(#63c4c95637)"><g transform="matrix(1, 0, 0, 1, 185, 57)"><g clip-path="url(#77a6e8bf14)"><g clip-path="url(#37411f795f)"><path fill="#ffffff" d="M 1.34375 59.742188 C 1.726562 57.980469 2.390625 56.335938 3.335938 54.800781 C 4.28125 53.269531 5.453125 51.933594 6.855469 50.800781 L 6.742188 50.5625 C 5.992188 48.964844 5.398438 47.316406 4.953125 45.609375 C 4.507812 43.902344 4.222656 42.167969 4.097656 40.410156 C 3.96875 38.652344 4.007812 36.894531 4.203125 35.144531 C 4.402344 33.390625 4.757812 31.671875 5.269531 29.984375 C 5.785156 28.296875 5.804688 26.605469 5.328125 24.90625 L 2.183594 13.652344 C 2.003906 12.980469 1.894531 12.296875 1.859375 11.605469 C 1.820312 10.910156 1.859375 10.222656 1.96875 9.535156 C 2.078125 8.851562 2.261719 8.183594 2.511719 7.539062 C 2.765625 6.890625 3.082031 6.277344 3.46875 5.699219 C 3.851562 5.117188 4.289062 4.585938 4.789062 4.101562 C 5.285156 3.617188 5.828125 3.1875 6.414062 2.820312 C 7.003906 2.449219 7.625 2.144531 8.277344 1.910156 C 8.929688 1.671875 9.597656 1.507812 10.285156 1.410156 L 14.886719 0.820312 C 15.445312 0.746094 16.007812 0.71875 16.570312 0.742188 C 17.136719 0.769531 17.691406 0.839844 18.246094 0.960938 C 18.796875 1.085938 19.332031 1.253906 19.855469 1.46875 C 20.375 1.683594 20.875 1.945312 21.351562 2.246094 C 21.828125 2.550781 22.273438 2.894531 22.691406 3.273438 C 23.109375 3.65625 23.488281 4.070312 23.832031 4.519531 C 24.175781 4.96875 24.476562 5.441406 24.738281 5.941406 C 25 6.445312 25.214844 6.964844 25.382812 7.5 L 27.058594 12.773438 C 27.71875 14.839844 28.765625 16.6875 30.203125 18.316406 C 31.636719 19.945312 33.335938 21.21875 35.304688 22.132812 C 38.527344 23.699219 42.816406 25.171875 44.78125 28.382812 L 47.445312 32.1875 C 48.421875 32.097656 49.394531 32.085938 50.371094 32.160156 C 51.34375 32.230469 52.308594 32.382812 53.257812 32.613281 C 54.207031 32.84375 55.132812 33.152344 56.03125 33.535156 C 56.929688 33.921875 57.789062 34.378906 58.613281 34.90625 C 59.4375 35.433594 60.210938 36.023438 60.933594 36.683594 C 61.660156 37.339844 62.324219 38.050781 62.929688 38.816406 C 63.539062 39.582031 64.078125 40.394531 64.546875 41.253906 C 65.019531 42.109375 65.417969 42.996094 65.742188 43.921875 C 67.511719 48.445312 81.375 88.042969 83.167969 91.359375 L 97.042969 121.976562 C 98.542969 125.222656 100.273438 128.34375 102.234375 131.339844 C 104.195312 134.332031 106.367188 137.164062 108.746094 139.835938 C 111.128906 142.507812 113.691406 144.992188 116.4375 147.285156 C 119.1875 149.578125 122.089844 151.65625 125.144531 153.519531 C 125.734375 153.941406 126.25 154.4375 126.691406 155.011719 C 127.132812 155.585938 127.480469 156.210938 127.734375 156.890625 C 127.992188 157.566406 128.140625 158.269531 128.1875 158.992188 C 128.238281 159.714844 128.175781 160.429688 128.011719 161.132812 C 127.847656 161.839844 127.582031 162.503906 127.21875 163.128906 C 126.855469 163.757812 126.410156 164.316406 125.878906 164.8125 C 125.347656 165.304688 124.757812 165.710938 124.105469 166.027344 C 123.457031 166.34375 122.773438 166.5625 122.058594 166.675781 C 116.5625 167.613281 111.027344 168.105469 105.449219 168.15625 C 100.179688 168.15625 94.953125 167.691406 89.765625 166.757812 C 84.582031 165.824219 79.519531 164.4375 74.578125 162.601562 C 69.640625 160.765625 64.902344 158.503906 60.367188 155.824219 C 55.832031 153.140625 51.570312 150.078125 47.582031 146.632812 C 41.152344 141.597656 35.460938 135.832031 30.5 129.347656 C 25.535156 122.859375 21.464844 115.855469 18.285156 108.335938 L 2.238281 69.59375 C 1.589844 68.039062 1.1875 66.417969 1.035156 64.738281 C 0.882812 63.054688 0.984375 61.390625 1.34375 59.742188 Z M 37.308594 29.664062 C 30.152344 26.890625 23.605469 22.277344 21.359375 14.582031 L 19.683594 9.3125 C 19.550781 8.894531 19.351562 8.515625 19.085938 8.171875 C 18.820312 7.824219 18.503906 7.535156 18.136719 7.300781 C 17.765625 7.066406 17.371094 6.902344 16.945312 6.808594 C 16.519531 6.710938 16.089844 6.691406 15.65625 6.75 L 11.054688 7.34375 C 10.789062 7.378906 10.53125 7.441406 10.28125 7.535156 C 10.03125 7.625 9.792969 7.738281 9.566406 7.882812 C 9.339844 8.023438 9.132812 8.1875 8.941406 8.375 C 8.75 8.558594 8.578125 8.765625 8.433594 8.988281 C 8.285156 9.207031 8.164062 9.445312 8.066406 9.691406 C 7.96875 9.941406 7.898438 10.199219 7.855469 10.460938 C 7.8125 10.726562 7.800781 10.988281 7.816406 11.257812 C 7.828125 11.523438 7.871094 11.785156 7.941406 12.042969 L 11.085938 23.292969 C 11.875 26.113281 11.84375 28.925781 10.992188 31.726562 C 10.183594 34.386719 9.871094 37.101562 10.058594 39.878906 C 10.242188 42.652344 10.917969 45.304688 12.074219 47.832031 L 41.460938 34.066406 C 40.359375 32.527344 39.15625 30.382812 37.308594 29.664062 Z M 7.761719 67.304688 L 23.808594 106.046875 C 26.8125 113.136719 30.660156 119.734375 35.347656 125.84375 C 40.035156 131.953125 45.414062 137.375 51.488281 142.109375 C 53.695312 144.011719 56 145.792969 58.398438 147.457031 C 60.792969 149.117188 63.273438 150.644531 65.832031 152.042969 C 68.390625 153.441406 71.015625 154.699219 73.707031 155.820312 C 76.402344 156.941406 79.144531 157.914062 81.941406 158.746094 C 84.734375 159.574219 87.566406 160.253906 90.433594 160.785156 C 93.300781 161.316406 96.191406 161.691406 99.097656 161.917969 C 102.003906 162.140625 104.914062 162.210938 107.832031 162.128906 C 110.746094 162.042969 113.648438 161.804688 116.539062 161.414062 C 111.871094 160.253906 107.417969 158.539062 103.183594 156.261719 C 102.835938 156.074219 102.535156 155.828125 102.285156 155.519531 C 102.03125 155.214844 101.851562 154.871094 101.734375 154.492188 C 101.621094 154.113281 101.582031 153.726562 101.621094 153.332031 C 101.664062 152.9375 101.773438 152.566406 101.960938 152.214844 C 102.148438 151.867188 102.394531 151.566406 102.703125 151.316406 C 103.007812 151.066406 103.351562 150.882812 103.730469 150.765625 C 104.109375 150.652344 104.496094 150.613281 104.890625 150.652344 C 105.285156 150.691406 105.65625 150.804688 106.007812 150.988281 C 109.640625 152.945312 113.457031 154.4375 117.453125 155.472656 C 111.820312 151.5625 106.8125 146.976562 102.421875 141.710938 C 98.035156 136.445312 94.425781 130.6875 91.59375 124.445312 C 89.351562 119.226562 76.460938 91.714844 74.914062 86.917969 L 60.117188 45.953125 C 59.796875 45.066406 59.375 44.230469 58.859375 43.441406 C 58.347656 42.648438 57.746094 41.929688 57.066406 41.277344 C 56.382812 40.628906 55.636719 40.0625 54.824219 39.582031 C 54.015625 39.101562 53.15625 38.722656 52.257812 38.441406 C 51.089844 38.078125 49.898438 37.9375 48.679688 38.019531 C 47.460938 38.101562 46.296875 38.402344 45.191406 38.921875 L 16.824219 52.207031 C 19.816406 60.058594 23.191406 67.808594 26.917969 75.277344 C 32.660156 86.75 39.210938 97.738281 46.574219 108.246094 C 53.933594 118.753906 62.027344 128.664062 70.851562 137.976562 C 71.121094 138.265625 71.328125 138.59375 71.46875 138.964844 C 71.609375 139.335938 71.675781 139.71875 71.664062 140.113281 C 71.652344 140.511719 71.566406 140.890625 71.402344 141.25 C 71.242188 141.613281 71.015625 141.929688 70.726562 142.203125 C 70.441406 142.472656 70.109375 142.679688 69.738281 142.820312 C 69.371094 142.960938 68.988281 143.027344 68.589844 143.015625 C 68.195312 143.003906 67.816406 142.917969 67.453125 142.757812 C 67.09375 142.59375 66.773438 142.371094 66.503906 142.082031 C 57.476562 132.554688 49.199219 122.417969 41.671875 111.671875 C 34.140625 100.921875 27.441406 89.679688 21.566406 77.945312 C 17.84375 70.484375 14.464844 62.738281 11.449219 54.898438 C 10.367188 55.597656 9.457031 56.472656 8.71875 57.527344 C 7.980469 58.585938 7.472656 59.742188 7.1875 60.996094 C 6.71875 63.160156 6.910156 65.261719 7.761719 67.304688 Z M 7.761719 67.304688 " fill-opacity="1" fill-rule="nonzero"/></g><path fill="#ffffff" d="M 40.335938 64.011719 C 40.199219 63.644531 40.136719 63.265625 40.148438 62.875 C 40.160156 62.480469 40.246094 62.109375 40.40625 61.75 C 40.5625 61.394531 40.785156 61.078125 41.066406 60.808594 C 41.347656 60.535156 41.671875 60.328125 42.035156 60.183594 C 42.398438 60.042969 42.777344 59.972656 43.167969 59.976562 C 43.558594 59.980469 43.9375 60.058594 44.296875 60.210938 C 44.65625 60.359375 44.976562 60.574219 45.253906 60.851562 C 45.527344 61.128906 45.742188 61.449219 45.894531 61.808594 C 50.703125 73.9375 56.332031 85.671875 62.777344 97.015625 C 72.507812 114.105469 83.90625 129.996094 96.96875 144.691406 C 97.234375 144.988281 97.433594 145.324219 97.5625 145.699219 C 97.695312 146.074219 97.75 146.460938 97.726562 146.855469 C 97.703125 147.253906 97.605469 147.628906 97.429688 147.988281 C 97.257812 148.34375 97.023438 148.65625 96.726562 148.917969 C 96.429688 149.183594 96.09375 149.378906 95.71875 149.507812 C 95.34375 149.640625 94.957031 149.691406 94.558594 149.667969 C 94.164062 149.644531 93.785156 149.542969 93.429688 149.371094 C 93.074219 149.195312 92.761719 148.960938 92.5 148.664062 C 81.402344 136.183594 71.472656 122.839844 62.710938 108.621094 C 53.949219 94.402344 46.492188 79.535156 40.335938 64.011719 Z M 40.335938 64.011719 " fill-opacity="1" fill-rule="nonzero"/></g></g></g></svg>