<svg xmlns="http://www.w3.org/2000/svg" xmlns:xlink="http://www.w3.org/1999/xlink" width="500" zoomAndPan="magnify" viewBox="0 0 375 374.999991" height="500" preserveAspectRatio="xMidYMid meet" version="1.0"><defs><g/><clipPath id="98a9cc7b30"><path d="M 40.5 6.976562 L 334.5 6.976562 L 334.5 300.976562 L 40.5 300.976562 Z M 40.5 6.976562 " clip-rule="nonzero"/></clipPath><clipPath id="fd66a9485f"><path d="M 187.5 6.976562 C 106.3125 6.976562 40.5 72.789062 40.5 153.976562 C 40.5 235.160156 106.3125 300.976562 187.5 300.976562 C 268.6875 300.976562 334.5 235.160156 334.5 153.976562 C 334.5 72.789062 268.6875 6.976562 187.5 6.976562 Z M 187.5 6.976562 " clip-rule="nonzero"/></clipPath><clipPath id="23f1f18261"><path d="M 0.5 0.976562 L 294.5 0.976562 L 294.5 294.976562 L 0.5 294.976562 Z M 0.5 0.976562 " clip-rule="nonzero"/></clipPath><clipPath id="67e8969c8a"><path d="M 147.5 0.976562 C 66.3125 0.976562 0.5 66.789062 0.5 147.976562 C 0.5 229.160156 66.3125 294.976562 147.5 294.976562 C 228.6875 294.976562 294.5 229.160156 294.5 147.976562 C 294.5 66.789062 228.6875 0.976562 147.5 0.976562 Z M 147.5 0.976562 " clip-rule="nonzero"/></clipPath><clipPath id="a8754adaf8"><rect x="0" width="295" y="0" height="295"/></clipPath><clipPath id="fbd1b96579"><path d="M 62.425781 28.898438 L 312.925781 28.898438 L 312.925781 279.398438 L 62.425781 279.398438 Z M 62.425781 28.898438 " clip-rule="nonzero"/></clipPath></defs><g clip-path="url(#98a9cc7b30)"><g clip-path="url(#fd66a9485f)"><g transform="matrix(1, 0, 0, 1, 40, 6)"><g clip-path="url(#a8754adaf8)"><g clip-path="url(#23f1f18261)"><g clip-path="url(#67e8969c8a)"><path fill="#ffa724" d="M 0.5 0.976562 L 294.5 0.976562 L 294.5 294.976562 L 0.5 294.976562 Z M 0.5 0.976562 " fill-opacity="1" fill-rule="nonzero"/></g></g></g></g></g></g><g clip-path="url(#fbd1b96579)"><path stroke-linecap="round" transform="matrix(10.437501, 0, 0, 10.437501, 62.424699, 28.899725)" fill="none" stroke-linejoin="miter" d="M 10.000103 5.999876 C 13.86612 5.999876 17.000102 9.133858 17.000102 12.999876 C 17.000102 13.374501 16.970536 13.74239 16.914024 14.100923 L 13.715671 10.903693 C 12.655791 11.963947 12.000103 13.428393 12.000103 15.045908 C 12.000103 16.583333 12.592168 17.982285 13.560731 19.027195 C 12.518067 19.645459 11.300252 19.999875 10.000103 19.999875 C 6.134085 19.999875 3.000103 16.865893 3.000103 12.999876 C 3.000103 9.133858 6.134085 5.999876 10.000103 5.999876 Z M 10.000103 6.999876 C 10.000103 5.774203 10.692468 4.653694 11.789025 4.105415 L 12.000103 3.999876 M 10.000103 6.999876 L 10.000103 5.459457 C 10.000103 4.029442 8.990747 2.798155 7.588426 2.517841 L 5.000103 1.999877 L 5.000103 2.54067 C 5.000103 3.970685 6.009459 5.201972 7.41178 5.482286 L 10.000103 5.999876 M 13.715671 10.999876 C 14.149055 11.433259 14.556614 11.840819 14.938725 12.22293 L 14.990372 12.274576 C 14.256465 13.008483 13.802498 14.022331 13.802498 15.142091 C 13.802498 17.381986 15.617992 19.19748 17.857887 19.19748 C 18.977647 19.19748 19.991494 18.743513 20.725401 18.009606 L 20.777048 18.061252 C 21.159159 18.443363 21.566719 18.850923 22.000102 19.284306 C 20.939847 20.344186 19.475401 20.999875 17.857887 20.999875 C 17.466794 20.999875 17.084683 20.961701 16.714923 20.888722 C 16.333935 20.813123 15.966045 20.700848 15.615746 20.555638 C 14.899803 20.258483 14.255342 19.823977 13.715671 19.284306 C 13.176001 18.744636 12.741495 18.100175 12.444339 17.384231 C 12.29913 17.033932 12.186854 16.666043 12.11163 16.285055 C 12.038276 15.915669 12.000103 15.533184 12.000103 15.142091 C 12.000103 13.524576 12.655791 12.06013 13.715671 10.999876 Z M 17.857887 15.142091 C 18.020312 15.304516 18.196958 15.481163 18.388201 15.672405 L 19.463051 16.747255 C 19.542767 16.826971 19.623979 16.908184 19.706689 16.990893 L 20.222782 17.506986 C 20.311853 17.596058 20.402797 17.687001 20.495237 17.779441 L 20.725401 18.009606 C 19.991494 18.743513 18.977647 19.19748 17.857887 19.19748 C 17.307737 19.19748 16.783411 19.088198 16.305492 18.889845 Z M 14.990372 12.274576 L 15.220537 12.505115 C 15.312977 12.597181 15.40392 12.688124 15.492992 12.777196 L 16.009084 13.293289 C 16.091794 13.375998 16.173006 13.457211 16.252722 13.536926 L 17.327572 14.611777 C 17.518815 14.803019 17.695461 14.979666 17.857887 15.142091 L 13.879594 15.933259 C 13.82907 15.677645 13.802498 15.413049 13.802498 15.142091 C 13.802498 14.022331 14.256465 13.008483 14.990372 12.274576 Z M 14.990372 12.274576 " stroke="#ffffff" stroke-width="1" stroke-opacity="1" stroke-miterlimit="4"/></g><g fill="#ffa724" fill-opacity="1"><g transform="translate(89.076106, 335.525018)"><g><path d="M 13.953125 0.1875 C 12.023438 0.1875 10.273438 -0.179688 8.703125 -0.921875 C 7.140625 -1.660156 5.796875 -2.664062 4.671875 -3.9375 C 3.554688 -5.207031 2.6875 -6.640625 2.0625 -8.234375 C 1.445312 -9.828125 1.140625 -11.460938 1.140625 -13.140625 C 1.140625 -14.890625 1.46875 -16.554688 2.125 -18.140625 C 2.78125 -19.734375 3.679688 -21.148438 4.828125 -22.390625 C 5.972656 -23.640625 7.328125 -24.628906 8.890625 -25.359375 C 10.460938 -26.085938 12.1875 -26.453125 14.0625 -26.453125 C 15.957031 -26.453125 17.6875 -26.066406 19.25 -25.296875 C 20.820312 -24.535156 22.160156 -23.515625 23.265625 -22.234375 C 24.378906 -20.953125 25.242188 -19.519531 25.859375 -17.9375 C 26.472656 -16.363281 26.78125 -14.738281 26.78125 -13.0625 C 26.78125 -11.332031 26.457031 -9.671875 25.8125 -8.078125 C 25.175781 -6.492188 24.285156 -5.078125 23.140625 -3.828125 C 21.992188 -2.585938 20.632812 -1.609375 19.0625 -0.890625 C 17.5 -0.171875 15.796875 0.1875 13.953125 0.1875 Z M 6.328125 -13.140625 C 6.328125 -12.003906 6.5 -10.90625 6.84375 -9.84375 C 7.1875 -8.78125 7.6875 -7.832031 8.34375 -7 C 9 -6.175781 9.800781 -5.523438 10.75 -5.046875 C 11.695312 -4.566406 12.773438 -4.328125 13.984375 -4.328125 C 15.222656 -4.328125 16.320312 -4.578125 17.28125 -5.078125 C 18.238281 -5.585938 19.035156 -6.269531 19.671875 -7.125 C 20.316406 -7.976562 20.804688 -8.925781 21.140625 -9.96875 C 21.472656 -11.019531 21.640625 -12.078125 21.640625 -13.140625 C 21.640625 -14.273438 21.460938 -15.363281 21.109375 -16.40625 C 20.753906 -17.457031 20.25 -18.394531 19.59375 -19.21875 C 18.9375 -20.050781 18.132812 -20.707031 17.1875 -21.1875 C 16.238281 -21.664062 15.171875 -21.90625 13.984375 -21.90625 C 12.722656 -21.90625 11.617188 -21.648438 10.671875 -21.140625 C 9.722656 -20.640625 8.925781 -19.96875 8.28125 -19.125 C 7.644531 -18.289062 7.160156 -17.351562 6.828125 -16.3125 C 6.492188 -15.28125 6.328125 -14.222656 6.328125 -13.140625 Z M 6.328125 -13.140625 "/></g></g></g><g fill="#ffa724" fill-opacity="1"><g transform="translate(117.045133, 335.525018)"><g/></g></g><g fill="#ffa724" fill-opacity="1"><g transform="translate(125.924191, 335.525018)"><g><path d="M 2.734375 0 L 2.734375 -26.265625 L 14.359375 -26.265625 C 15.566406 -26.265625 16.679688 -26.019531 17.703125 -25.53125 C 18.722656 -25.039062 19.609375 -24.375 20.359375 -23.53125 C 21.117188 -22.695312 21.703125 -21.757812 22.109375 -20.71875 C 22.515625 -19.6875 22.71875 -18.625 22.71875 -17.53125 C 22.71875 -16.425781 22.523438 -15.359375 22.140625 -14.328125 C 21.765625 -13.304688 21.21875 -12.414062 20.5 -11.65625 C 19.78125 -10.894531 18.941406 -10.300781 17.984375 -9.875 L 23.96875 0 L 18.359375 0 L 12.953125 -8.8125 L 7.84375 -8.8125 L 7.84375 0 Z M 7.84375 -13.28125 L 14.25 -13.28125 C 14.882812 -13.28125 15.445312 -13.472656 15.9375 -13.859375 C 16.4375 -14.242188 16.832031 -14.753906 17.125 -15.390625 C 17.425781 -16.035156 17.578125 -16.75 17.578125 -17.53125 C 17.578125 -18.375 17.398438 -19.109375 17.046875 -19.734375 C 16.703125 -20.367188 16.265625 -20.867188 15.734375 -21.234375 C 15.210938 -21.609375 14.640625 -21.796875 14.015625 -21.796875 L 7.84375 -21.796875 Z M 7.84375 -13.28125 "/></g></g></g><g fill="#ffa724" fill-opacity="1"><g transform="translate(150.526572, 335.525018)"><g/></g></g><g fill="#ffa724" fill-opacity="1"><g transform="translate(158.258704, 335.525018)"><g><path d="M 9.875 -26.265625 L 15.0625 -26.265625 L 24.71875 0 L 19.46875 0 L 17.015625 -6.546875 L 7.84375 -6.546875 L 5.4375 0 L 0.1875 0 Z M 16.09375 -10.140625 L 12.46875 -20.984375 L 8.6875 -10.140625 Z M 16.09375 -10.140625 "/></g></g></g><g fill="#ffa724" fill-opacity="1"><g transform="translate(181.973137, 335.525018)"><g/></g></g><g fill="#ffa724" fill-opacity="1"><g transform="translate(190.852195, 335.525018)"><g><path d="M 7.84375 -16.875 L 7.84375 0 L 2.734375 0 L 2.734375 -26.265625 L 6.8125 -26.265625 L 20.390625 -8.953125 L 20.390625 -26.234375 L 25.5 -26.234375 L 25.5 0 L 21.234375 0 Z M 7.84375 -16.875 "/></g></g></g><g fill="#ffa724" fill-opacity="1"><g transform="translate(219.08019, 335.525018)"><g/></g></g><g fill="#ffa724" fill-opacity="1"><g transform="translate(227.959249, 335.525018)"><g><path d="M 13.65625 0.1875 C 11.945312 0.1875 10.332031 -0.15625 8.8125 -0.84375 C 7.300781 -1.539062 5.972656 -2.5 4.828125 -3.71875 C 3.679688 -4.9375 2.785156 -6.359375 2.140625 -7.984375 C 1.503906 -9.617188 1.1875 -11.382812 1.1875 -13.28125 C 1.1875 -15.082031 1.503906 -16.773438 2.140625 -18.359375 C 2.785156 -19.953125 3.6875 -21.351562 4.84375 -22.5625 C 6.007812 -23.78125 7.367188 -24.734375 8.921875 -25.421875 C 10.472656 -26.109375 12.160156 -26.453125 13.984375 -26.453125 C 16.453125 -26.453125 18.566406 -25.925781 20.328125 -24.875 C 22.097656 -23.832031 23.425781 -22.445312 24.3125 -20.71875 L 20.5 -17.90625 C 19.832031 -19.21875 18.898438 -20.21875 17.703125 -20.90625 C 16.503906 -21.59375 15.203125 -21.9375 13.796875 -21.9375 C 12.691406 -21.9375 11.679688 -21.703125 10.765625 -21.234375 C 9.847656 -20.765625 9.054688 -20.125 8.390625 -19.3125 C 7.734375 -18.5 7.222656 -17.5625 6.859375 -16.5 C 6.503906 -15.4375 6.328125 -14.316406 6.328125 -13.140625 C 6.328125 -11.878906 6.515625 -10.71875 6.890625 -9.65625 C 7.273438 -8.59375 7.816406 -7.664062 8.515625 -6.875 C 9.222656 -6.09375 10.046875 -5.472656 10.984375 -5.015625 C 11.921875 -4.554688 12.957031 -4.328125 14.09375 -4.328125 C 15.425781 -4.328125 16.703125 -4.671875 17.921875 -5.359375 C 19.148438 -6.054688 20.289062 -7.070312 21.34375 -8.40625 L 21.34375 -3.359375 C 19.15625 -0.992188 16.59375 0.1875 13.65625 0.1875 Z M 20.984375 -9.765625 L 15.6875 -9.765625 L 15.6875 -13.5 L 25.203125 -13.5 L 25.203125 0 L 20.984375 0 Z M 20.984375 -9.765625 "/></g></g></g><g fill="#ffa724" fill-opacity="1"><g transform="translate(254.781394, 335.525018)"><g/></g></g><g fill="#ffa724" fill-opacity="1"><g transform="translate(263.660452, 335.525018)"><g><path d="M 20.984375 -4.484375 L 20.984375 0 L 2.734375 0 L 2.734375 -26.265625 L 20.640625 -26.265625 L 20.640625 -21.796875 L 7.84375 -21.796875 L 7.84375 -15.46875 L 18.90625 -15.46875 L 18.90625 -11.328125 L 7.84375 -11.328125 L 7.84375 -4.484375 Z M 20.984375 -4.484375 "/></g></g></g></svg>