<svg xmlns="http://www.w3.org/2000/svg" xmlns:xlink="http://www.w3.org/1999/xlink" width="500" zoomAndPan="magnify" viewBox="0 0 375 374.999991" height="500" preserveAspectRatio="xMidYMid meet" version="1.0"><defs><g/><clipPath id="345af244db"><path d="M 100.4375 100.4375 L 274.5625 100.4375 L 274.5625 274.5625 L 100.4375 274.5625 Z M 100.4375 100.4375 " clip-rule="nonzero"/></clipPath><clipPath id="1b72e2a3c3"><path d="M 187.5 100.4375 C 139.417969 100.4375 100.4375 139.417969 100.4375 187.5 C 100.4375 235.582031 139.417969 274.5625 187.5 274.5625 C 235.582031 274.5625 274.5625 235.582031 274.5625 187.5 C 274.5625 139.417969 235.582031 100.4375 187.5 100.4375 Z M 187.5 100.4375 " clip-rule="nonzero"/></clipPath><clipPath id="389d4df64d"><path d="M 0.4375 0.4375 L 174.5625 0.4375 L 174.5625 174.5625 L 0.4375 174.5625 Z M 0.4375 0.4375 " clip-rule="nonzero"/></clipPath><clipPath id="d1c59cd8a5"><path d="M 87.5 0.4375 C 39.417969 0.4375 0.4375 39.417969 0.4375 87.5 C 0.4375 135.582031 39.417969 174.5625 87.5 174.5625 C 135.582031 174.5625 174.5625 135.582031 174.5625 87.5 C 174.5625 39.417969 135.582031 0.4375 87.5 0.4375 Z M 87.5 0.4375 " clip-rule="nonzero"/></clipPath><clipPath id="4b6cdf482c"><rect x="0" width="175" y="0" height="175"/></clipPath><clipPath id="3a5c99077e"><path d="M 140.308594 113 L 234.808594 113 L 234.808594 218.738281 L 140.308594 218.738281 Z M 140.308594 113 " clip-rule="nonzero"/></clipPath></defs><g clip-path="url(#345af244db)"><g clip-path="url(#1b72e2a3c3)"><g transform="matrix(1, 0, 0, 1, 100, 100)"><g clip-path="url(#4b6cdf482c)"><g clip-path="url(#389d4df64d)"><g clip-path="url(#d1c59cd8a5)"><path fill="#ffa724" d="M 0.4375 0.4375 L 174.5625 0.4375 L 174.5625 174.5625 L 0.4375 174.5625 Z M 0.4375 0.4375 " fill-opacity="1" fill-rule="nonzero"/></g></g></g></g></g></g><g clip-path="url(#3a5c99077e)"><path fill="#ffffff" d="M 181.332031 127.15625 C 180.332031 125.96875 179.144531 125.015625 177.769531 124.292969 C 176.507812 123.679688 175.171875 123.347656 173.765625 123.308594 C 172.460938 123.265625 171.164062 123.148438 169.875 122.957031 C 169.089844 122.839844 168.378906 122.546875 167.742188 122.078125 C 167.101562 121.609375 166.609375 121.015625 166.261719 120.300781 C 165.625 119.0625 165.839844 117.890625 166.597656 116.8125 C 167 116.246094 167.707031 116.132812 168.347656 115.988281 C 168.589844 115.9375 168.835938 115.921875 169.085938 115.941406 C 169.910156 115.992188 170.289062 116.441406 170.210938 117.304688 C 170.5 117.367188 170.792969 117.410156 171.085938 117.441406 C 172.292969 117.5 173.5 117.601562 174.707031 117.574219 C 179.636719 117.464844 183.023438 119.882812 185.40625 124 C 185.46875 124.113281 185.539062 124.226562 185.636719 124.394531 C 185.707031 124.230469 185.753906 124.125 185.800781 124.015625 C 187.632812 119.867188 190.625 116.914062 194.894531 115.332031 C 201.085938 113.042969 207.191406 113.390625 213.21875 116.023438 C 217.105469 117.703125 220.476562 120.109375 223.328125 123.242188 C 224.648438 124.691406 226.066406 126.054688 227.511719 127.382812 C 228.710938 128.480469 230.121094 129.300781 231.5625 130.046875 C 231.984375 130.21875 232.269531 130.523438 232.414062 130.953125 C 231.90625 131.054688 231.410156 131.128906 230.925781 131.253906 C 228.949219 131.769531 226.996094 132.414062 224.996094 132.804688 C 220.695312 133.640625 216.65625 135.261719 212.546875 136.695312 C 211.539062 137.046875 210.507812 137.335938 209.441406 137.671875 C 209.507812 137.753906 209.578125 137.835938 209.652344 137.910156 C 214.453125 142.039062 218.039062 147.050781 220.585938 152.835938 C 221.921875 155.871094 222.804688 159.003906 222.992188 162.324219 C 222.996094 162.390625 223.003906 162.457031 223.015625 162.585938 C 223.152344 162.515625 223.257812 162.472656 223.347656 162.410156 C 224.511719 161.632812 225.671875 160.851562 226.832031 160.070312 C 227.003906 159.9375 227.195312 159.875 227.410156 159.882812 C 227.625 159.890625 227.8125 159.960938 227.976562 160.101562 C 228.753906 160.605469 229.359375 161.269531 229.789062 162.09375 C 230.570312 163.589844 231.269531 165.121094 231.894531 166.6875 C 233.480469 170.789062 234.347656 175.03125 234.503906 179.421875 C 234.679688 184.097656 233.855469 188.585938 232.03125 192.890625 C 230.589844 196.257812 228.445312 199.171875 226.007812 201.886719 C 222.3125 206.003906 217.734375 208.855469 212.757812 211.125 C 210.203125 212.289062 207.628906 213.445312 204.976562 214.359375 C 201.21875 215.652344 197.40625 216.820312 193.480469 217.527344 C 192.074219 217.78125 190.652344 217.886719 189.222656 217.84375 C 188.519531 217.824219 187.808594 218.007812 187.101562 218.082031 C 183.839844 218.402344 180.597656 218.292969 177.371094 217.746094 C 171.4375 216.820312 165.84375 214.894531 160.597656 211.972656 C 159.242188 211.253906 158.023438 210.347656 156.941406 209.257812 C 156.558594 208.863281 156.234375 208.425781 155.960938 207.949219 C 155.625 207.335938 155.734375 206.828125 156.3125 206.433594 C 157.867188 205.375 159.449219 204.359375 161.019531 203.332031 C 162.316406 202.484375 163.613281 201.644531 165.015625 200.730469 C 164.773438 200.667969 164.636719 200.636719 164.503906 200.597656 C 158.816406 198.980469 153.722656 196.308594 149.96875 191.652344 C 143.589844 183.742188 140.300781 174.726562 140.761719 164.460938 C 140.894531 160.941406 141.4375 157.484375 142.394531 154.089844 C 143.355469 150.699219 144.695312 147.464844 146.425781 144.394531 C 148.570312 140.640625 151.398438 137.496094 154.90625 134.96875 C 159.90625 131.285156 165.539062 129.070312 171.617188 127.929688 C 174.667969 127.367188 177.742188 127.148438 180.84375 127.265625 C 180.988281 127.269531 181.132812 127.265625 181.28125 127.265625 Z M 220.808594 164.113281 C 220.652344 163.203125 220.507812 162.371094 220.367188 161.539062 C 220.21875 160.6875 220.109375 159.828125 219.921875 158.984375 C 219.351562 156.375 218.222656 153.980469 217.027344 151.609375 C 214.449219 146.484375 210.824219 142.246094 206.292969 138.757812 C 206.039062 138.542969 205.75 138.472656 205.425781 138.542969 C 201.964844 139.164062 198.511719 139.164062 195.085938 138.300781 C 193.226562 137.835938 191.414062 137.253906 189.824219 136.136719 C 188.109375 134.933594 186.8125 133.378906 185.9375 131.472656 C 185.574219 130.6875 185.082031 130.472656 184.300781 130.382812 C 176.074219 129.457031 168.257812 130.796875 160.902344 134.617188 C 156.070312 137.125 152.085938 140.605469 149.277344 145.292969 C 144.90625 152.589844 143.140625 160.554688 143.617188 169.011719 C 143.960938 175.171875 146.015625 180.800781 149.226562 186.046875 C 151.546875 189.839844 154.40625 193.054688 158.378906 195.191406 C 160.757812 196.46875 163.207031 197.5625 165.84375 198.195312 C 166.480469 198.347656 167.105469 198.488281 167.519531 199.085938 C 168.632812 198.375 169.71875 197.679688 170.808594 196.992188 C 177 193.09375 183.195312 189.203125 188.976562 184.699219 C 189.746094 184.101562 190.566406 183.566406 191.367188 183.011719 C 191.742188 182.753906 192.148438 182.589844 192.601562 182.808594 C 193.15625 183.078125 193.734375 183.164062 194.339844 183.0625 C 194.945312 182.964844 195.46875 182.699219 195.910156 182.269531 C 196.355469 181.816406 196.527344 181.269531 196.429688 180.640625 C 196.390625 180.457031 196.40625 180.277344 196.476562 180.101562 C 196.546875 179.929688 196.660156 179.789062 196.816406 179.683594 C 197.5625 179.148438 198.296875 178.585938 199.070312 178.097656 C 201.074219 176.824219 203.113281 175.605469 205.113281 174.328125 C 209.261719 171.671875 213.402344 169.003906 217.535156 166.320312 C 218.671875 165.582031 219.785156 164.804688 220.808594 164.113281 Z M 223.378906 164.5 C 223.113281 164.679688 222.851562 164.855469 222.589844 165.027344 C 218.328125 167.863281 214.113281 170.773438 209.789062 173.511719 C 206.035156 175.886719 202.160156 178.070312 198.34375 180.351562 C 198.203125 180.4375 198.121094 180.5625 198.097656 180.726562 C 198.152344 181.84375 197.855469 182.84375 197.019531 183.597656 C 195.765625 184.726562 194.296875 185.152344 192.632812 184.699219 C 192.398438 184.617188 192.1875 184.660156 192 184.824219 C 190.355469 186.105469 188.699219 187.378906 187.042969 188.644531 C 183.015625 191.707031 178.726562 194.378906 174.445312 197.0625 C 170.703125 199.410156 166.9375 201.722656 163.179688 204.050781 C 163.144531 204.085938 163.109375 204.121094 163.082031 204.164062 C 163.511719 204.46875 163.925781 204.757812 164.332031 205.054688 C 169.917969 209.109375 176.242188 210.820312 183.058594 210.996094 C 183.46875 211.011719 183.773438 210.84375 183.972656 210.488281 C 184.292969 210.023438 184.570312 209.535156 184.800781 209.023438 C 186.003906 206.191406 186.730469 203.21875 187.359375 200.222656 C 187.9375 197.46875 188.367188 194.683594 188.9375 191.929688 C 189.234375 190.484375 189.78125 189.113281 190.820312 188.003906 C 190.941406 187.875 191.09375 187.769531 191.3125 187.582031 C 191.359375 187.777344 191.390625 187.972656 191.402344 188.171875 C 191.316406 189.5 191.332031 190.847656 191.097656 192.148438 C 190.578125 195.050781 190.039062 197.957031 189.308594 200.8125 C 188.601562 203.570312 187.671875 206.277344 186.789062 208.988281 C 186.449219 210.03125 185.96875 211.039062 185.144531 211.808594 C 184.820312 212.101562 184.445312 212.3125 184.027344 212.445312 C 183.613281 212.542969 183.191406 212.582031 182.761719 212.5625 C 180.453125 212.597656 178.203125 212.171875 175.953125 211.726562 C 171.347656 210.863281 167.152344 209.050781 163.371094 206.285156 C 162.976562 205.992188 162.585938 205.691406 162.222656 205.414062 C 161 206.21875 159.8125 207 158.539062 207.839844 C 159.316406 208.414062 160 208.988281 160.75 209.460938 C 163.226562 210.988281 165.839844 212.21875 168.59375 213.160156 C 173.175781 214.78125 177.871094 215.894531 182.757812 215.925781 C 185.058594 215.941406 187.359375 215.726562 189.660156 215.585938 C 192.386719 215.433594 195.058594 214.984375 197.679688 214.230469 C 199.722656 213.636719 201.789062 213.128906 203.847656 212.585938 C 204.222656 212.511719 204.59375 212.410156 204.953125 212.277344 C 206.34375 211.664062 207.730469 211.039062 209.097656 210.375 C 210.875 209.515625 212.644531 208.632812 214.40625 207.730469 C 219.097656 205.328125 223.230469 202.25 226.371094 197.933594 C 228.171875 195.457031 229.789062 192.882812 230.707031 189.9375 C 232.273438 184.921875 232.683594 179.832031 231.691406 174.644531 C 230.945312 170.738281 229.875 166.949219 228.0625 163.398438 C 227.800781 162.890625 227.5 162.402344 227.203125 161.871094 L 224.578125 163.703125 C 224.65625 163.796875 224.714844 163.871094 224.777344 163.941406 C 226.238281 165.546875 227.417969 167.339844 228.3125 169.316406 C 229.464844 171.847656 230.101562 174.46875 229.902344 177.261719 C 229.847656 178.023438 229.714844 178.761719 228.777344 178.953125 C 228.714844 178.980469 228.65625 179.015625 228.601562 179.058594 C 227.710938 179.601562 226.746094 179.945312 225.710938 180.082031 C 220.496094 180.710938 215.277344 180.757812 210.050781 180.226562 C 209.652344 180.1875 209.257812 180.105469 208.863281 180.039062 L 208.851562 179.925781 C 209.125 179.808594 209.394531 179.671875 209.671875 179.578125 C 211.707031 178.90625 213.792969 178.542969 215.933594 178.488281 C 218.871094 178.375 221.804688 178.253906 224.738281 178.09375 C 225.699219 178.058594 226.613281 177.828125 227.476562 177.410156 C 228.121094 177.085938 228.382812 176.621094 228.386719 175.875 C 228.394531 173.796875 227.816406 171.871094 226.988281 169.996094 C 226.085938 167.96875 224.882812 166.136719 223.378906 164.5 Z M 203.925781 120.042969 L 203.933594 120.148438 C 203.875 120.183594 203.816406 120.214844 203.753906 120.242188 C 202.15625 120.824219 200.566406 121.421875 198.960938 121.976562 C 196.484375 122.804688 194.316406 124.140625 192.460938 125.976562 C 192.125 126.308594 191.832031 126.683594 191.519531 127.039062 C 192.027344 127.003906 192.53125 126.941406 193.03125 126.851562 C 195.289062 126.554688 197.550781 126.273438 199.8125 125.976562 C 199.976562 125.953125 200.121094 125.878906 200.238281 125.761719 C 200.449219 125.535156 200.578125 125.222656 200.8125 125.023438 C 203.40625 122.8125 206.335938 121.578125 209.816406 122.011719 C 210.179688 122.054688 210.539062 122.152344 210.902344 122.222656 C 208.273438 123.445312 205.472656 124.148438 203.027344 125.65625 C 204.617188 125.65625 206.167969 125.636719 207.71875 125.660156 C 209.269531 125.683594 210.816406 125.753906 212.238281 125.796875 C 212.492188 125.453125 212.648438 125.058594 212.933594 124.882812 C 214.09375 124.113281 215.359375 123.8125 216.738281 123.972656 C 217.398438 124.03125 217.964844 124.289062 218.441406 124.75 C 217.761719 125.035156 217.164062 125.335938 216.539062 125.539062 C 215.898438 125.75 215.230469 125.867188 214.574219 126.023438 C 216.996094 126.457031 219.320312 127.203125 221.539062 128.265625 L 221.511719 128.40625 L 215.273438 128.40625 L 216.46875 129.9375 C 216.285156 129.988281 216.128906 130.035156 215.972656 130.070312 C 214.273438 130.449219 213.441406 130.050781 212.667969 128.511719 C 212.578125 128.378906 212.453125 128.304688 212.292969 128.292969 C 210.320312 128.230469 208.34375 128.171875 206.363281 128.144531 C 205.449219 128.128906 204.535156 128.1875 203.515625 128.214844 C 203.695312 128.425781 203.800781 128.5625 203.917969 128.691406 C 204.664062 129.449219 205.546875 129.988281 206.5625 130.304688 C 207.6875 130.699219 208.8125 131.09375 209.933594 131.5 C 210.164062 131.605469 210.382812 131.726562 210.59375 131.867188 C 210.425781 131.996094 210.246094 132.101562 210.054688 132.191406 C 209.226562 132.492188 208.378906 132.601562 207.503906 132.523438 C 205.804688 132.347656 204.328125 131.683594 203.0625 130.539062 C 202.496094 130.011719 202.085938 129.300781 201.65625 128.636719 C 201.511719 128.414062 201.410156 128.332031 201.15625 128.355469 C 199.558594 128.515625 197.957031 128.652344 196.359375 128.8125 C 195.546875 128.890625 194.738281 128.996094 193.882812 129.09375 C 193.972656 129.3125 194.035156 129.476562 194.113281 129.636719 C 195 131.460938 196.460938 132.640625 198.332031 133.347656 C 199.636719 133.84375 200.949219 134.328125 202.257812 134.816406 C 202.363281 134.855469 202.460938 134.90625 202.5625 134.953125 C 201.058594 135.441406 199.589844 135.757812 198.039062 135.214844 C 195.132812 134.199219 193.238281 132.246094 192.382812 129.222656 L 187.625 130.003906 C 188.46875 131.800781 189.578125 133.269531 191.148438 134.367188 C 192.589844 135.371094 194.261719 135.785156 195.9375 136.164062 C 199.140625 136.886719 202.34375 136.765625 205.546875 136.121094 C 208.558594 135.511719 211.4375 134.46875 214.3125 133.410156 C 217.613281 132.195312 220.921875 131.019531 224.40625 130.429688 C 225.210938 130.292969 226.015625 130.164062 226.878906 130.019531 C 226.753906 129.90625 226.679688 129.835938 226.597656 129.769531 C 225.933594 129.195312 225.234375 128.65625 224.609375 128.039062 C 223.128906 126.570312 221.714844 125.03125 220.214844 123.582031 C 217.25 120.734375 213.8125 118.6875 209.894531 117.445312 C 204.925781 115.832031 199.984375 115.917969 195.15625 117.953125 C 191.265625 119.589844 188.792969 122.535156 187.648438 126.589844 C 187.503906 127.089844 187.457031 127.621094 187.359375 128.164062 C 188.078125 127.980469 188.71875 127.824219 189.351562 127.648438 C 189.46875 127.59375 189.554688 127.507812 189.609375 127.394531 C 189.839844 126.898438 190.097656 126.414062 190.378906 125.949219 C 191.832031 123.894531 193.796875 122.453125 196.027344 121.328125 C 198.191406 120.238281 200.445312 119.613281 202.890625 119.855469 C 203.238281 119.890625 203.582031 119.976562 203.925781 120.042969 Z M 167.5 118.355469 C 167.503906 118.4375 167.515625 118.523438 167.535156 118.605469 C 167.628906 119.03125 167.820312 119.402344 168.113281 119.726562 C 168.402344 120.046875 168.753906 120.277344 169.167969 120.414062 C 170.421875 120.855469 171.726562 120.925781 173.027344 120.902344 C 174.515625 120.847656 175.953125 121.085938 177.34375 121.617188 C 178.734375 122.152344 179.964844 122.9375 181.03125 123.972656 C 181.996094 124.886719 182.851562 125.875 183.179688 127.21875 C 183.207031 127.308594 183.261719 127.371094 183.351562 127.40625 C 183.738281 127.457031 184.132812 127.484375 184.582031 127.527344 C 184.519531 127.15625 184.4375 126.792969 184.332031 126.433594 C 183.941406 125.320312 183.371094 124.3125 182.621094 123.402344 C 181.019531 121.488281 179.0625 120.1875 176.515625 119.96875 C 175.273438 119.863281 174.019531 119.867188 172.773438 119.789062 C 171.394531 119.703125 170.136719 119.359375 169.503906 117.988281 Z M 167.5 118.355469 " fill-opacity="1" fill-rule="nonzero"/></g><path fill="#ffffff" d="M 147.714844 153.550781 C 147.5 152.835938 147.496094 152.121094 147.695312 151.402344 C 148.175781 149.460938 149.148438 147.769531 150.3125 146.175781 C 154.339844 140.671875 159.464844 136.589844 165.898438 134.25 C 166.933594 133.871094 168.050781 133.71875 169.136719 133.496094 C 169.4375 133.445312 169.734375 133.460938 170.027344 133.542969 C 170.25 133.574219 170.378906 133.703125 170.417969 133.921875 C 170.457031 134.144531 170.378906 134.308594 170.183594 134.414062 C 170.019531 134.542969 169.839844 134.632812 169.640625 134.6875 C 166.285156 135.925781 163.171875 137.613281 160.304688 139.75 C 156.445312 142.53125 153.261719 145.941406 150.75 149.976562 C 150.191406 150.84375 149.582031 151.667969 148.917969 152.457031 C 148.542969 152.851562 148.140625 153.214844 147.714844 153.550781 Z M 147.714844 153.550781 " fill-opacity="1" fill-rule="nonzero"/><path fill="#ffffff" d="M 145.398438 157.628906 C 145.515625 157.121094 145.664062 156.621094 145.839844 156.132812 C 145.957031 155.839844 146.152344 155.625 146.429688 155.480469 C 146.710938 155.339844 147 155.308594 147.304688 155.386719 C 147.609375 155.464844 147.847656 155.632812 148.019531 155.894531 C 148.195312 156.15625 148.261719 156.441406 148.21875 156.75 C 148.160156 157.296875 148.046875 157.828125 147.882812 158.351562 C 147.800781 158.671875 147.617188 158.925781 147.34375 159.105469 C 147.066406 159.285156 146.761719 159.351562 146.4375 159.296875 C 145.808594 159.1875 145.398438 158.640625 145.398438 157.628906 Z M 145.398438 157.628906 " fill-opacity="1" fill-rule="nonzero"/><path fill="#ffffff" d="M 173.753906 142.804688 C 173.457031 142.863281 173.277344 142.917969 173.097656 142.933594 C 171.800781 143.042969 170.507812 143.148438 169.210938 143.253906 C 169.140625 143.257812 169.074219 143.257812 169.003906 143.253906 C 168.632812 143.230469 168.324219 143.09375 168.246094 142.691406 C 168.199219 142.515625 168.226562 142.347656 168.320312 142.191406 C 168.417969 142.03125 168.554688 141.933594 168.730469 141.890625 C 170.34375 141.417969 171.917969 141.386719 173.378906 142.382812 C 173.515625 142.507812 173.644531 142.648438 173.753906 142.804688 Z M 173.753906 142.804688 " fill-opacity="1" fill-rule="nonzero"/><path fill="#ffffff" d="M 158.992188 157.828125 C 158.449219 157.828125 157.90625 157.832031 157.363281 157.828125 C 156.585938 157.824219 155.863281 157.957031 155.269531 158.519531 C 155.152344 158.640625 155.011719 158.703125 154.84375 158.714844 C 154.675781 158.722656 154.527344 158.675781 154.398438 158.566406 C 154.261719 158.464844 154.171875 158.332031 154.125 158.164062 C 154.082031 157.996094 154.097656 157.835938 154.167969 157.679688 C 154.179688 157.640625 154.199219 157.601562 154.222656 157.570312 C 154.871094 156.660156 155.808594 156.335938 156.867188 156.332031 C 157.316406 156.320312 157.726562 156.433594 158.105469 156.675781 C 158.480469 156.914062 158.757812 157.238281 158.9375 157.648438 C 158.960938 157.707031 158.980469 157.769531 158.992188 157.828125 Z M 158.992188 157.828125 " fill-opacity="1" fill-rule="nonzero"/><path fill="#ffffff" d="M 179.910156 148.777344 C 179.851562 148.625 179.808594 148.464844 179.789062 148.300781 C 179.875 146.9375 180.308594 145.757812 181.574219 145.042969 C 182.003906 144.761719 182.460938 144.6875 182.953125 144.816406 C 183.179688 144.882812 183.371094 145.003906 183.527344 145.175781 C 183.722656 145.363281 183.761719 145.582031 183.65625 145.828125 C 183.550781 146.074219 183.363281 146.191406 183.09375 146.175781 C 182.492188 146.179688 182.011719 146.421875 181.648438 146.902344 C 181.214844 147.394531 180.78125 147.886719 180.339844 148.375 C 180.234375 148.492188 180.105469 148.59375 179.910156 148.777344 Z M 179.910156 148.777344 " fill-opacity="1" fill-rule="nonzero"/><path fill="#ffffff" d="M 181.789062 180.101562 C 180.648438 180.597656 179.527344 181.070312 178.425781 181.578125 C 178.117188 181.761719 177.824219 181.960938 177.546875 182.183594 C 177.273438 182.363281 176.972656 182.421875 176.71875 182.164062 C 176.601562 182.050781 176.542969 181.914062 176.539062 181.753906 C 176.535156 181.589844 176.585938 181.453125 176.699219 181.335938 C 176.980469 180.996094 177.296875 180.703125 177.65625 180.449219 C 178.597656 179.824219 179.597656 179.351562 180.785156 179.589844 C 181.191406 179.671875 181.574219 179.796875 181.789062 180.101562 Z M 181.789062 180.101562 " fill-opacity="1" fill-rule="nonzero"/><path fill="#ffffff" d="M 201.152344 140.488281 C 200.535156 140.589844 199.980469 140.671875 199.433594 140.773438 C 198.59375 140.90625 197.820312 141.207031 197.117188 141.683594 C 196.992188 141.796875 196.84375 141.847656 196.675781 141.839844 C 196.507812 141.835938 196.367188 141.769531 196.25 141.648438 C 195.972656 141.371094 196.011719 141.054688 196.203125 140.742188 C 197.054688 139.371094 199.726562 139.042969 200.875 140.167969 C 200.960938 140.25 201.035156 140.347656 201.152344 140.488281 Z M 201.152344 140.488281 " fill-opacity="1" fill-rule="nonzero"/><path fill="#ffffff" d="M 201.289062 167.722656 C 200.714844 167.949219 200.164062 168.121094 199.65625 168.382812 C 199.359375 168.546875 199.117188 168.773438 198.925781 169.050781 C 198.65625 169.429688 198.378906 169.617188 198.019531 169.523438 C 197.828125 169.46875 197.671875 169.363281 197.558594 169.199219 C 197.441406 169.035156 197.390625 168.855469 197.402344 168.65625 C 197.410156 168.4375 197.460938 168.226562 197.550781 168.027344 C 197.792969 167.554688 198.148438 167.203125 198.621094 166.960938 C 199.089844 166.71875 199.589844 166.640625 200.109375 166.71875 C 200.386719 166.761719 200.628906 166.875 200.839844 167.054688 C 201.054688 167.234375 201.203125 167.457031 201.289062 167.722656 Z M 201.289062 167.722656 " fill-opacity="1" fill-rule="nonzero"/><path fill="#ffffff" d="M 159.257812 175.699219 C 158.683594 175.972656 158.25 176.179688 157.820312 176.386719 C 157.285156 176.605469 156.910156 176.980469 156.6875 177.515625 C 156.628906 177.6875 156.519531 177.816406 156.355469 177.902344 C 156.195312 177.984375 156.027344 178.003906 155.851562 177.953125 C 155.675781 177.914062 155.535156 177.824219 155.429688 177.675781 C 155.324219 177.527344 155.28125 177.367188 155.304688 177.1875 C 155.390625 176.269531 155.941406 175.652344 156.722656 175.25 C 157.441406 174.875 158.15625 174.988281 158.824219 175.425781 C 158.953125 175.507812 159.078125 175.585938 159.257812 175.699219 Z M 159.257812 175.699219 " fill-opacity="1" fill-rule="nonzero"/><path fill="#ffffff" d="M 175.765625 156.425781 C 174.585938 156.878906 173.460938 157.335938 172.316406 157.734375 C 172.046875 157.804688 171.800781 157.75 171.585938 157.574219 C 171.4375 157.332031 171.382812 157.074219 171.425781 156.792969 C 171.480469 156.605469 171.585938 156.453125 171.746094 156.339844 C 172.679688 155.519531 174.628906 155.488281 175.59375 156.265625 C 175.648438 156.308594 175.691406 156.359375 175.765625 156.425781 Z M 175.765625 156.425781 " fill-opacity="1" fill-rule="nonzero"/><path fill="#ffffff" d="M 205.382812 157.820312 C 204.742188 157.886719 204.203125 157.929688 203.667969 158 C 203.148438 158.027344 202.753906 158.265625 202.484375 158.714844 C 202.414062 158.847656 202.304688 158.941406 202.160156 158.992188 C 202.015625 159.042969 201.875 159.039062 201.734375 158.980469 C 201.589844 158.9375 201.476562 158.851562 201.390625 158.726562 C 201.308594 158.601562 201.269531 158.464844 201.28125 158.316406 C 201.285156 158.179688 201.308594 158.046875 201.359375 157.917969 C 201.929688 156.5 204.085938 156.136719 205.066406 157.292969 C 205.1875 157.460938 205.292969 157.636719 205.382812 157.820312 Z M 205.382812 157.820312 " fill-opacity="1" fill-rule="nonzero"/><path fill="#ffffff" d="M 179.390625 168.445312 C 178.65625 168.445312 177.917969 168.421875 177.179688 168.449219 C 176.445312 168.476562 175.707031 168.542969 174.972656 168.609375 C 174.535156 168.648438 174.242188 168.519531 174.175781 168.214844 C 174.109375 167.90625 174.308594 167.648438 174.746094 167.550781 C 175.988281 167.28125 177.238281 167.105469 178.453125 167.644531 C 178.808594 167.828125 179.148438 168.035156 179.472656 168.265625 Z M 179.390625 168.445312 " fill-opacity="1" fill-rule="nonzero"/><path fill="#ffffff" d="M 170.035156 190.269531 C 170.105469 189.394531 170.847656 188.59375 171.6875 188.605469 C 171.964844 188.617188 172.191406 188.726562 172.367188 188.941406 C 172.4375 189.195312 172.398438 189.425781 172.242188 189.640625 C 171.929688 190.082031 171.558594 190.460938 171.441406 191.035156 C 171.351562 191.46875 170.738281 191.550781 170.445312 191.175781 C 170.273438 190.890625 170.136719 190.589844 170.035156 190.269531 Z M 170.035156 190.269531 " fill-opacity="1" fill-rule="nonzero"/><path fill="#ffffff" d="M 159.867188 149.773438 C 159.597656 148.660156 160.066406 146.773438 161.242188 146.144531 C 161.507812 146.003906 161.789062 145.910156 162.089844 145.867188 C 162.257812 145.867188 162.386719 145.9375 162.476562 146.082031 C 162.515625 146.242188 162.480469 146.386719 162.375 146.515625 C 162.1875 146.730469 161.914062 146.871094 161.742188 147.097656 C 161.292969 147.683594 160.878906 148.296875 160.457031 148.902344 C 160.269531 149.171875 160.089844 149.445312 159.867188 149.773438 Z M 159.867188 149.773438 " fill-opacity="1" fill-rule="nonzero"/><path fill="#ffffff" d="M 210.851562 161.453125 C 210.160156 161.472656 209.835938 161.007812 210.03125 160.550781 C 210.101562 160.34375 210.222656 160.171875 210.394531 160.035156 C 210.5625 159.898438 210.757812 159.816406 210.972656 159.789062 C 211.25 159.78125 211.480469 159.878906 211.667969 160.078125 C 211.808594 160.304688 211.824219 160.539062 211.707031 160.777344 C 211.449219 161.035156 211.164062 161.261719 210.851562 161.453125 Z M 210.851562 161.453125 " fill-opacity="1" fill-rule="nonzero"/><path fill="#ffffff" d="M 194.738281 186.371094 C 194.859375 186.757812 194.960938 187.148438 195.039062 187.546875 C 195.25 189.15625 194.96875 190.722656 194.558594 192.269531 C 193.617188 195.796875 192.609375 199.308594 191.722656 202.847656 C 191.308594 204.503906 191.109375 206.21875 190.8125 207.90625 C 190.804688 207.945312 190.800781 207.988281 190.800781 208.027344 C 190.71875 209.664062 191.007812 210.101562 192.824219 209.9375 C 194.957031 209.707031 197.0625 209.351562 199.152344 208.867188 C 203 208.035156 206.628906 206.546875 210.074219 204.6875 C 211.628906 203.851562 212.140625 202.371094 211.1875 200.972656 C 210.617188 200.09375 209.949219 199.304688 209.175781 198.597656 C 207.546875 197.167969 205.8125 195.859375 204.128906 194.496094 C 203.179688 193.726562 202.222656 192.960938 201.296875 192.167969 C 199.914062 190.996094 198.992188 189.53125 198.53125 187.777344 C 198.476562 187.574219 198.460938 187.359375 198.410156 187.046875 C 198.597656 187.1875 198.710938 187.257812 198.808594 187.347656 C 201.179688 189.542969 203.773438 191.460938 206.332031 193.425781 C 208.039062 194.734375 209.710938 196.105469 211.304688 197.550781 C 212.089844 198.285156 212.75 199.117188 213.285156 200.050781 C 213.550781 200.488281 213.738281 200.957031 213.84375 201.457031 C 213.945312 201.957031 213.964844 202.457031 213.894531 202.964844 C 213.824219 203.46875 213.671875 203.949219 213.433594 204.402344 C 213.195312 204.855469 212.890625 205.253906 212.515625 205.601562 C 212.023438 206.023438 211.484375 206.367188 210.890625 206.625 C 207.125 208.472656 203.277344 210.121094 199.132812 210.921875 C 197.234375 211.289062 195.316406 211.546875 193.398438 211.796875 C 192.671875 211.867188 191.945312 211.867188 191.21875 211.796875 C 189.964844 211.71875 188.933594 210.59375 188.769531 209.148438 C 188.601562 207.714844 188.671875 206.292969 188.984375 204.886719 C 189.542969 202.367188 190.160156 199.863281 190.820312 197.367188 C 191.523438 194.703125 192.257812 192.039062 193.070312 189.40625 C 193.359375 188.480469 193.921875 187.640625 194.371094 186.765625 C 194.476562 186.621094 194.601562 186.488281 194.738281 186.371094 Z M 194.738281 186.371094 " fill-opacity="1" fill-rule="nonzero"/><path fill="#ffffff" d="M 204.449219 181.617188 C 205.011719 181.546875 205.550781 181.46875 206.089844 181.414062 C 206.539062 181.367188 206.992188 181.316406 207.441406 181.3125 C 211.753906 181.28125 216.0625 181.246094 220.371094 181.238281 C 222.488281 181.234375 224.566406 181.496094 226.539062 182.320312 C 227.5 182.683594 228.355469 183.214844 229.105469 183.921875 C 229.515625 184.296875 229.695312 184.765625 229.648438 185.320312 C 229.554688 186.84375 229.015625 188.230469 228.441406 189.613281 C 227.082031 192.878906 225.03125 195.710938 222.847656 198.453125 C 222.300781 199.136719 221.699219 199.78125 221.089844 200.410156 C 220.675781 200.835938 220.144531 200.949219 219.542969 201.042969 C 217.617188 201.34375 216.132812 200.515625 214.785156 199.347656 C 213.167969 197.945312 211.625 196.457031 210.019531 195.039062 C 208.722656 193.894531 207.40625 192.769531 206.046875 191.703125 C 204.59375 190.5625 203.320312 189.28125 202.402344 187.664062 C 202.226562 187.355469 201.984375 187.085938 201.785156 186.792969 C 201.660156 186.605469 201.554688 186.40625 201.441406 186.214844 L 201.519531 186.121094 C 201.824219 186.289062 202.128906 186.449219 202.433594 186.617188 C 206.425781 188.800781 209.695312 191.90625 213.015625 194.945312 C 214.089844 195.929688 215.144531 196.9375 216.273438 197.855469 C 216.882812 198.34375 217.554688 198.730469 218.285156 199.015625 C 219.097656 199.339844 219.855469 199.164062 220.539062 198.503906 C 222.546875 196.523438 224.230469 194.300781 225.59375 191.832031 C 226.660156 189.980469 227.46875 188.023438 228.027344 185.957031 C 228.1875 185.34375 228.179688 185.320312 227.636719 184.960938 C 226.363281 184.144531 224.96875 183.683594 223.457031 183.578125 C 221.910156 183.449219 220.363281 183.40625 218.8125 183.457031 C 215.585938 183.582031 212.363281 183.503906 209.144531 183.226562 C 207.667969 183.085938 206.246094 182.777344 204.953125 182.011719 C 204.808594 181.929688 204.667969 181.847656 204.53125 181.757812 C 204.5 181.738281 204.492188 181.695312 204.449219 181.617188 Z M 204.449219 181.617188 " fill-opacity="1" fill-rule="nonzero"/><g fill="#ffffff" fill-opacity="1"><g transform="translate(131.657941, 246.303325)"><g><path d="M 7.921875 0.109375 C 6.828125 0.109375 5.832031 -0.0976562 4.9375 -0.515625 C 4.050781 -0.941406 3.289062 -1.515625 2.65625 -2.234375 C 2.019531 -2.953125 1.523438 -3.765625 1.171875 -4.671875 C 0.828125 -5.578125 0.65625 -6.503906 0.65625 -7.453125 C 0.65625 -8.453125 0.835938 -9.398438 1.203125 -10.296875 C 1.578125 -11.203125 2.085938 -12.007812 2.734375 -12.71875 C 3.390625 -13.425781 4.160156 -13.984375 5.046875 -14.390625 C 5.941406 -14.804688 6.921875 -15.015625 7.984375 -15.015625 C 9.054688 -15.015625 10.035156 -14.796875 10.921875 -14.359375 C 11.816406 -13.929688 12.578125 -13.351562 13.203125 -12.625 C 13.835938 -11.894531 14.328125 -11.082031 14.671875 -10.1875 C 15.023438 -9.289062 15.203125 -8.363281 15.203125 -7.40625 C 15.203125 -6.425781 15.019531 -5.484375 14.65625 -4.578125 C 14.289062 -3.679688 13.78125 -2.878906 13.125 -2.171875 C 12.476562 -1.460938 11.707031 -0.90625 10.8125 -0.5 C 9.925781 -0.09375 8.960938 0.109375 7.921875 0.109375 Z M 3.59375 -7.453125 C 3.59375 -6.804688 3.6875 -6.179688 3.875 -5.578125 C 4.070312 -4.984375 4.359375 -4.453125 4.734375 -3.984375 C 5.109375 -3.515625 5.5625 -3.140625 6.09375 -2.859375 C 6.632812 -2.585938 7.25 -2.453125 7.9375 -2.453125 C 8.632812 -2.453125 9.253906 -2.59375 9.796875 -2.875 C 10.347656 -3.164062 10.804688 -3.550781 11.171875 -4.03125 C 11.535156 -4.519531 11.8125 -5.0625 12 -5.65625 C 12.1875 -6.25 12.28125 -6.847656 12.28125 -7.453125 C 12.28125 -8.097656 12.175781 -8.71875 11.96875 -9.3125 C 11.769531 -9.90625 11.484375 -10.4375 11.109375 -10.90625 C 10.742188 -11.375 10.289062 -11.742188 9.75 -12.015625 C 9.21875 -12.296875 8.613281 -12.4375 7.9375 -12.4375 C 7.21875 -12.4375 6.585938 -12.289062 6.046875 -12 C 5.515625 -11.71875 5.066406 -11.335938 4.703125 -10.859375 C 4.335938 -10.378906 4.0625 -9.84375 3.875 -9.25 C 3.6875 -8.664062 3.59375 -8.066406 3.59375 -7.453125 Z M 3.59375 -7.453125 "/></g></g></g><g fill="#ffffff" fill-opacity="1"><g transform="translate(147.525082, 246.303325)"><g/></g></g><g fill="#ffffff" fill-opacity="1"><g transform="translate(152.562267, 246.303325)"><g><path d="M 1.546875 0 L 1.546875 -14.90625 L 8.140625 -14.90625 C 8.828125 -14.90625 9.460938 -14.765625 10.046875 -14.484375 C 10.628906 -14.203125 11.132812 -13.820312 11.5625 -13.34375 C 11.988281 -12.875 12.316406 -12.34375 12.546875 -11.75 C 12.773438 -11.164062 12.890625 -10.566406 12.890625 -9.953125 C 12.890625 -9.328125 12.78125 -8.722656 12.5625 -8.140625 C 12.351562 -7.554688 12.046875 -7.046875 11.640625 -6.609375 C 11.234375 -6.179688 10.753906 -5.847656 10.203125 -5.609375 L 13.609375 0 L 10.421875 0 L 7.34375 -5 L 4.453125 -5 L 4.453125 0 Z M 4.453125 -7.53125 L 8.078125 -7.53125 C 8.441406 -7.53125 8.765625 -7.640625 9.046875 -7.859375 C 9.328125 -8.078125 9.550781 -8.367188 9.71875 -8.734375 C 9.882812 -9.097656 9.96875 -9.503906 9.96875 -9.953125 C 9.96875 -10.429688 9.867188 -10.847656 9.671875 -11.203125 C 9.484375 -11.554688 9.238281 -11.835938 8.9375 -12.046875 C 8.632812 -12.265625 8.304688 -12.375 7.953125 -12.375 L 4.453125 -12.375 Z M 4.453125 -7.53125 "/></g></g></g><g fill="#ffffff" fill-opacity="1"><g transform="translate(166.519481, 246.303325)"><g/></g></g><g fill="#ffffff" fill-opacity="1"><g transform="translate(170.905898, 246.303325)"><g><path d="M 5.609375 -14.90625 L 8.546875 -14.90625 L 14.03125 0 L 11.046875 0 L 9.65625 -3.71875 L 4.453125 -3.71875 L 3.09375 0 L 0.109375 0 Z M 9.140625 -5.75 L 7.078125 -11.90625 L 4.9375 -5.75 Z M 9.140625 -5.75 "/></g></g></g><g fill="#ffffff" fill-opacity="1"><g transform="translate(184.359262, 246.303325)"><g/></g></g><g fill="#ffffff" fill-opacity="1"><g transform="translate(189.396447, 246.303325)"><g><path d="M 4.453125 -9.578125 L 4.453125 0 L 1.546875 0 L 1.546875 -14.90625 L 3.859375 -14.90625 L 11.578125 -5.078125 L 11.578125 -14.890625 L 14.46875 -14.890625 L 14.46875 0 L 12.046875 0 Z M 4.453125 -9.578125 "/></g></g></g><g fill="#ffffff" fill-opacity="1"><g transform="translate(205.410507, 246.303325)"><g/></g></g><g fill="#ffffff" fill-opacity="1"><g transform="translate(210.447692, 246.303325)"><g><path d="M 7.75 0.109375 C 6.78125 0.109375 5.863281 -0.0859375 5 -0.484375 C 4.144531 -0.878906 3.390625 -1.421875 2.734375 -2.109375 C 2.085938 -2.804688 1.582031 -3.613281 1.21875 -4.53125 C 0.851562 -5.457031 0.671875 -6.457031 0.671875 -7.53125 C 0.671875 -8.5625 0.851562 -9.523438 1.21875 -10.421875 C 1.582031 -11.328125 2.09375 -12.125 2.75 -12.8125 C 3.40625 -13.5 4.175781 -14.035156 5.0625 -14.421875 C 5.945312 -14.816406 6.90625 -15.015625 7.9375 -15.015625 C 9.332031 -15.015625 10.53125 -14.71875 11.53125 -14.125 C 12.539062 -13.53125 13.296875 -12.742188 13.796875 -11.765625 L 11.640625 -10.15625 C 11.253906 -10.90625 10.722656 -11.472656 10.046875 -11.859375 C 9.367188 -12.253906 8.628906 -12.453125 7.828125 -12.453125 C 7.203125 -12.453125 6.628906 -12.316406 6.109375 -12.046875 C 5.585938 -11.785156 5.140625 -11.421875 4.765625 -10.953125 C 4.390625 -10.492188 4.097656 -9.960938 3.890625 -9.359375 C 3.691406 -8.765625 3.59375 -8.128906 3.59375 -7.453125 C 3.59375 -6.742188 3.695312 -6.085938 3.90625 -5.484375 C 4.125 -4.878906 4.429688 -4.351562 4.828125 -3.90625 C 5.234375 -3.457031 5.703125 -3.101562 6.234375 -2.84375 C 6.765625 -2.582031 7.351562 -2.453125 8 -2.453125 C 8.757812 -2.453125 9.484375 -2.648438 10.171875 -3.046875 C 10.867188 -3.441406 11.515625 -4.015625 12.109375 -4.765625 L 12.109375 -1.90625 C 10.867188 -0.5625 9.414062 0.109375 7.75 0.109375 Z M 11.90625 -5.546875 L 8.90625 -5.546875 L 8.90625 -7.671875 L 14.296875 -7.671875 L 14.296875 0 L 11.90625 0 Z M 11.90625 -5.546875 "/></g></g></g><g fill="#ffffff" fill-opacity="1"><g transform="translate(225.664202, 246.303325)"><g/></g></g><g fill="#ffffff" fill-opacity="1"><g transform="translate(230.701387, 246.303325)"><g><path d="M 11.90625 -2.546875 L 11.90625 0 L 1.546875 0 L 1.546875 -14.90625 L 11.71875 -14.90625 L 11.71875 -12.375 L 4.453125 -12.375 L 4.453125 -8.78125 L 10.734375 -8.78125 L 10.734375 -6.421875 L 4.453125 -6.421875 L 4.453125 -2.546875 Z M 11.90625 -2.546875 "/></g></g></g></svg>