<svg xmlns="http://www.w3.org/2000/svg" xmlns:xlink="http://www.w3.org/1999/xlink" width="500" zoomAndPan="magnify" viewBox="0 0 375 374.999991" height="500" preserveAspectRatio="xMidYMid meet" version="1.0"><defs><g/><clipPath id="a07e019158"><path d="M 100.4375 100.4375 L 274.5625 100.4375 L 274.5625 274.5625 L 100.4375 274.5625 Z M 100.4375 100.4375 " clip-rule="nonzero"/></clipPath><clipPath id="4e2e771fed"><path d="M 187.5 100.4375 C 139.417969 100.4375 100.4375 139.417969 100.4375 187.5 C 100.4375 235.582031 139.417969 274.5625 187.5 274.5625 C 235.582031 274.5625 274.5625 235.582031 274.5625 187.5 C 274.5625 139.417969 235.582031 100.4375 187.5 100.4375 Z M 187.5 100.4375 " clip-rule="nonzero"/></clipPath><clipPath id="186cf40358"><path d="M 0.4375 0.4375 L 174.5625 0.4375 L 174.5625 174.5625 L 0.4375 174.5625 Z M 0.4375 0.4375 " clip-rule="nonzero"/></clipPath><clipPath id="718f3442c1"><path d="M 87.5 0.4375 C 39.417969 0.4375 0.4375 39.417969 0.4375 87.5 C 0.4375 135.582031 39.417969 174.5625 87.5 174.5625 C 135.582031 174.5625 174.5625 135.582031 174.5625 87.5 C 174.5625 39.417969 135.582031 0.4375 87.5 0.4375 Z M 87.5 0.4375 " clip-rule="nonzero"/></clipPath><clipPath id="e5cea6b8dc"><rect x="0" width="175" y="0" height="175"/></clipPath></defs><g clip-path="url(#a07e019158)"><g clip-path="url(#4e2e771fed)"><g transform="matrix(1, 0, 0, 1, 100, 100)"><g clip-path="url(#e5cea6b8dc)"><g clip-path="url(#186cf40358)"><g clip-path="url(#718f3442c1)"><path fill="#d2b48b" d="M 0.4375 0.4375 L 174.5625 0.4375 L 174.5625 174.5625 L 0.4375 174.5625 Z M 0.4375 0.4375 " fill-opacity="1" fill-rule="nonzero"/></g></g></g></g></g></g><path fill="#ffffff" d="M 184.886719 142.367188 C 184.960938 142.425781 185.035156 142.460938 185.128906 142.5 C 185.222656 142.539062 185.300781 142.558594 185.394531 142.574219 C 185.488281 142.59375 185.582031 142.59375 185.675781 142.59375 C 185.769531 142.59375 185.863281 142.59375 185.960938 142.574219 C 186.054688 142.558594 186.148438 142.539062 186.222656 142.5 C 186.316406 142.460938 186.394531 142.425781 186.46875 142.367188 C 186.542969 142.3125 186.617188 142.253906 186.675781 142.199219 C 186.9375 141.933594 187.089844 141.578125 187.089844 141.199219 C 187.089844 140.824219 186.9375 140.464844 186.675781 140.203125 C 186.617188 140.125 186.542969 140.070312 186.46875 140.03125 C 186.394531 139.976562 186.316406 139.9375 186.222656 139.898438 C 186.148438 139.863281 186.054688 139.84375 185.960938 139.824219 C 185.769531 139.789062 185.582031 139.789062 185.414062 139.824219 C 185.320312 139.84375 185.222656 139.863281 185.148438 139.898438 C 185.054688 139.9375 184.980469 139.976562 184.902344 140.03125 C 184.828125 140.089844 184.753906 140.144531 184.695312 140.203125 C 184.433594 140.464844 184.28125 140.824219 184.28125 141.199219 C 184.28125 141.578125 184.433594 141.933594 184.695312 142.199219 C 184.734375 142.253906 184.792969 142.3125 184.886719 142.367188 Z M 184.886719 142.367188 " fill-opacity="1" fill-rule="nonzero"/><path fill="#ffffff" d="M 170.960938 152.582031 C 171.226562 153.015625 171.695312 153.238281 172.148438 153.238281 C 172.410156 153.238281 172.675781 153.164062 172.902344 153.015625 C 173.5625 152.597656 173.75 151.734375 173.335938 151.074219 C 172.109375 149.113281 169.679688 147.90625 166.855469 147.851562 C 166.0625 147.832031 165.421875 148.453125 165.402344 149.226562 C 165.382812 150 166.003906 150.660156 166.777344 150.679688 C 169.585938 150.734375 170.699219 152.148438 170.960938 152.582031 Z M 170.960938 152.582031 " fill-opacity="1" fill-rule="nonzero"/><path fill="#ffffff" d="M 164.421875 162.71875 C 163.652344 162.71875 163.011719 163.359375 163.011719 164.128906 C 163.011719 164.902344 163.652344 165.542969 164.421875 165.542969 C 165.195312 165.542969 165.835938 164.902344 165.835938 164.128906 C 165.835938 163.359375 165.195312 162.71875 164.421875 162.71875 Z M 164.421875 162.71875 " fill-opacity="1" fill-rule="nonzero"/><path fill="#ffffff" d="M 153.945312 182.066406 C 153.175781 182.164062 152.628906 182.878906 152.722656 183.652344 C 152.816406 184.421875 153.53125 184.96875 154.304688 184.875 C 157.039062 184.515625 158.355469 185.742188 158.695312 186.117188 C 158.976562 186.4375 159.375 186.609375 159.75 186.609375 C 160.089844 186.609375 160.410156 186.496094 160.671875 186.25 C 161.257812 185.742188 161.3125 184.835938 160.804688 184.253906 C 159.296875 182.519531 156.734375 181.710938 153.945312 182.066406 Z M 153.945312 182.066406 " fill-opacity="1" fill-rule="nonzero"/><path fill="#ffffff" d="M 194.570312 130.195312 C 196.753906 130.253906 197.640625 131.609375 197.867188 132.023438 C 198.132812 132.496094 198.601562 132.777344 199.109375 132.777344 C 199.335938 132.777344 199.5625 132.722656 199.769531 132.609375 C 200.46875 132.230469 200.710938 131.382812 200.355469 130.707031 C 199.28125 128.707031 197.152344 127.464844 194.644531 127.390625 C 193.855469 127.371094 193.214844 127.972656 193.195312 128.765625 C 193.175781 129.539062 193.796875 130.179688 194.570312 130.195312 Z M 194.570312 130.195312 " fill-opacity="1" fill-rule="nonzero"/><path fill="#ffffff" d="M 199.46875 144.628906 C 199.46875 145.421875 200.109375 146.042969 200.882812 146.042969 C 201.65625 146.042969 202.296875 145.402344 202.296875 144.628906 C 202.296875 143.855469 201.65625 143.214844 200.882812 143.214844 C 200.109375 143.214844 199.46875 143.839844 199.46875 144.628906 Z M 199.46875 144.628906 " fill-opacity="1" fill-rule="nonzero"/><path fill="#ffffff" d="M 200.410156 177.339844 C 200.375 177.246094 200.335938 177.167969 200.277344 177.09375 C 200.222656 177.019531 200.164062 176.941406 200.109375 176.886719 C 200.035156 176.832031 199.976562 176.753906 199.902344 176.71875 C 199.828125 176.660156 199.75 176.621094 199.65625 176.585938 C 199.5625 176.546875 199.488281 176.527344 199.394531 176.511719 C 199.203125 176.472656 199.015625 176.472656 198.847656 176.511719 C 198.753906 176.527344 198.660156 176.546875 198.582031 176.585938 C 198.488281 176.621094 198.414062 176.660156 198.339844 176.71875 C 198.261719 176.773438 198.1875 176.832031 198.132812 176.886719 C 198.074219 176.960938 198 177.019531 197.960938 177.09375 C 197.90625 177.167969 197.867188 177.246094 197.828125 177.339844 C 197.792969 177.433594 197.773438 177.507812 197.753906 177.601562 C 197.734375 177.695312 197.714844 177.789062 197.714844 177.886719 C 197.714844 177.980469 197.714844 178.074219 197.753906 178.167969 C 197.773438 178.261719 197.792969 178.355469 197.828125 178.429688 C 197.867188 178.527344 197.90625 178.601562 197.960938 178.675781 C 198.019531 178.75 198.074219 178.828125 198.132812 178.882812 C 198.1875 178.941406 198.261719 179.015625 198.339844 179.054688 C 198.414062 179.109375 198.488281 179.148438 198.582031 179.183594 C 198.675781 179.222656 198.753906 179.242188 198.847656 179.261719 C 198.941406 179.28125 199.035156 179.28125 199.128906 179.28125 C 199.222656 179.28125 199.316406 179.261719 199.414062 179.261719 C 199.507812 179.242188 199.601562 179.222656 199.675781 179.183594 C 199.769531 179.148438 199.84375 179.109375 199.921875 179.054688 C 199.996094 178.996094 200.070312 178.941406 200.128906 178.882812 C 200.183594 178.828125 200.261719 178.75 200.296875 178.675781 C 200.355469 178.601562 200.390625 178.527344 200.429688 178.429688 C 200.46875 178.355469 200.484375 178.261719 200.503906 178.167969 C 200.523438 178.074219 200.523438 177.980469 200.523438 177.886719 C 200.523438 177.789062 200.523438 177.695312 200.503906 177.601562 C 200.46875 177.507812 200.449219 177.433594 200.410156 177.339844 Z M 200.410156 177.339844 " fill-opacity="1" fill-rule="nonzero"/><path fill="#ffffff" d="M 209.679688 185.535156 C 209.132812 186.101562 209.132812 186.984375 209.699219 187.53125 C 209.984375 187.796875 210.339844 187.929688 210.679688 187.929688 C 211.039062 187.929688 211.414062 187.777344 211.695312 187.511719 C 212.242188 186.949219 212.242188 186.0625 211.679688 185.515625 C 211.113281 184.96875 210.226562 184.96875 209.679688 185.535156 Z M 209.679688 185.535156 " fill-opacity="1" fill-rule="nonzero"/><path fill="#ffffff" d="M 192.835938 192.300781 C 192.761719 192.242188 192.6875 192.203125 192.589844 192.167969 C 192.496094 192.128906 192.421875 192.109375 192.328125 192.09375 C 192.140625 192.054688 191.949219 192.054688 191.78125 192.09375 C 191.6875 192.109375 191.59375 192.128906 191.515625 192.167969 C 191.421875 192.203125 191.347656 192.242188 191.273438 192.300781 C 191.195312 192.355469 191.121094 192.414062 191.066406 192.46875 C 191.007812 192.542969 190.933594 192.601562 190.894531 192.675781 C 190.839844 192.75 190.800781 192.84375 190.765625 192.921875 C 190.726562 193.015625 190.707031 193.089844 190.6875 193.183594 C 190.667969 193.277344 190.667969 193.375 190.667969 193.46875 C 190.667969 193.5625 190.667969 193.65625 190.6875 193.75 C 190.707031 193.84375 190.726562 193.9375 190.765625 194.015625 C 190.800781 194.089844 190.839844 194.183594 190.894531 194.257812 C 190.953125 194.335938 191.007812 194.410156 191.066406 194.464844 C 191.140625 194.542969 191.195312 194.597656 191.273438 194.636719 C 191.347656 194.691406 191.441406 194.730469 191.515625 194.765625 C 191.59375 194.804688 191.6875 194.824219 191.78125 194.84375 C 191.875 194.863281 191.96875 194.863281 192.0625 194.863281 C 192.15625 194.863281 192.253906 194.863281 192.347656 194.84375 C 192.441406 194.824219 192.515625 194.804688 192.609375 194.765625 C 192.703125 194.730469 192.78125 194.691406 192.855469 194.636719 C 192.929688 194.578125 193.007812 194.523438 193.0625 194.464844 C 193.117188 194.410156 193.195312 194.335938 193.230469 194.257812 C 193.289062 194.183594 193.328125 194.109375 193.363281 194.015625 C 193.402344 193.917969 193.421875 193.84375 193.4375 193.75 C 193.457031 193.65625 193.476562 193.5625 193.476562 193.46875 C 193.476562 193.089844 193.328125 192.734375 193.0625 192.46875 C 192.988281 192.414062 192.929688 192.355469 192.835938 192.300781 Z M 192.835938 192.300781 " fill-opacity="1" fill-rule="nonzero"/><path fill="#ffffff" d="M 214.636719 161.871094 C 213.863281 161.832031 213.203125 162.453125 213.167969 163.226562 C 213.128906 164 213.75 164.660156 214.523438 164.695312 C 216.03125 164.753906 216.898438 166.109375 217.046875 166.824219 C 217.179688 167.503906 217.765625 167.972656 218.441406 167.972656 C 218.535156 167.972656 218.628906 167.972656 218.726562 167.957031 C 219.496094 167.804688 219.988281 167.070312 219.835938 166.296875 C 219.421875 164.1875 217.367188 161.964844 214.636719 161.871094 Z M 214.636719 161.871094 " fill-opacity="1" fill-rule="nonzero"/><path fill="#ffffff" d="M 234.042969 163.414062 C 232.949219 156.046875 228.523438 151.507812 221.511719 150.546875 C 219.988281 135.960938 215.691406 125.808594 208.777344 120.324219 C 203.519531 116.160156 196.699219 114.632812 188.523438 115.78125 C 179.929688 116.988281 176.066406 122.566406 172.335938 127.953125 C 171.054688 129.820312 169.71875 131.722656 168.210938 133.4375 C 166.15625 135.773438 163.21875 138.863281 158.621094 142.03125 C 151.328125 147.058594 145.921875 154.105469 142.980469 162.417969 C 140.285156 170.066406 139.855469 178.46875 141.773438 186.101562 C 143.394531 192.523438 146.578125 198.140625 151.007812 202.324219 C 155.792969 206.863281 162.011719 209.671875 168.945312 210.445312 C 170.980469 210.667969 173.015625 210.78125 175.011719 210.78125 C 178.554688 210.78125 182.003906 210.425781 185.320312 209.707031 C 188.859375 211.214844 192.589844 211.875 196.152344 211.875 C 199.957031 211.875 203.613281 211.121094 206.742188 209.839844 C 214.5625 206.636719 222.152344 199.308594 227.5625 189.738281 C 232.707031 180.636719 235.136719 170.800781 234.042969 163.414062 Z M 169.285156 207.636719 C 156.941406 206.28125 147.691406 197.953125 144.527344 185.402344 C 142.792969 178.542969 143.019531 170.328125 145.9375 162.527344 C 148.179688 162.246094 149.386719 163.1875 149.726562 163.507812 C 150.007812 163.773438 150.347656 163.90625 150.707031 163.90625 C 151.082031 163.90625 151.441406 163.753906 151.722656 163.472656 C 152.269531 162.90625 152.25 162.019531 151.6875 161.472656 C 150.535156 160.382812 148.933594 159.757812 147.164062 159.664062 C 149.859375 153.9375 154.117188 148.566406 160.242188 144.347656 C 165.082031 141.011719 168.191406 137.753906 170.359375 135.304688 C 171.019531 134.550781 171.660156 133.757812 172.242188 132.964844 C 172.28125 132.964844 172.335938 132.949219 172.375 132.949219 C 175.085938 132.34375 176.5 133.457031 176.859375 133.8125 C 177.140625 134.078125 177.480469 134.210938 177.839844 134.210938 C 178.214844 134.210938 178.574219 134.058594 178.855469 133.777344 C 179.402344 133.210938 179.382812 132.324219 178.816406 131.78125 C 177.6875 130.707031 176.125 130.082031 174.390625 129.988281 C 174.484375 129.859375 174.578125 129.707031 174.671875 129.574219 C 178.367188 124.242188 181.570312 119.625 188.917969 118.589844 C 190.539062 118.363281 192.082031 118.25 193.570312 118.25 C 198.902344 118.25 203.40625 119.683594 207.023438 122.546875 C 213.261719 127.484375 217.179688 136.847656 218.648438 150.375 C 213.636719 150.433594 210.359375 152.5625 206.929688 154.804688 C 203.5 157.027344 199.957031 159.34375 194.003906 160.230469 C 183.152344 161.832031 175.03125 168.371094 171.714844 178.167969 C 170.207031 182.613281 169.847656 187.382812 170.699219 191.921875 C 171.5625 196.59375 173.617188 200.703125 176.652344 203.8125 C 178.101562 205.300781 179.648438 206.542969 181.25 207.578125 C 177.40625 208.070312 173.390625 208.089844 169.285156 207.636719 Z M 205.6875 207.242188 C 197.960938 210.40625 186.617188 209.953125 178.6875 201.8125 C 173.371094 196.351562 171.640625 187.210938 174.410156 179.035156 C 174.558594 178.582031 174.730469 178.148438 174.898438 177.714844 C 176.785156 178.449219 177.460938 179.488281 177.820312 180.335938 C 178.046875 180.863281 178.574219 181.183594 179.121094 181.183594 C 179.308594 181.183594 179.496094 181.144531 179.683594 181.070312 C 180.402344 180.769531 180.738281 179.9375 180.417969 179.203125 C 179.609375 177.339844 178.195312 176 176.105469 175.132812 C 178.574219 170.632812 182.378906 167.164062 187.183594 165.035156 C 190.011719 165.730469 191.554688 167.351562 192.96875 169.558594 C 193.230469 169.972656 193.683594 170.199219 194.15625 170.199219 C 194.417969 170.199219 194.683594 170.121094 194.910156 169.972656 C 195.570312 169.558594 195.757812 168.671875 195.34375 168.011719 C 194.34375 166.449219 193.082031 164.828125 191.140625 163.640625 C 192.195312 163.359375 193.289062 163.132812 194.417969 162.960938 C 200.996094 162 204.96875 159.402344 208.476562 157.121094 C 211.828125 154.9375 214.5625 153.164062 218.839844 153.164062 C 219.367188 153.164062 219.910156 153.183594 220.476562 153.238281 C 228.203125 153.992188 230.59375 159.382812 231.234375 163.792969 C 233.269531 177.507812 221.625 200.703125 205.6875 207.242188 Z M 205.6875 207.242188 " fill-opacity="1" fill-rule="nonzero"/><g fill="#ffffff" fill-opacity="1"><g transform="translate(134.599347, 246.303382)"><g><path d="M 1.546875 0 L 1.546875 -14.90625 L 7.875 -14.90625 C 8.5625 -14.90625 9.191406 -14.765625 9.765625 -14.484375 C 10.335938 -14.203125 10.835938 -13.820312 11.265625 -13.34375 C 11.691406 -12.875 12.023438 -12.34375 12.265625 -11.75 C 12.503906 -11.164062 12.625 -10.566406 12.625 -9.953125 C 12.625 -9.109375 12.425781 -8.304688 12.03125 -7.546875 C 11.632812 -6.796875 11.09375 -6.179688 10.40625 -5.703125 C 9.726562 -5.234375 8.921875 -5 7.984375 -5 L 4.453125 -5 L 4.453125 0 Z M 4.453125 -7.53125 L 7.8125 -7.53125 C 8.164062 -7.53125 8.476562 -7.628906 8.75 -7.828125 C 9.03125 -8.023438 9.253906 -8.304688 9.421875 -8.671875 C 9.597656 -9.046875 9.6875 -9.472656 9.6875 -9.953125 C 9.6875 -10.472656 9.585938 -10.914062 9.390625 -11.28125 C 9.203125 -11.644531 8.957031 -11.914062 8.65625 -12.09375 C 8.363281 -12.28125 8.039062 -12.375 7.6875 -12.375 L 4.453125 -12.375 Z M 4.453125 -7.53125 "/></g></g></g><g fill="#ffffff" fill-opacity="1"><g transform="translate(147.108242, 246.303382)"><g/></g></g><g fill="#ffffff" fill-opacity="1"><g transform="translate(152.145428, 246.303382)"><g><path d="M 7.921875 0.109375 C 6.828125 0.109375 5.832031 -0.0976562 4.9375 -0.515625 C 4.050781 -0.941406 3.289062 -1.515625 2.65625 -2.234375 C 2.019531 -2.953125 1.523438 -3.765625 1.171875 -4.671875 C 0.828125 -5.578125 0.65625 -6.503906 0.65625 -7.453125 C 0.65625 -8.453125 0.835938 -9.398438 1.203125 -10.296875 C 1.578125 -11.203125 2.085938 -12.007812 2.734375 -12.71875 C 3.390625 -13.425781 4.160156 -13.984375 5.046875 -14.390625 C 5.941406 -14.804688 6.921875 -15.015625 7.984375 -15.015625 C 9.054688 -15.015625 10.035156 -14.796875 10.921875 -14.359375 C 11.816406 -13.929688 12.578125 -13.351562 13.203125 -12.625 C 13.835938 -11.894531 14.328125 -11.082031 14.671875 -10.1875 C 15.023438 -9.289062 15.203125 -8.363281 15.203125 -7.40625 C 15.203125 -6.425781 15.019531 -5.484375 14.65625 -4.578125 C 14.289062 -3.679688 13.78125 -2.878906 13.125 -2.171875 C 12.476562 -1.460938 11.707031 -0.90625 10.8125 -0.5 C 9.925781 -0.09375 8.960938 0.109375 7.921875 0.109375 Z M 3.59375 -7.453125 C 3.59375 -6.804688 3.6875 -6.179688 3.875 -5.578125 C 4.070312 -4.984375 4.359375 -4.453125 4.734375 -3.984375 C 5.109375 -3.515625 5.5625 -3.140625 6.09375 -2.859375 C 6.632812 -2.585938 7.25 -2.453125 7.9375 -2.453125 C 8.632812 -2.453125 9.253906 -2.59375 9.796875 -2.875 C 10.347656 -3.164062 10.804688 -3.550781 11.171875 -4.03125 C 11.535156 -4.519531 11.8125 -5.0625 12 -5.65625 C 12.1875 -6.25 12.28125 -6.847656 12.28125 -7.453125 C 12.28125 -8.097656 12.175781 -8.71875 11.96875 -9.3125 C 11.769531 -9.90625 11.484375 -10.4375 11.109375 -10.90625 C 10.742188 -11.375 10.289062 -11.742188 9.75 -12.015625 C 9.21875 -12.296875 8.613281 -12.4375 7.9375 -12.4375 C 7.21875 -12.4375 6.585938 -12.289062 6.046875 -12 C 5.515625 -11.71875 5.066406 -11.335938 4.703125 -10.859375 C 4.335938 -10.378906 4.0625 -9.84375 3.875 -9.25 C 3.6875 -8.664062 3.59375 -8.066406 3.59375 -7.453125 Z M 3.59375 -7.453125 "/></g></g></g><g fill="#ffffff" fill-opacity="1"><g transform="translate(168.012568, 246.303382)"><g/></g></g><g fill="#ffffff" fill-opacity="1"><g transform="translate(172.440974, 246.303382)"><g><path d="M 12.703125 -12.375 L 7.9375 -12.375 L 7.9375 0 L 5.0625 0 L 5.0625 -12.375 L 0.296875 -12.375 L 0.296875 -14.90625 L 12.703125 -14.90625 Z M 12.703125 -12.375 "/></g></g></g><g fill="#ffffff" fill-opacity="1"><g transform="translate(184.823938, 246.303382)"><g/></g></g><g fill="#ffffff" fill-opacity="1"><g transform="translate(189.210355, 246.303382)"><g><path d="M 5.609375 -14.90625 L 8.546875 -14.90625 L 14.03125 0 L 11.046875 0 L 9.65625 -3.71875 L 4.453125 -3.71875 L 3.09375 0 L 0.109375 0 Z M 9.140625 -5.75 L 7.078125 -11.90625 L 4.9375 -5.75 Z M 9.140625 -5.75 "/></g></g></g><g fill="#ffffff" fill-opacity="1"><g transform="translate(202.663719, 246.303382)"><g/></g></g><g fill="#ffffff" fill-opacity="1"><g transform="translate(207.092125, 246.303382)"><g><path d="M 12.703125 -12.375 L 7.9375 -12.375 L 7.9375 0 L 5.0625 0 L 5.0625 -12.375 L 0.296875 -12.375 L 0.296875 -14.90625 L 12.703125 -14.90625 Z M 12.703125 -12.375 "/></g></g></g><g fill="#ffffff" fill-opacity="1"><g transform="translate(219.475089, 246.303382)"><g/></g></g><g fill="#ffffff" fill-opacity="1"><g transform="translate(224.512274, 246.303382)"><g><path d="M 7.921875 0.109375 C 6.828125 0.109375 5.832031 -0.0976562 4.9375 -0.515625 C 4.050781 -0.941406 3.289062 -1.515625 2.65625 -2.234375 C 2.019531 -2.953125 1.523438 -3.765625 1.171875 -4.671875 C 0.828125 -5.578125 0.65625 -6.503906 0.65625 -7.453125 C 0.65625 -8.453125 0.835938 -9.398438 1.203125 -10.296875 C 1.578125 -11.203125 2.085938 -12.007812 2.734375 -12.71875 C 3.390625 -13.425781 4.160156 -13.984375 5.046875 -14.390625 C 5.941406 -14.804688 6.921875 -15.015625 7.984375 -15.015625 C 9.054688 -15.015625 10.035156 -14.796875 10.921875 -14.359375 C 11.816406 -13.929688 12.578125 -13.351562 13.203125 -12.625 C 13.835938 -11.894531 14.328125 -11.082031 14.671875 -10.1875 C 15.023438 -9.289062 15.203125 -8.363281 15.203125 -7.40625 C 15.203125 -6.425781 15.019531 -5.484375 14.65625 -4.578125 C 14.289062 -3.679688 13.78125 -2.878906 13.125 -2.171875 C 12.476562 -1.460938 11.707031 -0.90625 10.8125 -0.5 C 9.925781 -0.09375 8.960938 0.109375 7.921875 0.109375 Z M 3.59375 -7.453125 C 3.59375 -6.804688 3.6875 -6.179688 3.875 -5.578125 C 4.070312 -4.984375 4.359375 -4.453125 4.734375 -3.984375 C 5.109375 -3.515625 5.5625 -3.140625 6.09375 -2.859375 C 6.632812 -2.585938 7.25 -2.453125 7.9375 -2.453125 C 8.632812 -2.453125 9.253906 -2.59375 9.796875 -2.875 C 10.347656 -3.164062 10.804688 -3.550781 11.171875 -4.03125 C 11.535156 -4.519531 11.8125 -5.0625 12 -5.65625 C 12.1875 -6.25 12.28125 -6.847656 12.28125 -7.453125 C 12.28125 -8.097656 12.175781 -8.71875 11.96875 -9.3125 C 11.769531 -9.90625 11.484375 -10.4375 11.109375 -10.90625 C 10.742188 -11.375 10.289062 -11.742188 9.75 -12.015625 C 9.21875 -12.296875 8.613281 -12.4375 7.9375 -12.4375 C 7.21875 -12.4375 6.585938 -12.289062 6.046875 -12 C 5.515625 -11.71875 5.066406 -11.335938 4.703125 -10.859375 C 4.335938 -10.378906 4.0625 -9.84375 3.875 -9.25 C 3.6875 -8.664062 3.59375 -8.066406 3.59375 -7.453125 Z M 3.59375 -7.453125 "/></g></g></g></svg>