<svg xmlns="http://www.w3.org/2000/svg" xmlns:xlink="http://www.w3.org/1999/xlink" width="500" zoomAndPan="magnify" viewBox="0 0 375 374.999991" height="500" preserveAspectRatio="xMidYMid meet" version="1.0"><defs><g/><clipPath id="c2118ef6dc"><path d="M 40.5 6.976562 L 334.5 6.976562 L 334.5 300.976562 L 40.5 300.976562 Z M 40.5 6.976562 " clip-rule="nonzero"/></clipPath><clipPath id="716b686281"><path d="M 187.5 6.976562 C 106.3125 6.976562 40.5 72.789062 40.5 153.976562 C 40.5 235.160156 106.3125 300.976562 187.5 300.976562 C 268.6875 300.976562 334.5 235.160156 334.5 153.976562 C 334.5 72.789062 268.6875 6.976562 187.5 6.976562 Z M 187.5 6.976562 " clip-rule="nonzero"/></clipPath><clipPath id="a28aa6776a"><path d="M 0.5 0.976562 L 294.5 0.976562 L 294.5 294.976562 L 0.5 294.976562 Z M 0.5 0.976562 " clip-rule="nonzero"/></clipPath><clipPath id="9db143a424"><path d="M 147.5 0.976562 C 66.3125 0.976562 0.5 66.789062 0.5 147.976562 C 0.5 229.160156 66.3125 294.976562 147.5 294.976562 C 228.6875 294.976562 294.5 229.160156 294.5 147.976562 C 294.5 66.789062 228.6875 0.976562 147.5 0.976562 Z M 147.5 0.976562 " clip-rule="nonzero"/></clipPath><clipPath id="1676769637"><rect x="0" width="295" y="0" height="295"/></clipPath><clipPath id="2ccecf6ae6"><path d="M 82 34 L 294 34 L 294 270 L 82 270 Z M 82 34 " clip-rule="nonzero"/></clipPath><clipPath id="4fddf0282d"><path d="M 147.855469 7.457031 L 326.359375 93.125 L 226.738281 300.707031 L 48.230469 215.039062 Z M 147.855469 7.457031 " clip-rule="nonzero"/></clipPath><clipPath id="925febfbb6"><path d="M 147.855469 7.457031 L 326.359375 93.125 L 226.738281 300.707031 L 48.230469 215.039062 Z M 147.855469 7.457031 " clip-rule="nonzero"/></clipPath></defs><g clip-path="url(#c2118ef6dc)"><g clip-path="url(#716b686281)"><g transform="matrix(1, 0, 0, 1, 40, 6)"><g clip-path="url(#1676769637)"><g clip-path="url(#a28aa6776a)"><g clip-path="url(#9db143a424)"><path fill="#d2b48b" d="M 0.5 0.976562 L 294.5 0.976562 L 294.5 294.976562 L 0.5 294.976562 Z M 0.5 0.976562 " fill-opacity="1" fill-rule="nonzero"/></g></g></g></g></g></g><g clip-path="url(#2ccecf6ae6)"><g clip-path="url(#4fddf0282d)"><g clip-path="url(#925febfbb6)"><path fill="#ffffff" d="M 282.527344 121.816406 C 269.8125 110.570312 248.875 107.074219 232.347656 108.6875 C 231.050781 96.71875 229.257812 84.4375 227.800781 74.796875 C 223.0625 43.425781 206.570312 35.855469 193.5625 35.03125 C 167.839844 33.386719 138.011719 57.453125 133.625 72.867188 C 128.21875 91.871094 124.15625 97.082031 107.0625 118.996094 C 104.28125 122.558594 101.167969 126.546875 97.664062 131.09375 C 72.957031 163.144531 81.585938 183.867188 106.441406 210.503906 C 106.738281 213.359375 107.078125 216.3125 107.460938 219.363281 C 107.492188 219.609375 107.546875 219.851562 107.621094 220.085938 C 108.222656 222.183594 108.933594 224.246094 109.761719 226.261719 C 110.589844 228.28125 111.527344 230.25 112.578125 232.164062 C 113.625 234.078125 114.773438 235.929688 116.027344 237.714844 C 117.28125 239.503906 118.628906 241.214844 120.074219 242.851562 C 121.519531 244.484375 123.050781 246.035156 124.664062 247.503906 C 126.28125 248.96875 127.976562 250.339844 129.746094 251.617188 C 131.515625 252.894531 133.351562 254.070312 135.25 255.140625 C 137.152344 256.214844 139.105469 257.179688 141.113281 258.035156 C 150.335938 262.292969 159.921875 265.457031 169.867188 267.53125 C 221.820312 279.117188 251.625 234.179688 285.179688 174.234375 C 300.679688 146.542969 292.292969 130.449219 282.527344 121.816406 Z M 103.898438 135.898438 C 107.382812 131.363281 110.492188 127.386719 113.273438 123.816406 L 114.839844 121.808594 C 114.953125 121.820312 115.035156 121.902344 115.160156 121.890625 C 115.984375 121.902344 116.796875 122 117.601562 122.183594 C 118.40625 122.363281 119.1875 122.625 119.9375 122.96875 C 120.6875 123.308594 121.394531 123.722656 122.0625 124.207031 C 122.726562 124.695312 123.339844 125.246094 123.890625 125.855469 C 124.445312 126.46875 124.929688 127.128906 125.347656 127.84375 C 125.765625 128.554688 126.105469 129.300781 126.367188 130.082031 C 126.632812 130.863281 126.8125 131.664062 126.914062 132.484375 C 127.011719 133.300781 127.027344 134.121094 126.957031 134.945312 C 126.945312 135.464844 127.03125 135.972656 127.21875 136.457031 C 127.402344 136.945312 127.675781 137.378906 128.035156 137.757812 C 128.394531 138.136719 128.8125 138.429688 129.289062 138.644531 C 129.765625 138.855469 130.265625 138.96875 130.785156 138.984375 C 131.308594 138.996094 131.8125 138.910156 132.300781 138.722656 C 132.785156 138.539062 133.21875 138.265625 133.597656 137.90625 C 133.976562 137.546875 134.273438 137.128906 134.484375 136.652344 C 134.699219 136.175781 134.8125 135.675781 134.824219 135.15625 C 134.917969 134.023438 134.914062 132.890625 134.804688 131.757812 C 134.699219 130.625 134.492188 129.511719 134.191406 128.417969 C 133.886719 127.324219 133.488281 126.261719 133 125.238281 C 132.507812 124.210938 131.929688 123.238281 131.265625 122.316406 C 130.601562 121.390625 129.863281 120.535156 129.046875 119.742188 C 128.234375 118.949219 127.355469 118.234375 126.414062 117.597656 C 125.472656 116.960938 124.480469 116.414062 123.441406 115.953125 C 122.40625 115.488281 121.332031 115.121094 120.230469 114.851562 C 132.078125 99.40625 136.230469 92.421875 141.199219 75 C 144.839844 62.214844 171.84375 41.507812 193.066406 42.863281 C 207.777344 43.789062 216.855469 54.933594 220.027344 75.953125 C 221.496094 85.621094 223.28125 97.953125 224.574219 109.878906 C 220.039062 110.714844 215.84375 112.394531 211.984375 114.925781 C 204.929688 120.519531 197.160156 124.835938 188.679688 127.871094 C 188.429688 126.375 188.03125 124.921875 187.484375 123.511719 C 186.9375 122.097656 186.25 120.757812 185.429688 119.484375 C 184.609375 118.214844 183.664062 117.039062 182.601562 115.960938 C 181.539062 114.878906 180.378906 113.921875 179.117188 113.078125 C 178.902344 112.933594 178.671875 112.808594 178.429688 112.707031 C 178.1875 112.605469 177.933594 112.527344 177.675781 112.476562 C 177.417969 112.425781 177.160156 112.402344 176.894531 112.402344 C 176.632812 112.40625 176.371094 112.433594 176.117188 112.484375 C 175.859375 112.539062 175.609375 112.617188 175.367188 112.722656 C 175.125 112.824219 174.894531 112.949219 174.679688 113.101562 C 174.464844 113.25 174.265625 113.417969 174.082031 113.609375 C 173.898438 113.796875 173.738281 114.003906 173.597656 114.226562 C 173.453125 114.445312 173.335938 114.679688 173.242188 114.925781 C 173.148438 115.171875 173.078125 115.425781 173.035156 115.683594 C 172.992188 115.941406 172.972656 116.203125 172.984375 116.464844 C 172.992188 116.730469 173.027344 116.988281 173.085938 117.246094 C 173.148438 117.5 173.234375 117.746094 173.34375 117.984375 C 173.453125 118.226562 173.585938 118.449219 173.742188 118.664062 C 173.898438 118.875 174.070312 119.070312 174.265625 119.246094 C 174.460938 119.421875 174.671875 119.578125 174.894531 119.714844 C 175.769531 120.304688 176.566406 120.992188 177.277344 121.769531 C 177.992188 122.546875 178.609375 123.394531 179.125 124.316406 C 179.644531 125.234375 180.046875 126.203125 180.339844 127.21875 C 180.632812 128.234375 180.800781 129.269531 180.851562 130.324219 C 175.921875 131.730469 170.09375 133.214844 162.675781 135.089844 C 158.300781 136.199219 153.402344 137.441406 147.851562 138.886719 C 131.546875 143.113281 120.933594 149.148438 114.386719 157.703125 C 111.75 156.433594 108.976562 155.683594 106.058594 155.449219 C 105.605469 155.429688 105.164062 155.484375 104.730469 155.617188 C 104.292969 155.75 103.894531 155.949219 103.53125 156.21875 C 103.167969 156.492188 102.859375 156.8125 102.605469 157.191406 C 102.351562 157.566406 102.171875 157.976562 102.058594 158.417969 C 101.949219 158.855469 101.914062 159.300781 101.957031 159.753906 C 102 160.207031 102.117188 160.636719 102.308594 161.046875 C 102.503906 161.457031 102.757812 161.824219 103.078125 162.148438 C 103.398438 162.46875 103.761719 162.730469 104.167969 162.925781 C 104.628906 163.144531 105.109375 163.273438 105.617188 163.308594 C 107.21875 163.480469 108.765625 163.878906 110.253906 164.496094 C 106.121094 173.246094 104.898438 184.125 105.472656 197.644531 C 87.78125 176.683594 84.472656 161.089844 103.898438 135.898438 Z M 278.320312 170.378906 C 268.757812 188.15625 258.175781 205.300781 246.570312 221.816406 C 246.066406 220.042969 245.332031 218.363281 244.375 216.785156 C 243.414062 215.207031 242.265625 213.785156 240.921875 212.519531 C 239.582031 211.25 238.09375 210.183594 236.464844 209.316406 C 234.832031 208.449219 233.117188 207.8125 231.316406 207.410156 C 230.8125 207.296875 230.304688 207.289062 229.796875 207.375 C 229.285156 207.464844 228.8125 207.648438 228.375 207.921875 C 227.941406 208.199219 227.570312 208.546875 227.269531 208.964844 C 226.972656 209.386719 226.761719 209.847656 226.644531 210.351562 C 226.527344 210.855469 226.507812 211.359375 226.589844 211.871094 C 226.671875 212.382812 226.84375 212.855469 227.113281 213.296875 C 227.382812 213.738281 227.726562 214.113281 228.140625 214.417969 C 228.558594 214.726562 229.015625 214.941406 229.515625 215.066406 C 230.324219 215.230469 231.105469 215.476562 231.863281 215.800781 C 232.617188 216.125 233.335938 216.519531 234.011719 216.988281 C 234.6875 217.457031 235.3125 217.988281 235.878906 218.582031 C 236.449219 219.179688 236.953125 219.824219 237.390625 220.519531 C 237.828125 221.21875 238.195312 221.949219 238.484375 222.722656 C 238.773438 223.492188 238.984375 224.285156 239.113281 225.097656 C 239.242188 225.910156 239.289062 226.726562 239.25 227.550781 C 239.214844 228.371094 239.097656 229.183594 238.898438 229.980469 C 238.796875 230.515625 238.8125 231.046875 238.933594 231.574219 C 219.828125 254.289062 199.140625 265.996094 171.589844 259.855469 C 133.558594 251.371094 121.496094 236.992188 115.226562 218.007812 C 112.15625 193.589844 112.140625 177.316406 118.554688 166.03125 C 118.699219 165.925781 118.832031 165.8125 118.957031 165.691406 C 119.304688 165.242188 119.546875 164.746094 119.675781 164.195312 C 125.207031 155.875 134.6875 150.453125 149.847656 146.503906 C 155.375 145.066406 160.261719 143.832031 164.628906 142.726562 L 167.113281 142.09375 C 167.171875 142.179688 167.230469 142.261719 167.296875 142.339844 C 167.933594 142.863281 168.507812 143.441406 169.027344 144.082031 C 169.546875 144.722656 169.992188 145.40625 170.375 146.136719 C 170.753906 146.867188 171.054688 147.628906 171.28125 148.417969 C 171.503906 149.210938 171.648438 150.015625 171.710938 150.835938 C 171.773438 151.65625 171.753906 152.472656 171.648438 153.289062 C 171.546875 154.105469 171.363281 154.90625 171.097656 155.683594 C 170.832031 156.460938 170.492188 157.207031 170.078125 157.917969 C 169.664062 158.628906 169.179688 159.289062 168.628906 159.902344 C 168.300781 160.304688 168.058594 160.757812 167.90625 161.253906 C 167.753906 161.753906 167.707031 162.265625 167.757812 162.785156 C 167.808594 163.304688 167.957031 163.792969 168.203125 164.253906 C 168.449219 164.714844 168.777344 165.109375 169.179688 165.441406 C 169.425781 165.640625 169.6875 165.808594 169.972656 165.949219 C 170.371094 166.136719 170.789062 166.257812 171.226562 166.308594 C 171.664062 166.359375 172.097656 166.335938 172.527344 166.242188 C 172.957031 166.144531 173.359375 165.980469 173.734375 165.75 C 174.109375 165.519531 174.4375 165.234375 174.714844 164.894531 C 175.484375 164.058594 176.175781 163.160156 176.785156 162.199219 C 177.394531 161.238281 177.914062 160.234375 178.347656 159.183594 C 178.777344 158.132812 179.113281 157.050781 179.355469 155.9375 C 179.59375 154.828125 179.734375 153.703125 179.777344 152.570312 C 179.820312 151.433594 179.761719 150.300781 179.601562 149.175781 C 179.445312 148.050781 179.1875 146.949219 178.835938 145.867188 C 178.480469 144.789062 178.035156 143.746094 177.5 142.746094 C 176.960938 141.742188 176.339844 140.796875 175.636719 139.90625 C 179.011719 139.019531 182.054688 138.1875 184.804688 137.382812 C 185.378906 137.335938 185.921875 137.175781 186.421875 136.890625 C 191.917969 135.292969 197.207031 133.183594 202.289062 130.558594 C 207.375 127.933594 212.160156 124.839844 216.640625 121.285156 C 220.476562 118.875 224.644531 117.410156 229.144531 116.890625 C 229.175781 116.902344 229.207031 116.917969 229.246094 116.898438 C 229.285156 116.878906 229.339844 116.859375 229.390625 116.855469 C 244.207031 114.535156 265.625 117.378906 277.320312 127.707031 C 288.359375 137.472656 288.703125 151.832031 278.320312 170.378906 Z M 141.832031 191.757812 C 141.550781 192.097656 141.226562 192.382812 140.851562 192.613281 C 140.476562 192.84375 140.074219 193.007812 139.644531 193.101562 C 139.214844 193.199219 138.78125 193.222656 138.34375 193.171875 C 137.90625 193.121094 137.488281 193 137.09375 192.8125 C 136.804688 192.675781 136.539062 192.503906 136.292969 192.300781 C 135.890625 191.972656 135.566406 191.574219 135.320312 191.117188 C 135.074219 190.65625 134.925781 190.167969 134.875 189.648438 C 134.824219 189.128906 134.875 188.621094 135.023438 188.121094 C 135.175781 187.621094 135.417969 187.171875 135.746094 186.769531 C 136.296875 186.15625 136.78125 185.496094 137.195312 184.785156 C 137.609375 184.074219 137.953125 183.328125 138.214844 182.550781 C 138.480469 181.769531 138.664062 180.972656 138.769531 180.15625 C 138.871094 179.339844 138.894531 178.523438 138.832031 177.703125 C 138.769531 176.882812 138.625 176.074219 138.398438 175.285156 C 138.175781 174.492188 137.871094 173.730469 137.492188 173 C 137.113281 172.269531 136.664062 171.585938 136.144531 170.945312 C 135.628906 170.308594 135.050781 169.726562 134.414062 169.203125 C 134.03125 168.859375 133.726562 168.453125 133.5 167.988281 C 133.277344 167.523438 133.148438 167.035156 133.113281 166.515625 C 133.082031 166 133.148438 165.5 133.316406 165.011719 C 133.480469 164.519531 133.734375 164.082031 134.074219 163.691406 C 134.414062 163.300781 134.8125 162.992188 135.277344 162.757812 C 135.738281 162.527344 136.226562 162.390625 136.742188 162.351562 C 137.257812 162.3125 137.757812 162.371094 138.25 162.53125 C 138.742188 162.691406 139.1875 162.9375 139.582031 163.269531 C 140.09375 163.691406 140.585938 164.136719 141.058594 164.609375 C 141.527344 165.082031 141.972656 165.574219 142.390625 166.089844 C 142.8125 166.609375 143.203125 167.144531 143.570312 167.699219 C 143.933594 168.253906 144.273438 168.828125 144.582031 169.417969 C 144.886719 170.007812 145.167969 170.613281 145.414062 171.230469 C 145.660156 171.847656 145.875 172.476562 146.058594 173.117188 C 146.246094 173.753906 146.394531 174.402344 146.515625 175.058594 C 146.632812 175.710938 146.71875 176.371094 146.769531 177.035156 C 146.824219 177.699219 146.84375 178.363281 146.828125 179.027344 C 146.8125 179.691406 146.765625 180.355469 146.683594 181.015625 C 146.601562 181.675781 146.488281 182.332031 146.339844 182.980469 C 146.195312 183.628906 146.015625 184.269531 145.804688 184.898438 C 145.589844 185.53125 145.347656 186.148438 145.074219 186.753906 C 144.800781 187.363281 144.496094 187.953125 144.164062 188.527344 C 143.828125 189.105469 143.46875 189.660156 143.078125 190.203125 C 142.6875 190.742188 142.273438 191.257812 141.832031 191.757812 Z M 177.695312 213.707031 C 177.414062 214.046875 177.089844 214.332031 176.714844 214.5625 C 176.339844 214.792969 175.9375 214.957031 175.507812 215.050781 C 175.078125 215.148438 174.644531 215.171875 174.207031 215.121094 C 173.769531 215.070312 173.351562 214.953125 172.957031 214.761719 C 172.667969 214.625 172.402344 214.457031 172.15625 214.253906 C 171.753906 213.921875 171.429688 213.527344 171.183594 213.066406 C 170.9375 212.605469 170.789062 212.117188 170.738281 211.597656 C 170.6875 211.078125 170.738281 210.570312 170.886719 210.070312 C 171.039062 209.574219 171.28125 209.121094 171.609375 208.71875 C 172.160156 208.105469 172.640625 207.445312 173.058594 206.734375 C 173.472656 206.023438 173.8125 205.28125 174.078125 204.5 C 174.34375 203.722656 174.527344 202.921875 174.632812 202.105469 C 174.734375 201.289062 174.757812 200.472656 174.695312 199.652344 C 174.632812 198.832031 174.488281 198.023438 174.261719 197.234375 C 174.035156 196.441406 173.734375 195.679688 173.355469 194.953125 C 172.976562 194.222656 172.527344 193.535156 172.007812 192.898438 C 171.492188 192.257812 170.914062 191.675781 170.277344 191.152344 C 169.894531 190.808594 169.589844 190.402344 169.363281 189.9375 C 169.136719 189.472656 169.011719 188.984375 168.976562 188.46875 C 168.945312 187.953125 169.011719 187.449219 169.179688 186.960938 C 169.34375 186.472656 169.597656 186.03125 169.9375 185.640625 C 170.277344 185.25 170.675781 184.941406 171.136719 184.707031 C 171.601562 184.476562 172.089844 184.339844 172.605469 184.300781 C 173.117188 184.261719 173.621094 184.320312 174.113281 184.480469 C 174.605469 184.640625 175.046875 184.886719 175.445312 185.21875 C 175.957031 185.640625 176.449219 186.089844 176.917969 186.558594 C 177.390625 187.03125 177.832031 187.523438 178.253906 188.042969 C 178.671875 188.558594 179.066406 189.09375 179.433594 189.648438 C 179.796875 190.207031 180.136719 190.777344 180.441406 191.367188 C 180.75 191.957031 181.027344 192.5625 181.277344 193.179688 C 181.523438 193.796875 181.738281 194.425781 181.921875 195.066406 C 182.105469 195.703125 182.257812 196.351562 182.378906 197.007812 C 182.496094 197.660156 182.582031 198.320312 182.632812 198.984375 C 182.6875 199.648438 182.707031 200.3125 182.691406 200.976562 C 182.675781 201.640625 182.628906 202.304688 182.546875 202.964844 C 182.464844 203.625 182.351562 204.28125 182.203125 204.929688 C 182.058594 205.578125 181.878906 206.21875 181.667969 206.847656 C 181.453125 207.480469 181.210938 208.097656 180.9375 208.707031 C 180.664062 209.3125 180.359375 209.902344 180.027344 210.480469 C 179.691406 211.054688 179.332031 211.613281 178.941406 212.152344 C 178.550781 212.691406 178.136719 213.210938 177.695312 213.707031 Z M 208.710938 180.691406 C 208.328125 180.34375 208.023438 179.941406 207.796875 179.476562 C 207.570312 179.011719 207.441406 178.519531 207.410156 178.003906 C 207.378906 177.488281 207.445312 176.984375 207.613281 176.496094 C 207.777344 176.007812 208.03125 175.566406 208.371094 175.179688 C 208.710938 174.789062 209.109375 174.476562 209.570312 174.246094 C 210.03125 174.011719 210.519531 173.878906 211.035156 173.839844 C 211.550781 173.800781 212.054688 173.859375 212.546875 174.015625 C 213.039062 174.175781 213.480469 174.421875 213.875 174.757812 C 214.390625 175.179688 214.882812 175.625 215.351562 176.097656 C 215.824219 176.566406 216.265625 177.0625 216.6875 177.578125 C 217.105469 178.09375 217.5 178.628906 217.867188 179.1875 C 218.230469 179.742188 218.570312 180.3125 218.878906 180.902344 C 219.183594 181.492188 219.464844 182.097656 219.710938 182.714844 C 219.957031 183.332031 220.171875 183.960938 220.359375 184.601562 C 220.542969 185.242188 220.691406 185.886719 220.8125 186.542969 C 220.929688 187.199219 221.015625 187.855469 221.070312 188.519531 C 221.121094 189.183594 221.140625 189.847656 221.125 190.511719 C 221.109375 191.179688 221.0625 191.839844 220.980469 192.503906 C 220.902344 193.164062 220.785156 193.816406 220.640625 194.464844 C 220.492188 195.117188 220.3125 195.753906 220.101562 196.386719 C 219.886719 197.015625 219.644531 197.636719 219.371094 198.242188 C 219.097656 198.847656 218.792969 199.441406 218.460938 200.015625 C 218.125 200.589844 217.765625 201.148438 217.375 201.6875 C 216.984375 202.226562 216.570312 202.746094 216.128906 203.242188 C 215.847656 203.582031 215.519531 203.871094 215.144531 204.101562 C 214.773438 204.332031 214.371094 204.492188 213.941406 204.589844 C 213.511719 204.683594 213.078125 204.707031 212.640625 204.65625 C 212.203125 204.609375 211.785156 204.488281 211.386719 204.296875 C 211.101562 204.160156 210.835938 203.992188 210.589844 203.789062 C 210.1875 203.457031 209.863281 203.0625 209.617188 202.601562 C 209.371094 202.144531 209.222656 201.652344 209.171875 201.136719 C 209.121094 200.617188 209.167969 200.109375 209.320312 199.609375 C 209.472656 199.109375 209.710938 198.660156 210.042969 198.253906 C 210.59375 197.644531 211.074219 196.980469 211.492188 196.269531 C 211.90625 195.5625 212.246094 194.816406 212.511719 194.039062 C 212.777344 193.257812 212.960938 192.460938 213.066406 191.644531 C 213.167969 190.828125 213.1875 190.007812 213.125 189.1875 C 213.0625 188.367188 212.921875 187.5625 212.695312 186.769531 C 212.46875 185.980469 212.167969 185.21875 211.789062 184.488281 C 211.410156 183.757812 210.960938 183.074219 210.441406 182.433594 C 209.925781 181.792969 209.347656 181.210938 208.710938 180.691406 Z M 152.507812 243.046875 C 152.230469 243.386719 151.902344 243.671875 151.527344 243.902344 C 151.152344 244.132812 150.75 244.292969 150.320312 244.390625 C 149.890625 244.484375 149.457031 244.507812 149.023438 244.457031 C 148.585938 244.40625 148.167969 244.289062 147.769531 244.097656 C 147.484375 243.960938 147.21875 243.792969 146.972656 243.589844 C 146.570312 243.257812 146.246094 242.863281 146 242.402344 C 145.753906 241.941406 145.605469 241.453125 145.554688 240.933594 C 145.503906 240.417969 145.550781 239.90625 145.703125 239.410156 C 145.855469 238.910156 146.09375 238.457031 146.425781 238.054688 C 146.976562 237.441406 147.457031 236.78125 147.875 236.070312 C 148.289062 235.363281 148.628906 234.617188 148.894531 233.839844 C 149.160156 233.058594 149.34375 232.261719 149.449219 231.445312 C 149.550781 230.628906 149.574219 229.8125 149.511719 228.992188 C 149.449219 228.171875 149.304688 227.367188 149.082031 226.574219 C 148.855469 225.78125 148.554688 225.023438 148.175781 224.292969 C 147.796875 223.5625 147.347656 222.875 146.832031 222.238281 C 146.3125 221.597656 145.738281 221.015625 145.101562 220.492188 C 144.714844 220.148438 144.410156 219.742188 144.1875 219.277344 C 143.960938 218.8125 143.832031 218.324219 143.800781 217.808594 C 143.769531 217.292969 143.835938 216.789062 144 216.300781 C 144.167969 215.808594 144.421875 215.371094 144.757812 214.980469 C 145.097656 214.589844 145.5 214.28125 145.960938 214.046875 C 146.421875 213.816406 146.910156 213.679688 147.425781 213.640625 C 147.941406 213.601562 148.445312 213.660156 148.9375 213.820312 C 149.429688 213.980469 149.871094 214.226562 150.265625 214.558594 C 150.78125 214.980469 151.273438 215.429688 151.742188 215.898438 C 152.210938 216.371094 152.65625 216.867188 153.074219 217.382812 C 153.496094 217.898438 153.886719 218.433594 154.253906 218.992188 C 154.617188 219.546875 154.957031 220.121094 155.265625 220.710938 C 155.570312 221.300781 155.847656 221.902344 156.097656 222.519531 C 156.34375 223.140625 156.558594 223.765625 156.742188 224.40625 C 156.925781 225.046875 157.078125 225.695312 157.195312 226.347656 C 157.316406 227.003906 157.398438 227.664062 157.453125 228.324219 C 157.503906 228.988281 157.523438 229.652344 157.507812 230.320312 C 157.492188 230.984375 157.445312 231.648438 157.363281 232.308594 C 157.28125 232.96875 157.167969 233.621094 157.019531 234.269531 C 156.875 234.921875 156.695312 235.558594 156.480469 236.191406 C 156.269531 236.820312 156.027344 237.441406 155.753906 238.046875 C 155.480469 238.652344 155.175781 239.242188 154.839844 239.820312 C 154.507812 240.394531 154.144531 240.953125 153.757812 241.492188 C 153.367188 242.03125 152.949219 242.550781 152.507812 243.046875 Z M 256.394531 187.121094 C 256.117188 187.460938 255.789062 187.746094 255.414062 187.976562 C 255.039062 188.207031 254.636719 188.371094 254.207031 188.464844 C 253.777344 188.5625 253.34375 188.585938 252.90625 188.535156 C 252.46875 188.484375 252.050781 188.363281 251.652344 188.171875 C 251.367188 188.035156 251.101562 187.867188 250.859375 187.664062 C 250.453125 187.335938 250.128906 186.9375 249.882812 186.480469 C 249.636719 186.019531 249.488281 185.527344 249.433594 185.007812 C 249.382812 184.488281 249.433594 183.980469 249.585938 183.480469 C 249.738281 182.980469 249.976562 182.53125 250.308594 182.125 C 250.867188 181.519531 251.359375 180.863281 251.78125 180.152344 C 252.203125 179.445312 252.550781 178.703125 252.824219 177.921875 C 253.09375 177.144531 253.28125 176.347656 253.386719 175.527344 C 253.496094 174.710938 253.519531 173.890625 253.457031 173.066406 C 253.394531 172.246094 253.25 171.4375 253.023438 170.644531 C 252.796875 169.851562 252.488281 169.089844 252.105469 168.359375 C 251.722656 167.628906 251.269531 166.945312 250.746094 166.308594 C 250.222656 165.671875 249.636719 165.097656 248.996094 164.578125 C 248.792969 164.414062 248.605469 164.226562 248.441406 164.023438 C 248.273438 163.820312 248.128906 163.601562 248.003906 163.371094 C 247.882812 163.136719 247.78125 162.894531 247.707031 162.640625 C 247.632812 162.390625 247.585938 162.132812 247.5625 161.871094 C 247.539062 161.609375 247.542969 161.347656 247.574219 161.085938 C 247.601562 160.824219 247.660156 160.570312 247.738281 160.316406 C 247.820312 160.066406 247.925781 159.828125 248.054688 159.597656 C 248.183594 159.371094 248.335938 159.15625 248.507812 158.957031 C 248.679688 158.757812 248.871094 158.578125 249.078125 158.417969 C 249.285156 158.257812 249.507812 158.117188 249.742188 158 C 249.980469 157.886719 250.226562 157.792969 250.480469 157.726562 C 250.734375 157.660156 250.992188 157.617188 251.253906 157.601562 C 251.519531 157.585938 251.777344 157.597656 252.039062 157.636719 C 252.300781 157.671875 252.554688 157.734375 252.800781 157.824219 C 253.050781 157.914062 253.285156 158.023438 253.511719 158.160156 C 253.738281 158.296875 253.945312 158.453125 254.140625 158.628906 C 254.65625 159.050781 255.148438 159.5 255.617188 159.972656 C 256.085938 160.441406 256.53125 160.9375 256.953125 161.453125 C 257.371094 161.96875 257.765625 162.503906 258.128906 163.058594 C 258.496094 163.617188 258.832031 164.1875 259.140625 164.777344 C 259.449219 165.367188 259.726562 165.972656 259.976562 166.589844 C 260.222656 167.207031 260.4375 167.835938 260.621094 168.476562 C 260.808594 169.117188 260.957031 169.761719 261.078125 170.417969 C 261.195312 171.074219 261.28125 171.730469 261.335938 172.394531 C 261.386719 173.058594 261.40625 173.722656 261.390625 174.386719 C 261.375 175.054688 261.328125 175.714844 261.246094 176.378906 C 261.167969 177.039062 261.050781 177.691406 260.90625 178.339844 C 260.757812 178.992188 260.578125 179.628906 260.367188 180.261719 C 260.15625 180.890625 259.914062 181.511719 259.636719 182.117188 C 259.363281 182.722656 259.0625 183.316406 258.726562 183.890625 C 258.394531 184.46875 258.03125 185.023438 257.640625 185.5625 C 257.253906 186.105469 256.835938 186.621094 256.394531 187.121094 Z M 196.105469 250.808594 C 195.824219 251.148438 195.5 251.4375 195.125 251.667969 C 194.75 251.898438 194.34375 252.058594 193.914062 252.15625 C 193.484375 252.25 193.050781 252.273438 192.613281 252.222656 C 192.175781 252.171875 191.757812 252.054688 191.363281 251.863281 C 191.078125 251.726562 190.8125 251.558594 190.566406 251.355469 C 190.164062 251.023438 189.839844 250.628906 189.59375 250.167969 C 189.347656 249.710938 189.199219 249.21875 189.148438 248.699219 C 189.097656 248.183594 189.148438 247.671875 189.296875 247.175781 C 189.449219 246.675781 189.691406 246.222656 190.019531 245.820312 C 190.570312 245.207031 191.054688 244.546875 191.46875 243.835938 C 191.882812 243.125 192.226562 242.382812 192.488281 241.601562 C 192.753906 240.824219 192.9375 240.023438 193.042969 239.207031 C 193.144531 238.390625 193.167969 237.574219 193.105469 236.753906 C 193.042969 235.933594 192.898438 235.125 192.671875 234.335938 C 192.445312 233.542969 192.144531 232.78125 191.765625 232.050781 C 191.382812 231.320312 190.933594 230.636719 190.417969 229.996094 C 189.898438 229.359375 189.320312 228.777344 188.6875 228.253906 C 188.292969 227.910156 187.980469 227.507812 187.746094 227.039062 C 187.515625 226.574219 187.382812 226.078125 187.34375 225.558594 C 187.308594 225.039062 187.375 224.53125 187.539062 224.035156 C 187.707031 223.542969 187.960938 223.097656 188.304688 222.703125 C 188.644531 222.3125 189.050781 221.996094 189.519531 221.765625 C 189.984375 221.535156 190.480469 221.398438 191 221.363281 C 191.519531 221.328125 192.027344 221.394531 192.523438 221.558594 C 193.015625 221.726562 193.460938 221.980469 193.855469 222.320312 C 194.367188 222.742188 194.859375 223.191406 195.332031 223.664062 C 195.800781 224.132812 196.246094 224.628906 196.664062 225.144531 C 197.085938 225.660156 197.476562 226.195312 197.84375 226.753906 C 198.207031 227.308594 198.546875 227.878906 198.855469 228.46875 C 199.160156 229.058594 199.441406 229.664062 199.6875 230.28125 C 199.933594 230.898438 200.148438 231.527344 200.332031 232.167969 C 200.519531 232.808594 200.667969 233.453125 200.789062 234.109375 C 200.90625 234.765625 200.992188 235.421875 201.042969 236.085938 C 201.097656 236.75 201.117188 237.414062 201.101562 238.078125 C 201.085938 238.746094 201.039062 239.40625 200.957031 240.066406 C 200.875 240.730469 200.761719 241.382812 200.617188 242.03125 C 200.46875 242.679688 200.289062 243.320312 200.078125 243.953125 C 199.867188 244.582031 199.621094 245.203125 199.347656 245.808594 C 199.074219 246.414062 198.769531 247.003906 198.4375 247.582031 C 198.105469 248.15625 197.742188 248.714844 197.351562 249.253906 C 196.960938 249.792969 196.546875 250.3125 196.105469 250.808594 Z M 189.589844 85.210938 C 189.621094 84.695312 189.75 84.203125 189.976562 83.738281 C 190.203125 83.269531 190.507812 82.863281 190.894531 82.519531 C 191.28125 82.171875 191.71875 81.914062 192.207031 81.738281 C 192.695312 81.566406 193.199219 81.492188 193.714844 81.519531 C 194.378906 81.539062 195.042969 81.589844 195.703125 81.671875 C 196.363281 81.757812 197.015625 81.875 197.664062 82.023438 C 198.3125 82.175781 198.953125 82.359375 199.582031 82.574219 C 200.210938 82.789062 200.832031 83.035156 201.433594 83.3125 C 202.039062 83.585938 202.628906 83.894531 203.203125 84.230469 C 203.777344 84.566406 204.335938 84.929688 204.871094 85.324219 C 205.410156 85.714844 205.925781 86.132812 206.421875 86.578125 C 206.917969 87.023438 207.386719 87.492188 207.835938 87.984375 C 208.285156 88.476562 208.707031 88.988281 209.101562 89.523438 C 209.5 90.058594 209.867188 90.609375 210.207031 91.179688 C 210.550781 91.753906 210.859375 92.339844 211.144531 92.941406 C 211.425781 93.546875 211.675781 94.160156 211.894531 94.789062 C 212.113281 95.417969 212.300781 96.054688 212.457031 96.703125 C 212.613281 97.347656 212.734375 98.003906 212.824219 98.664062 C 212.914062 99.320312 212.96875 99.984375 212.992188 100.648438 C 213.015625 101.3125 213.007812 101.976562 212.960938 102.640625 C 212.949219 103.164062 212.835938 103.660156 212.625 104.136719 C 212.414062 104.613281 212.121094 105.03125 211.742188 105.390625 C 211.367188 105.75 210.933594 106.023438 210.449219 106.210938 C 209.964844 106.398438 209.460938 106.488281 208.941406 106.476562 C 208.382812 106.460938 207.847656 106.332031 207.34375 106.09375 C 207 105.929688 206.6875 105.71875 206.40625 105.464844 C 206.125 105.210938 205.882812 104.921875 205.683594 104.59375 C 205.488281 104.269531 205.339844 103.925781 205.242188 103.558594 C 205.144531 103.1875 205.101562 102.816406 205.109375 102.433594 C 205.167969 101.613281 205.144531 100.796875 205.039062 99.980469 C 204.929688 99.164062 204.742188 98.367188 204.472656 97.589844 C 204.203125 96.8125 203.859375 96.070312 203.441406 95.363281 C 203.023438 94.65625 202.539062 93.996094 201.984375 93.386719 C 201.433594 92.777344 200.824219 92.226562 200.160156 91.742188 C 199.5 91.253906 198.792969 90.839844 198.046875 90.496094 C 197.296875 90.152344 196.523438 89.886719 195.722656 89.699219 C 194.921875 89.511719 194.109375 89.40625 193.289062 89.382812 C 193.03125 89.367188 192.777344 89.328125 192.523438 89.261719 C 192.273438 89.195312 192.03125 89.109375 191.800781 88.996094 C 191.566406 88.882812 191.347656 88.746094 191.140625 88.589844 C 190.933594 88.433594 190.746094 88.257812 190.574219 88.066406 C 190.402344 87.871094 190.25 87.664062 190.121094 87.4375 C 189.988281 87.214844 189.882812 86.980469 189.796875 86.738281 C 189.714844 86.492188 189.652344 86.242188 189.621094 85.984375 C 189.585938 85.726562 189.574219 85.472656 189.589844 85.210938 Z M 225.417969 147.222656 C 225.09375 146.464844 224.699219 145.75 224.226562 145.070312 C 223.757812 144.394531 223.222656 143.773438 222.625 143.207031 C 222.027344 142.640625 221.378906 142.136719 220.679688 141.703125 C 219.976562 141.269531 219.238281 140.914062 218.464844 140.628906 C 217.691406 140.347656 216.898438 140.148438 216.082031 140.027344 C 215.265625 139.910156 214.445312 139.875 213.625 139.921875 C 212.800781 139.972656 211.992188 140.105469 211.195312 140.320312 C 210.402344 140.535156 209.636719 140.828125 208.902344 141.199219 C 208.425781 141.417969 207.929688 141.535156 207.410156 141.554688 C 206.886719 141.574219 206.382812 141.496094 205.894531 141.3125 C 205.40625 141.132812 204.96875 140.863281 204.585938 140.511719 C 204.203125 140.15625 203.902344 139.742188 203.6875 139.269531 C 203.46875 138.796875 203.347656 138.296875 203.328125 137.777344 C 203.308594 137.257812 203.386719 136.753906 203.566406 136.261719 C 203.746094 135.773438 204.015625 135.335938 204.367188 134.953125 C 204.722656 134.570312 205.132812 134.269531 205.605469 134.050781 C 206.203125 133.757812 206.8125 133.492188 207.4375 133.261719 C 208.0625 133.027344 208.695312 132.824219 209.335938 132.65625 C 209.980469 132.488281 210.632812 132.351562 211.289062 132.246094 C 211.945312 132.144531 212.605469 132.070312 213.269531 132.035156 C 213.9375 131.996094 214.601562 131.992188 215.265625 132.023438 C 215.929688 132.054688 216.589844 132.117188 217.25 132.210938 C 217.910156 132.308594 218.5625 132.4375 219.207031 132.597656 C 219.851562 132.761719 220.488281 132.953125 221.113281 133.179688 C 221.738281 133.40625 222.351562 133.664062 222.953125 133.949219 C 223.550781 134.238281 224.136719 134.554688 224.703125 134.902344 C 225.273438 135.246094 225.824219 135.621094 226.351562 136.023438 C 226.882812 136.425781 227.394531 136.851562 227.878906 137.304688 C 228.367188 137.757812 228.832031 138.234375 229.269531 138.734375 C 229.710938 139.234375 230.125 139.753906 230.511719 140.296875 C 230.898438 140.835938 231.257812 141.394531 231.589844 141.972656 C 231.917969 142.550781 232.21875 143.144531 232.492188 143.75 C 232.722656 144.21875 232.855469 144.714844 232.890625 145.234375 C 232.925781 145.753906 232.859375 146.261719 232.691406 146.757812 C 232.523438 147.253906 232.265625 147.695312 231.921875 148.089844 C 231.578125 148.480469 231.171875 148.792969 230.703125 149.023438 C 230.234375 149.253906 229.742188 149.386719 229.21875 149.421875 C 228.699219 149.457031 228.191406 149.386719 227.695312 149.21875 C 227.203125 149.050781 226.757812 148.796875 226.367188 148.449219 C 225.972656 148.105469 225.664062 147.699219 225.433594 147.230469 Z M 139.402344 111.226562 C 138.882812 111.191406 138.394531 111.058594 137.929688 110.832031 C 137.464844 110.601562 137.0625 110.292969 136.71875 109.90625 C 136.378906 109.515625 136.121094 109.078125 135.953125 108.589844 C 135.78125 108.101562 135.710938 107.597656 135.742188 107.078125 C 135.769531 106.5625 135.898438 106.070312 136.121094 105.605469 C 136.34375 105.136719 136.648438 104.730469 137.03125 104.382812 C 137.417969 104.035156 137.851562 103.773438 138.339844 103.601562 C 138.828125 103.425781 139.328125 103.347656 139.847656 103.371094 C 140.511719 103.390625 141.175781 103.441406 141.835938 103.527344 C 142.496094 103.609375 143.148438 103.726562 143.796875 103.878906 C 144.445312 104.027344 145.085938 104.210938 145.714844 104.425781 C 146.34375 104.640625 146.960938 104.886719 147.566406 105.164062 C 148.171875 105.441406 148.761719 105.746094 149.335938 106.082031 C 149.910156 106.417969 150.464844 106.785156 151.003906 107.175781 C 151.542969 107.566406 152.058594 107.988281 152.554688 108.429688 C 153.050781 108.875 153.519531 109.34375 153.96875 109.835938 C 154.417969 110.328125 154.839844 110.839844 155.238281 111.375 C 155.632812 111.910156 156.003906 112.460938 156.34375 113.035156 C 156.683594 113.605469 156.996094 114.191406 157.277344 114.796875 C 157.558594 115.398438 157.808594 116.015625 158.027344 116.644531 C 158.25 117.269531 158.4375 117.910156 158.589844 118.554688 C 158.746094 119.203125 158.871094 119.855469 158.957031 120.515625 C 159.046875 121.175781 159.105469 121.839844 159.128906 122.503906 C 159.152344 123.167969 159.140625 123.832031 159.097656 124.496094 C 159.082031 125.019531 158.96875 125.515625 158.757812 125.992188 C 158.546875 126.46875 158.253906 126.886719 157.878906 127.246094 C 157.5 127.605469 157.070312 127.878906 156.582031 128.066406 C 156.097656 128.253906 155.59375 128.34375 155.074219 128.332031 C 154.515625 128.316406 153.984375 128.1875 153.480469 127.949219 C 153.136719 127.785156 152.824219 127.578125 152.542969 127.320312 C 152.261719 127.066406 152.019531 126.777344 151.824219 126.453125 C 151.625 126.128906 151.476562 125.78125 151.378906 125.414062 C 151.28125 125.046875 151.238281 124.671875 151.25 124.292969 C 151.308594 123.46875 151.285156 122.648438 151.175781 121.832031 C 151.070312 121.015625 150.882812 120.21875 150.613281 119.4375 C 150.34375 118.660156 150 117.914062 149.578125 117.207031 C 149.160156 116.496094 148.671875 115.835938 148.117188 115.226562 C 147.566406 114.617188 146.957031 114.066406 146.289062 113.578125 C 145.625 113.09375 144.917969 112.675781 144.167969 112.332031 C 143.421875 111.988281 142.644531 111.726562 141.839844 111.539062 C 141.039062 111.351562 140.226562 111.25 139.402344 111.226562 Z M 152.710938 70.328125 C 152.738281 69.808594 152.867188 69.3125 153.089844 68.839844 C 153.316406 68.371094 153.625 67.960938 154.011719 67.613281 C 154.398438 67.265625 154.839844 67.003906 155.332031 66.828125 C 155.824219 66.65625 156.332031 66.582031 156.851562 66.613281 C 157.515625 66.628906 158.179688 66.679688 158.839844 66.765625 C 159.5 66.851562 160.152344 66.96875 160.800781 67.117188 C 161.449219 67.269531 162.085938 67.453125 162.714844 67.667969 C 163.347656 67.882812 163.964844 68.128906 164.566406 68.40625 C 165.171875 68.679688 165.761719 68.988281 166.335938 69.324219 C 166.910156 69.660156 167.464844 70.023438 168.003906 70.417969 C 168.539062 70.808594 169.054688 71.226562 169.550781 71.671875 C 170.046875 72.117188 170.519531 72.585938 170.964844 73.078125 C 171.414062 73.566406 171.835938 74.082031 172.230469 74.617188 C 172.628906 75.148438 172.996094 75.703125 173.335938 76.273438 C 173.679688 76.84375 173.988281 77.433594 174.269531 78.035156 C 174.550781 78.636719 174.804688 79.253906 175.023438 79.882812 C 175.242188 80.507812 175.429688 81.144531 175.585938 81.792969 C 175.742188 82.441406 175.863281 83.09375 175.953125 83.753906 C 176.042969 84.410156 176.097656 85.074219 176.121094 85.738281 C 176.144531 86.402344 176.132812 87.066406 176.089844 87.730469 C 176.085938 87.988281 176.054688 88.246094 176 88.5 C 175.941406 88.75 175.863281 88.996094 175.757812 89.234375 C 175.652344 89.472656 175.527344 89.695312 175.378906 89.90625 C 175.230469 90.121094 175.0625 90.316406 174.875 90.492188 C 174.6875 90.671875 174.484375 90.832031 174.265625 90.96875 C 174.046875 91.109375 173.816406 91.226562 173.578125 91.320312 C 173.335938 91.414062 173.085938 91.480469 172.832031 91.527344 C 172.574219 91.570312 172.320312 91.589844 172.058594 91.582031 C 171.5 91.566406 170.96875 91.4375 170.464844 91.199219 C 170.121094 91.035156 169.808594 90.828125 169.527344 90.570312 C 169.242188 90.316406 169.003906 90.027344 168.804688 89.703125 C 168.605469 89.375 168.460938 89.03125 168.363281 88.664062 C 168.265625 88.296875 168.21875 87.921875 168.230469 87.542969 C 168.300781 86.71875 168.285156 85.898438 168.1875 85.078125 C 168.085938 84.257812 167.90625 83.457031 167.640625 82.675781 C 167.378906 81.894531 167.039062 81.148438 166.621094 80.433594 C 166.203125 79.722656 165.71875 79.0625 165.164062 78.449219 C 164.609375 77.835938 164 77.285156 163.332031 76.800781 C 162.667969 76.3125 161.957031 75.898438 161.207031 75.558594 C 160.457031 75.214844 159.675781 74.953125 158.871094 74.773438 C 158.066406 74.589844 157.25 74.492188 156.425781 74.480469 C 156.167969 74.464844 155.914062 74.425781 155.664062 74.363281 C 155.410156 74.296875 155.167969 74.210938 154.9375 74.097656 C 154.703125 73.984375 154.484375 73.851562 154.277344 73.695312 C 154.070312 73.542969 153.878906 73.367188 153.707031 73.175781 C 153.535156 72.980469 153.382812 72.773438 153.25 72.550781 C 153.121094 72.328125 153.011719 72.09375 152.925781 71.851562 C 152.839844 71.605469 152.777344 71.355469 152.742188 71.101562 C 152.707031 70.84375 152.695312 70.585938 152.710938 70.328125 Z M 152.710938 70.328125 " fill-opacity="1" fill-rule="nonzero"/></g></g></g><g fill="#d2b48b" fill-opacity="1"><g transform="translate(94.262144, 335.525018)"><g><path d="M 2.734375 0 L 2.734375 -26.265625 L 13.875 -26.265625 C 15.082031 -26.265625 16.191406 -26.019531 17.203125 -25.53125 C 18.210938 -25.039062 19.09375 -24.375 19.84375 -23.53125 C 20.601562 -22.695312 21.191406 -21.757812 21.609375 -20.71875 C 22.023438 -19.6875 22.234375 -18.625 22.234375 -17.53125 C 22.234375 -16.050781 21.890625 -14.644531 21.203125 -13.3125 C 20.515625 -11.988281 19.5625 -10.90625 18.34375 -10.0625 C 17.132812 -9.226562 15.707031 -8.8125 14.0625 -8.8125 L 7.84375 -8.8125 L 7.84375 0 Z M 7.84375 -13.28125 L 13.765625 -13.28125 C 14.378906 -13.28125 14.929688 -13.453125 15.421875 -13.796875 C 15.921875 -14.140625 16.316406 -14.640625 16.609375 -15.296875 C 16.910156 -15.953125 17.0625 -16.695312 17.0625 -17.53125 C 17.0625 -18.445312 16.894531 -19.222656 16.5625 -19.859375 C 16.226562 -20.503906 15.796875 -20.988281 15.265625 -21.3125 C 14.734375 -21.632812 14.160156 -21.796875 13.546875 -21.796875 L 7.84375 -21.796875 Z M 7.84375 -13.28125 "/></g></g></g><g fill="#d2b48b" fill-opacity="1"><g transform="translate(116.31176, 335.525018)"><g/></g></g><g fill="#d2b48b" fill-opacity="1"><g transform="translate(125.190818, 335.525018)"><g><path d="M 13.953125 0.1875 C 12.023438 0.1875 10.273438 -0.179688 8.703125 -0.921875 C 7.140625 -1.660156 5.796875 -2.664062 4.671875 -3.9375 C 3.554688 -5.207031 2.6875 -6.640625 2.0625 -8.234375 C 1.445312 -9.828125 1.140625 -11.460938 1.140625 -13.140625 C 1.140625 -14.890625 1.46875 -16.554688 2.125 -18.140625 C 2.78125 -19.734375 3.679688 -21.148438 4.828125 -22.390625 C 5.972656 -23.640625 7.328125 -24.628906 8.890625 -25.359375 C 10.460938 -26.085938 12.1875 -26.453125 14.0625 -26.453125 C 15.957031 -26.453125 17.6875 -26.066406 19.25 -25.296875 C 20.820312 -24.535156 22.160156 -23.515625 23.265625 -22.234375 C 24.378906 -20.953125 25.242188 -19.519531 25.859375 -17.9375 C 26.472656 -16.363281 26.78125 -14.738281 26.78125 -13.0625 C 26.78125 -11.332031 26.457031 -9.671875 25.8125 -8.078125 C 25.175781 -6.492188 24.285156 -5.078125 23.140625 -3.828125 C 21.992188 -2.585938 20.632812 -1.609375 19.0625 -0.890625 C 17.5 -0.171875 15.796875 0.1875 13.953125 0.1875 Z M 6.328125 -13.140625 C 6.328125 -12.003906 6.5 -10.90625 6.84375 -9.84375 C 7.1875 -8.78125 7.6875 -7.832031 8.34375 -7 C 9 -6.175781 9.800781 -5.523438 10.75 -5.046875 C 11.695312 -4.566406 12.773438 -4.328125 13.984375 -4.328125 C 15.222656 -4.328125 16.320312 -4.578125 17.28125 -5.078125 C 18.238281 -5.585938 19.035156 -6.269531 19.671875 -7.125 C 20.316406 -7.976562 20.804688 -8.925781 21.140625 -9.96875 C 21.472656 -11.019531 21.640625 -12.078125 21.640625 -13.140625 C 21.640625 -14.273438 21.460938 -15.363281 21.109375 -16.40625 C 20.753906 -17.457031 20.25 -18.394531 19.59375 -19.21875 C 18.9375 -20.050781 18.132812 -20.707031 17.1875 -21.1875 C 16.238281 -21.664062 15.171875 -21.90625 13.984375 -21.90625 C 12.722656 -21.90625 11.617188 -21.648438 10.671875 -21.140625 C 9.722656 -20.640625 8.925781 -19.96875 8.28125 -19.125 C 7.644531 -18.289062 7.160156 -17.351562 6.828125 -16.3125 C 6.492188 -15.28125 6.328125 -14.222656 6.328125 -13.140625 Z M 6.328125 -13.140625 "/></g></g></g><g fill="#d2b48b" fill-opacity="1"><g transform="translate(153.159845, 335.525018)"><g/></g></g><g fill="#d2b48b" fill-opacity="1"><g transform="translate(160.965974, 335.525018)"><g><path d="M 22.390625 -21.796875 L 13.984375 -21.796875 L 13.984375 0 L 8.921875 0 L 8.921875 -21.796875 L 0.515625 -21.796875 L 0.515625 -26.265625 L 22.390625 -26.265625 Z M 22.390625 -21.796875 "/></g></g></g><g fill="#d2b48b" fill-opacity="1"><g transform="translate(182.79361, 335.525018)"><g/></g></g><g fill="#d2b48b" fill-opacity="1"><g transform="translate(190.525741, 335.525018)"><g><path d="M 9.875 -26.265625 L 15.0625 -26.265625 L 24.71875 0 L 19.46875 0 L 17.015625 -6.546875 L 7.84375 -6.546875 L 5.4375 0 L 0.1875 0 Z M 16.09375 -10.140625 L 12.46875 -20.984375 L 8.6875 -10.140625 Z M 16.09375 -10.140625 "/></g></g></g><g fill="#d2b48b" fill-opacity="1"><g transform="translate(214.240175, 335.525018)"><g/></g></g><g fill="#d2b48b" fill-opacity="1"><g transform="translate(222.046304, 335.525018)"><g><path d="M 22.390625 -21.796875 L 13.984375 -21.796875 L 13.984375 0 L 8.921875 0 L 8.921875 -21.796875 L 0.515625 -21.796875 L 0.515625 -26.265625 L 22.390625 -26.265625 Z M 22.390625 -21.796875 "/></g></g></g><g fill="#d2b48b" fill-opacity="1"><g transform="translate(243.873939, 335.525018)"><g/></g></g><g fill="#d2b48b" fill-opacity="1"><g transform="translate(252.752997, 335.525018)"><g><path d="M 13.953125 0.1875 C 12.023438 0.1875 10.273438 -0.179688 8.703125 -0.921875 C 7.140625 -1.660156 5.796875 -2.664062 4.671875 -3.9375 C 3.554688 -5.207031 2.6875 -6.640625 2.0625 -8.234375 C 1.445312 -9.828125 1.140625 -11.460938 1.140625 -13.140625 C 1.140625 -14.890625 1.46875 -16.554688 2.125 -18.140625 C 2.78125 -19.734375 3.679688 -21.148438 4.828125 -22.390625 C 5.972656 -23.640625 7.328125 -24.628906 8.890625 -25.359375 C 10.460938 -26.085938 12.1875 -26.453125 14.0625 -26.453125 C 15.957031 -26.453125 17.6875 -26.066406 19.25 -25.296875 C 20.820312 -24.535156 22.160156 -23.515625 23.265625 -22.234375 C 24.378906 -20.953125 25.242188 -19.519531 25.859375 -17.9375 C 26.472656 -16.363281 26.78125 -14.738281 26.78125 -13.0625 C 26.78125 -11.332031 26.457031 -9.671875 25.8125 -8.078125 C 25.175781 -6.492188 24.285156 -5.078125 23.140625 -3.828125 C 21.992188 -2.585938 20.632812 -1.609375 19.0625 -0.890625 C 17.5 -0.171875 15.796875 0.1875 13.953125 0.1875 Z M 6.328125 -13.140625 C 6.328125 -12.003906 6.5 -10.90625 6.84375 -9.84375 C 7.1875 -8.78125 7.6875 -7.832031 8.34375 -7 C 9 -6.175781 9.800781 -5.523438 10.75 -5.046875 C 11.695312 -4.566406 12.773438 -4.328125 13.984375 -4.328125 C 15.222656 -4.328125 16.320312 -4.578125 17.28125 -5.078125 C 18.238281 -5.585938 19.035156 -6.269531 19.671875 -7.125 C 20.316406 -7.976562 20.804688 -8.925781 21.140625 -9.96875 C 21.472656 -11.019531 21.640625 -12.078125 21.640625 -13.140625 C 21.640625 -14.273438 21.460938 -15.363281 21.109375 -16.40625 C 20.753906 -17.457031 20.25 -18.394531 19.59375 -19.21875 C 18.9375 -20.050781 18.132812 -20.707031 17.1875 -21.1875 C 16.238281 -21.664062 15.171875 -21.90625 13.984375 -21.90625 C 12.722656 -21.90625 11.617188 -21.648438 10.671875 -21.140625 C 9.722656 -20.640625 8.925781 -19.96875 8.28125 -19.125 C 7.644531 -18.289062 7.160156 -17.351562 6.828125 -16.3125 C 6.492188 -15.28125 6.328125 -14.222656 6.328125 -13.140625 Z M 6.328125 -13.140625 "/></g></g></g></svg>