<svg xmlns="http://www.w3.org/2000/svg" xmlns:xlink="http://www.w3.org/1999/xlink" width="500" zoomAndPan="magnify" viewBox="0 0 375 374.999991" height="500" preserveAspectRatio="xMidYMid meet" version="1.0"><defs><g/><clipPath id="d0a20f40c8"><path d="M 100.4375 100.4375 L 274.5625 100.4375 L 274.5625 274.5625 L 100.4375 274.5625 Z M 100.4375 100.4375 " clip-rule="nonzero"/></clipPath><clipPath id="4012bf8327"><path d="M 187.5 100.4375 C 139.417969 100.4375 100.4375 139.417969 100.4375 187.5 C 100.4375 235.582031 139.417969 274.5625 187.5 274.5625 C 235.582031 274.5625 274.5625 235.582031 274.5625 187.5 C 274.5625 139.417969 235.582031 100.4375 187.5 100.4375 Z M 187.5 100.4375 " clip-rule="nonzero"/></clipPath><clipPath id="b832581602"><path d="M 0.4375 0.4375 L 174.5625 0.4375 L 174.5625 174.5625 L 0.4375 174.5625 Z M 0.4375 0.4375 " clip-rule="nonzero"/></clipPath><clipPath id="9cac65d8cd"><path d="M 87.5 0.4375 C 39.417969 0.4375 0.4375 39.417969 0.4375 87.5 C 0.4375 135.582031 39.417969 174.5625 87.5 174.5625 C 135.582031 174.5625 174.5625 135.582031 174.5625 87.5 C 174.5625 39.417969 135.582031 0.4375 87.5 0.4375 Z M 87.5 0.4375 " clip-rule="nonzero"/></clipPath><clipPath id="4178a4e000"><rect x="0" width="175" y="0" height="175"/></clipPath><clipPath id="8f5da2ee25"><path d="M 139.445312 118.425781 L 235.445312 118.425781 L 235.445312 207.675781 L 139.445312 207.675781 Z M 139.445312 118.425781 " clip-rule="nonzero"/></clipPath></defs><g clip-path="url(#d0a20f40c8)"><g clip-path="url(#4012bf8327)"><g transform="matrix(1, 0, 0, 1, 100, 100)"><g clip-path="url(#4178a4e000)"><g clip-path="url(#b832581602)"><g clip-path="url(#9cac65d8cd)"><path fill="#ce181e" d="M 0.4375 0.4375 L 174.5625 0.4375 L 174.5625 174.5625 L 0.4375 174.5625 Z M 0.4375 0.4375 " fill-opacity="1" fill-rule="nonzero"/></g></g></g></g></g></g><g clip-path="url(#8f5da2ee25)"><path fill="#ffffff" d="M 191.214844 138.136719 C 191.765625 138.554688 191.875 139.339844 191.457031 139.890625 C 190.1875 141.5625 188.757812 141.960938 187.78125 141.996094 C 187.722656 142 187.667969 142 187.613281 142 C 186.195312 142 184.777344 141.285156 183.601562 139.96875 C 183.140625 139.453125 183.1875 138.660156 183.703125 138.199219 C 184.21875 137.738281 185.011719 137.785156 185.472656 138.300781 C 186.183594 139.097656 186.957031 139.519531 187.679688 139.496094 C 188.472656 139.464844 189.085938 138.871094 189.460938 138.378906 C 189.878906 137.828125 190.664062 137.71875 191.214844 138.136719 Z M 154.070312 147.871094 C 153.820312 147.90625 153.578125 148.011719 153.378906 148.195312 C 148.820312 152.496094 146.207031 159.199219 146.207031 166.59375 C 146.207031 170.261719 146.902344 173.871094 148.273438 177.324219 C 148.46875 177.816406 148.9375 178.113281 149.4375 178.113281 C 149.4375 178.113281 149.4375 178.113281 149.441406 178.113281 C 149.59375 178.113281 149.746094 178.085938 149.898438 178.027344 C 150.542969 177.769531 150.855469 177.042969 150.601562 176.398438 C 149.347656 173.242188 148.714844 169.945312 148.714844 166.59375 C 148.714844 159.886719 151.039062 153.847656 155.097656 150.019531 C 155.601562 149.546875 155.625 148.753906 155.148438 148.25 C 154.863281 147.941406 154.457031 147.816406 154.070312 147.871094 Z M 235.550781 166.59375 C 235.550781 189.242188 213.992188 207.667969 187.496094 207.667969 C 161 207.667969 139.445312 189.242188 139.445312 166.59375 C 139.445312 158.183594 142.179688 150.5 147.140625 144.957031 C 150.863281 140.800781 155.585938 138.042969 161.019531 136.785156 C 163.25 136.269531 165.59375 136 168.042969 136 C 171.089844 136 174.28125 136.417969 177.53125 137.238281 C 178.023438 137.363281 178.394531 137.769531 178.464844 138.273438 L 178.480469 138.394531 C 178.492188 138.472656 178.496094 138.550781 178.492188 138.628906 C 178.488281 138.746094 178.460938 138.855469 178.425781 138.964844 C 178.417969 138.988281 178.410156 139.007812 178.402344 139.03125 C 178.359375 139.136719 178.308594 139.238281 178.238281 139.332031 C 178.035156 139.597656 177.734375 139.773438 177.398438 139.816406 C 175.058594 140.109375 172.277344 141.152344 168.886719 143.003906 C 163.410156 146.050781 161.597656 151.265625 161.03125 154.992188 C 161.425781 154.441406 161.707031 154.074219 161.714844 154.058594 C 163.621094 151.585938 166.753906 148.214844 170.894531 146.179688 C 173.417969 144.742188 178.09375 143.730469 183.734375 143.394531 C 184.269531 143.363281 184.761719 143.671875 184.964844 144.164062 C 184.996094 144.226562 185.015625 144.273438 185.035156 144.316406 C 187.691406 149.808594 188.628906 155.664062 188.949219 159.617188 C 188.949219 159.644531 189.042969 160.890625 189.089844 162.414062 C 190.851562 158.710938 192.675781 152.496094 190.421875 145.035156 C 190.304688 144.644531 190.386719 144.21875 190.640625 143.894531 C 190.894531 143.574219 191.289062 143.398438 191.703125 143.425781 C 197.144531 143.785156 201.65625 144.789062 204.101562 146.179688 C 208.238281 148.214844 211.375 151.585938 213.277344 154.058594 C 213.289062 154.074219 213.570312 154.445312 213.964844 154.996094 C 213.398438 151.269531 211.582031 146.050781 206.097656 142.996094 C 202.585938 141.078125 199.710938 140.027344 197.316406 139.78125 C 196.675781 139.71875 196.1875 139.179688 196.1875 138.535156 C 196.1875 138.414062 196.214844 138.300781 196.246094 138.1875 C 196.257812 138.152344 196.265625 138.121094 196.277344 138.089844 C 196.28125 138.078125 196.289062 138.070312 196.292969 138.0625 C 196.441406 137.707031 196.738281 137.425781 197.125 137.324219 C 200.496094 136.445312 203.800781 136 206.949219 136 C 208.925781 136 210.828125 136.175781 212.660156 136.511719 C 218.652344 137.609375 223.835938 140.46875 227.855469 144.953125 C 232.816406 150.5 235.550781 158.183594 235.550781 166.59375 Z M 233.046875 166.59375 C 233.046875 150.054688 222.3125 138.507812 206.949219 138.507812 C 205.664062 138.507812 204.347656 138.585938 203.011719 138.746094 C 204.347656 139.285156 205.777344 139.96875 207.308594 140.804688 C 217.335938 146.386719 216.992188 158.457031 216.585938 159.980469 C 216.441406 160.53125 215.925781 160.949219 215.359375 160.949219 C 215.355469 160.949219 215.351562 160.949219 215.347656 160.949219 C 214.804688 160.941406 214.324219 160.578125 214.160156 160.066406 C 213.910156 159.5625 209.949219 151.832031 202.964844 148.414062 C 202.9375 148.402344 202.914062 148.390625 202.890625 148.375 C 201.050781 147.316406 197.535156 146.480469 193.285156 146.066406 C 195.960938 157.636719 189.914062 166.242188 189.179688 167.226562 C 188.773438 167.777344 188.386719 168.296875 187.683594 168.296875 C 187.273438 168.296875 186.886719 168.09375 186.652344 167.757812 C 186.441406 167.449219 186.378906 167.050781 186.476562 166.691406 C 186.542969 166.046875 187.453125 155.546875 183.035156 145.953125 C 178.191406 146.308594 174.148438 147.199219 172.105469 148.375 C 172.082031 148.390625 172.058594 148.402344 172.03125 148.414062 C 165.035156 151.835938 161.085938 159.554688 160.835938 160.0625 C 160.671875 160.582031 160.183594 160.949219 159.636719 160.949219 C 159.066406 160.949219 158.550781 160.523438 158.40625 159.972656 C 158.011719 158.449219 157.703125 146.363281 167.675781 140.808594 C 169.179688 139.988281 170.582031 139.316406 171.894531 138.78125 C 171.925781 138.769531 171.953125 138.757812 171.984375 138.746094 C 170.644531 138.585938 169.332031 138.507812 168.046875 138.507812 C 167.539062 138.507812 167.039062 138.519531 166.542969 138.546875 C 151.988281 139.273438 141.949219 150.601562 141.949219 166.59375 C 141.949219 184.292969 156.105469 199.238281 175.332031 203.757812 C 175.335938 203.757812 175.335938 203.757812 175.339844 203.757812 C 176.660156 204.066406 178.003906 204.328125 179.371094 204.535156 C 179.570312 204.566406 179.769531 204.597656 179.96875 204.628906 C 180.332031 204.679688 180.699219 204.726562 181.066406 204.773438 C 181.476562 204.820312 181.890625 204.867188 182.304688 204.90625 C 182.625 204.9375 182.945312 204.964844 183.265625 204.992188 C 183.785156 205.03125 184.308594 205.066406 184.832031 205.09375 C 185.039062 205.101562 185.246094 205.113281 185.449219 205.121094 C 186.128906 205.144531 186.8125 205.164062 187.496094 205.164062 C 212.613281 205.164062 233.046875 187.863281 233.046875 166.59375 Z M 156.550781 134.578125 C 158.105469 135.347656 159.832031 135.316406 161.621094 134.925781 C 161.636719 134.925781 161.648438 134.921875 161.660156 134.917969 C 161.851562 134.875 162.042969 134.832031 162.234375 134.78125 C 162.246094 134.78125 162.257812 134.777344 162.269531 134.773438 C 162.816406 134.632812 163.363281 134.46875 163.914062 134.285156 C 163.992188 134.257812 164.074219 134.234375 164.152344 134.207031 C 164.289062 134.160156 164.425781 134.113281 164.558594 134.066406 C 164.679688 134.027344 164.796875 133.984375 164.917969 133.941406 C 165.023438 133.90625 165.128906 133.867188 165.234375 133.832031 C 165.453125 133.753906 165.671875 133.671875 165.890625 133.59375 C 169.894531 132.152344 174.03125 130.660156 177.859375 133.222656 C 179.609375 134.414062 182.511719 135.90625 184.925781 136.191406 C 185.273438 136.230469 185.625 136.121094 185.894531 135.890625 C 186.160156 135.660156 186.316406 135.328125 186.324219 134.976562 C 186.324219 134.90625 186.410156 131.78125 186.496094 128.460938 L 186.6875 121.277344 C 186.691406 121.222656 186.691406 121.160156 186.691406 121.101562 C 187.039062 121.035156 187.558594 121.035156 187.90625 121.097656 L 188.269531 134.976562 C 188.285156 135.65625 188.839844 136.199219 189.519531 136.199219 L 189.523438 136.199219 C 192.082031 136.199219 195.511719 134.328125 197.128906 133.230469 C 200.964844 130.660156 205.101562 132.152344 209.105469 133.59375 C 209.332031 133.675781 209.554688 133.757812 209.78125 133.835938 C 209.847656 133.863281 209.917969 133.886719 209.984375 133.910156 C 210.167969 133.972656 210.351562 134.039062 210.535156 134.101562 C 210.601562 134.125 210.667969 134.148438 210.730469 134.167969 C 211.210938 134.332031 211.6875 134.484375 212.160156 134.621094 C 212.222656 134.640625 212.285156 134.65625 212.347656 134.671875 C 212.527344 134.722656 212.707031 134.769531 212.886719 134.816406 C 212.949219 134.832031 213.015625 134.847656 213.078125 134.863281 C 213.546875 134.972656 214.011719 135.0625 214.46875 135.121094 C 214.53125 135.128906 214.59375 135.132812 214.65625 135.140625 C 214.828125 135.160156 215 135.175781 215.171875 135.183594 C 215.234375 135.1875 215.296875 135.191406 215.359375 135.195312 C 215.808594 135.210938 216.25 135.191406 216.683594 135.128906 C 216.746094 135.117188 216.804688 135.105469 216.867188 135.097656 C 217.027344 135.070312 217.1875 135.035156 217.347656 134.992188 C 217.40625 134.976562 217.46875 134.960938 217.527344 134.945312 C 217.699219 134.894531 217.867188 134.835938 218.03125 134.769531 C 218.980469 134.394531 219.875 133.746094 220.683594 132.722656 C 221.113281 132.179688 221.019531 131.390625 220.476562 130.964844 C 219.933594 130.535156 219.144531 130.625 218.71875 131.167969 C 216.824219 133.566406 214.28125 132.796875 209.953125 131.238281 C 205.796875 129.738281 200.625 127.875 195.722656 131.152344 C 194.316406 132.113281 192.3125 133.121094 190.734375 133.515625 L 190.398438 120.507812 C 190.359375 119.296875 189.175781 118.546875 187.304688 118.546875 C 187.300781 118.546875 187.300781 118.546875 187.296875 118.546875 C 185.421875 118.550781 184.234375 119.304688 184.203125 120.515625 C 184.199219 120.519531 184.199219 120.519531 184.199219 120.523438 C 184.199219 120.65625 184.089844 124.648438 183.992188 128.394531 C 183.941406 130.3125 183.890625 132.167969 183.859375 133.40625 C 182.28125 132.929688 180.527344 132.007812 179.261719 131.148438 C 174.371094 127.878906 169.199219 129.742188 165.039062 131.238281 C 160.710938 132.800781 158.167969 133.566406 156.277344 131.171875 C 155.847656 130.628906 155.0625 130.535156 154.515625 130.964844 C 153.972656 131.394531 153.882812 132.179688 154.3125 132.722656 C 155 133.597656 155.753906 134.1875 156.550781 134.578125 Z M 156.550781 134.578125 " fill-opacity="1" fill-rule="nonzero"/></g><g fill="#ffffff" fill-opacity="1"><g transform="translate(131.470441, 241.803383)"><g><path d="M 12.703125 -12.375 L 7.9375 -12.375 L 7.9375 0 L 5.0625 0 L 5.0625 -12.375 L 0.296875 -12.375 L 0.296875 -14.90625 L 12.703125 -14.90625 Z M 12.703125 -12.375 "/></g></g></g><g fill="#ffffff" fill-opacity="1"><g transform="translate(143.853405, 241.803383)"><g/></g></g><g fill="#ffffff" fill-opacity="1"><g transform="translate(148.890591, 241.803383)"><g><path d="M 7.921875 0.109375 C 6.828125 0.109375 5.832031 -0.0976562 4.9375 -0.515625 C 4.050781 -0.941406 3.289062 -1.515625 2.65625 -2.234375 C 2.019531 -2.953125 1.523438 -3.765625 1.171875 -4.671875 C 0.828125 -5.578125 0.65625 -6.503906 0.65625 -7.453125 C 0.65625 -8.453125 0.835938 -9.398438 1.203125 -10.296875 C 1.578125 -11.203125 2.085938 -12.007812 2.734375 -12.71875 C 3.390625 -13.425781 4.160156 -13.984375 5.046875 -14.390625 C 5.941406 -14.804688 6.921875 -15.015625 7.984375 -15.015625 C 9.054688 -15.015625 10.035156 -14.796875 10.921875 -14.359375 C 11.816406 -13.929688 12.578125 -13.351562 13.203125 -12.625 C 13.835938 -11.894531 14.328125 -11.082031 14.671875 -10.1875 C 15.023438 -9.289062 15.203125 -8.363281 15.203125 -7.40625 C 15.203125 -6.425781 15.019531 -5.484375 14.65625 -4.578125 C 14.289062 -3.679688 13.78125 -2.878906 13.125 -2.171875 C 12.476562 -1.460938 11.707031 -0.90625 10.8125 -0.5 C 9.925781 -0.09375 8.960938 0.109375 7.921875 0.109375 Z M 3.59375 -7.453125 C 3.59375 -6.804688 3.6875 -6.179688 3.875 -5.578125 C 4.070312 -4.984375 4.359375 -4.453125 4.734375 -3.984375 C 5.109375 -3.515625 5.5625 -3.140625 6.09375 -2.859375 C 6.632812 -2.585938 7.25 -2.453125 7.9375 -2.453125 C 8.632812 -2.453125 9.253906 -2.59375 9.796875 -2.875 C 10.347656 -3.164062 10.804688 -3.550781 11.171875 -4.03125 C 11.535156 -4.519531 11.8125 -5.0625 12 -5.65625 C 12.1875 -6.25 12.28125 -6.847656 12.28125 -7.453125 C 12.28125 -8.097656 12.175781 -8.71875 11.96875 -9.3125 C 11.769531 -9.90625 11.484375 -10.4375 11.109375 -10.90625 C 10.742188 -11.375 10.289062 -11.742188 9.75 -12.015625 C 9.21875 -12.296875 8.613281 -12.4375 7.9375 -12.4375 C 7.21875 -12.4375 6.585938 -12.289062 6.046875 -12 C 5.515625 -11.71875 5.066406 -11.335938 4.703125 -10.859375 C 4.335938 -10.378906 4.0625 -9.84375 3.875 -9.25 C 3.6875 -8.664062 3.59375 -8.066406 3.59375 -7.453125 Z M 3.59375 -7.453125 "/></g></g></g><g fill="#ffffff" fill-opacity="1"><g transform="translate(164.757731, 241.803383)"><g/></g></g><g fill="#ffffff" fill-opacity="1"><g transform="translate(169.794917, 241.803383)"><g><path d="M 13.71875 0 L 13.71875 -9.78125 L 9.890625 -2.5 L 8.28125 -2.5 L 4.453125 -9.78125 L 4.453125 0 L 1.546875 0 L 1.546875 -14.90625 L 4.65625 -14.90625 L 9.078125 -6.421875 L 13.53125 -14.90625 L 16.609375 -14.90625 L 16.609375 0 Z M 13.71875 0 "/></g></g></g><g fill="#ffffff" fill-opacity="1"><g transform="translate(187.949777, 241.803383)"><g/></g></g><g fill="#ffffff" fill-opacity="1"><g transform="translate(192.336194, 241.803383)"><g><path d="M 5.609375 -14.90625 L 8.546875 -14.90625 L 14.03125 0 L 11.046875 0 L 9.65625 -3.71875 L 4.453125 -3.71875 L 3.09375 0 L 0.109375 0 Z M 9.140625 -5.75 L 7.078125 -11.90625 L 4.9375 -5.75 Z M 9.140625 -5.75 "/></g></g></g><g fill="#ffffff" fill-opacity="1"><g transform="translate(205.789558, 241.803383)"><g/></g></g><g fill="#ffffff" fill-opacity="1"><g transform="translate(210.217964, 241.803383)"><g><path d="M 12.703125 -12.375 L 7.9375 -12.375 L 7.9375 0 L 5.0625 0 L 5.0625 -12.375 L 0.296875 -12.375 L 0.296875 -14.90625 L 12.703125 -14.90625 Z M 12.703125 -12.375 "/></g></g></g><g fill="#ffffff" fill-opacity="1"><g transform="translate(222.600928, 241.803383)"><g/></g></g><g fill="#ffffff" fill-opacity="1"><g transform="translate(227.638113, 241.803383)"><g><path d="M 7.921875 0.109375 C 6.828125 0.109375 5.832031 -0.0976562 4.9375 -0.515625 C 4.050781 -0.941406 3.289062 -1.515625 2.65625 -2.234375 C 2.019531 -2.953125 1.523438 -3.765625 1.171875 -4.671875 C 0.828125 -5.578125 0.65625 -6.503906 0.65625 -7.453125 C 0.65625 -8.453125 0.835938 -9.398438 1.203125 -10.296875 C 1.578125 -11.203125 2.085938 -12.007812 2.734375 -12.71875 C 3.390625 -13.425781 4.160156 -13.984375 5.046875 -14.390625 C 5.941406 -14.804688 6.921875 -15.015625 7.984375 -15.015625 C 9.054688 -15.015625 10.035156 -14.796875 10.921875 -14.359375 C 11.816406 -13.929688 12.578125 -13.351562 13.203125 -12.625 C 13.835938 -11.894531 14.328125 -11.082031 14.671875 -10.1875 C 15.023438 -9.289062 15.203125 -8.363281 15.203125 -7.40625 C 15.203125 -6.425781 15.019531 -5.484375 14.65625 -4.578125 C 14.289062 -3.679688 13.78125 -2.878906 13.125 -2.171875 C 12.476562 -1.460938 11.707031 -0.90625 10.8125 -0.5 C 9.925781 -0.09375 8.960938 0.109375 7.921875 0.109375 Z M 3.59375 -7.453125 C 3.59375 -6.804688 3.6875 -6.179688 3.875 -5.578125 C 4.070312 -4.984375 4.359375 -4.453125 4.734375 -3.984375 C 5.109375 -3.515625 5.5625 -3.140625 6.09375 -2.859375 C 6.632812 -2.585938 7.25 -2.453125 7.9375 -2.453125 C 8.632812 -2.453125 9.253906 -2.59375 9.796875 -2.875 C 10.347656 -3.164062 10.804688 -3.550781 11.171875 -4.03125 C 11.535156 -4.519531 11.8125 -5.0625 12 -5.65625 C 12.1875 -6.25 12.28125 -6.847656 12.28125 -7.453125 C 12.28125 -8.097656 12.175781 -8.71875 11.96875 -9.3125 C 11.769531 -9.90625 11.484375 -10.4375 11.109375 -10.90625 C 10.742188 -11.375 10.289062 -11.742188 9.75 -12.015625 C 9.21875 -12.296875 8.613281 -12.4375 7.9375 -12.4375 C 7.21875 -12.4375 6.585938 -12.289062 6.046875 -12 C 5.515625 -11.71875 5.066406 -11.335938 4.703125 -10.859375 C 4.335938 -10.378906 4.0625 -9.84375 3.875 -9.25 C 3.6875 -8.664062 3.59375 -8.066406 3.59375 -7.453125 Z M 3.59375 -7.453125 "/></g></g></g></svg>