<svg xmlns="http://www.w3.org/2000/svg" xmlns:xlink="http://www.w3.org/1999/xlink" width="500" zoomAndPan="magnify" viewBox="0 0 375 374.999991" height="500" preserveAspectRatio="xMidYMid meet" version="1.0"><defs><g/><clipPath id="4e9d49b01f"><path d="M 40.5 6.976562 L 334.5 6.976562 L 334.5 300.976562 L 40.5 300.976562 Z M 40.5 6.976562 " clip-rule="nonzero"/></clipPath><clipPath id="6967882863"><path d="M 187.5 6.976562 C 106.3125 6.976562 40.5 72.789062 40.5 153.976562 C 40.5 235.160156 106.3125 300.976562 187.5 300.976562 C 268.6875 300.976562 334.5 235.160156 334.5 153.976562 C 334.5 72.789062 268.6875 6.976562 187.5 6.976562 Z M 187.5 6.976562 " clip-rule="nonzero"/></clipPath><clipPath id="08b36f6caf"><path d="M 0.5 0.976562 L 294.5 0.976562 L 294.5 294.976562 L 0.5 294.976562 Z M 0.5 0.976562 " clip-rule="nonzero"/></clipPath><clipPath id="df17938b2b"><path d="M 147.5 0.976562 C 66.3125 0.976562 0.5 66.789062 0.5 147.976562 C 0.5 229.160156 66.3125 294.976562 147.5 294.976562 C 228.6875 294.976562 294.5 229.160156 294.5 147.976562 C 294.5 66.789062 228.6875 0.976562 147.5 0.976562 Z M 147.5 0.976562 " clip-rule="nonzero"/></clipPath><clipPath id="eefe448f1e"><rect x="0" width="295" y="0" height="295"/></clipPath><clipPath id="68b77483ba"><path d="M 80 35 L 295 35 L 295 273.132812 L 80 273.132812 Z M 80 35 " clip-rule="nonzero"/></clipPath></defs><g clip-path="url(#4e9d49b01f)"><g clip-path="url(#6967882863)"><g transform="matrix(1, 0, 0, 1, 40, 6)"><g clip-path="url(#eefe448f1e)"><g clip-path="url(#08b36f6caf)"><g clip-path="url(#df17938b2b)"><path fill="#ce181e" d="M 0.5 0.976562 L 294.5 0.976562 L 294.5 294.976562 L 0.5 294.976562 Z M 0.5 0.976562 " fill-opacity="1" fill-rule="nonzero"/></g></g></g></g></g></g><g clip-path="url(#68b77483ba)"><path fill="#ffffff" d="M 258.644531 102.585938 C 263.867188 98.238281 267.777344 92.214844 270.761719 84.382812 C 271.382812 82.703125 270.976562 80.78125 269.734375 79.503906 C 268.460938 78.199219 266.566406 77.734375 264.859375 78.355469 C 251.40625 83.015625 239.351562 80.839844 225.40625 78.328125 C 215.714844 76.554688 205.679688 74.753906 194.308594 75.097656 C 188.902344 60.59375 180.457031 48.289062 168.988281 38.535156 C 167.65625 37.386719 166.097656 36.578125 164.484375 36.175781 C 158.335938 34.652344 154.542969 36.546875 152.464844 38.441406 C 150.351562 40.335938 149.140625 43.011719 149.078125 45.929688 C 149.011719 49.035156 150.261719 52.050781 152.464844 54.257812 C 158.613281 60.316406 161.5 67.429688 163.367188 76.128906 C 153.300781 76.5 145.75 78.179688 138.980469 79.699219 C 127.890625 82.152344 120.558594 83.769531 108.378906 78.488281 C 106.605469 77.710938 104.527344 78.113281 103.191406 79.515625 C 101.824219 80.882812 101.484375 82.964844 102.289062 84.734375 C 105.609375 91.878906 109.433594 98.683594 114.375 104.210938 C 92.507812 122.65625 80.085938 148.34375 80.085938 175.714844 C 80.085938 229.519531 128.265625 273.320312 187.472656 273.320312 C 246.714844 273.320312 294.898438 229.519531 294.898438 175.714844 C 294.898438 147.445312 281.757812 121.132812 258.644531 102.585938 Z M 140.972656 88.792969 C 147.648438 87.300781 155.101562 85.621094 165.015625 85.40625 C 165.359375 87.644531 165.667969 90.003906 166.011719 92.457031 C 166.289062 94.445312 166.570312 96.496094 166.878906 98.613281 L 176.105469 97.277344 C 175.796875 95.195312 175.515625 93.175781 175.238281 91.1875 C 172.8125 73.386719 170.890625 59.316406 159.019531 47.605469 C 158.617188 47.230469 158.394531 46.671875 158.394531 46.140625 C 158.394531 45.613281 158.644531 45.425781 158.703125 45.332031 C 159.480469 44.648438 161.25 44.957031 162.246094 45.207031 C 162.433594 45.273438 162.714844 45.425781 162.964844 45.644531 C 175.238281 56.082031 183.746094 69.847656 188.25 86.527344 L 196.203125 84.382812 C 206.023438 84.257812 214.996094 85.902344 223.757812 87.488281 C 235.125 89.539062 246.03125 91.527344 257.773438 89.691406 C 250.628906 100.40625 237.765625 105.003906 207.761719 100.222656 C 205.617188 99.847656 203.472656 101.089844 202.667969 103.113281 C 201.890625 105.164062 202.636719 107.492188 204.4375 108.707031 C 214.128906 115.074219 217.390625 122.835938 219.96875 132.9375 C 206.703125 128.246094 196.015625 123.769531 188.3125 114.671875 C 187.132812 113.273438 185.269531 112.683594 183.5 113.179688 C 181.757812 113.675781 180.457031 115.167969 180.175781 116.96875 C 178.996094 124.363281 170.175781 128.867188 152 137.039062 C 155.789062 125.171875 160.636719 118.710938 169.429688 112.902344 C 171.359375 111.59375 172.070312 109.078125 171.046875 106.996094 C 170.050781 104.886719 167.660156 103.863281 165.453125 104.574219 C 138.644531 113.085938 125.65625 106.46875 115.902344 90.5625 C 125.132812 92.273438 132.648438 90.628906 140.972656 88.792969 Z M 187.472656 264 C 133.390625 264 89.402344 224.390625 89.402344 175.714844 C 89.402344 150.710938 100.988281 127.222656 121.367188 110.476562 C 128.792969 115.792969 138.332031 118.617188 151.285156 117.21875 C 145.941406 124.484375 142.992188 133.15625 140.382812 144.277344 C 139.980469 146.019531 140.597656 147.820312 141.96875 148.96875 C 142.835938 149.648438 143.859375 150.023438 144.917969 150.023438 C 145.597656 150.023438 146.25 149.863281 146.875 149.585938 C 149.265625 148.496094 151.566406 147.476562 153.769531 146.480469 C 170.078125 139.148438 181.355469 134.085938 186.476562 126.070312 C 196.328125 134.679688 208.78125 138.960938 222.855469 143.808594 L 224.96875 144.527344 C 226.554688 145.085938 228.324219 144.710938 229.597656 143.59375 C 230.835938 142.445312 231.398438 140.703125 231.023438 139.058594 L 230.714844 137.785156 C 228.449219 127.90625 226.367188 118.925781 220.585938 111.128906 C 232.765625 111.996094 242.429688 110.941406 250.066406 107.742188 C 272.648438 124.613281 285.574219 149.21875 285.574219 175.714844 C 285.578125 224.390625 241.558594 264 187.472656 264 Z M 200.03125 250.988281 C 198.0625 250.988281 196.242188 249.738281 195.601562 247.769531 C 194.804688 245.320312 196.144531 242.691406 198.59375 241.894531 C 222.34375 234.164062 240.179688 220.84375 251.609375 202.316406 C 252.957031 200.121094 255.832031 199.441406 258.015625 200.792969 C 260.207031 202.144531 260.886719 205.015625 259.539062 207.207031 C 246.921875 227.675781 227.382812 242.328125 201.472656 250.761719 C 200.992188 250.910156 200.507812 250.988281 200.03125 250.988281 Z M 263.558594 193.300781 C 262.992188 193.300781 262.417969 193.199219 261.859375 192.976562 C 259.464844 192.039062 258.277344 189.34375 259.214844 186.941406 C 259.890625 185.210938 260.53125 183.4375 261.125 181.636719 C 261.929688 179.199219 264.5625 177.859375 267.007812 178.675781 C 269.449219 179.480469 270.773438 182.113281 269.976562 184.558594 C 269.328125 186.519531 268.632812 188.449219 267.894531 190.332031 C 267.183594 192.171875 265.421875 193.300781 263.558594 193.300781 Z M 263.558594 193.300781 " fill-opacity="1" fill-rule="nonzero"/></g><g fill="#ce181e" fill-opacity="1"><g transform="translate(88.742284, 335.525018)"><g><path d="M 22.390625 -21.796875 L 13.984375 -21.796875 L 13.984375 0 L 8.921875 0 L 8.921875 -21.796875 L 0.515625 -21.796875 L 0.515625 -26.265625 L 22.390625 -26.265625 Z M 22.390625 -21.796875 "/></g></g></g><g fill="#ce181e" fill-opacity="1"><g transform="translate(110.569919, 335.525018)"><g/></g></g><g fill="#ce181e" fill-opacity="1"><g transform="translate(119.448978, 335.525018)"><g><path d="M 13.953125 0.1875 C 12.023438 0.1875 10.273438 -0.179688 8.703125 -0.921875 C 7.140625 -1.660156 5.796875 -2.664062 4.671875 -3.9375 C 3.554688 -5.207031 2.6875 -6.640625 2.0625 -8.234375 C 1.445312 -9.828125 1.140625 -11.460938 1.140625 -13.140625 C 1.140625 -14.890625 1.46875 -16.554688 2.125 -18.140625 C 2.78125 -19.734375 3.679688 -21.148438 4.828125 -22.390625 C 5.972656 -23.640625 7.328125 -24.628906 8.890625 -25.359375 C 10.460938 -26.085938 12.1875 -26.453125 14.0625 -26.453125 C 15.957031 -26.453125 17.6875 -26.066406 19.25 -25.296875 C 20.820312 -24.535156 22.160156 -23.515625 23.265625 -22.234375 C 24.378906 -20.953125 25.242188 -19.519531 25.859375 -17.9375 C 26.472656 -16.363281 26.78125 -14.738281 26.78125 -13.0625 C 26.78125 -11.332031 26.457031 -9.671875 25.8125 -8.078125 C 25.175781 -6.492188 24.285156 -5.078125 23.140625 -3.828125 C 21.992188 -2.585938 20.632812 -1.609375 19.0625 -0.890625 C 17.5 -0.171875 15.796875 0.1875 13.953125 0.1875 Z M 6.328125 -13.140625 C 6.328125 -12.003906 6.5 -10.90625 6.84375 -9.84375 C 7.1875 -8.78125 7.6875 -7.832031 8.34375 -7 C 9 -6.175781 9.800781 -5.523438 10.75 -5.046875 C 11.695312 -4.566406 12.773438 -4.328125 13.984375 -4.328125 C 15.222656 -4.328125 16.320312 -4.578125 17.28125 -5.078125 C 18.238281 -5.585938 19.035156 -6.269531 19.671875 -7.125 C 20.316406 -7.976562 20.804688 -8.925781 21.140625 -9.96875 C 21.472656 -11.019531 21.640625 -12.078125 21.640625 -13.140625 C 21.640625 -14.273438 21.460938 -15.363281 21.109375 -16.40625 C 20.753906 -17.457031 20.25 -18.394531 19.59375 -19.21875 C 18.9375 -20.050781 18.132812 -20.707031 17.1875 -21.1875 C 16.238281 -21.664062 15.171875 -21.90625 13.984375 -21.90625 C 12.722656 -21.90625 11.617188 -21.648438 10.671875 -21.140625 C 9.722656 -20.640625 8.925781 -19.96875 8.28125 -19.125 C 7.644531 -18.289062 7.160156 -17.351562 6.828125 -16.3125 C 6.492188 -15.28125 6.328125 -14.222656 6.328125 -13.140625 Z M 6.328125 -13.140625 "/></g></g></g><g fill="#ce181e" fill-opacity="1"><g transform="translate(147.418004, 335.525018)"><g/></g></g><g fill="#ce181e" fill-opacity="1"><g transform="translate(156.297063, 335.525018)"><g><path d="M 24.15625 0 L 24.15625 -17.234375 L 17.421875 -4.40625 L 14.578125 -4.40625 L 7.84375 -17.234375 L 7.84375 0 L 2.734375 0 L 2.734375 -26.265625 L 8.21875 -26.265625 L 15.984375 -11.328125 L 23.828125 -26.265625 L 29.265625 -26.265625 L 29.265625 0 Z M 24.15625 0 "/></g></g></g><g fill="#ce181e" fill-opacity="1"><g transform="translate(188.298655, 335.525018)"><g/></g></g><g fill="#ce181e" fill-opacity="1"><g transform="translate(196.030787, 335.525018)"><g><path d="M 9.875 -26.265625 L 15.0625 -26.265625 L 24.71875 0 L 19.46875 0 L 17.015625 -6.546875 L 7.84375 -6.546875 L 5.4375 0 L 0.1875 0 Z M 16.09375 -10.140625 L 12.46875 -20.984375 L 8.6875 -10.140625 Z M 16.09375 -10.140625 "/></g></g></g><g fill="#ce181e" fill-opacity="1"><g transform="translate(219.74522, 335.525018)"><g/></g></g><g fill="#ce181e" fill-opacity="1"><g transform="translate(227.551349, 335.525018)"><g><path d="M 22.390625 -21.796875 L 13.984375 -21.796875 L 13.984375 0 L 8.921875 0 L 8.921875 -21.796875 L 0.515625 -21.796875 L 0.515625 -26.265625 L 22.390625 -26.265625 Z M 22.390625 -21.796875 "/></g></g></g><g fill="#ce181e" fill-opacity="1"><g transform="translate(249.378985, 335.525018)"><g/></g></g><g fill="#ce181e" fill-opacity="1"><g transform="translate(258.258043, 335.525018)"><g><path d="M 13.953125 0.1875 C 12.023438 0.1875 10.273438 -0.179688 8.703125 -0.921875 C 7.140625 -1.660156 5.796875 -2.664062 4.671875 -3.9375 C 3.554688 -5.207031 2.6875 -6.640625 2.0625 -8.234375 C 1.445312 -9.828125 1.140625 -11.460938 1.140625 -13.140625 C 1.140625 -14.890625 1.46875 -16.554688 2.125 -18.140625 C 2.78125 -19.734375 3.679688 -21.148438 4.828125 -22.390625 C 5.972656 -23.640625 7.328125 -24.628906 8.890625 -25.359375 C 10.460938 -26.085938 12.1875 -26.453125 14.0625 -26.453125 C 15.957031 -26.453125 17.6875 -26.066406 19.25 -25.296875 C 20.820312 -24.535156 22.160156 -23.515625 23.265625 -22.234375 C 24.378906 -20.953125 25.242188 -19.519531 25.859375 -17.9375 C 26.472656 -16.363281 26.78125 -14.738281 26.78125 -13.0625 C 26.78125 -11.332031 26.457031 -9.671875 25.8125 -8.078125 C 25.175781 -6.492188 24.285156 -5.078125 23.140625 -3.828125 C 21.992188 -2.585938 20.632812 -1.609375 19.0625 -0.890625 C 17.5 -0.171875 15.796875 0.1875 13.953125 0.1875 Z M 6.328125 -13.140625 C 6.328125 -12.003906 6.5 -10.90625 6.84375 -9.84375 C 7.1875 -8.78125 7.6875 -7.832031 8.34375 -7 C 9 -6.175781 9.800781 -5.523438 10.75 -5.046875 C 11.695312 -4.566406 12.773438 -4.328125 13.984375 -4.328125 C 15.222656 -4.328125 16.320312 -4.578125 17.28125 -5.078125 C 18.238281 -5.585938 19.035156 -6.269531 19.671875 -7.125 C 20.316406 -7.976562 20.804688 -8.925781 21.140625 -9.96875 C 21.472656 -11.019531 21.640625 -12.078125 21.640625 -13.140625 C 21.640625 -14.273438 21.460938 -15.363281 21.109375 -16.40625 C 20.753906 -17.457031 20.25 -18.394531 19.59375 -19.21875 C 18.9375 -20.050781 18.132812 -20.707031 17.1875 -21.1875 C 16.238281 -21.664062 15.171875 -21.90625 13.984375 -21.90625 C 12.722656 -21.90625 11.617188 -21.648438 10.671875 -21.140625 C 9.722656 -20.640625 8.925781 -19.96875 8.28125 -19.125 C 7.644531 -18.289062 7.160156 -17.351562 6.828125 -16.3125 C 6.492188 -15.28125 6.328125 -14.222656 6.328125 -13.140625 Z M 6.328125 -13.140625 "/></g></g></g></svg>