<svg xmlns="http://www.w3.org/2000/svg" xmlns:xlink="http://www.w3.org/1999/xlink" width="500" zoomAndPan="magnify" viewBox="0 0 375 374.999991" height="500" preserveAspectRatio="xMidYMid meet" version="1.0"><defs><g/><clipPath id="d89dfc631c"><path d="M 100.4375 100.4375 L 274.5625 100.4375 L 274.5625 274.5625 L 100.4375 274.5625 Z M 100.4375 100.4375 " clip-rule="nonzero"/></clipPath><clipPath id="06d0b6fd21"><path d="M 187.5 100.4375 C 139.417969 100.4375 100.4375 139.417969 100.4375 187.5 C 100.4375 235.582031 139.417969 274.5625 187.5 274.5625 C 235.582031 274.5625 274.5625 235.582031 274.5625 187.5 C 274.5625 139.417969 235.582031 100.4375 187.5 100.4375 Z M 187.5 100.4375 " clip-rule="nonzero"/></clipPath><clipPath id="6fc9537e66"><path d="M 0.4375 0.4375 L 174.5625 0.4375 L 174.5625 174.5625 L 0.4375 174.5625 Z M 0.4375 0.4375 " clip-rule="nonzero"/></clipPath><clipPath id="248cabebd2"><path d="M 87.5 0.4375 C 39.417969 0.4375 0.4375 39.417969 0.4375 87.5 C 0.4375 135.582031 39.417969 174.5625 87.5 174.5625 C 135.582031 174.5625 174.5625 135.582031 174.5625 87.5 C 174.5625 39.417969 135.582031 0.4375 87.5 0.4375 Z M 87.5 0.4375 " clip-rule="nonzero"/></clipPath><clipPath id="e50f75efca"><rect x="0" width="175" y="0" height="175"/></clipPath><clipPath id="93df60371c"><path d="M 158.699219 111.214844 L 216.449219 111.214844 L 216.449219 207.214844 L 158.699219 207.214844 Z M 158.699219 111.214844 " clip-rule="nonzero"/></clipPath></defs><g clip-path="url(#d89dfc631c)"><g clip-path="url(#06d0b6fd21)"><g transform="matrix(1, 0, 0, 1, 100, 100)"><g clip-path="url(#e50f75efca)"><g clip-path="url(#6fc9537e66)"><g clip-path="url(#248cabebd2)"><path fill="#595959" d="M 0.4375 0.4375 L 174.5625 0.4375 L 174.5625 174.5625 L 0.4375 174.5625 Z M 0.4375 0.4375 " fill-opacity="1" fill-rule="nonzero"/></g></g></g></g></g></g><g clip-path="url(#93df60371c)"><path fill="#ffffff" d="M 187.5 192.8125 C 191.472656 192.8125 194.699219 196.039062 194.699219 200.011719 C 194.699219 203.988281 191.472656 207.214844 187.5 207.214844 C 183.523438 207.214844 180.300781 203.988281 180.300781 200.011719 C 180.300781 196.039062 183.523438 192.8125 187.5 192.8125 Z M 187.5 111.21875 C 203.40625 111.21875 216.296875 124.109375 216.296875 140.015625 C 216.296875 150.40625 212.683594 155.808594 203.464844 163.644531 C 194.214844 171.503906 192.296875 175.039062 192.296875 183.214844 L 182.699219 183.214844 C 182.699219 171.339844 186.476562 165.480469 197.246094 156.332031 C 204.527344 150.144531 206.699219 146.898438 206.699219 140.015625 C 206.699219 129.410156 198.105469 120.816406 187.5 120.816406 C 176.890625 120.816406 168.300781 129.410156 168.300781 140.015625 L 168.300781 144.816406 L 158.699219 144.816406 L 158.699219 140.015625 C 158.699219 124.109375 171.59375 111.21875 187.5 111.21875 Z M 187.5 111.21875 " fill-opacity="1" fill-rule="nonzero"/></g><g fill="#ffffff" fill-opacity="1"><g transform="translate(129.23216, 232.033799)"><g><path d="M 1.546875 0 L 1.546875 -14.90625 L 4.453125 -14.90625 L 4.453125 0 Z M 1.546875 0 "/></g></g></g><g fill="#ffffff" fill-opacity="1"><g transform="translate(135.243878, 232.033799)"><g/></g></g><g fill="#ffffff" fill-opacity="1"><g transform="translate(140.281064, 232.033799)"><g/></g></g><g fill="#ffffff" fill-opacity="1"><g transform="translate(144.677471, 232.033799)"><g><path d="M 5.609375 -14.90625 L 8.546875 -14.90625 L 14.03125 0 L 11.046875 0 L 9.65625 -3.71875 L 4.453125 -3.71875 L 3.09375 0 L 0.109375 0 Z M 9.140625 -5.75 L 7.078125 -11.90625 L 4.9375 -5.75 Z M 9.140625 -5.75 "/></g></g></g><g fill="#ffffff" fill-opacity="1"><g transform="translate(158.130836, 232.033799)"><g/></g></g><g fill="#ffffff" fill-opacity="1"><g transform="translate(163.168021, 232.033799)"><g><path d="M 13.71875 0 L 13.71875 -9.78125 L 9.890625 -2.5 L 8.28125 -2.5 L 4.453125 -9.78125 L 4.453125 0 L 1.546875 0 L 1.546875 -14.90625 L 4.65625 -14.90625 L 9.078125 -6.421875 L 13.53125 -14.90625 L 16.609375 -14.90625 L 16.609375 0 Z M 13.71875 0 "/></g></g></g><g fill="#ffffff" fill-opacity="1"><g transform="translate(181.333719, 232.033799)"><g/></g></g><g fill="#ffffff" fill-opacity="1"><g transform="translate(186.370904, 232.033799)"><g/></g></g><g fill="#ffffff" fill-opacity="1"><g transform="translate(191.411843, 232.033799)"><g><path d="M 4.453125 -9.578125 L 4.453125 0 L 1.546875 0 L 1.546875 -14.90625 L 3.859375 -14.90625 L 11.578125 -5.078125 L 11.578125 -14.890625 L 14.46875 -14.890625 L 14.46875 0 L 12.046875 0 Z M 4.453125 -9.578125 "/></g></g></g><g fill="#ffffff" fill-opacity="1"><g transform="translate(207.425903, 232.033799)"><g/></g></g><g fill="#ffffff" fill-opacity="1"><g transform="translate(212.463088, 232.033799)"><g><path d="M 7.921875 0.109375 C 6.828125 0.109375 5.832031 -0.0976562 4.9375 -0.515625 C 4.050781 -0.941406 3.289062 -1.515625 2.65625 -2.234375 C 2.019531 -2.953125 1.523438 -3.765625 1.171875 -4.671875 C 0.828125 -5.578125 0.65625 -6.503906 0.65625 -7.453125 C 0.65625 -8.453125 0.835938 -9.398438 1.203125 -10.296875 C 1.578125 -11.203125 2.085938 -12.007812 2.734375 -12.71875 C 3.390625 -13.425781 4.160156 -13.984375 5.046875 -14.390625 C 5.941406 -14.804688 6.921875 -15.015625 7.984375 -15.015625 C 9.054688 -15.015625 10.035156 -14.796875 10.921875 -14.359375 C 11.816406 -13.929688 12.578125 -13.351562 13.203125 -12.625 C 13.835938 -11.894531 14.328125 -11.082031 14.671875 -10.1875 C 15.023438 -9.289062 15.203125 -8.363281 15.203125 -7.40625 C 15.203125 -6.425781 15.019531 -5.484375 14.65625 -4.578125 C 14.289062 -3.679688 13.78125 -2.878906 13.125 -2.171875 C 12.476562 -1.460938 11.707031 -0.90625 10.8125 -0.5 C 9.925781 -0.09375 8.960938 0.109375 7.921875 0.109375 Z M 3.59375 -7.453125 C 3.59375 -6.804688 3.6875 -6.179688 3.875 -5.578125 C 4.070312 -4.984375 4.359375 -4.453125 4.734375 -3.984375 C 5.109375 -3.515625 5.5625 -3.140625 6.09375 -2.859375 C 6.632812 -2.585938 7.25 -2.453125 7.9375 -2.453125 C 8.632812 -2.453125 9.253906 -2.59375 9.796875 -2.875 C 10.347656 -3.164062 10.804688 -3.550781 11.171875 -4.03125 C 11.535156 -4.519531 11.8125 -5.0625 12 -5.65625 C 12.1875 -6.25 12.28125 -6.847656 12.28125 -7.453125 C 12.28125 -8.097656 12.175781 -8.71875 11.96875 -9.3125 C 11.769531 -9.90625 11.484375 -10.4375 11.109375 -10.90625 C 10.742188 -11.375 10.289062 -11.742188 9.75 -12.015625 C 9.21875 -12.296875 8.613281 -12.4375 7.9375 -12.4375 C 7.21875 -12.4375 6.585938 -12.289062 6.046875 -12 C 5.515625 -11.71875 5.066406 -11.335938 4.703125 -10.859375 C 4.335938 -10.378906 4.0625 -9.84375 3.875 -9.25 C 3.6875 -8.664062 3.59375 -8.066406 3.59375 -7.453125 Z M 3.59375 -7.453125 "/></g></g></g><g fill="#ffffff" fill-opacity="1"><g transform="translate(228.330229, 232.033799)"><g/></g></g><g fill="#ffffff" fill-opacity="1"><g transform="translate(232.758635, 232.033799)"><g><path d="M 12.703125 -12.375 L 7.9375 -12.375 L 7.9375 0 L 5.0625 0 L 5.0625 -12.375 L 0.296875 -12.375 L 0.296875 -14.90625 L 12.703125 -14.90625 Z M 12.703125 -12.375 "/></g></g></g><g fill="#ffffff" fill-opacity="1"><g transform="translate(152.341533, 257.083855)"><g><path d="M 10.4375 -11 C 10.34375 -11.101562 10.164062 -11.238281 9.90625 -11.40625 C 9.644531 -11.570312 9.328125 -11.726562 8.953125 -11.875 C 8.585938 -12.03125 8.1875 -12.164062 7.75 -12.28125 C 7.3125 -12.40625 6.867188 -12.46875 6.421875 -12.46875 C 5.640625 -12.46875 5.046875 -12.320312 4.640625 -12.03125 C 4.242188 -11.738281 4.046875 -11.328125 4.046875 -10.796875 C 4.046875 -10.390625 4.171875 -10.066406 4.421875 -9.828125 C 4.679688 -9.585938 5.0625 -9.382812 5.5625 -9.21875 C 6.070312 -9.050781 6.703125 -8.867188 7.453125 -8.671875 C 8.429688 -8.429688 9.28125 -8.140625 10 -7.796875 C 10.726562 -7.453125 11.285156 -7.003906 11.671875 -6.453125 C 12.054688 -5.898438 12.25 -5.171875 12.25 -4.265625 C 12.25 -3.460938 12.097656 -2.773438 11.796875 -2.203125 C 11.503906 -1.640625 11.097656 -1.179688 10.578125 -0.828125 C 10.066406 -0.484375 9.476562 -0.226562 8.8125 -0.0625 C 8.15625 0.09375 7.457031 0.171875 6.71875 0.171875 C 5.976562 0.171875 5.234375 0.09375 4.484375 -0.0625 C 3.742188 -0.21875 3.03125 -0.4375 2.34375 -0.71875 C 1.664062 -1.007812 1.039062 -1.359375 0.46875 -1.765625 L 1.75 -4.265625 C 1.875 -4.140625 2.09375 -3.972656 2.40625 -3.765625 C 2.726562 -3.566406 3.117188 -3.363281 3.578125 -3.15625 C 4.046875 -2.957031 4.550781 -2.785156 5.09375 -2.640625 C 5.644531 -2.503906 6.203125 -2.4375 6.765625 -2.4375 C 7.546875 -2.4375 8.140625 -2.566406 8.546875 -2.828125 C 8.953125 -3.097656 9.15625 -3.476562 9.15625 -3.96875 C 9.15625 -4.414062 8.992188 -4.765625 8.671875 -5.015625 C 8.347656 -5.265625 7.898438 -5.484375 7.328125 -5.671875 C 6.753906 -5.867188 6.078125 -6.078125 5.296875 -6.296875 C 4.359375 -6.566406 3.570312 -6.863281 2.9375 -7.1875 C 2.3125 -7.519531 1.84375 -7.9375 1.53125 -8.4375 C 1.226562 -8.945312 1.078125 -9.578125 1.078125 -10.328125 C 1.078125 -11.347656 1.316406 -12.203125 1.796875 -12.890625 C 2.273438 -13.585938 2.925781 -14.113281 3.75 -14.46875 C 4.582031 -14.832031 5.503906 -15.015625 6.515625 -15.015625 C 7.210938 -15.015625 7.867188 -14.9375 8.484375 -14.78125 C 9.109375 -14.625 9.691406 -14.421875 10.234375 -14.171875 C 10.785156 -13.921875 11.28125 -13.648438 11.71875 -13.359375 Z M 10.4375 -11 "/></g></g></g><g fill="#ffffff" fill-opacity="1"><g transform="translate(165.207347, 257.083855)"><g/></g></g><g fill="#ffffff" fill-opacity="1"><g transform="translate(170.244532, 257.083855)"><g><path d="M 7.875 0.109375 C 6.6875 0.109375 5.675781 -0.0859375 4.84375 -0.484375 C 4.007812 -0.890625 3.335938 -1.441406 2.828125 -2.140625 C 2.316406 -2.835938 1.941406 -3.628906 1.703125 -4.515625 C 1.460938 -5.410156 1.34375 -6.34375 1.34375 -7.3125 L 1.34375 -14.90625 L 4.234375 -14.90625 L 4.234375 -7.3125 C 4.234375 -6.695312 4.289062 -6.097656 4.40625 -5.515625 C 4.53125 -4.929688 4.734375 -4.40625 5.015625 -3.9375 C 5.296875 -3.476562 5.664062 -3.113281 6.125 -2.84375 C 6.59375 -2.582031 7.171875 -2.453125 7.859375 -2.453125 C 8.554688 -2.453125 9.140625 -2.585938 9.609375 -2.859375 C 10.078125 -3.140625 10.445312 -3.507812 10.71875 -3.96875 C 10.988281 -4.425781 11.1875 -4.945312 11.3125 -5.53125 C 11.445312 -6.113281 11.515625 -6.707031 11.515625 -7.3125 L 11.515625 -14.90625 L 14.390625 -14.90625 L 14.390625 -7.3125 C 14.390625 -6.289062 14.265625 -5.332031 14.015625 -4.4375 C 13.773438 -3.539062 13.390625 -2.75 12.859375 -2.0625 C 12.335938 -1.382812 11.660156 -0.851562 10.828125 -0.46875 C 10.003906 -0.0820312 9.019531 0.109375 7.875 0.109375 Z M 7.875 0.109375 "/></g></g></g><g fill="#ffffff" fill-opacity="1"><g transform="translate(185.985742, 257.083855)"><g/></g></g><g fill="#ffffff" fill-opacity="1"><g transform="translate(191.022927, 257.083855)"><g><path d="M 1.546875 0 L 1.546875 -14.90625 L 8.140625 -14.90625 C 8.828125 -14.90625 9.460938 -14.765625 10.046875 -14.484375 C 10.628906 -14.203125 11.132812 -13.820312 11.5625 -13.34375 C 11.988281 -12.875 12.316406 -12.34375 12.546875 -11.75 C 12.773438 -11.164062 12.890625 -10.566406 12.890625 -9.953125 C 12.890625 -9.328125 12.78125 -8.722656 12.5625 -8.140625 C 12.351562 -7.554688 12.046875 -7.046875 11.640625 -6.609375 C 11.234375 -6.179688 10.753906 -5.847656 10.203125 -5.609375 L 13.609375 0 L 10.421875 0 L 7.34375 -5 L 4.453125 -5 L 4.453125 0 Z M 4.453125 -7.53125 L 8.078125 -7.53125 C 8.441406 -7.53125 8.765625 -7.640625 9.046875 -7.859375 C 9.328125 -8.078125 9.550781 -8.367188 9.71875 -8.734375 C 9.882812 -9.097656 9.96875 -9.503906 9.96875 -9.953125 C 9.96875 -10.429688 9.867188 -10.847656 9.671875 -11.203125 C 9.484375 -11.554688 9.238281 -11.835938 8.9375 -12.046875 C 8.632812 -12.265625 8.304688 -12.375 7.953125 -12.375 L 4.453125 -12.375 Z M 4.453125 -7.53125 "/></g></g></g><g fill="#ffffff" fill-opacity="1"><g transform="translate(204.980141, 257.083855)"><g/></g></g><g fill="#ffffff" fill-opacity="1"><g transform="translate(210.017326, 257.083855)"><g><path d="M 11.90625 -2.546875 L 11.90625 0 L 1.546875 0 L 1.546875 -14.90625 L 11.71875 -14.90625 L 11.71875 -12.375 L 4.453125 -12.375 L 4.453125 -8.78125 L 10.734375 -8.78125 L 10.734375 -6.421875 L 4.453125 -6.421875 L 4.453125 -2.546875 Z M 11.90625 -2.546875 "/></g></g></g></svg>