<svg xmlns="http://www.w3.org/2000/svg" xmlns:xlink="http://www.w3.org/1999/xlink" width="500" zoomAndPan="magnify" viewBox="0 0 375 374.999991" height="500" preserveAspectRatio="xMidYMid meet" version="1.0"><defs><g/><clipPath id="1d0ec2b9c6"><path d="M 40.5 6.976562 L 334.5 6.976562 L 334.5 300.976562 L 40.5 300.976562 Z M 40.5 6.976562 " clip-rule="nonzero"/></clipPath><clipPath id="3e5f2b2604"><path d="M 187.5 6.976562 C 106.3125 6.976562 40.5 72.789062 40.5 153.976562 C 40.5 235.160156 106.3125 300.976562 187.5 300.976562 C 268.6875 300.976562 334.5 235.160156 334.5 153.976562 C 334.5 72.789062 268.6875 6.976562 187.5 6.976562 Z M 187.5 6.976562 " clip-rule="nonzero"/></clipPath><clipPath id="d64a597e26"><path d="M 0.5 0.976562 L 294.5 0.976562 L 294.5 294.976562 L 0.5 294.976562 Z M 0.5 0.976562 " clip-rule="nonzero"/></clipPath><clipPath id="08e9e80376"><path d="M 147.5 0.976562 C 66.3125 0.976562 0.5 66.789062 0.5 147.976562 C 0.5 229.160156 66.3125 294.976562 147.5 294.976562 C 228.6875 294.976562 294.5 229.160156 294.5 147.976562 C 294.5 66.789062 228.6875 0.976562 147.5 0.976562 Z M 147.5 0.976562 " clip-rule="nonzero"/></clipPath><clipPath id="4c2b53996f"><rect x="0" width="295" y="0" height="295"/></clipPath><clipPath id="1ceb93fe02"><path d="M 120.222656 41.847656 L 254.472656 41.847656 L 254.472656 266.097656 L 120.222656 266.097656 Z M 120.222656 41.847656 " clip-rule="nonzero"/></clipPath></defs><g clip-path="url(#1d0ec2b9c6)"><g clip-path="url(#3e5f2b2604)"><g transform="matrix(1, 0, 0, 1, 40, 6)"><g clip-path="url(#4c2b53996f)"><g clip-path="url(#d64a597e26)"><g clip-path="url(#08e9e80376)"><path fill="#595959" d="M 0.5 0.976562 L 294.5 0.976562 L 294.5 294.976562 L 0.5 294.976562 Z M 0.5 0.976562 " fill-opacity="1" fill-rule="nonzero"/></g></g></g></g></g></g><g clip-path="url(#1ceb93fe02)"><path fill="#ffffff" d="M 187.496094 232.457031 C 196.777344 232.457031 204.3125 239.992188 204.3125 249.273438 C 204.3125 258.558594 196.777344 266.09375 187.496094 266.09375 C 178.210938 266.09375 170.675781 258.558594 170.675781 249.273438 C 170.675781 239.992188 178.210938 232.457031 187.496094 232.457031 Z M 187.496094 41.855469 C 224.652344 41.855469 254.765625 71.96875 254.765625 109.125 C 254.765625 133.398438 246.324219 146.011719 224.785156 164.320312 C 203.179688 182.675781 198.707031 190.9375 198.707031 210.03125 L 176.285156 210.03125 C 176.285156 182.292969 185.105469 168.605469 210.265625 147.234375 C 227.273438 132.78125 232.34375 125.203125 232.34375 109.125 C 232.34375 84.347656 212.273438 64.277344 187.496094 64.277344 C 162.71875 64.277344 142.648438 84.347656 142.648438 109.125 L 142.648438 120.335938 L 120.222656 120.335938 L 120.222656 109.125 C 120.222656 71.96875 150.339844 41.855469 187.496094 41.855469 Z M 187.496094 41.855469 " fill-opacity="1" fill-rule="nonzero"/></g><g fill="#595959" fill-opacity="1"><g transform="translate(84.819205, 335.525018)"><g><path d="M 2.734375 0 L 2.734375 -26.265625 L 7.84375 -26.265625 L 7.84375 0 Z M 2.734375 0 "/></g></g></g><g fill="#595959" fill-opacity="1"><g transform="translate(95.401235, 335.525018)"><g/></g></g><g fill="#595959" fill-opacity="1"><g transform="translate(104.280294, 335.525018)"><g/></g></g><g fill="#595959" fill-opacity="1"><g transform="translate(112.018422, 335.525018)"><g><path d="M 9.875 -26.265625 L 15.0625 -26.265625 L 24.71875 0 L 19.46875 0 L 17.015625 -6.546875 L 7.84375 -6.546875 L 5.4375 0 L 0.1875 0 Z M 16.09375 -10.140625 L 12.46875 -20.984375 L 8.6875 -10.140625 Z M 16.09375 -10.140625 "/></g></g></g><g fill="#595959" fill-opacity="1"><g transform="translate(135.732855, 335.525018)"><g/></g></g><g fill="#595959" fill-opacity="1"><g transform="translate(144.611914, 335.525018)"><g><path d="M 24.15625 0 L 24.15625 -17.234375 L 17.421875 -4.40625 L 14.578125 -4.40625 L 7.84375 -17.234375 L 7.84375 0 L 2.734375 0 L 2.734375 -26.265625 L 8.21875 -26.265625 L 15.984375 -11.328125 L 23.828125 -26.265625 L 29.265625 -26.265625 L 29.265625 0 Z M 24.15625 0 "/></g></g></g><g fill="#595959" fill-opacity="1"><g transform="translate(176.623886, 335.525018)"><g/></g></g><g fill="#595959" fill-opacity="1"><g transform="translate(185.502944, 335.525018)"><g/></g></g><g fill="#595959" fill-opacity="1"><g transform="translate(194.38951, 335.525018)"><g><path d="M 7.84375 -16.875 L 7.84375 0 L 2.734375 0 L 2.734375 -26.265625 L 6.8125 -26.265625 L 20.390625 -8.953125 L 20.390625 -26.234375 L 25.5 -26.234375 L 25.5 0 L 21.234375 0 Z M 7.84375 -16.875 "/></g></g></g><g fill="#595959" fill-opacity="1"><g transform="translate(222.617505, 335.525018)"><g/></g></g><g fill="#595959" fill-opacity="1"><g transform="translate(231.496563, 335.525018)"><g><path d="M 13.953125 0.1875 C 12.023438 0.1875 10.273438 -0.179688 8.703125 -0.921875 C 7.140625 -1.660156 5.796875 -2.664062 4.671875 -3.9375 C 3.554688 -5.207031 2.6875 -6.640625 2.0625 -8.234375 C 1.445312 -9.828125 1.140625 -11.460938 1.140625 -13.140625 C 1.140625 -14.890625 1.46875 -16.554688 2.125 -18.140625 C 2.78125 -19.734375 3.679688 -21.148438 4.828125 -22.390625 C 5.972656 -23.640625 7.328125 -24.628906 8.890625 -25.359375 C 10.460938 -26.085938 12.1875 -26.453125 14.0625 -26.453125 C 15.957031 -26.453125 17.6875 -26.066406 19.25 -25.296875 C 20.820312 -24.535156 22.160156 -23.515625 23.265625 -22.234375 C 24.378906 -20.953125 25.242188 -19.519531 25.859375 -17.9375 C 26.472656 -16.363281 26.78125 -14.738281 26.78125 -13.0625 C 26.78125 -11.332031 26.457031 -9.671875 25.8125 -8.078125 C 25.175781 -6.492188 24.285156 -5.078125 23.140625 -3.828125 C 21.992188 -2.585938 20.632812 -1.609375 19.0625 -0.890625 C 17.5 -0.171875 15.796875 0.1875 13.953125 0.1875 Z M 6.328125 -13.140625 C 6.328125 -12.003906 6.5 -10.90625 6.84375 -9.84375 C 7.1875 -8.78125 7.6875 -7.832031 8.34375 -7 C 9 -6.175781 9.800781 -5.523438 10.75 -5.046875 C 11.695312 -4.566406 12.773438 -4.328125 13.984375 -4.328125 C 15.222656 -4.328125 16.320312 -4.578125 17.28125 -5.078125 C 18.238281 -5.585938 19.035156 -6.269531 19.671875 -7.125 C 20.316406 -7.976562 20.804688 -8.925781 21.140625 -9.96875 C 21.472656 -11.019531 21.640625 -12.078125 21.640625 -13.140625 C 21.640625 -14.273438 21.460938 -15.363281 21.109375 -16.40625 C 20.753906 -17.457031 20.25 -18.394531 19.59375 -19.21875 C 18.9375 -20.050781 18.132812 -20.707031 17.1875 -21.1875 C 16.238281 -21.664062 15.171875 -21.90625 13.984375 -21.90625 C 12.722656 -21.90625 11.617188 -21.648438 10.671875 -21.140625 C 9.722656 -20.640625 8.925781 -19.96875 8.28125 -19.125 C 7.644531 -18.289062 7.160156 -17.351562 6.828125 -16.3125 C 6.492188 -15.28125 6.328125 -14.222656 6.328125 -13.140625 Z M 6.328125 -13.140625 "/></g></g></g><g fill="#595959" fill-opacity="1"><g transform="translate(259.46559, 335.525018)"><g/></g></g><g fill="#595959" fill-opacity="1"><g transform="translate(267.271719, 335.525018)"><g><path d="M 22.390625 -21.796875 L 13.984375 -21.796875 L 13.984375 0 L 8.921875 0 L 8.921875 -21.796875 L 0.515625 -21.796875 L 0.515625 -26.265625 L 22.390625 -26.265625 Z M 22.390625 -21.796875 "/></g></g></g><g fill="#595959" fill-opacity="1"><g transform="translate(133.07591, 370.550016)"><g><path d="M 18.390625 -19.390625 C 18.210938 -19.554688 17.894531 -19.785156 17.4375 -20.078125 C 16.988281 -20.378906 16.4375 -20.664062 15.78125 -20.9375 C 15.125 -21.207031 14.410156 -21.445312 13.640625 -21.65625 C 12.878906 -21.875 12.109375 -21.984375 11.328125 -21.984375 C 9.941406 -21.984375 8.894531 -21.722656 8.1875 -21.203125 C 7.488281 -20.679688 7.140625 -19.953125 7.140625 -19.015625 C 7.140625 -18.296875 7.359375 -17.726562 7.796875 -17.3125 C 8.242188 -16.894531 8.910156 -16.535156 9.796875 -16.234375 C 10.691406 -15.941406 11.804688 -15.625 13.140625 -15.28125 C 14.859375 -14.863281 16.351562 -14.351562 17.625 -13.75 C 18.894531 -13.144531 19.867188 -12.351562 20.546875 -11.375 C 21.234375 -10.40625 21.578125 -9.117188 21.578125 -7.515625 C 21.578125 -6.109375 21.316406 -4.90625 20.796875 -3.90625 C 20.273438 -2.90625 19.554688 -2.097656 18.640625 -1.484375 C 17.734375 -0.867188 16.695312 -0.414062 15.53125 -0.125 C 14.375 0.15625 13.144531 0.296875 11.84375 0.296875 C 10.53125 0.296875 9.21875 0.160156 7.90625 -0.109375 C 6.601562 -0.378906 5.347656 -0.765625 4.140625 -1.265625 C 2.929688 -1.773438 1.820312 -2.390625 0.8125 -3.109375 L 3.078125 -7.515625 C 3.296875 -7.285156 3.6875 -6.992188 4.25 -6.640625 C 4.820312 -6.285156 5.515625 -5.925781 6.328125 -5.5625 C 7.140625 -5.207031 8.023438 -4.90625 8.984375 -4.65625 C 9.953125 -4.414062 10.925781 -4.296875 11.90625 -4.296875 C 13.289062 -4.296875 14.335938 -4.53125 15.046875 -5 C 15.765625 -5.46875 16.125 -6.132812 16.125 -7 C 16.125 -7.78125 15.84375 -8.394531 15.28125 -8.84375 C 14.71875 -9.289062 13.925781 -9.679688 12.90625 -10.015625 C 11.894531 -10.347656 10.703125 -10.707031 9.328125 -11.09375 C 7.671875 -11.5625 6.285156 -12.085938 5.171875 -12.671875 C 4.066406 -13.253906 3.242188 -13.988281 2.703125 -14.875 C 2.160156 -15.757812 1.890625 -16.867188 1.890625 -18.203125 C 1.890625 -20.003906 2.3125 -21.515625 3.15625 -22.734375 C 4.007812 -23.953125 5.164062 -24.875 6.625 -25.5 C 8.082031 -26.132812 9.695312 -26.453125 11.46875 -26.453125 C 12.695312 -26.453125 13.859375 -26.316406 14.953125 -26.046875 C 16.054688 -25.773438 17.085938 -25.414062 18.046875 -24.96875 C 19.015625 -24.53125 19.878906 -24.050781 20.640625 -23.53125 Z M 18.390625 -19.390625 "/></g></g></g><g fill="#595959" fill-opacity="1"><g transform="translate(155.754493, 370.550016)"><g/></g></g><g fill="#595959" fill-opacity="1"><g transform="translate(164.633551, 370.550016)"><g><path d="M 13.875 0.1875 C 11.78125 0.1875 10 -0.160156 8.53125 -0.859375 C 7.0625 -1.566406 5.875 -2.535156 4.96875 -3.765625 C 4.070312 -5.003906 3.414062 -6.40625 3 -7.96875 C 2.582031 -9.539062 2.375 -11.175781 2.375 -12.875 L 2.375 -26.265625 L 7.46875 -26.265625 L 7.46875 -12.875 C 7.46875 -11.789062 7.570312 -10.734375 7.78125 -9.703125 C 8 -8.679688 8.351562 -7.765625 8.84375 -6.953125 C 9.332031 -6.140625 9.984375 -5.5 10.796875 -5.03125 C 11.617188 -4.5625 12.632812 -4.328125 13.84375 -4.328125 C 15.070312 -4.328125 16.097656 -4.566406 16.921875 -5.046875 C 17.753906 -5.523438 18.410156 -6.171875 18.890625 -6.984375 C 19.367188 -7.804688 19.71875 -8.726562 19.9375 -9.75 C 20.164062 -10.769531 20.28125 -11.8125 20.28125 -12.875 L 20.28125 -26.265625 L 25.34375 -26.265625 L 25.34375 -12.875 C 25.34375 -11.070312 25.125 -9.378906 24.6875 -7.796875 C 24.257812 -6.222656 23.582031 -4.835938 22.65625 -3.640625 C 21.738281 -2.441406 20.550781 -1.503906 19.09375 -0.828125 C 17.632812 -0.148438 15.894531 0.1875 13.875 0.1875 Z M 13.875 0.1875 "/></g></g></g><g fill="#595959" fill-opacity="1"><g transform="translate(192.380597, 370.550016)"><g/></g></g><g fill="#595959" fill-opacity="1"><g transform="translate(201.259655, 370.550016)"><g><path d="M 2.734375 0 L 2.734375 -26.265625 L 14.359375 -26.265625 C 15.566406 -26.265625 16.679688 -26.019531 17.703125 -25.53125 C 18.722656 -25.039062 19.609375 -24.375 20.359375 -23.53125 C 21.117188 -22.695312 21.703125 -21.757812 22.109375 -20.71875 C 22.515625 -19.6875 22.71875 -18.625 22.71875 -17.53125 C 22.71875 -16.425781 22.523438 -15.359375 22.140625 -14.328125 C 21.765625 -13.304688 21.21875 -12.414062 20.5 -11.65625 C 19.78125 -10.894531 18.941406 -10.300781 17.984375 -9.875 L 23.96875 0 L 18.359375 0 L 12.953125 -8.8125 L 7.84375 -8.8125 L 7.84375 0 Z M 7.84375 -13.28125 L 14.25 -13.28125 C 14.882812 -13.28125 15.445312 -13.472656 15.9375 -13.859375 C 16.4375 -14.242188 16.832031 -14.753906 17.125 -15.390625 C 17.425781 -16.035156 17.578125 -16.75 17.578125 -17.53125 C 17.578125 -18.375 17.398438 -19.109375 17.046875 -19.734375 C 16.703125 -20.367188 16.265625 -20.867188 15.734375 -21.234375 C 15.210938 -21.609375 14.640625 -21.796875 14.015625 -21.796875 L 7.84375 -21.796875 Z M 7.84375 -13.28125 "/></g></g></g><g fill="#595959" fill-opacity="1"><g transform="translate(225.862036, 370.550016)"><g/></g></g><g fill="#595959" fill-opacity="1"><g transform="translate(234.741094, 370.550016)"><g><path d="M 20.984375 -4.484375 L 20.984375 0 L 2.734375 0 L 2.734375 -26.265625 L 20.640625 -26.265625 L 20.640625 -21.796875 L 7.84375 -21.796875 L 7.84375 -15.46875 L 18.90625 -15.46875 L 18.90625 -11.328125 L 7.84375 -11.328125 L 7.84375 -4.484375 Z M 20.984375 -4.484375 "/></g></g></g></svg>